M48
; DRILL file {KiCad 8.0.0} date 2024-03-09T23:30:36+0100
; FORMAT={-:-/ absolute / metric / decimal}
; #@! TF.CreationDate,2024-03-09T23:30:36+01:00
; #@! TF.GenerationSoftware,Kicad,Pcbnew,8.0.0
; #@! TF.FileFunction,Plated,1,2,PTH
FMAT,2
METRIC
; #@! TA.AperFunction,Plated,PTH,ViaDrill
T1C0.300
; #@! TA.AperFunction,Plated,PTH,ComponentDrill
T2C0.800
; #@! TA.AperFunction,Plated,PTH,ComponentDrill
T3C1.000
%
G90
G05
T1
X66.0Y-98.0
X83.0Y-98.0
X90.0Y-59.0
X90.0Y-72.0
X92.0Y-66.0
X97.0Y-65.0
X97.0Y-73.0
X97.0Y-76.0
X99.0Y-60.0
T2
X49.0Y-66.46
X49.0Y-69.0
X49.0Y-71.54
X49.0Y-80.0
X49.0Y-82.54
X49.0Y-85.08
X54.19Y-71.0
X54.19Y-75.0
X54.19Y-79.0
X54.19Y-83.0
X54.38Y-52.0
X54.38Y-56.0
X54.38Y-60.0
X54.38Y-64.0
X54.38Y-67.5
X58.5Y-89.0
X58.5Y-93.0
X61.81Y-71.0
X61.81Y-75.0
X61.81Y-79.0
X61.81Y-83.0
X62.0Y-52.0
X62.0Y-56.0
X62.0Y-60.0
X62.0Y-64.0
X62.0Y-67.5
X63.5Y-89.0
X63.5Y-93.0
X64.38Y-56.0
X64.38Y-60.0
X65.2Y-65.38
X65.2Y-67.92
X65.2Y-70.46
X65.2Y-73.0
X66.0Y-50.0
X66.0Y-76.0
X66.0Y-83.62
X68.0Y-87.19
X68.0Y-94.81
X68.54Y-50.0
X70.19Y-83.0
X71.08Y-50.0
X72.0Y-56.0
X72.0Y-60.0
X72.0Y-89.5
X72.0Y-94.5
X72.82Y-65.38
X72.82Y-67.92
X72.82Y-70.46
X72.82Y-73.0
X74.38Y-56.0
X74.38Y-60.0
X75.0Y-89.5
X75.0Y-94.5
X77.0Y-64.0
X77.0Y-71.62
X77.81Y-83.0
X79.0Y-87.19
X79.0Y-94.81
X79.19Y-50.0
X81.0Y-64.0
X81.0Y-71.62
X82.0Y-56.0
X82.0Y-60.0
X82.81Y-87.19
X82.81Y-94.81
X86.81Y-50.0
X87.2Y-56.1
X87.2Y-58.64
X87.2Y-61.18
X87.2Y-63.72
X87.2Y-66.26
X87.2Y-68.8
X87.2Y-71.34
X87.2Y-73.88
X87.2Y-79.375
X87.2Y-81.915
X87.2Y-84.455
X87.2Y-86.995
X87.2Y-89.535
X87.2Y-92.075
X87.2Y-94.615
X90.0Y-50.0
X94.82Y-56.1
X94.82Y-58.64
X94.82Y-61.18
X94.82Y-63.72
X94.82Y-66.26
X94.82Y-68.8
X94.82Y-71.34
X94.82Y-73.88
X94.82Y-79.375
X94.82Y-81.915
X94.82Y-84.455
X94.82Y-86.995
X94.82Y-89.535
X94.82Y-92.075
X94.82Y-94.615
X97.62Y-50.0
X99.0Y-55.19
X99.0Y-62.81
X99.0Y-67.0
X99.0Y-74.62
X99.0Y-77.19
X99.0Y-84.81
T3
X47.46Y-52.0
X47.46Y-59.0
X48.0Y-92.0
X48.0Y-98.0
X50.0Y-52.0
X50.0Y-59.0
X50.54Y-92.0
X50.54Y-98.0
X56.0Y-38.0
X56.0Y-40.54
X56.0Y-43.08
X60.265Y-101.735
X62.805Y-101.735
X64.22Y-37.46
X64.22Y-40.0
X66.76Y-37.46
X66.76Y-40.0
X69.0Y-102.0
X69.3Y-37.46
X69.3Y-40.0
X71.54Y-102.0
X71.84Y-37.46
X71.84Y-40.0
X72.0Y-78.0
X74.38Y-37.46
X74.38Y-40.0
X76.92Y-37.46
X76.92Y-40.0
X78.0Y-102.0
X79.46Y-37.46
X79.46Y-40.0
X80.54Y-102.0
X82.0Y-37.46
X82.0Y-40.0
X82.0Y-78.0
X90.0Y-37.92
X90.0Y-40.46
X90.0Y-43.0
M30
