%TF.GenerationSoftware,KiCad,Pcbnew,8.0.0*%
%TF.CreationDate,2024-03-09T23:27:07+01:00*%
%TF.ProjectId,Pure VCO,50757265-2056-4434-9f2e-6b696361645f,rev?*%
%TF.SameCoordinates,Original*%
%TF.FileFunction,Legend,Bot*%
%TF.FilePolarity,Positive*%
%FSLAX46Y46*%
G04 Gerber Fmt 4.6, Leading zero omitted, Abs format (unit mm)*
G04 Created by KiCad (PCBNEW 8.0.0) date 2024-03-09 23:27:07*
%MOMM*%
%LPD*%
G01*
G04 APERTURE LIST*
G04 Aperture macros list*
%AMRoundRect*
0 Rectangle with rounded corners*
0 $1 Rounding radius*
0 $2 $3 $4 $5 $6 $7 $8 $9 X,Y pos of 4 corners*
0 Add a 4 corners polygon primitive as box body*
4,1,4,$2,$3,$4,$5,$6,$7,$8,$9,$2,$3,0*
0 Add four circle primitives for the rounded corners*
1,1,$1+$1,$2,$3*
1,1,$1+$1,$4,$5*
1,1,$1+$1,$6,$7*
1,1,$1+$1,$8,$9*
0 Add four rect primitives between the rounded corners*
20,1,$1+$1,$2,$3,$4,$5,0*
20,1,$1+$1,$4,$5,$6,$7,0*
20,1,$1+$1,$6,$7,$8,$9,0*
20,1,$1+$1,$8,$9,$2,$3,0*%
G04 Aperture macros list end*
%ADD10C,0.300000*%
%ADD11C,1.600000*%
%ADD12C,1.440000*%
%ADD13O,1.600000X1.600000*%
%ADD14R,1.700000X1.700000*%
%ADD15O,1.700000X1.700000*%
%ADD16R,1.600000X1.600000*%
%ADD17RoundRect,0.250000X0.600000X-0.600000X0.600000X0.600000X-0.600000X0.600000X-0.600000X-0.600000X0*%
%ADD18C,1.700000*%
%ADD19C,2.000000*%
G04 APERTURE END LIST*
D10*
X96659774Y-101885912D02*
X96159774Y-103385912D01*
X96159774Y-103385912D02*
X95659774Y-101885912D01*
X94588346Y-103314484D02*
X94731203Y-103385912D01*
X94731203Y-103385912D02*
X95016918Y-103385912D01*
X95016918Y-103385912D02*
X95159775Y-103314484D01*
X95159775Y-103314484D02*
X95231203Y-103171626D01*
X95231203Y-103171626D02*
X95231203Y-102600198D01*
X95231203Y-102600198D02*
X95159775Y-102457341D01*
X95159775Y-102457341D02*
X95016918Y-102385912D01*
X95016918Y-102385912D02*
X94731203Y-102385912D01*
X94731203Y-102385912D02*
X94588346Y-102457341D01*
X94588346Y-102457341D02*
X94516918Y-102600198D01*
X94516918Y-102600198D02*
X94516918Y-102743055D01*
X94516918Y-102743055D02*
X95231203Y-102885912D01*
X93874061Y-103385912D02*
X93874061Y-102385912D01*
X93874061Y-102671626D02*
X93802632Y-102528769D01*
X93802632Y-102528769D02*
X93731204Y-102457341D01*
X93731204Y-102457341D02*
X93588346Y-102385912D01*
X93588346Y-102385912D02*
X93445489Y-102385912D01*
X93016918Y-103314484D02*
X92874061Y-103385912D01*
X92874061Y-103385912D02*
X92588347Y-103385912D01*
X92588347Y-103385912D02*
X92445490Y-103314484D01*
X92445490Y-103314484D02*
X92374061Y-103171626D01*
X92374061Y-103171626D02*
X92374061Y-103100198D01*
X92374061Y-103100198D02*
X92445490Y-102957341D01*
X92445490Y-102957341D02*
X92588347Y-102885912D01*
X92588347Y-102885912D02*
X92802633Y-102885912D01*
X92802633Y-102885912D02*
X92945490Y-102814484D01*
X92945490Y-102814484D02*
X93016918Y-102671626D01*
X93016918Y-102671626D02*
X93016918Y-102600198D01*
X93016918Y-102600198D02*
X92945490Y-102457341D01*
X92945490Y-102457341D02*
X92802633Y-102385912D01*
X92802633Y-102385912D02*
X92588347Y-102385912D01*
X92588347Y-102385912D02*
X92445490Y-102457341D01*
X91731204Y-103385912D02*
X91731204Y-102385912D01*
X91731204Y-101885912D02*
X91802632Y-101957341D01*
X91802632Y-101957341D02*
X91731204Y-102028769D01*
X91731204Y-102028769D02*
X91659775Y-101957341D01*
X91659775Y-101957341D02*
X91731204Y-101885912D01*
X91731204Y-101885912D02*
X91731204Y-102028769D01*
X90802632Y-103385912D02*
X90945489Y-103314484D01*
X90945489Y-103314484D02*
X91016918Y-103243055D01*
X91016918Y-103243055D02*
X91088346Y-103100198D01*
X91088346Y-103100198D02*
X91088346Y-102671626D01*
X91088346Y-102671626D02*
X91016918Y-102528769D01*
X91016918Y-102528769D02*
X90945489Y-102457341D01*
X90945489Y-102457341D02*
X90802632Y-102385912D01*
X90802632Y-102385912D02*
X90588346Y-102385912D01*
X90588346Y-102385912D02*
X90445489Y-102457341D01*
X90445489Y-102457341D02*
X90374061Y-102528769D01*
X90374061Y-102528769D02*
X90302632Y-102671626D01*
X90302632Y-102671626D02*
X90302632Y-103100198D01*
X90302632Y-103100198D02*
X90374061Y-103243055D01*
X90374061Y-103243055D02*
X90445489Y-103314484D01*
X90445489Y-103314484D02*
X90588346Y-103385912D01*
X90588346Y-103385912D02*
X90802632Y-103385912D01*
X89659775Y-102385912D02*
X89659775Y-103385912D01*
X89659775Y-102528769D02*
X89588346Y-102457341D01*
X89588346Y-102457341D02*
X89445489Y-102385912D01*
X89445489Y-102385912D02*
X89231203Y-102385912D01*
X89231203Y-102385912D02*
X89088346Y-102457341D01*
X89088346Y-102457341D02*
X89016918Y-102600198D01*
X89016918Y-102600198D02*
X89016918Y-103385912D01*
X86374060Y-103385912D02*
X87231203Y-103385912D01*
X86802632Y-103385912D02*
X86802632Y-101885912D01*
X86802632Y-101885912D02*
X86945489Y-102100198D01*
X86945489Y-102100198D02*
X87088346Y-102243055D01*
X87088346Y-102243055D02*
X87231203Y-102314484D01*
X96445489Y-105800828D02*
X96445489Y-104300828D01*
X96445489Y-104300828D02*
X95945489Y-105372257D01*
X95945489Y-105372257D02*
X95445489Y-104300828D01*
X95445489Y-104300828D02*
X95445489Y-105800828D01*
X94088346Y-105800828D02*
X94088346Y-105015114D01*
X94088346Y-105015114D02*
X94159774Y-104872257D01*
X94159774Y-104872257D02*
X94302631Y-104800828D01*
X94302631Y-104800828D02*
X94588346Y-104800828D01*
X94588346Y-104800828D02*
X94731203Y-104872257D01*
X94088346Y-105729400D02*
X94231203Y-105800828D01*
X94231203Y-105800828D02*
X94588346Y-105800828D01*
X94588346Y-105800828D02*
X94731203Y-105729400D01*
X94731203Y-105729400D02*
X94802631Y-105586542D01*
X94802631Y-105586542D02*
X94802631Y-105443685D01*
X94802631Y-105443685D02*
X94731203Y-105300828D01*
X94731203Y-105300828D02*
X94588346Y-105229400D01*
X94588346Y-105229400D02*
X94231203Y-105229400D01*
X94231203Y-105229400D02*
X94088346Y-105157971D01*
X93374060Y-105800828D02*
X93374060Y-104800828D01*
X93374060Y-105086542D02*
X93302631Y-104943685D01*
X93302631Y-104943685D02*
X93231203Y-104872257D01*
X93231203Y-104872257D02*
X93088345Y-104800828D01*
X93088345Y-104800828D02*
X92945488Y-104800828D01*
X91802632Y-105729400D02*
X91945489Y-105800828D01*
X91945489Y-105800828D02*
X92231203Y-105800828D01*
X92231203Y-105800828D02*
X92374060Y-105729400D01*
X92374060Y-105729400D02*
X92445489Y-105657971D01*
X92445489Y-105657971D02*
X92516917Y-105515114D01*
X92516917Y-105515114D02*
X92516917Y-105086542D01*
X92516917Y-105086542D02*
X92445489Y-104943685D01*
X92445489Y-104943685D02*
X92374060Y-104872257D01*
X92374060Y-104872257D02*
X92231203Y-104800828D01*
X92231203Y-104800828D02*
X91945489Y-104800828D01*
X91945489Y-104800828D02*
X91802632Y-104872257D01*
X91159775Y-105800828D02*
X91159775Y-104300828D01*
X90516918Y-105800828D02*
X90516918Y-105015114D01*
X90516918Y-105015114D02*
X90588346Y-104872257D01*
X90588346Y-104872257D02*
X90731203Y-104800828D01*
X90731203Y-104800828D02*
X90945489Y-104800828D01*
X90945489Y-104800828D02*
X91088346Y-104872257D01*
X91088346Y-104872257D02*
X91159775Y-104943685D01*
X88445489Y-104943685D02*
X88588346Y-104872257D01*
X88588346Y-104872257D02*
X88659775Y-104800828D01*
X88659775Y-104800828D02*
X88731203Y-104657971D01*
X88731203Y-104657971D02*
X88731203Y-104586542D01*
X88731203Y-104586542D02*
X88659775Y-104443685D01*
X88659775Y-104443685D02*
X88588346Y-104372257D01*
X88588346Y-104372257D02*
X88445489Y-104300828D01*
X88445489Y-104300828D02*
X88159775Y-104300828D01*
X88159775Y-104300828D02*
X88016918Y-104372257D01*
X88016918Y-104372257D02*
X87945489Y-104443685D01*
X87945489Y-104443685D02*
X87874060Y-104586542D01*
X87874060Y-104586542D02*
X87874060Y-104657971D01*
X87874060Y-104657971D02*
X87945489Y-104800828D01*
X87945489Y-104800828D02*
X88016918Y-104872257D01*
X88016918Y-104872257D02*
X88159775Y-104943685D01*
X88159775Y-104943685D02*
X88445489Y-104943685D01*
X88445489Y-104943685D02*
X88588346Y-105015114D01*
X88588346Y-105015114D02*
X88659775Y-105086542D01*
X88659775Y-105086542D02*
X88731203Y-105229400D01*
X88731203Y-105229400D02*
X88731203Y-105515114D01*
X88731203Y-105515114D02*
X88659775Y-105657971D01*
X88659775Y-105657971D02*
X88588346Y-105729400D01*
X88588346Y-105729400D02*
X88445489Y-105800828D01*
X88445489Y-105800828D02*
X88159775Y-105800828D01*
X88159775Y-105800828D02*
X88016918Y-105729400D01*
X88016918Y-105729400D02*
X87945489Y-105657971D01*
X87945489Y-105657971D02*
X87874060Y-105515114D01*
X87874060Y-105515114D02*
X87874060Y-105229400D01*
X87874060Y-105229400D02*
X87945489Y-105086542D01*
X87945489Y-105086542D02*
X88016918Y-105015114D01*
X88016918Y-105015114D02*
X88159775Y-104943685D01*
X87445489Y-104800828D02*
X86874061Y-104800828D01*
X87231204Y-104300828D02*
X87231204Y-105586542D01*
X87231204Y-105586542D02*
X87159775Y-105729400D01*
X87159775Y-105729400D02*
X87016918Y-105800828D01*
X87016918Y-105800828D02*
X86874061Y-105800828D01*
X86374061Y-105800828D02*
X86374061Y-104300828D01*
X85731204Y-105800828D02*
X85731204Y-105015114D01*
X85731204Y-105015114D02*
X85802632Y-104872257D01*
X85802632Y-104872257D02*
X85945489Y-104800828D01*
X85945489Y-104800828D02*
X86159775Y-104800828D01*
X86159775Y-104800828D02*
X86302632Y-104872257D01*
X86302632Y-104872257D02*
X86374061Y-104943685D01*
X83945489Y-104443685D02*
X83874061Y-104372257D01*
X83874061Y-104372257D02*
X83731204Y-104300828D01*
X83731204Y-104300828D02*
X83374061Y-104300828D01*
X83374061Y-104300828D02*
X83231204Y-104372257D01*
X83231204Y-104372257D02*
X83159775Y-104443685D01*
X83159775Y-104443685D02*
X83088346Y-104586542D01*
X83088346Y-104586542D02*
X83088346Y-104729400D01*
X83088346Y-104729400D02*
X83159775Y-104943685D01*
X83159775Y-104943685D02*
X84016918Y-105800828D01*
X84016918Y-105800828D02*
X83088346Y-105800828D01*
X82159775Y-104300828D02*
X82016918Y-104300828D01*
X82016918Y-104300828D02*
X81874061Y-104372257D01*
X81874061Y-104372257D02*
X81802633Y-104443685D01*
X81802633Y-104443685D02*
X81731204Y-104586542D01*
X81731204Y-104586542D02*
X81659775Y-104872257D01*
X81659775Y-104872257D02*
X81659775Y-105229400D01*
X81659775Y-105229400D02*
X81731204Y-105515114D01*
X81731204Y-105515114D02*
X81802633Y-105657971D01*
X81802633Y-105657971D02*
X81874061Y-105729400D01*
X81874061Y-105729400D02*
X82016918Y-105800828D01*
X82016918Y-105800828D02*
X82159775Y-105800828D01*
X82159775Y-105800828D02*
X82302633Y-105729400D01*
X82302633Y-105729400D02*
X82374061Y-105657971D01*
X82374061Y-105657971D02*
X82445490Y-105515114D01*
X82445490Y-105515114D02*
X82516918Y-105229400D01*
X82516918Y-105229400D02*
X82516918Y-104872257D01*
X82516918Y-104872257D02*
X82445490Y-104586542D01*
X82445490Y-104586542D02*
X82374061Y-104443685D01*
X82374061Y-104443685D02*
X82302633Y-104372257D01*
X82302633Y-104372257D02*
X82159775Y-104300828D01*
X81088347Y-104443685D02*
X81016919Y-104372257D01*
X81016919Y-104372257D02*
X80874062Y-104300828D01*
X80874062Y-104300828D02*
X80516919Y-104300828D01*
X80516919Y-104300828D02*
X80374062Y-104372257D01*
X80374062Y-104372257D02*
X80302633Y-104443685D01*
X80302633Y-104443685D02*
X80231204Y-104586542D01*
X80231204Y-104586542D02*
X80231204Y-104729400D01*
X80231204Y-104729400D02*
X80302633Y-104943685D01*
X80302633Y-104943685D02*
X81159776Y-105800828D01*
X81159776Y-105800828D02*
X80231204Y-105800828D01*
X78945491Y-104800828D02*
X78945491Y-105800828D01*
X79302633Y-104229400D02*
X79659776Y-105300828D01*
X79659776Y-105300828D02*
X78731205Y-105300828D01*
%LPC*%
D11*
%TO.C,C5*%
X75000000Y-89500000D03*
X75000000Y-94500000D03*
%TD*%
D12*
%TO.C,RV1*%
X49000000Y-66460000D03*
X49000000Y-69000000D03*
X49000000Y-71540000D03*
%TD*%
D11*
%TO.C,C4*%
X72000000Y-89500000D03*
X72000000Y-94500000D03*
%TD*%
%TO.C,R10*%
X79000000Y-94810000D03*
D13*
X79000000Y-87190000D03*
%TD*%
D11*
%TO.C,R5*%
X90000000Y-50000000D03*
D13*
X97620000Y-50000000D03*
%TD*%
D11*
%TO.C,R8*%
X61810000Y-83000000D03*
D13*
X54190000Y-83000000D03*
%TD*%
D11*
%TO.C,R15*%
X77810000Y-83000000D03*
D13*
X70190000Y-83000000D03*
%TD*%
D14*
%TO.C,J9*%
X90000000Y-37920000D03*
D15*
X90000000Y-40460000D03*
X90000000Y-43000000D03*
%TD*%
D11*
%TO.C,R2*%
X74380000Y-56000000D03*
D13*
X82000000Y-56000000D03*
%TD*%
D14*
%TO.C,J1*%
X48000000Y-92000000D03*
D15*
X50540000Y-92000000D03*
%TD*%
D14*
%TO.C,J4*%
X60265000Y-101735000D03*
D15*
X62805000Y-101735000D03*
%TD*%
D14*
%TO.C,J5*%
X69000000Y-102000000D03*
D15*
X71540000Y-102000000D03*
%TD*%
D11*
%TO.C,R1*%
X99000000Y-74620000D03*
D13*
X99000000Y-67000000D03*
%TD*%
D14*
%TO.C,J10*%
X78000000Y-102000000D03*
D15*
X80540000Y-102000000D03*
%TD*%
D11*
%TO.C,R7*%
X66000000Y-76000000D03*
D13*
X66000000Y-83620000D03*
%TD*%
D11*
%TO.C,R19*%
X62000000Y-60000000D03*
D13*
X54380000Y-60000000D03*
%TD*%
D11*
%TO.C,R24*%
X74380000Y-60000000D03*
D13*
X82000000Y-60000000D03*
%TD*%
D11*
%TO.C,R12*%
X68000000Y-94810000D03*
D13*
X68000000Y-87190000D03*
%TD*%
D11*
%TO.C,R14*%
X99000000Y-62810000D03*
D13*
X99000000Y-55190000D03*
%TD*%
D11*
%TO.C,R9*%
X54380000Y-67500000D03*
D13*
X62000000Y-67500000D03*
%TD*%
D11*
%TO.C,R4*%
X81000000Y-64000000D03*
D13*
X81000000Y-71620000D03*
%TD*%
D11*
%TO.C,R18*%
X54380000Y-56000000D03*
D13*
X62000000Y-56000000D03*
%TD*%
D16*
%TO.C,U2*%
X87200000Y-79375000D03*
D13*
X87200000Y-81915000D03*
X87200000Y-84455000D03*
X87200000Y-86995000D03*
X87200000Y-89535000D03*
X87200000Y-92075000D03*
X87200000Y-94615000D03*
X94820000Y-94615000D03*
X94820000Y-92075000D03*
X94820000Y-89535000D03*
X94820000Y-86995000D03*
X94820000Y-84455000D03*
X94820000Y-81915000D03*
X94820000Y-79375000D03*
%TD*%
D11*
%TO.C,R17*%
X54190000Y-79000000D03*
D13*
X61810000Y-79000000D03*
%TD*%
D11*
%TO.C,R19*%
X61810000Y-71000000D03*
D13*
X54190000Y-71000000D03*
%TD*%
D12*
%TO.C,RV3*%
X71080000Y-50000000D03*
X68540000Y-50000000D03*
X66000000Y-50000000D03*
%TD*%
D11*
%TO.C,R3*%
X72000000Y-56000000D03*
D13*
X64380000Y-56000000D03*
%TD*%
D11*
%TO.C,R16*%
X54380000Y-52000000D03*
D13*
X62000000Y-52000000D03*
%TD*%
D11*
%TO.C,C3*%
X58500000Y-93000000D03*
X63500000Y-93000000D03*
%TD*%
%TO.C,R23*%
X72000000Y-60000000D03*
D13*
X64380000Y-60000000D03*
%TD*%
D14*
%TO.C,J8*%
X47460000Y-52000000D03*
D15*
X50000000Y-52000000D03*
%TD*%
D11*
%TO.C,R22*%
X77000000Y-71620000D03*
D13*
X77000000Y-64000000D03*
%TD*%
D11*
%TO.C,C2*%
X58500000Y-89000000D03*
X63500000Y-89000000D03*
%TD*%
D12*
%TO.C,RV2*%
X49000000Y-85080000D03*
X49000000Y-82540000D03*
X49000000Y-80000000D03*
%TD*%
D14*
%TO.C,J6*%
X56000000Y-38000000D03*
D15*
X56000000Y-40540000D03*
X56000000Y-43080000D03*
%TD*%
D11*
%TO.C,R6*%
X79190000Y-50000000D03*
D13*
X86810000Y-50000000D03*
%TD*%
D16*
%TO.C,U1*%
X87200000Y-56100000D03*
D13*
X87200000Y-58640000D03*
X87200000Y-61180000D03*
X87200000Y-63720000D03*
X87200000Y-66260000D03*
X87200000Y-68800000D03*
X87200000Y-71340000D03*
X87200000Y-73880000D03*
X94820000Y-73880000D03*
X94820000Y-71340000D03*
X94820000Y-68800000D03*
X94820000Y-66260000D03*
X94820000Y-63720000D03*
X94820000Y-61180000D03*
X94820000Y-58640000D03*
X94820000Y-56100000D03*
%TD*%
D11*
%TO.C,R25*%
X61810000Y-75000000D03*
D13*
X54190000Y-75000000D03*
%TD*%
D17*
%TO.C,J2*%
X64220000Y-40000000D03*
D18*
X64220000Y-37460000D03*
X66760000Y-40000000D03*
X66760000Y-37460000D03*
X69300000Y-40000000D03*
X69300000Y-37460000D03*
X71840000Y-40000000D03*
X71840000Y-37460000D03*
X74380000Y-40000000D03*
X74380000Y-37460000D03*
X76920000Y-40000000D03*
X76920000Y-37460000D03*
X79460000Y-40000000D03*
X79460000Y-37460000D03*
X82000000Y-40000000D03*
X82000000Y-37460000D03*
%TD*%
D19*
%TO.C,C1*%
X72000000Y-78000000D03*
X82000000Y-78000000D03*
%TD*%
D11*
%TO.C,R18*%
X62000000Y-64000000D03*
D13*
X54380000Y-64000000D03*
%TD*%
D14*
%TO.C,J7*%
X47460000Y-59000000D03*
D15*
X50000000Y-59000000D03*
%TD*%
D16*
%TO.C,U3*%
X65200000Y-65380000D03*
D13*
X65200000Y-67920000D03*
X65200000Y-70460000D03*
X65200000Y-73000000D03*
X72820000Y-73000000D03*
X72820000Y-70460000D03*
X72820000Y-67920000D03*
X72820000Y-65380000D03*
%TD*%
D11*
%TO.C,R11*%
X82810000Y-87190000D03*
D13*
X82810000Y-94810000D03*
%TD*%
D14*
%TO.C,J3*%
X48000000Y-98000000D03*
D15*
X50540000Y-98000000D03*
%TD*%
D11*
%TO.C,R13*%
X99000000Y-77190000D03*
D13*
X99000000Y-84810000D03*
%TD*%
%LPD*%
M02*
