%TF.GenerationSoftware,KiCad,Pcbnew,8.0.0*%
%TF.CreationDate,2024-03-09T23:20:09+01:00*%
%TF.ProjectId,Pure VCO,50757265-2056-4434-9f2e-6b696361645f,rev?*%
%TF.SameCoordinates,Original*%
%TF.FileFunction,Copper,L1,Top*%
%TF.FilePolarity,Positive*%
%FSLAX46Y46*%
G04 Gerber Fmt 4.6, Leading zero omitted, Abs format (unit mm)*
G04 Created by KiCad (PCBNEW 8.0.0) date 2024-03-09 23:20:09*
%MOMM*%
%LPD*%
G01*
G04 APERTURE LIST*
G04 Aperture macros list*
%AMRoundRect*
0 Rectangle with rounded corners*
0 $1 Rounding radius*
0 $2 $3 $4 $5 $6 $7 $8 $9 X,Y pos of 4 corners*
0 Add a 4 corners polygon primitive as box body*
4,1,4,$2,$3,$4,$5,$6,$7,$8,$9,$2,$3,0*
0 Add four circle primitives for the rounded corners*
1,1,$1+$1,$2,$3*
1,1,$1+$1,$4,$5*
1,1,$1+$1,$6,$7*
1,1,$1+$1,$8,$9*
0 Add four rect primitives between the rounded corners*
20,1,$1+$1,$2,$3,$4,$5,0*
20,1,$1+$1,$4,$5,$6,$7,0*
20,1,$1+$1,$6,$7,$8,$9,0*
20,1,$1+$1,$8,$9,$2,$3,0*%
G04 Aperture macros list end*
%TA.AperFunction,ComponentPad*%
%ADD10C,1.600000*%
%TD*%
%TA.AperFunction,ComponentPad*%
%ADD11C,1.440000*%
%TD*%
%TA.AperFunction,ComponentPad*%
%ADD12O,1.600000X1.600000*%
%TD*%
%TA.AperFunction,ComponentPad*%
%ADD13R,1.700000X1.700000*%
%TD*%
%TA.AperFunction,ComponentPad*%
%ADD14O,1.700000X1.700000*%
%TD*%
%TA.AperFunction,ComponentPad*%
%ADD15R,1.600000X1.600000*%
%TD*%
%TA.AperFunction,ComponentPad*%
%ADD16RoundRect,0.250000X0.600000X-0.600000X0.600000X0.600000X-0.600000X0.600000X-0.600000X-0.600000X0*%
%TD*%
%TA.AperFunction,ComponentPad*%
%ADD17C,1.700000*%
%TD*%
%TA.AperFunction,ComponentPad*%
%ADD18C,2.000000*%
%TD*%
%TA.AperFunction,ViaPad*%
%ADD19C,0.600000*%
%TD*%
%TA.AperFunction,Conductor*%
%ADD20C,0.200000*%
%TD*%
G04 APERTURE END LIST*
D10*
%TO.P,C5,1*%
%TO.N,GND*%
X75000000Y-89500000D03*
%TO.P,C5,2*%
%TO.N,Net-(C5-Pad2)*%
X75000000Y-94500000D03*
%TD*%
D11*
%TO.P,RV1,1,1*%
%TO.N,GND*%
X49000000Y-66460000D03*
%TO.P,RV1,2,2*%
%TO.N,Net-(R9-Pad1)*%
X49000000Y-69000000D03*
%TO.P,RV1,3,3*%
%TO.N,+12V*%
X49000000Y-71540000D03*
%TD*%
D10*
%TO.P,C4,1*%
%TO.N,GND*%
X72000000Y-89500000D03*
%TO.P,C4,2*%
%TO.N,Net-(C4-Pad2)*%
X72000000Y-94500000D03*
%TD*%
%TO.P,R10,1*%
%TO.N,GND*%
X79000000Y-94810000D03*
D12*
%TO.P,R10,2*%
%TO.N,Net-(U2C--)*%
X79000000Y-87190000D03*
%TD*%
D10*
%TO.P,R5,1*%
%TO.N,Net-(R5-Pad1)*%
X90000000Y-50000000D03*
D12*
%TO.P,R5,2*%
%TO.N,Net-(U1-VLFI)*%
X97620000Y-50000000D03*
%TD*%
D10*
%TO.P,R8,1*%
%TO.N,Net-(U2A-+)*%
X61810000Y-83000000D03*
D12*
%TO.P,R8,2*%
%TO.N,GND*%
X54190000Y-83000000D03*
%TD*%
D10*
%TO.P,R15,1*%
%TO.N,Net-(C5-Pad2)*%
X77810000Y-83000000D03*
D12*
%TO.P,R15,2*%
%TO.N,Net-(U1-VFCI)*%
X70190000Y-83000000D03*
%TD*%
D13*
%TO.P,J9,1,Pin_1*%
%TO.N,Net-(J9-Pin_1)*%
X90000000Y-37920000D03*
D14*
%TO.P,J9,2,Pin_2*%
%TO.N,Net-(J9-Pin_2)*%
X90000000Y-40460000D03*
%TO.P,J9,3,Pin_3*%
%TO.N,Net-(J9-Pin_3)*%
X90000000Y-43000000D03*
%TD*%
D10*
%TO.P,R2,1*%
%TO.N,Net-(U1-SCALE1)*%
X74380000Y-56000000D03*
D12*
%TO.P,R2,2*%
%TO.N,Net-(R2-Pad2)*%
X82000000Y-56000000D03*
%TD*%
D13*
%TO.P,J1,1,Pin_1*%
%TO.N,GND*%
X48000000Y-92000000D03*
D14*
%TO.P,J1,2,Pin_2*%
%TO.N,Net-(J1-Pin_2)*%
X50540000Y-92000000D03*
%TD*%
D13*
%TO.P,J4,1,Pin_1*%
%TO.N,GND*%
X60265000Y-101735000D03*
D14*
%TO.P,J4,2,Pin_2*%
%TO.N,Net-(J4-Pin_2)*%
X62805000Y-101735000D03*
%TD*%
D13*
%TO.P,J5,1,Pin_1*%
%TO.N,GND*%
X69000000Y-102000000D03*
D14*
%TO.P,J5,2,Pin_2*%
%TO.N,Net-(J5-Pin_2)*%
X71540000Y-102000000D03*
%TD*%
D10*
%TO.P,R1,1*%
%TO.N,GND*%
X99000000Y-74620000D03*
D12*
%TO.P,R1,2*%
%TO.N,Net-(U1-VHFT)*%
X99000000Y-67000000D03*
%TD*%
D13*
%TO.P,J10,1,Pin_1*%
%TO.N,GND*%
X78000000Y-102000000D03*
D14*
%TO.P,J10,2,Pin_2*%
%TO.N,Net-(J10-Pin_2)*%
X80540000Y-102000000D03*
%TD*%
D10*
%TO.P,R7,1*%
%TO.N,Net-(J9-Pin_3)*%
X66000000Y-76000000D03*
D12*
%TO.P,R7,2*%
%TO.N,Net-(U2A-+)*%
X66000000Y-83620000D03*
%TD*%
D10*
%TO.P,R19,1*%
%TO.N,Net-(R18-Pad2)*%
X62000000Y-60000000D03*
D12*
%TO.P,R19,2*%
%TO.N,GND*%
X54380000Y-60000000D03*
%TD*%
D10*
%TO.P,R24,1*%
%TO.N,Net-(R22-Pad2)*%
X74380000Y-60000000D03*
D12*
%TO.P,R24,2*%
%TO.N,Net-(U1-VPWM)*%
X82000000Y-60000000D03*
%TD*%
D10*
%TO.P,R12,1*%
%TO.N,Net-(C4-Pad2)*%
X68000000Y-94810000D03*
D12*
%TO.P,R12,2*%
%TO.N,Net-(U1-VLFI)*%
X68000000Y-87190000D03*
%TD*%
D10*
%TO.P,R14,1*%
%TO.N,Net-(U1-VFCI)*%
X99000000Y-62810000D03*
D12*
%TO.P,R14,2*%
%TO.N,+12V*%
X99000000Y-55190000D03*
%TD*%
D10*
%TO.P,R9,1*%
%TO.N,Net-(R9-Pad1)*%
X54380000Y-67500000D03*
D12*
%TO.P,R9,2*%
%TO.N,Net-(U3A--)*%
X62000000Y-67500000D03*
%TD*%
D10*
%TO.P,R4,1*%
%TO.N,Net-(U1-SCALE2)*%
X81000000Y-64000000D03*
D12*
%TO.P,R4,2*%
%TO.N,Net-(U1-VEE)*%
X81000000Y-71620000D03*
%TD*%
D10*
%TO.P,R18,1*%
%TO.N,Net-(J7-Pin_2)*%
X54380000Y-56000000D03*
D12*
%TO.P,R18,2*%
%TO.N,Net-(R18-Pad2)*%
X62000000Y-56000000D03*
%TD*%
D15*
%TO.P,U2,1*%
%TO.N,Net-(J4-Pin_2)*%
X87200000Y-79375000D03*
D12*
%TO.P,U2,2,-*%
X87200000Y-81915000D03*
%TO.P,U2,3,+*%
%TO.N,Net-(U2A-+)*%
X87200000Y-84455000D03*
%TO.P,U2,4,V+*%
%TO.N,+12V*%
X87200000Y-86995000D03*
%TO.P,U2,5,+*%
%TO.N,Net-(J9-Pin_2)*%
X87200000Y-89535000D03*
%TO.P,U2,6,-*%
%TO.N,Net-(J5-Pin_2)*%
X87200000Y-92075000D03*
%TO.P,U2,7*%
X87200000Y-94615000D03*
%TO.P,U2,8*%
%TO.N,Net-(J10-Pin_2)*%
X94820000Y-94615000D03*
%TO.P,U2,9,-*%
%TO.N,Net-(U2C--)*%
X94820000Y-92075000D03*
%TO.P,U2,10,+*%
%TO.N,Net-(J9-Pin_1)*%
X94820000Y-89535000D03*
%TO.P,U2,11,V-*%
%TO.N,-12V*%
X94820000Y-86995000D03*
%TO.P,U2,12,+*%
%TO.N,GND*%
X94820000Y-84455000D03*
%TO.P,U2,13,-*%
%TO.N,Net-(U2D--)*%
X94820000Y-81915000D03*
%TO.P,U2,14*%
X94820000Y-79375000D03*
%TD*%
D10*
%TO.P,R17,1*%
%TO.N,Net-(R17-Pad1)*%
X54190000Y-79000000D03*
D12*
%TO.P,R17,2*%
%TO.N,Net-(U1-VFCI)*%
X61810000Y-79000000D03*
%TD*%
D10*
%TO.P,R19,1*%
%TO.N,Net-(R19-Pad1)*%
X61810000Y-71000000D03*
D12*
%TO.P,R19,2*%
%TO.N,Net-(U3B--)*%
X54190000Y-71000000D03*
%TD*%
D11*
%TO.P,RV3,1,1*%
%TO.N,Net-(R2-Pad2)*%
X71080000Y-50000000D03*
%TO.P,RV3,2,2*%
%TO.N,Net-(U1-VEE)*%
X68540000Y-50000000D03*
%TO.P,RV3,3,3*%
X66000000Y-50000000D03*
%TD*%
D10*
%TO.P,R3,1*%
%TO.N,Net-(U1-VEE)*%
X72000000Y-56000000D03*
D12*
%TO.P,R3,2*%
%TO.N,-12V*%
X64380000Y-56000000D03*
%TD*%
D10*
%TO.P,R16,1*%
%TO.N,Net-(U1-VFCI)*%
X54380000Y-52000000D03*
D12*
%TO.P,R16,2*%
%TO.N,Net-(J8-Pin_2)*%
X62000000Y-52000000D03*
%TD*%
D10*
%TO.P,C3,1*%
%TO.N,Net-(J3-Pin_2)*%
X58500000Y-93000000D03*
%TO.P,C3,2*%
%TO.N,Net-(U1-VSSI)*%
X63500000Y-93000000D03*
%TD*%
%TO.P,R23,1*%
%TO.N,Net-(U3A--)*%
X72000000Y-60000000D03*
D12*
%TO.P,R23,2*%
%TO.N,Net-(R19-Pad1)*%
X64380000Y-60000000D03*
%TD*%
D13*
%TO.P,J8,1,Pin_1*%
%TO.N,GND*%
X47460000Y-52000000D03*
D14*
%TO.P,J8,2,Pin_2*%
%TO.N,Net-(J8-Pin_2)*%
X50000000Y-52000000D03*
%TD*%
D10*
%TO.P,R22,1*%
%TO.N,Net-(U3B--)*%
X77000000Y-71620000D03*
D12*
%TO.P,R22,2*%
%TO.N,Net-(R22-Pad2)*%
X77000000Y-64000000D03*
%TD*%
D10*
%TO.P,C2,1*%
%TO.N,Net-(J1-Pin_2)*%
X58500000Y-89000000D03*
%TO.P,C2,2*%
%TO.N,Net-(U1-VHSI)*%
X63500000Y-89000000D03*
%TD*%
D11*
%TO.P,RV2,1,1*%
%TO.N,GND*%
X49000000Y-85080000D03*
%TO.P,RV2,2,2*%
%TO.N,Net-(R17-Pad1)*%
X49000000Y-82540000D03*
%TO.P,RV2,3,3*%
%TO.N,+12V*%
X49000000Y-80000000D03*
%TD*%
D13*
%TO.P,J6,1,Pin_1*%
%TO.N,+12V*%
X56000000Y-38000000D03*
D14*
%TO.P,J6,2,Pin_2*%
%TO.N,GND*%
X56000000Y-40540000D03*
%TO.P,J6,3,Pin_3*%
%TO.N,-12V*%
X56000000Y-43080000D03*
%TD*%
D10*
%TO.P,R6,1*%
%TO.N,+12V*%
X79190000Y-50000000D03*
D12*
%TO.P,R6,2*%
%TO.N,Net-(R5-Pad1)*%
X86810000Y-50000000D03*
%TD*%
D15*
%TO.P,U1,1,SCALE1*%
%TO.N,Net-(U1-SCALE1)*%
X87200000Y-56100000D03*
D12*
%TO.P,U1,2,SCALE2*%
%TO.N,Net-(U1-SCALE2)*%
X87200000Y-58640000D03*
%TO.P,U1,3,VEE*%
%TO.N,Net-(U1-VEE)*%
X87200000Y-61180000D03*
%TO.P,U1,4,VP*%
%TO.N,Net-(J9-Pin_3)*%
X87200000Y-63720000D03*
%TO.P,U1,5,VPWM*%
%TO.N,Net-(U1-VPWM)*%
X87200000Y-66260000D03*
%TO.P,U1,6,VHSI*%
%TO.N,Net-(U1-VHSI)*%
X87200000Y-68800000D03*
%TO.P,U1,7,VHFT*%
%TO.N,Net-(U1-VHFT)*%
X87200000Y-71340000D03*
%TO.P,U1,8,VSO*%
%TO.N,Net-(J9-Pin_2)*%
X87200000Y-73880000D03*
%TO.P,U1,9,VSSI*%
%TO.N,Net-(U1-VSSI)*%
X94820000Y-73880000D03*
%TO.P,U1,10,VTO*%
%TO.N,Net-(J9-Pin_1)*%
X94820000Y-71340000D03*
%TO.P,U1,11,CAP*%
%TO.N,Net-(U1-CAP)*%
X94820000Y-68800000D03*
%TO.P,U1,12,GND*%
%TO.N,GND*%
X94820000Y-66260000D03*
%TO.P,U1,13,VLFI*%
%TO.N,Net-(U1-VLFI)*%
X94820000Y-63720000D03*
%TO.P,U1,14,VS*%
%TO.N,Net-(U1-VS)*%
X94820000Y-61180000D03*
%TO.P,U1,15,VFCI*%
%TO.N,Net-(U1-VFCI)*%
X94820000Y-58640000D03*
%TO.P,U1,16,VCC*%
%TO.N,+12V*%
X94820000Y-56100000D03*
%TD*%
D10*
%TO.P,R25,1*%
%TO.N,Net-(U1-VPWM)*%
X61810000Y-75000000D03*
D12*
%TO.P,R25,2*%
%TO.N,GND*%
X54190000Y-75000000D03*
%TD*%
D16*
%TO.P,J2,1,Pin_1*%
%TO.N,-12V*%
X64220000Y-40000000D03*
D17*
%TO.P,J2,2,Pin_2*%
X64220000Y-37460000D03*
%TO.P,J2,3,Pin_3*%
%TO.N,GND*%
X66760000Y-40000000D03*
%TO.P,J2,4,Pin_4*%
X66760000Y-37460000D03*
%TO.P,J2,5,Pin_5*%
X69300000Y-40000000D03*
%TO.P,J2,6,Pin_6*%
X69300000Y-37460000D03*
%TO.P,J2,7,Pin_7*%
X71840000Y-40000000D03*
%TO.P,J2,8,Pin_8*%
X71840000Y-37460000D03*
%TO.P,J2,9,Pin_9*%
%TO.N,Net-(J2-Pin_10)*%
X74380000Y-40000000D03*
%TO.P,J2,10,Pin_10*%
X74380000Y-37460000D03*
%TO.P,J2,11,Pin_11*%
%TO.N,+12V*%
X76920000Y-40000000D03*
%TO.P,J2,12,Pin_12*%
X76920000Y-37460000D03*
%TO.P,J2,13,Pin_13*%
%TO.N,Net-(J2-Pin_13)*%
X79460000Y-40000000D03*
%TO.P,J2,14,Pin_14*%
X79460000Y-37460000D03*
%TO.P,J2,15,Pin_15*%
%TO.N,Net-(J2-Pin_15)*%
X82000000Y-40000000D03*
%TO.P,J2,16,Pin_16*%
X82000000Y-37460000D03*
%TD*%
D18*
%TO.P,C1,1*%
%TO.N,GND*%
X72000000Y-78000000D03*
%TO.P,C1,2*%
%TO.N,Net-(U1-CAP)*%
X82000000Y-78000000D03*
%TD*%
D10*
%TO.P,R18,1*%
%TO.N,Net-(U3A--)*%
X62000000Y-64000000D03*
D12*
%TO.P,R18,2*%
%TO.N,Net-(J7-Pin_2)*%
X54380000Y-64000000D03*
%TD*%
D13*
%TO.P,J7,1,Pin_1*%
%TO.N,GND*%
X47460000Y-59000000D03*
D14*
%TO.P,J7,2,Pin_2*%
%TO.N,Net-(J7-Pin_2)*%
X50000000Y-59000000D03*
%TD*%
D15*
%TO.P,U3,1*%
%TO.N,Net-(R19-Pad1)*%
X65200000Y-65380000D03*
D12*
%TO.P,U3,2,-*%
%TO.N,Net-(U3A--)*%
X65200000Y-67920000D03*
%TO.P,U3,3,+*%
%TO.N,GND*%
X65200000Y-70460000D03*
%TO.P,U3,4,V-*%
%TO.N,-12V*%
X65200000Y-73000000D03*
%TO.P,U3,5,+*%
%TO.N,GND*%
X72820000Y-73000000D03*
%TO.P,U3,6,-*%
%TO.N,Net-(U3B--)*%
X72820000Y-70460000D03*
%TO.P,U3,7*%
%TO.N,Net-(R22-Pad2)*%
X72820000Y-67920000D03*
%TO.P,U3,8,V+*%
%TO.N,+12V*%
X72820000Y-65380000D03*
%TD*%
D10*
%TO.P,R11,1*%
%TO.N,Net-(U2C--)*%
X82810000Y-87190000D03*
D12*
%TO.P,R11,2*%
%TO.N,Net-(J10-Pin_2)*%
X82810000Y-94810000D03*
%TD*%
D13*
%TO.P,J3,1,Pin_1*%
%TO.N,GND*%
X48000000Y-98000000D03*
D14*
%TO.P,J3,2,Pin_2*%
%TO.N,Net-(J3-Pin_2)*%
X50540000Y-98000000D03*
%TD*%
D10*
%TO.P,R13,1*%
%TO.N,GND*%
X99000000Y-77190000D03*
D12*
%TO.P,R13,2*%
%TO.N,Net-(U1-VS)*%
X99000000Y-84810000D03*
%TD*%
D19*
%TO.N,GND*%
X97000000Y-76000000D03*
X97000000Y-65000000D03*
%TO.N,-12V*%
X66000000Y-98000000D03*
X83000000Y-98000000D03*
%TO.N,Net-(J9-Pin_1)*%
X99000000Y-60000000D03*
%TO.N,Net-(J9-Pin_2)*%
X90000000Y-59000000D03*
X92000000Y-66000000D03*
%TO.N,Net-(U1-VHFT)*%
X90000000Y-72000000D03*
X97000000Y-73000000D03*
%TD*%
D20*
%TO.N,GND*%
X100100000Y-78290000D02*
X100100000Y-85265635D01*
X100100000Y-85265635D02*
X99365635Y-86000000D01*
X100100000Y-66544365D02*
X98555635Y-65000000D01*
X99000000Y-77190000D02*
X100100000Y-78290000D01*
X97000000Y-76000000D02*
X100100000Y-72900000D01*
X96365000Y-86000000D02*
X94820000Y-84455000D01*
X100100000Y-72900000D02*
X100100000Y-66544365D01*
X98555635Y-65000000D02*
X97000000Y-65000000D01*
X99365635Y-86000000D02*
X96365000Y-86000000D01*
%TO.N,Net-(C4-Pad2)*%
X72000000Y-94500000D02*
X68310000Y-94500000D01*
X68310000Y-94500000D02*
X68000000Y-94810000D01*
%TO.N,Net-(C5-Pad2)*%
X70900000Y-88778630D02*
X70900000Y-90400000D01*
X76678630Y-83000000D02*
X70900000Y-88778630D01*
X70900000Y-90400000D02*
X75000000Y-94500000D01*
X77810000Y-83000000D02*
X76678630Y-83000000D01*
%TO.N,Net-(U1-VEE)*%
X85260000Y-67360000D02*
X87655635Y-67360000D01*
X88300000Y-65804365D02*
X87655635Y-65160000D01*
X87655635Y-65160000D02*
X86665686Y-65160000D01*
X81000000Y-71620000D02*
X85260000Y-67360000D01*
X88300000Y-66715635D02*
X88300000Y-65804365D01*
X72000000Y-53460000D02*
X68540000Y-50000000D01*
X87655635Y-67360000D02*
X88300000Y-66715635D01*
X86100000Y-62280000D02*
X87200000Y-61180000D01*
X86665686Y-65160000D02*
X86100000Y-64594314D01*
X86100000Y-64594314D02*
X86100000Y-62280000D01*
X68540000Y-50000000D02*
X66000000Y-50000000D01*
X72000000Y-56000000D02*
X72000000Y-53460000D01*
%TO.N,Net-(U1-SCALE1)*%
X80799999Y-56799999D02*
X81100000Y-57100000D01*
X81100000Y-57100000D02*
X86200000Y-57100000D01*
X86200000Y-57100000D02*
X87200000Y-56100000D01*
X75179999Y-56799999D02*
X80799999Y-56799999D01*
X74380000Y-56000000D02*
X75179999Y-56799999D01*
%TO.N,-12V*%
X83000000Y-98000000D02*
X92990635Y-98000000D01*
X95920000Y-95070635D02*
X95920000Y-88095000D01*
X95920000Y-88095000D02*
X94820000Y-86995000D01*
X64900000Y-96900000D02*
X66000000Y-98000000D01*
X64220000Y-37460000D02*
X64220000Y-40000000D01*
X92990635Y-98000000D02*
X95920000Y-95070635D01*
X64900000Y-73300000D02*
X64900000Y-96900000D01*
X65200000Y-73000000D02*
X64900000Y-73300000D01*
%TO.N,Net-(U1-SCALE2)*%
X80200001Y-60244364D02*
X81804365Y-58640000D01*
X81000000Y-64000000D02*
X80200001Y-63200001D01*
X81804365Y-58640000D02*
X87200000Y-58640000D01*
X80200001Y-63200001D02*
X80200001Y-60244364D01*
%TO.N,Net-(U1-VLFI)*%
X88300000Y-69255635D02*
X88300000Y-68700000D01*
X86178679Y-70240000D02*
X87315635Y-70240000D01*
X69228679Y-87190000D02*
X86178679Y-70240000D01*
X95275635Y-60080000D02*
X95920000Y-60724365D01*
X88300000Y-68700000D02*
X93280000Y-63720000D01*
X98544365Y-63910000D02*
X99455635Y-63910000D01*
X87315635Y-70240000D02*
X88300000Y-69255635D01*
X68000000Y-87190000D02*
X69228679Y-87190000D01*
X93720000Y-62620000D02*
X93720000Y-60724365D01*
X95920000Y-61285635D02*
X98544365Y-63910000D01*
X101000000Y-53380000D02*
X97620000Y-50000000D01*
X95920000Y-60724365D02*
X95920000Y-61285635D01*
X94364365Y-60080000D02*
X95275635Y-60080000D01*
X99455635Y-63910000D02*
X101000000Y-62365635D01*
X93720000Y-60724365D02*
X94364365Y-60080000D01*
X94820000Y-63720000D02*
X93720000Y-62620000D01*
X101000000Y-62365635D02*
X101000000Y-53380000D01*
X93280000Y-63720000D02*
X94820000Y-63720000D01*
%TO.N,+12V*%
X47000000Y-78000000D02*
X49000000Y-80000000D01*
X51895635Y-71540000D02*
X55480000Y-67955635D01*
X52564365Y-64000000D02*
X48000000Y-64000000D01*
X76920000Y-40000000D02*
X76920000Y-37460000D01*
X48000000Y-64000000D02*
X47000000Y-65000000D01*
X55480000Y-67955635D02*
X55480000Y-66915635D01*
X55480000Y-66915635D02*
X52564365Y-64000000D01*
X79190000Y-50000000D02*
X79190000Y-42270000D01*
X79190000Y-42270000D02*
X76920000Y-40000000D01*
X49000000Y-71540000D02*
X51895635Y-71540000D01*
X47000000Y-65000000D02*
X47000000Y-78000000D01*
%TO.N,Net-(J9-Pin_3)*%
X82338679Y-57540000D02*
X90940000Y-57540000D01*
X90940000Y-57540000D02*
X93000000Y-55480000D01*
X78100000Y-61778679D02*
X82338679Y-57540000D01*
X93000000Y-55480000D02*
X93000000Y-43000000D01*
X66000000Y-76000000D02*
X69300000Y-79300000D01*
X93000000Y-43000000D02*
X90000000Y-43000000D01*
X78100000Y-73738478D02*
X78100000Y-61778679D01*
X72538478Y-79300000D02*
X78100000Y-73738478D01*
X69300000Y-79300000D02*
X72538478Y-79300000D01*
%TO.N,Net-(U2C--)*%
X82810000Y-87190000D02*
X79000000Y-87190000D01*
%TO.N,Net-(U1-VS)*%
X96400000Y-62760000D02*
X96400000Y-70325686D01*
X96000000Y-81810000D02*
X99000000Y-84810000D01*
X96000000Y-70725686D02*
X96000000Y-81810000D01*
X94820000Y-61180000D02*
X96400000Y-62760000D01*
X96400000Y-70325686D02*
X96000000Y-70725686D01*
%TO.N,Net-(U1-VFCI)*%
X99000000Y-62810000D02*
X94830000Y-58640000D01*
X94830000Y-58640000D02*
X94820000Y-58640000D01*
X86824365Y-60000000D02*
X93460000Y-60000000D01*
X70190000Y-83000000D02*
X79900000Y-73290000D01*
X79900000Y-66924365D02*
X86824365Y-60000000D01*
X93460000Y-60000000D02*
X94820000Y-58640000D01*
X79900000Y-73290000D02*
X79900000Y-66924365D01*
%TO.N,Net-(R17-Pad1)*%
X50650000Y-82540000D02*
X54190000Y-79000000D01*
X49000000Y-82540000D02*
X50650000Y-82540000D01*
%TO.N,Net-(J9-Pin_1)*%
X95275635Y-65160000D02*
X96000000Y-65884365D01*
X92000000Y-83000000D02*
X93320000Y-81680000D01*
X93320000Y-66204365D02*
X94364365Y-65160000D01*
X99000000Y-60000000D02*
X95920000Y-56920000D01*
X94364365Y-65160000D02*
X95275635Y-65160000D01*
X96000000Y-65884365D02*
X96000000Y-70160000D01*
X93320000Y-81680000D02*
X93320000Y-66204365D01*
X95920000Y-56920000D02*
X95920000Y-40840000D01*
X92000000Y-86715000D02*
X92000000Y-83000000D01*
X93000000Y-37920000D02*
X90000000Y-37920000D01*
X95920000Y-40840000D02*
X93000000Y-37920000D01*
X96000000Y-70160000D02*
X94820000Y-71340000D01*
X94820000Y-89535000D02*
X92000000Y-86715000D01*
%TO.N,Net-(J9-Pin_2)*%
X93000000Y-40460000D02*
X90000000Y-40460000D01*
X87200000Y-73880000D02*
X88300000Y-74980000D01*
X88300000Y-88435000D02*
X87200000Y-89535000D01*
X94150000Y-41610000D02*
X94150000Y-54650000D01*
X93720000Y-55080000D02*
X93720000Y-56280000D01*
X92000000Y-66000000D02*
X92000000Y-72000000D01*
X92000000Y-72000000D02*
X90120000Y-73880000D01*
X90120000Y-73880000D02*
X87200000Y-73880000D01*
X93000000Y-40460000D02*
X94150000Y-41610000D01*
X94150000Y-54650000D02*
X93720000Y-55080000D01*
X93720000Y-56280000D02*
X91000000Y-59000000D01*
X91000000Y-59000000D02*
X90000000Y-59000000D01*
X88300000Y-74980000D02*
X88300000Y-88435000D01*
%TO.N,Net-(U2D--)*%
X94820000Y-81915000D02*
X94820000Y-79375000D01*
%TO.N,Net-(R18-Pad2)*%
X62000000Y-56000000D02*
X62000000Y-60000000D01*
%TO.N,Net-(J2-Pin_13)*%
X79460000Y-37460000D02*
X79460000Y-40000000D01*
%TO.N,Net-(J2-Pin_15)*%
X82000000Y-37460000D02*
X82000000Y-40000000D01*
%TO.N,Net-(J2-Pin_10)*%
X74380000Y-37460000D02*
X74380000Y-40000000D01*
%TO.N,Net-(R2-Pad2)*%
X77080000Y-56000000D02*
X71080000Y-50000000D01*
X82000000Y-56000000D02*
X77080000Y-56000000D01*
%TO.N,Net-(J1-Pin_2)*%
X50540000Y-92000000D02*
X55500000Y-92000000D01*
X55500000Y-92000000D02*
X58500000Y-89000000D01*
%TO.N,Net-(J3-Pin_2)*%
X50540000Y-98000000D02*
X53500000Y-98000000D01*
X53500000Y-98000000D02*
X58500000Y-93000000D01*
%TO.N,Net-(J5-Pin_2)*%
X85000000Y-83895000D02*
X85000000Y-89875000D01*
X87999999Y-92874999D02*
X87200000Y-92075000D01*
X66900000Y-97360000D02*
X66900000Y-90084365D01*
X75084365Y-81900000D02*
X83005000Y-81900000D01*
X83005000Y-81900000D02*
X85000000Y-83895000D01*
X71540000Y-102000000D02*
X66900000Y-97360000D01*
X87200000Y-94615000D02*
X88000000Y-93815000D01*
X85000000Y-89875000D02*
X87200000Y-92075000D01*
X66900000Y-90084365D02*
X75084365Y-81900000D01*
X88000000Y-93815000D02*
X87999999Y-92874999D01*
%TO.N,Net-(J7-Pin_2)*%
X54380000Y-64000000D02*
X50000000Y-59620000D01*
X50000000Y-59000000D02*
X53000000Y-56000000D01*
X53000000Y-56000000D02*
X54380000Y-56000000D01*
X50000000Y-59620000D02*
X50000000Y-59000000D01*
%TO.N,Net-(J8-Pin_2)*%
X52000000Y-50000000D02*
X60000000Y-50000000D01*
X50000000Y-52000000D02*
X52000000Y-50000000D01*
X60000000Y-50000000D02*
X62000000Y-52000000D01*
%TO.N,Net-(J10-Pin_2)*%
X82810000Y-94810000D02*
X81000000Y-96620000D01*
X92435000Y-97000000D02*
X94820000Y-94615000D01*
X81000000Y-101540000D02*
X80540000Y-102000000D01*
X82810000Y-94810000D02*
X85000000Y-97000000D01*
X85000000Y-97000000D02*
X92435000Y-97000000D01*
X81000000Y-96620000D02*
X81000000Y-101540000D01*
%TO.N,Net-(R9-Pad1)*%
X50000000Y-69000000D02*
X49000000Y-69000000D01*
X54380000Y-67500000D02*
X51500000Y-67500000D01*
X51500000Y-67500000D02*
X50000000Y-69000000D01*
%TO.N,Net-(U3A--)*%
X72000000Y-61120000D02*
X65200000Y-67920000D01*
X65200000Y-67920000D02*
X62420000Y-67920000D01*
X62000000Y-67500000D02*
X62000000Y-64000000D01*
X62420000Y-67920000D02*
X62000000Y-67500000D01*
X72000000Y-60000000D02*
X72000000Y-61120000D01*
%TO.N,Net-(R19-Pad1)*%
X62720000Y-61660000D02*
X62720000Y-62900000D01*
X60900000Y-70090000D02*
X60900000Y-63544365D01*
X60900000Y-63544365D02*
X61544365Y-62900000D01*
X62720000Y-62900000D02*
X65200000Y-65380000D01*
X61544365Y-62900000D02*
X62720000Y-62900000D01*
X61810000Y-71000000D02*
X60900000Y-70090000D01*
X64380000Y-60000000D02*
X62720000Y-61660000D01*
%TO.N,Net-(U3B--)*%
X65655635Y-69020000D02*
X65675635Y-69000000D01*
X71360000Y-69000000D02*
X72820000Y-70460000D01*
X55290000Y-72100000D02*
X62900000Y-72100000D01*
X65675635Y-69000000D02*
X71360000Y-69000000D01*
X64724365Y-69000000D02*
X64744365Y-69020000D01*
X62910000Y-70090000D02*
X64000000Y-69000000D01*
X62900000Y-72100000D02*
X62900000Y-71465635D01*
X75840000Y-70460000D02*
X77000000Y-71620000D01*
X62900000Y-71465635D02*
X62910000Y-71455635D01*
X72820000Y-70460000D02*
X75840000Y-70460000D01*
X54190000Y-71000000D02*
X55290000Y-72100000D01*
X64000000Y-69000000D02*
X64724365Y-69000000D01*
X64744365Y-69020000D02*
X65655635Y-69020000D01*
X62910000Y-71455635D02*
X62910000Y-70090000D01*
%TO.N,Net-(R22-Pad2)*%
X74380000Y-60000000D02*
X74380000Y-61380000D01*
X77000000Y-64000000D02*
X76000000Y-65000000D01*
X74380000Y-61380000D02*
X77000000Y-64000000D01*
X75740000Y-65000000D02*
X72820000Y-67920000D01*
X76000000Y-65000000D02*
X75740000Y-65000000D01*
%TO.N,Net-(U1-VHFT)*%
X98000000Y-73000000D02*
X97000000Y-73000000D01*
X90000000Y-72000000D02*
X89340000Y-71340000D01*
X99000000Y-67000000D02*
X99000000Y-72000000D01*
X89340000Y-71340000D02*
X87200000Y-71340000D01*
X99000000Y-72000000D02*
X98000000Y-73000000D01*
%TD*%
%TA.AperFunction,Conductor*%
%TO.N,GND*%
G36*
X66294075Y-37652993D02*
G01*
X66359901Y-37767007D01*
X66452993Y-37860099D01*
X66567007Y-37925925D01*
X66630590Y-37942962D01*
X65998625Y-38574925D01*
X66075031Y-38628425D01*
X66118655Y-38683002D01*
X66125848Y-38752501D01*
X66094326Y-38814855D01*
X66075029Y-38831576D01*
X65998625Y-38885072D01*
X66630590Y-39517037D01*
X66567007Y-39534075D01*
X66452993Y-39599901D01*
X66359901Y-39692993D01*
X66294075Y-39807007D01*
X66277037Y-39870590D01*
X65640655Y-39234208D01*
X65588806Y-39223788D01*
X65538623Y-39175173D01*
X65528793Y-39153031D01*
X65520697Y-39128599D01*
X65504814Y-39080666D01*
X65412712Y-38931344D01*
X65288656Y-38807288D01*
X65139334Y-38715186D01*
X65130733Y-38712336D01*
X65073290Y-38672564D01*
X65046467Y-38608048D01*
X65058782Y-38539272D01*
X65087767Y-38502517D01*
X65087573Y-38502323D01*
X65089219Y-38500676D01*
X65090040Y-38499636D01*
X65091388Y-38498504D01*
X65091401Y-38498495D01*
X65258495Y-38331401D01*
X65388732Y-38145403D01*
X65443307Y-38101780D01*
X65512805Y-38094586D01*
X65575160Y-38126109D01*
X65591880Y-38145405D01*
X65645073Y-38221373D01*
X66277037Y-37589409D01*
X66294075Y-37652993D01*
G37*
%TD.AperFunction*%
%TA.AperFunction,Conductor*%
G36*
X68834075Y-37652993D02*
G01*
X68899901Y-37767007D01*
X68992993Y-37860099D01*
X69107007Y-37925925D01*
X69170590Y-37942962D01*
X68538625Y-38574925D01*
X68615031Y-38628425D01*
X68658655Y-38683002D01*
X68665848Y-38752501D01*
X68634326Y-38814855D01*
X68615029Y-38831576D01*
X68538625Y-38885072D01*
X69170590Y-39517037D01*
X69107007Y-39534075D01*
X68992993Y-39599901D01*
X68899901Y-39692993D01*
X68834075Y-39807007D01*
X68817037Y-39870590D01*
X68185072Y-39238625D01*
X68185072Y-39238626D01*
X68131574Y-39315030D01*
X68076998Y-39358655D01*
X68007499Y-39365849D01*
X67945144Y-39334326D01*
X67928424Y-39315030D01*
X67874925Y-39238626D01*
X67874925Y-39238625D01*
X67242962Y-39870589D01*
X67225925Y-39807007D01*
X67160099Y-39692993D01*
X67067007Y-39599901D01*
X66952993Y-39534075D01*
X66889410Y-39517037D01*
X67521373Y-38885073D01*
X67444969Y-38831576D01*
X67401344Y-38776999D01*
X67394150Y-38707501D01*
X67425672Y-38645146D01*
X67444968Y-38628425D01*
X67521373Y-38574925D01*
X66889409Y-37942962D01*
X66952993Y-37925925D01*
X67067007Y-37860099D01*
X67160099Y-37767007D01*
X67225925Y-37652993D01*
X67242962Y-37589409D01*
X67874925Y-38221373D01*
X67928425Y-38144968D01*
X67983002Y-38101344D01*
X68052501Y-38094151D01*
X68114855Y-38125673D01*
X68131576Y-38144969D01*
X68185073Y-38221372D01*
X68817037Y-37589409D01*
X68834075Y-37652993D01*
G37*
%TD.AperFunction*%
%TA.AperFunction,Conductor*%
G36*
X71374075Y-37652993D02*
G01*
X71439901Y-37767007D01*
X71532993Y-37860099D01*
X71647007Y-37925925D01*
X71710590Y-37942962D01*
X71078625Y-38574925D01*
X71155031Y-38628425D01*
X71198655Y-38683002D01*
X71205848Y-38752501D01*
X71174326Y-38814855D01*
X71155029Y-38831576D01*
X71078625Y-38885072D01*
X71710590Y-39517037D01*
X71647007Y-39534075D01*
X71532993Y-39599901D01*
X71439901Y-39692993D01*
X71374075Y-39807007D01*
X71357037Y-39870590D01*
X70725072Y-39238625D01*
X70725072Y-39238626D01*
X70671574Y-39315030D01*
X70616998Y-39358655D01*
X70547499Y-39365849D01*
X70485144Y-39334326D01*
X70468424Y-39315030D01*
X70414925Y-39238626D01*
X70414925Y-39238625D01*
X69782962Y-39870589D01*
X69765925Y-39807007D01*
X69700099Y-39692993D01*
X69607007Y-39599901D01*
X69492993Y-39534075D01*
X69429410Y-39517037D01*
X70061373Y-38885073D01*
X69984969Y-38831576D01*
X69941344Y-38776999D01*
X69934150Y-38707501D01*
X69965672Y-38645146D01*
X69984968Y-38628425D01*
X70061373Y-38574925D01*
X69429409Y-37942962D01*
X69492993Y-37925925D01*
X69607007Y-37860099D01*
X69700099Y-37767007D01*
X69765925Y-37652993D01*
X69782962Y-37589410D01*
X70414925Y-38221373D01*
X70468425Y-38144968D01*
X70523002Y-38101344D01*
X70592501Y-38094151D01*
X70654855Y-38125673D01*
X70671576Y-38144969D01*
X70725073Y-38221372D01*
X71357037Y-37589409D01*
X71374075Y-37652993D01*
G37*
%TD.AperFunction*%
%TA.AperFunction,Conductor*%
G36*
X72954925Y-38221373D02*
G01*
X73008119Y-38145405D01*
X73062696Y-38101781D01*
X73132195Y-38094588D01*
X73194549Y-38126110D01*
X73211269Y-38145405D01*
X73341505Y-38331401D01*
X73341506Y-38331402D01*
X73508597Y-38498493D01*
X73508603Y-38498498D01*
X73694158Y-38628425D01*
X73737783Y-38683002D01*
X73744977Y-38752500D01*
X73713454Y-38814855D01*
X73694158Y-38831575D01*
X73508597Y-38961505D01*
X73341505Y-39128597D01*
X73211269Y-39314595D01*
X73156692Y-39358220D01*
X73087194Y-39365414D01*
X73024839Y-39333891D01*
X73008119Y-39314595D01*
X72954925Y-39238626D01*
X72954925Y-39238625D01*
X72322962Y-39870589D01*
X72305925Y-39807007D01*
X72240099Y-39692993D01*
X72147007Y-39599901D01*
X72032993Y-39534075D01*
X71969410Y-39517037D01*
X72601373Y-38885073D01*
X72524969Y-38831576D01*
X72481344Y-38776999D01*
X72474150Y-38707501D01*
X72505672Y-38645146D01*
X72524968Y-38628425D01*
X72601373Y-38574925D01*
X71969409Y-37942962D01*
X72032993Y-37925925D01*
X72147007Y-37860099D01*
X72240099Y-37767007D01*
X72305925Y-37652993D01*
X72322962Y-37589410D01*
X72954925Y-38221373D01*
G37*
%TD.AperFunction*%
%TA.AperFunction,Conductor*%
G36*
X96943039Y-34019685D02*
G01*
X96988794Y-34072489D01*
X97000000Y-34124000D01*
X97000000Y-38000000D01*
X100876000Y-38000000D01*
X100943039Y-38019685D01*
X100988794Y-38072489D01*
X101000000Y-38124000D01*
X101000000Y-52231403D01*
X100980315Y-52298442D01*
X100927511Y-52344197D01*
X100858353Y-52354141D01*
X100794797Y-52325116D01*
X100788319Y-52319084D01*
X98911941Y-50442706D01*
X98878456Y-50381383D01*
X98879847Y-50322931D01*
X98905635Y-50226692D01*
X98925468Y-50000000D01*
X98905635Y-49773308D01*
X98854100Y-49580977D01*
X98846741Y-49553511D01*
X98846738Y-49553502D01*
X98794009Y-49440425D01*
X98750568Y-49347266D01*
X98620047Y-49160861D01*
X98620045Y-49160858D01*
X98459141Y-48999954D01*
X98272734Y-48869432D01*
X98272732Y-48869431D01*
X98066497Y-48773261D01*
X98066488Y-48773258D01*
X97846697Y-48714366D01*
X97846693Y-48714365D01*
X97846692Y-48714365D01*
X97846691Y-48714364D01*
X97846686Y-48714364D01*
X97620002Y-48694532D01*
X97619998Y-48694532D01*
X97393313Y-48714364D01*
X97393302Y-48714366D01*
X97173511Y-48773258D01*
X97173502Y-48773261D01*
X96967267Y-48869431D01*
X96967265Y-48869432D01*
X96780858Y-48999954D01*
X96732181Y-49048632D01*
X96670858Y-49082117D01*
X96601166Y-49077133D01*
X96545233Y-49035261D01*
X96520816Y-48969797D01*
X96520500Y-48960951D01*
X96520500Y-40929060D01*
X96520501Y-40929047D01*
X96520501Y-40760944D01*
X96520501Y-40760943D01*
X96479577Y-40608216D01*
X96400952Y-40472032D01*
X96400524Y-40471290D01*
X96400518Y-40471282D01*
X95009899Y-39080663D01*
X93487589Y-37558354D01*
X93487588Y-37558352D01*
X93368717Y-37439481D01*
X93368709Y-37439475D01*
X93263664Y-37378828D01*
X93263663Y-37378827D01*
X93263663Y-37378828D01*
X93231785Y-37360423D01*
X93079057Y-37319499D01*
X92920943Y-37319499D01*
X92913347Y-37319499D01*
X92913331Y-37319500D01*
X91474499Y-37319500D01*
X91407460Y-37299815D01*
X91361705Y-37247011D01*
X91350499Y-37195500D01*
X91350499Y-37022129D01*
X91350498Y-37022123D01*
X91350497Y-37022116D01*
X91344091Y-36962517D01*
X91343152Y-36960000D01*
X91293797Y-36827671D01*
X91293793Y-36827664D01*
X91207547Y-36712455D01*
X91207544Y-36712452D01*
X91092335Y-36626206D01*
X91092328Y-36626202D01*
X90957482Y-36575908D01*
X90957483Y-36575908D01*
X90897883Y-36569501D01*
X90897881Y-36569500D01*
X90897873Y-36569500D01*
X90897864Y-36569500D01*
X89102129Y-36569500D01*
X89102123Y-36569501D01*
X89042516Y-36575908D01*
X88907671Y-36626202D01*
X88907664Y-36626206D01*
X88792455Y-36712452D01*
X88792452Y-36712455D01*
X88706206Y-36827664D01*
X88706202Y-36827671D01*
X88655908Y-36962517D01*
X88652272Y-36996344D01*
X88649501Y-37022123D01*
X88649500Y-37022135D01*
X88649500Y-38817870D01*
X88649501Y-38817876D01*
X88655908Y-38877483D01*
X88706202Y-39012328D01*
X88706206Y-39012335D01*
X88792452Y-39127544D01*
X88792455Y-39127547D01*
X88907664Y-39213793D01*
X88907671Y-39213797D01*
X89039081Y-39262810D01*
X89095015Y-39304681D01*
X89119432Y-39370145D01*
X89104580Y-39438418D01*
X89083430Y-39466673D01*
X88961503Y-39588600D01*
X88825965Y-39782169D01*
X88825964Y-39782171D01*
X88726098Y-39996335D01*
X88726094Y-39996344D01*
X88664938Y-40224586D01*
X88664936Y-40224596D01*
X88644341Y-40459999D01*
X88644341Y-40460000D01*
X88664936Y-40695403D01*
X88664938Y-40695413D01*
X88726094Y-40923655D01*
X88726096Y-40923659D01*
X88726097Y-40923663D01*
X88793709Y-41068656D01*
X88825965Y-41137830D01*
X88825967Y-41137834D01*
X88961501Y-41331395D01*
X88961506Y-41331402D01*
X89128597Y-41498493D01*
X89128603Y-41498498D01*
X89314158Y-41628425D01*
X89357783Y-41683002D01*
X89364977Y-41752500D01*
X89333454Y-41814855D01*
X89314158Y-41831575D01*
X89128597Y-41961505D01*
X88961505Y-42128597D01*
X88825965Y-42322169D01*
X88825964Y-42322171D01*
X88726098Y-42536335D01*
X88726094Y-42536344D01*
X88664938Y-42764586D01*
X88664936Y-42764596D01*
X88644341Y-42999999D01*
X88644341Y-43000000D01*
X88664936Y-43235403D01*
X88664938Y-43235413D01*
X88726094Y-43463655D01*
X88726096Y-43463659D01*
X88726097Y-43463663D01*
X88798839Y-43619658D01*
X88825965Y-43677830D01*
X88825967Y-43677834D01*
X88881984Y-43757834D01*
X88961505Y-43871401D01*
X89128599Y-44038495D01*
X89225384Y-44106265D01*
X89322165Y-44174032D01*
X89322167Y-44174033D01*
X89322170Y-44174035D01*
X89536337Y-44273903D01*
X89764592Y-44335063D01*
X89952918Y-44351539D01*
X89999999Y-44355659D01*
X90000000Y-44355659D01*
X90000001Y-44355659D01*
X90039234Y-44352226D01*
X90235408Y-44335063D01*
X90463663Y-44273903D01*
X90677830Y-44174035D01*
X90871401Y-44038495D01*
X91038495Y-43871401D01*
X91174035Y-43677830D01*
X91176707Y-43672097D01*
X91222878Y-43619658D01*
X91289091Y-43600500D01*
X92275500Y-43600500D01*
X92342539Y-43620185D01*
X92388294Y-43672989D01*
X92399500Y-43724500D01*
X92399500Y-55179903D01*
X92379815Y-55246942D01*
X92363181Y-55267584D01*
X90727584Y-56903181D01*
X90666261Y-56936666D01*
X90639903Y-56939500D01*
X88624500Y-56939500D01*
X88557461Y-56919815D01*
X88511706Y-56867011D01*
X88500500Y-56815500D01*
X88500499Y-55252129D01*
X88500498Y-55252123D01*
X88500497Y-55252116D01*
X88494091Y-55192517D01*
X88493152Y-55190000D01*
X88443797Y-55057671D01*
X88443793Y-55057664D01*
X88357547Y-54942455D01*
X88357544Y-54942452D01*
X88242335Y-54856206D01*
X88242328Y-54856202D01*
X88107482Y-54805908D01*
X88107483Y-54805908D01*
X88047883Y-54799501D01*
X88047881Y-54799500D01*
X88047873Y-54799500D01*
X88047864Y-54799500D01*
X86352129Y-54799500D01*
X86352123Y-54799501D01*
X86292516Y-54805908D01*
X86157671Y-54856202D01*
X86157664Y-54856206D01*
X86042455Y-54942452D01*
X86042452Y-54942455D01*
X85956206Y-55057664D01*
X85956202Y-55057671D01*
X85905908Y-55192517D01*
X85901743Y-55231265D01*
X85899500Y-55252127D01*
X85899500Y-55842734D01*
X85899501Y-56375500D01*
X85879816Y-56442539D01*
X85827013Y-56488294D01*
X85775501Y-56499500D01*
X83374137Y-56499500D01*
X83307098Y-56479815D01*
X83261343Y-56427011D01*
X83251399Y-56357853D01*
X83254362Y-56343407D01*
X83268263Y-56291524D01*
X83285635Y-56226692D01*
X83305468Y-56000000D01*
X83285635Y-55773308D01*
X83226739Y-55553504D01*
X83130568Y-55347266D01*
X83000047Y-55160861D01*
X83000045Y-55160858D01*
X82839141Y-54999954D01*
X82652734Y-54869432D01*
X82652732Y-54869431D01*
X82446497Y-54773261D01*
X82446488Y-54773258D01*
X82226697Y-54714366D01*
X82226693Y-54714365D01*
X82226692Y-54714365D01*
X82226691Y-54714364D01*
X82226686Y-54714364D01*
X82000002Y-54694532D01*
X81999998Y-54694532D01*
X81773313Y-54714364D01*
X81773302Y-54714366D01*
X81553511Y-54773258D01*
X81553502Y-54773261D01*
X81347267Y-54869431D01*
X81347265Y-54869432D01*
X81160858Y-54999954D01*
X80999954Y-55160858D01*
X80977787Y-55192517D01*
X80869881Y-55346624D01*
X80815307Y-55390248D01*
X80768308Y-55399500D01*
X77380097Y-55399500D01*
X77313058Y-55379815D01*
X77292416Y-55363181D01*
X72306621Y-50377386D01*
X72273136Y-50316063D01*
X72274526Y-50257613D01*
X72286549Y-50212747D01*
X72305162Y-50000000D01*
X72286549Y-49787253D01*
X72231276Y-49580970D01*
X72141021Y-49387419D01*
X72018529Y-49212481D01*
X72018527Y-49212478D01*
X71867521Y-49061472D01*
X71727707Y-48963574D01*
X71692581Y-48938979D01*
X71692580Y-48938978D01*
X71692578Y-48938977D01*
X71692579Y-48938977D01*
X71543436Y-48869431D01*
X71499030Y-48848724D01*
X71499026Y-48848723D01*
X71499022Y-48848721D01*
X71292752Y-48793452D01*
X71292748Y-48793451D01*
X71292747Y-48793451D01*
X71292746Y-48793450D01*
X71292741Y-48793450D01*
X71080002Y-48774838D01*
X71079998Y-48774838D01*
X70867258Y-48793450D01*
X70867247Y-48793452D01*
X70660977Y-48848721D01*
X70660968Y-48848725D01*
X70467421Y-48938977D01*
X70292478Y-49061472D01*
X70141472Y-49212478D01*
X70018977Y-49387421D01*
X69928725Y-49580968D01*
X69926870Y-49586064D01*
X69924749Y-49585292D01*
X69893406Y-49636710D01*
X69830558Y-49667237D01*
X69761183Y-49658939D01*
X69707307Y-49614452D01*
X69694169Y-49585685D01*
X69693130Y-49586064D01*
X69691279Y-49580983D01*
X69691276Y-49580970D01*
X69601021Y-49387419D01*
X69478529Y-49212481D01*
X69478527Y-49212478D01*
X69327521Y-49061472D01*
X69187707Y-48963574D01*
X69152581Y-48938979D01*
X69152580Y-48938978D01*
X69152578Y-48938977D01*
X69152579Y-48938977D01*
X69003436Y-48869431D01*
X68959030Y-48848724D01*
X68959026Y-48848723D01*
X68959022Y-48848721D01*
X68752752Y-48793452D01*
X68752748Y-48793451D01*
X68752747Y-48793451D01*
X68752746Y-48793450D01*
X68752741Y-48793450D01*
X68540002Y-48774838D01*
X68539998Y-48774838D01*
X68327258Y-48793450D01*
X68327247Y-48793452D01*
X68120977Y-48848721D01*
X68120968Y-48848725D01*
X67927421Y-48938977D01*
X67752478Y-49061472D01*
X67601472Y-49212478D01*
X67507544Y-49346623D01*
X67452967Y-49390248D01*
X67405969Y-49399500D01*
X67134031Y-49399500D01*
X67066992Y-49379815D01*
X67032456Y-49346623D01*
X66938527Y-49212478D01*
X66787521Y-49061472D01*
X66647707Y-48963574D01*
X66612581Y-48938979D01*
X66612580Y-48938978D01*
X66612578Y-48938977D01*
X66612579Y-48938977D01*
X66463436Y-48869431D01*
X66419030Y-48848724D01*
X66419026Y-48848723D01*
X66419022Y-48848721D01*
X66212752Y-48793452D01*
X66212748Y-48793451D01*
X66212747Y-48793451D01*
X66212746Y-48793450D01*
X66212741Y-48793450D01*
X66000002Y-48774838D01*
X65999998Y-48774838D01*
X65787258Y-48793450D01*
X65787247Y-48793452D01*
X65580977Y-48848721D01*
X65580968Y-48848725D01*
X65387421Y-48938977D01*
X65212478Y-49061472D01*
X65061472Y-49212478D01*
X64938977Y-49387421D01*
X64848725Y-49580968D01*
X64848721Y-49580977D01*
X64793452Y-49787247D01*
X64793450Y-49787258D01*
X64774838Y-49999998D01*
X64774838Y-50000001D01*
X64793450Y-50212741D01*
X64793452Y-50212752D01*
X64848721Y-50419022D01*
X64848723Y-50419026D01*
X64848724Y-50419030D01*
X64891171Y-50510058D01*
X64938977Y-50612578D01*
X65061472Y-50787521D01*
X65212478Y-50938527D01*
X65212481Y-50938529D01*
X65387419Y-51061021D01*
X65387421Y-51061022D01*
X65387420Y-51061022D01*
X65436309Y-51083819D01*
X65580970Y-51151276D01*
X65787253Y-51206549D01*
X65939215Y-51219844D01*
X65999998Y-51225162D01*
X66000000Y-51225162D01*
X66000002Y-51225162D01*
X66053186Y-51220508D01*
X66212747Y-51206549D01*
X66419030Y-51151276D01*
X66612581Y-51061021D01*
X66787519Y-50938529D01*
X66938529Y-50787519D01*
X67024361Y-50664938D01*
X67032456Y-50653377D01*
X67087033Y-50609752D01*
X67134031Y-50600500D01*
X67405969Y-50600500D01*
X67473008Y-50620185D01*
X67507544Y-50653377D01*
X67601472Y-50787521D01*
X67752478Y-50938527D01*
X67752481Y-50938529D01*
X67927419Y-51061021D01*
X67927421Y-51061022D01*
X67927420Y-51061022D01*
X67976309Y-51083819D01*
X68120970Y-51151276D01*
X68327253Y-51206549D01*
X68479215Y-51219844D01*
X68539998Y-51225162D01*
X68540000Y-51225162D01*
X68540002Y-51225162D01*
X68593186Y-51220508D01*
X68752747Y-51206549D01*
X68797612Y-51194527D01*
X68867461Y-51196190D01*
X68917386Y-51226621D01*
X71363181Y-53672416D01*
X71396666Y-53733739D01*
X71399500Y-53760097D01*
X71399500Y-54768306D01*
X71379815Y-54835345D01*
X71346623Y-54869881D01*
X71160859Y-54999953D01*
X70999954Y-55160858D01*
X70869432Y-55347265D01*
X70869431Y-55347267D01*
X70773261Y-55553502D01*
X70773258Y-55553511D01*
X70714366Y-55773302D01*
X70714364Y-55773313D01*
X70694532Y-55999998D01*
X70694532Y-56000001D01*
X70714364Y-56226686D01*
X70714366Y-56226697D01*
X70773258Y-56446488D01*
X70773261Y-56446497D01*
X70869431Y-56652732D01*
X70869432Y-56652734D01*
X70999954Y-56839141D01*
X71160858Y-57000045D01*
X71160861Y-57000047D01*
X71347266Y-57130568D01*
X71553504Y-57226739D01*
X71773308Y-57285635D01*
X71935230Y-57299801D01*
X71999998Y-57305468D01*
X72000000Y-57305468D01*
X72000002Y-57305468D01*
X72056673Y-57300509D01*
X72226692Y-57285635D01*
X72446496Y-57226739D01*
X72652734Y-57130568D01*
X72839139Y-57000047D01*
X73000047Y-56839139D01*
X73088426Y-56712919D01*
X73143001Y-56669295D01*
X73212499Y-56662101D01*
X73274854Y-56693623D01*
X73291570Y-56712915D01*
X73363401Y-56815500D01*
X73379955Y-56839142D01*
X73540858Y-57000045D01*
X73540861Y-57000047D01*
X73727266Y-57130568D01*
X73933504Y-57226739D01*
X74153308Y-57285635D01*
X74315230Y-57299801D01*
X74379998Y-57305468D01*
X74380000Y-57305468D01*
X74380002Y-57305468D01*
X74411421Y-57302719D01*
X74606692Y-57285635D01*
X74704204Y-57259506D01*
X74774054Y-57261167D01*
X74804020Y-57276843D01*
X74804244Y-57276456D01*
X74948208Y-57359572D01*
X74948215Y-57359576D01*
X75045469Y-57385635D01*
X75100941Y-57400499D01*
X75100942Y-57400499D01*
X80499902Y-57400499D01*
X80566941Y-57420184D01*
X80587583Y-57436818D01*
X80615139Y-57464374D01*
X80615149Y-57464385D01*
X80619479Y-57468715D01*
X80619480Y-57468716D01*
X80731284Y-57580520D01*
X80731286Y-57580521D01*
X80731290Y-57580524D01*
X80841826Y-57644341D01*
X80868216Y-57659577D01*
X80980019Y-57689534D01*
X81020942Y-57700500D01*
X81020943Y-57700500D01*
X81029582Y-57700500D01*
X81096621Y-57720185D01*
X81142376Y-57772989D01*
X81152320Y-57842147D01*
X81123295Y-57905703D01*
X81117263Y-57912180D01*
X79402286Y-59627157D01*
X77731286Y-61298157D01*
X77619481Y-61409961D01*
X77619479Y-61409963D01*
X77599557Y-61444470D01*
X77591136Y-61459057D01*
X77540423Y-61546894D01*
X77499499Y-61699622D01*
X77499499Y-61699624D01*
X77499499Y-61867725D01*
X77499500Y-61867738D01*
X77499500Y-62625863D01*
X77479815Y-62692902D01*
X77427011Y-62738657D01*
X77357853Y-62748601D01*
X77343407Y-62745638D01*
X77226697Y-62714366D01*
X77226693Y-62714365D01*
X77226692Y-62714365D01*
X77226691Y-62714364D01*
X77226686Y-62714364D01*
X77000002Y-62694532D01*
X76999998Y-62694532D01*
X76773313Y-62714364D01*
X76773302Y-62714366D01*
X76677067Y-62740152D01*
X76607217Y-62738489D01*
X76557293Y-62708058D01*
X75106096Y-61256861D01*
X75072611Y-61195538D01*
X75077595Y-61125846D01*
X75119467Y-61069913D01*
X75122604Y-61067640D01*
X75219139Y-61000047D01*
X75380047Y-60839139D01*
X75510568Y-60652734D01*
X75606739Y-60446496D01*
X75665635Y-60226692D01*
X75682634Y-60032384D01*
X75685468Y-60000001D01*
X75685468Y-59999998D01*
X75671019Y-59834851D01*
X75665635Y-59773308D01*
X75606739Y-59553504D01*
X75510568Y-59347266D01*
X75380047Y-59160861D01*
X75380045Y-59160858D01*
X75219141Y-58999954D01*
X75032734Y-58869432D01*
X75032732Y-58869431D01*
X74826497Y-58773261D01*
X74826488Y-58773258D01*
X74606697Y-58714366D01*
X74606693Y-58714365D01*
X74606692Y-58714365D01*
X74606691Y-58714364D01*
X74606686Y-58714364D01*
X74380002Y-58694532D01*
X74379998Y-58694532D01*
X74153313Y-58714364D01*
X74153302Y-58714366D01*
X73933511Y-58773258D01*
X73933502Y-58773261D01*
X73727267Y-58869431D01*
X73727265Y-58869432D01*
X73540858Y-58999954D01*
X73379954Y-59160858D01*
X73291575Y-59287079D01*
X73236999Y-59330704D01*
X73167500Y-59337898D01*
X73105145Y-59306376D01*
X73088425Y-59287079D01*
X73000045Y-59160858D01*
X72839141Y-58999954D01*
X72652734Y-58869432D01*
X72652732Y-58869431D01*
X72446497Y-58773261D01*
X72446488Y-58773258D01*
X72226697Y-58714366D01*
X72226693Y-58714365D01*
X72226692Y-58714365D01*
X72226691Y-58714364D01*
X72226686Y-58714364D01*
X72000002Y-58694532D01*
X71999998Y-58694532D01*
X71773313Y-58714364D01*
X71773302Y-58714366D01*
X71553511Y-58773258D01*
X71553502Y-58773261D01*
X71347267Y-58869431D01*
X71347265Y-58869432D01*
X71160858Y-58999954D01*
X70999954Y-59160858D01*
X70869432Y-59347265D01*
X70869431Y-59347267D01*
X70773261Y-59553502D01*
X70773258Y-59553511D01*
X70714366Y-59773302D01*
X70714364Y-59773313D01*
X70694532Y-59999998D01*
X70694532Y-60000001D01*
X70714364Y-60226686D01*
X70714366Y-60226697D01*
X70773258Y-60446488D01*
X70773261Y-60446497D01*
X70869431Y-60652732D01*
X70869432Y-60652734D01*
X70999954Y-60839141D01*
X71128107Y-60967294D01*
X71161592Y-61028617D01*
X71156608Y-61098309D01*
X71128107Y-61142656D01*
X66712180Y-65558584D01*
X66650857Y-65592069D01*
X66581165Y-65587085D01*
X66525232Y-65545213D01*
X66500815Y-65479749D01*
X66500499Y-65470903D01*
X66500499Y-64532129D01*
X66500498Y-64532123D01*
X66499138Y-64519475D01*
X66494091Y-64472517D01*
X66492994Y-64469577D01*
X66443797Y-64337671D01*
X66443793Y-64337664D01*
X66357547Y-64222455D01*
X66357544Y-64222452D01*
X66242335Y-64136206D01*
X66242328Y-64136202D01*
X66107482Y-64085908D01*
X66107483Y-64085908D01*
X66047883Y-64079501D01*
X66047881Y-64079500D01*
X66047873Y-64079500D01*
X66047865Y-64079500D01*
X64800098Y-64079500D01*
X64733059Y-64059815D01*
X64712417Y-64043181D01*
X63356819Y-62687583D01*
X63323334Y-62626260D01*
X63320500Y-62599902D01*
X63320500Y-61960096D01*
X63340185Y-61893057D01*
X63356815Y-61872419D01*
X63937294Y-61291939D01*
X63998615Y-61258456D01*
X64057066Y-61259847D01*
X64076604Y-61265082D01*
X64153308Y-61285635D01*
X64296458Y-61298159D01*
X64379998Y-61305468D01*
X64380000Y-61305468D01*
X64380002Y-61305468D01*
X64436673Y-61300509D01*
X64606692Y-61285635D01*
X64826496Y-61226739D01*
X65032734Y-61130568D01*
X65219139Y-61000047D01*
X65380047Y-60839139D01*
X65510568Y-60652734D01*
X65606739Y-60446496D01*
X65665635Y-60226692D01*
X65682634Y-60032384D01*
X65685468Y-60000001D01*
X65685468Y-59999998D01*
X65671019Y-59834851D01*
X65665635Y-59773308D01*
X65606739Y-59553504D01*
X65510568Y-59347266D01*
X65380047Y-59160861D01*
X65380045Y-59160858D01*
X65219141Y-58999954D01*
X65032734Y-58869432D01*
X65032732Y-58869431D01*
X64826497Y-58773261D01*
X64826488Y-58773258D01*
X64606697Y-58714366D01*
X64606693Y-58714365D01*
X64606692Y-58714365D01*
X64606691Y-58714364D01*
X64606686Y-58714364D01*
X64380002Y-58694532D01*
X64379998Y-58694532D01*
X64153313Y-58714364D01*
X64153302Y-58714366D01*
X63933511Y-58773258D01*
X63933502Y-58773261D01*
X63727267Y-58869431D01*
X63727265Y-58869432D01*
X63540858Y-58999954D01*
X63379954Y-59160858D01*
X63291575Y-59287079D01*
X63236999Y-59330704D01*
X63167500Y-59337898D01*
X63105145Y-59306376D01*
X63088425Y-59287079D01*
X63000045Y-59160858D01*
X62839140Y-58999953D01*
X62653377Y-58869881D01*
X62609752Y-58815304D01*
X62600500Y-58768306D01*
X62600500Y-57231692D01*
X62620185Y-57164653D01*
X62653374Y-57130119D01*
X62839139Y-57000047D01*
X63000047Y-56839139D01*
X63088426Y-56712919D01*
X63143001Y-56669295D01*
X63212499Y-56662101D01*
X63274854Y-56693623D01*
X63291570Y-56712915D01*
X63363401Y-56815500D01*
X63379955Y-56839142D01*
X63540858Y-57000045D01*
X63540861Y-57000047D01*
X63727266Y-57130568D01*
X63933504Y-57226739D01*
X64153308Y-57285635D01*
X64315230Y-57299801D01*
X64379998Y-57305468D01*
X64380000Y-57305468D01*
X64380002Y-57305468D01*
X64436673Y-57300509D01*
X64606692Y-57285635D01*
X64826496Y-57226739D01*
X65032734Y-57130568D01*
X65219139Y-57000047D01*
X65380047Y-56839139D01*
X65510568Y-56652734D01*
X65606739Y-56446496D01*
X65665635Y-56226692D01*
X65685468Y-56000000D01*
X65665635Y-55773308D01*
X65606739Y-55553504D01*
X65510568Y-55347266D01*
X65380047Y-55160861D01*
X65380045Y-55160858D01*
X65219141Y-54999954D01*
X65032734Y-54869432D01*
X65032732Y-54869431D01*
X64826497Y-54773261D01*
X64826488Y-54773258D01*
X64606697Y-54714366D01*
X64606693Y-54714365D01*
X64606692Y-54714365D01*
X64606691Y-54714364D01*
X64606686Y-54714364D01*
X64380002Y-54694532D01*
X64379998Y-54694532D01*
X64153313Y-54714364D01*
X64153302Y-54714366D01*
X63933511Y-54773258D01*
X63933502Y-54773261D01*
X63727267Y-54869431D01*
X63727265Y-54869432D01*
X63540858Y-54999954D01*
X63379954Y-55160858D01*
X63291575Y-55287079D01*
X63236999Y-55330704D01*
X63167500Y-55337898D01*
X63105145Y-55306376D01*
X63088425Y-55287079D01*
X63000045Y-55160858D01*
X62839141Y-54999954D01*
X62652734Y-54869432D01*
X62652732Y-54869431D01*
X62446497Y-54773261D01*
X62446488Y-54773258D01*
X62226697Y-54714366D01*
X62226693Y-54714365D01*
X62226692Y-54714365D01*
X62226691Y-54714364D01*
X62226686Y-54714364D01*
X62000002Y-54694532D01*
X61999998Y-54694532D01*
X61773313Y-54714364D01*
X61773302Y-54714366D01*
X61553511Y-54773258D01*
X61553502Y-54773261D01*
X61347267Y-54869431D01*
X61347265Y-54869432D01*
X61160858Y-54999954D01*
X60999954Y-55160858D01*
X60869432Y-55347265D01*
X60869431Y-55347267D01*
X60773261Y-55553502D01*
X60773258Y-55553511D01*
X60714366Y-55773302D01*
X60714364Y-55773313D01*
X60694532Y-55999998D01*
X60694532Y-56000001D01*
X60714364Y-56226686D01*
X60714366Y-56226697D01*
X60773258Y-56446488D01*
X60773261Y-56446497D01*
X60869431Y-56652732D01*
X60869432Y-56652734D01*
X60999954Y-56839141D01*
X61160858Y-57000045D01*
X61160861Y-57000047D01*
X61346624Y-57130118D01*
X61390248Y-57184693D01*
X61399500Y-57231692D01*
X61399500Y-58768306D01*
X61379815Y-58835345D01*
X61346623Y-58869881D01*
X61160859Y-58999953D01*
X60999954Y-59160858D01*
X60869432Y-59347265D01*
X60869431Y-59347267D01*
X60773261Y-59553502D01*
X60773258Y-59553511D01*
X60714366Y-59773302D01*
X60714364Y-59773313D01*
X60694532Y-59999998D01*
X60694532Y-60000001D01*
X60714364Y-60226686D01*
X60714366Y-60226697D01*
X60773258Y-60446488D01*
X60773261Y-60446497D01*
X60869431Y-60652732D01*
X60869432Y-60652734D01*
X60999954Y-60839141D01*
X61160858Y-61000045D01*
X61160861Y-61000047D01*
X61347266Y-61130568D01*
X61553504Y-61226739D01*
X61773308Y-61285635D01*
X62000000Y-61305468D01*
X62021536Y-61303583D01*
X62090033Y-61317348D01*
X62140218Y-61365961D01*
X62156153Y-61433989D01*
X62152119Y-61459204D01*
X62119499Y-61580943D01*
X62119499Y-61749046D01*
X62119500Y-61749059D01*
X62119500Y-62175500D01*
X62099815Y-62242539D01*
X62047011Y-62288294D01*
X61995500Y-62299500D01*
X61631035Y-62299500D01*
X61631019Y-62299499D01*
X61623423Y-62299499D01*
X61465308Y-62299499D01*
X61388944Y-62319961D01*
X61312579Y-62340423D01*
X61312574Y-62340426D01*
X61175655Y-62419475D01*
X61175647Y-62419481D01*
X60419481Y-63175647D01*
X60419475Y-63175655D01*
X60382028Y-63240517D01*
X60382028Y-63240519D01*
X60340423Y-63312579D01*
X60340423Y-63312580D01*
X60299499Y-63465308D01*
X60299499Y-63465310D01*
X60299499Y-63633411D01*
X60299500Y-63633424D01*
X60299500Y-70003330D01*
X60299499Y-70003348D01*
X60299499Y-70169054D01*
X60299498Y-70169054D01*
X60299499Y-70169057D01*
X60340423Y-70321785D01*
X60340424Y-70321787D01*
X60340423Y-70321787D01*
X60355135Y-70347267D01*
X60355136Y-70347268D01*
X60388319Y-70404743D01*
X60419479Y-70458714D01*
X60419481Y-70458717D01*
X60518058Y-70557294D01*
X60551543Y-70618617D01*
X60550152Y-70677068D01*
X60524366Y-70773302D01*
X60524364Y-70773313D01*
X60504532Y-70999998D01*
X60504532Y-71000001D01*
X60524364Y-71226686D01*
X60524366Y-71226697D01*
X60555638Y-71343407D01*
X60553975Y-71413257D01*
X60514812Y-71471119D01*
X60450583Y-71498623D01*
X60435863Y-71499500D01*
X55590097Y-71499500D01*
X55523058Y-71479815D01*
X55502416Y-71463181D01*
X55481941Y-71442706D01*
X55448456Y-71381383D01*
X55449847Y-71322931D01*
X55456222Y-71299141D01*
X55475635Y-71226692D01*
X55495468Y-71000000D01*
X55475635Y-70773308D01*
X55417802Y-70557470D01*
X55416741Y-70553511D01*
X55416738Y-70553502D01*
X55392191Y-70500861D01*
X55320568Y-70347266D01*
X55190047Y-70160861D01*
X55190045Y-70160858D01*
X55029141Y-69999954D01*
X54842734Y-69869432D01*
X54842732Y-69869431D01*
X54711822Y-69808386D01*
X54659383Y-69762213D01*
X54640231Y-69695020D01*
X54660447Y-69628138D01*
X54676541Y-69608328D01*
X55960520Y-68324351D01*
X56039577Y-68187419D01*
X56080501Y-68034692D01*
X56080501Y-67876577D01*
X56080501Y-67868982D01*
X56080500Y-67868964D01*
X56080500Y-67004695D01*
X56080501Y-67004682D01*
X56080501Y-66836579D01*
X56070813Y-66800423D01*
X56039577Y-66683851D01*
X56033117Y-66672662D01*
X55960524Y-66546925D01*
X55960518Y-66546917D01*
X55413554Y-65999953D01*
X54824760Y-65411160D01*
X54791276Y-65349838D01*
X54796260Y-65280146D01*
X54838132Y-65224213D01*
X54860033Y-65211100D01*
X55032734Y-65130568D01*
X55219139Y-65000047D01*
X55380047Y-64839139D01*
X55510568Y-64652734D01*
X55606739Y-64446496D01*
X55665635Y-64226692D01*
X55685468Y-64000000D01*
X55665635Y-63773308D01*
X55617771Y-63594676D01*
X55606741Y-63553511D01*
X55606738Y-63553502D01*
X55588659Y-63514732D01*
X55510568Y-63347266D01*
X55380047Y-63160861D01*
X55380045Y-63160858D01*
X55219141Y-62999954D01*
X55032734Y-62869432D01*
X55032732Y-62869431D01*
X54826497Y-62773261D01*
X54826488Y-62773258D01*
X54606697Y-62714366D01*
X54606693Y-62714365D01*
X54606692Y-62714365D01*
X54606691Y-62714364D01*
X54606686Y-62714364D01*
X54380002Y-62694532D01*
X54379998Y-62694532D01*
X54153313Y-62714364D01*
X54153302Y-62714366D01*
X54057067Y-62740152D01*
X53987217Y-62738489D01*
X53937293Y-62708058D01*
X51137659Y-59908424D01*
X51104174Y-59847101D01*
X51109158Y-59777409D01*
X51123565Y-59749999D01*
X53101127Y-59749999D01*
X53101128Y-59750000D01*
X54064314Y-59750000D01*
X54059920Y-59754394D01*
X54007259Y-59845606D01*
X53980000Y-59947339D01*
X53980000Y-60052661D01*
X54007259Y-60154394D01*
X54059920Y-60245606D01*
X54064314Y-60250000D01*
X53101128Y-60250000D01*
X53153730Y-60446317D01*
X53153734Y-60446326D01*
X53249865Y-60652482D01*
X53380342Y-60838820D01*
X53541179Y-60999657D01*
X53727517Y-61130134D01*
X53933673Y-61226265D01*
X53933682Y-61226269D01*
X54129999Y-61278872D01*
X54130000Y-61278871D01*
X54130000Y-60315686D01*
X54134394Y-60320080D01*
X54225606Y-60372741D01*
X54327339Y-60400000D01*
X54432661Y-60400000D01*
X54534394Y-60372741D01*
X54625606Y-60320080D01*
X54630000Y-60315686D01*
X54630000Y-61278872D01*
X54826317Y-61226269D01*
X54826326Y-61226265D01*
X55032482Y-61130134D01*
X55218820Y-60999657D01*
X55379657Y-60838820D01*
X55510134Y-60652482D01*
X55606265Y-60446326D01*
X55606269Y-60446317D01*
X55658872Y-60250000D01*
X54695686Y-60250000D01*
X54700080Y-60245606D01*
X54752741Y-60154394D01*
X54780000Y-60052661D01*
X54780000Y-59947339D01*
X54752741Y-59845606D01*
X54700080Y-59754394D01*
X54695686Y-59750000D01*
X55658872Y-59750000D01*
X55658872Y-59749999D01*
X55606269Y-59553682D01*
X55606265Y-59553673D01*
X55510134Y-59347517D01*
X55379657Y-59161179D01*
X55218820Y-59000342D01*
X55032482Y-58869865D01*
X54826328Y-58773734D01*
X54630000Y-58721127D01*
X54630000Y-59684314D01*
X54625606Y-59679920D01*
X54534394Y-59627259D01*
X54432661Y-59600000D01*
X54327339Y-59600000D01*
X54225606Y-59627259D01*
X54134394Y-59679920D01*
X54130000Y-59684314D01*
X54130000Y-58721127D01*
X53933671Y-58773734D01*
X53727517Y-58869865D01*
X53541179Y-59000342D01*
X53380342Y-59161179D01*
X53249865Y-59347517D01*
X53153734Y-59553673D01*
X53153730Y-59553682D01*
X53101127Y-59749999D01*
X51123565Y-59749999D01*
X51123762Y-59749625D01*
X51174035Y-59677830D01*
X51273903Y-59463663D01*
X51335063Y-59235408D01*
X51355659Y-59000000D01*
X51335063Y-58764592D01*
X51300671Y-58636239D01*
X51302334Y-58566393D01*
X51332763Y-58516470D01*
X53123140Y-56726094D01*
X53184461Y-56692611D01*
X53254153Y-56697595D01*
X53310086Y-56739467D01*
X53312394Y-56742654D01*
X53379954Y-56839141D01*
X53540858Y-57000045D01*
X53540861Y-57000047D01*
X53727266Y-57130568D01*
X53933504Y-57226739D01*
X54153308Y-57285635D01*
X54315230Y-57299801D01*
X54379998Y-57305468D01*
X54380000Y-57305468D01*
X54380002Y-57305468D01*
X54436673Y-57300509D01*
X54606692Y-57285635D01*
X54826496Y-57226739D01*
X55032734Y-57130568D01*
X55219139Y-57000047D01*
X55380047Y-56839139D01*
X55510568Y-56652734D01*
X55606739Y-56446496D01*
X55665635Y-56226692D01*
X55685468Y-56000000D01*
X55665635Y-55773308D01*
X55606739Y-55553504D01*
X55510568Y-55347266D01*
X55380047Y-55160861D01*
X55380045Y-55160858D01*
X55219141Y-54999954D01*
X55032734Y-54869432D01*
X55032732Y-54869431D01*
X54826497Y-54773261D01*
X54826488Y-54773258D01*
X54606697Y-54714366D01*
X54606693Y-54714365D01*
X54606692Y-54714365D01*
X54606691Y-54714364D01*
X54606686Y-54714364D01*
X54380002Y-54694532D01*
X54379998Y-54694532D01*
X54153313Y-54714364D01*
X54153302Y-54714366D01*
X53933511Y-54773258D01*
X53933502Y-54773261D01*
X53727267Y-54869431D01*
X53727265Y-54869432D01*
X53540858Y-54999954D01*
X53379954Y-55160858D01*
X53357787Y-55192517D01*
X53249881Y-55346624D01*
X53195307Y-55390248D01*
X53148308Y-55399500D01*
X53086670Y-55399500D01*
X53086654Y-55399499D01*
X53079058Y-55399499D01*
X52920943Y-55399499D01*
X52856761Y-55416697D01*
X52768214Y-55440423D01*
X52768209Y-55440426D01*
X52631290Y-55519475D01*
X52631282Y-55519481D01*
X50483530Y-57667233D01*
X50422207Y-57700718D01*
X50363756Y-57699327D01*
X50235413Y-57664938D01*
X50235403Y-57664936D01*
X50000001Y-57644341D01*
X49999999Y-57644341D01*
X49764596Y-57664936D01*
X49764586Y-57664938D01*
X49536344Y-57726094D01*
X49536335Y-57726098D01*
X49322171Y-57825964D01*
X49322169Y-57825965D01*
X49128600Y-57961503D01*
X49006284Y-58083819D01*
X48944961Y-58117303D01*
X48875269Y-58112319D01*
X48819336Y-58070447D01*
X48802421Y-58039470D01*
X48753354Y-57907913D01*
X48753350Y-57907906D01*
X48667190Y-57792812D01*
X48667187Y-57792809D01*
X48552093Y-57706649D01*
X48552086Y-57706645D01*
X48417379Y-57656403D01*
X48417372Y-57656401D01*
X48357844Y-57650000D01*
X47710000Y-57650000D01*
X47710000Y-58566988D01*
X47652993Y-58534075D01*
X47525826Y-58500000D01*
X47394174Y-58500000D01*
X47267007Y-58534075D01*
X47210000Y-58566988D01*
X47210000Y-57650000D01*
X46562155Y-57650000D01*
X46502627Y-57656401D01*
X46502620Y-57656403D01*
X46367913Y-57706645D01*
X46367906Y-57706649D01*
X46252812Y-57792809D01*
X46252809Y-57792812D01*
X46166649Y-57907906D01*
X46166645Y-57907913D01*
X46116403Y-58042620D01*
X46116401Y-58042627D01*
X46110000Y-58102155D01*
X46110000Y-58750000D01*
X47026988Y-58750000D01*
X46994075Y-58807007D01*
X46960000Y-58934174D01*
X46960000Y-59065826D01*
X46994075Y-59192993D01*
X47026988Y-59250000D01*
X46110000Y-59250000D01*
X46110000Y-59897844D01*
X46116401Y-59957372D01*
X46116403Y-59957379D01*
X46166645Y-60092086D01*
X46166649Y-60092093D01*
X46252809Y-60207187D01*
X46252812Y-60207190D01*
X46367906Y-60293350D01*
X46367913Y-60293354D01*
X46502620Y-60343596D01*
X46502627Y-60343598D01*
X46562155Y-60349999D01*
X46562172Y-60350000D01*
X47210000Y-60350000D01*
X47210000Y-59433012D01*
X47267007Y-59465925D01*
X47394174Y-59500000D01*
X47525826Y-59500000D01*
X47652993Y-59465925D01*
X47710000Y-59433012D01*
X47710000Y-60350000D01*
X48357828Y-60350000D01*
X48357844Y-60349999D01*
X48417372Y-60343598D01*
X48417379Y-60343596D01*
X48552086Y-60293354D01*
X48552093Y-60293350D01*
X48667187Y-60207190D01*
X48667190Y-60207187D01*
X48753350Y-60092093D01*
X48753354Y-60092086D01*
X48802422Y-59960529D01*
X48844293Y-59904595D01*
X48909757Y-59880178D01*
X48978030Y-59895030D01*
X49006285Y-59916181D01*
X49128599Y-60038495D01*
X49187670Y-60079857D01*
X49322165Y-60174032D01*
X49322167Y-60174033D01*
X49322170Y-60174035D01*
X49536337Y-60273903D01*
X49764592Y-60335063D01*
X49830574Y-60340835D01*
X49895641Y-60366287D01*
X49907447Y-60376682D01*
X52718583Y-63187818D01*
X52752068Y-63249141D01*
X52747084Y-63318833D01*
X52705212Y-63374766D01*
X52639748Y-63399183D01*
X52630902Y-63399499D01*
X52477712Y-63399499D01*
X52477696Y-63399500D01*
X48086670Y-63399500D01*
X48086654Y-63399499D01*
X48079058Y-63399499D01*
X47920943Y-63399499D01*
X47844579Y-63419961D01*
X47768214Y-63440423D01*
X47768209Y-63440426D01*
X47631290Y-63519475D01*
X47631282Y-63519481D01*
X46519479Y-64631284D01*
X46516284Y-64636819D01*
X46491654Y-64679481D01*
X46440423Y-64768215D01*
X46399499Y-64920943D01*
X46399499Y-64920945D01*
X46399499Y-65089046D01*
X46399500Y-65089059D01*
X46399500Y-77913330D01*
X46399499Y-77913348D01*
X46399499Y-78079054D01*
X46399498Y-78079054D01*
X46434661Y-78210282D01*
X46440423Y-78231785D01*
X46449676Y-78247812D01*
X46469358Y-78281900D01*
X46469359Y-78281904D01*
X46469360Y-78281904D01*
X46507095Y-78347265D01*
X46519479Y-78368714D01*
X46519481Y-78368717D01*
X46638349Y-78487585D01*
X46638355Y-78487590D01*
X47773378Y-79622613D01*
X47806863Y-79683936D01*
X47805472Y-79742386D01*
X47793452Y-79787246D01*
X47793451Y-79787253D01*
X47774838Y-79999999D01*
X47774838Y-80000001D01*
X47793450Y-80212741D01*
X47793452Y-80212752D01*
X47848721Y-80419022D01*
X47848723Y-80419026D01*
X47848724Y-80419030D01*
X47889078Y-80505568D01*
X47938977Y-80612578D01*
X47938978Y-80612580D01*
X47938979Y-80612581D01*
X47963574Y-80647707D01*
X48061472Y-80787521D01*
X48212478Y-80938527D01*
X48212481Y-80938529D01*
X48387419Y-81061021D01*
X48387421Y-81061022D01*
X48387420Y-81061022D01*
X48419243Y-81075861D01*
X48580970Y-81151276D01*
X48580983Y-81151279D01*
X48586064Y-81153130D01*
X48585292Y-81155250D01*
X48636710Y-81186594D01*
X48667237Y-81249442D01*
X48658939Y-81318817D01*
X48614452Y-81372693D01*
X48585685Y-81385830D01*
X48586064Y-81386870D01*
X48580972Y-81388723D01*
X48580970Y-81388724D01*
X48580968Y-81388725D01*
X48387421Y-81478977D01*
X48212478Y-81601472D01*
X48061472Y-81752478D01*
X47938977Y-81927421D01*
X47848725Y-82120968D01*
X47848721Y-82120977D01*
X47793452Y-82327247D01*
X47793450Y-82327258D01*
X47774838Y-82539998D01*
X47774838Y-82540001D01*
X47793450Y-82752741D01*
X47793452Y-82752752D01*
X47848721Y-82959022D01*
X47848723Y-82959026D01*
X47848724Y-82959030D01*
X47889077Y-83045566D01*
X47938977Y-83152578D01*
X47938978Y-83152580D01*
X47938979Y-83152581D01*
X47953628Y-83173502D01*
X48061472Y-83327521D01*
X48212478Y-83478527D01*
X48212481Y-83478529D01*
X48387419Y-83601021D01*
X48387421Y-83601022D01*
X48387420Y-83601022D01*
X48419243Y-83615861D01*
X48580970Y-83691276D01*
X48580983Y-83691279D01*
X48586064Y-83693130D01*
X48585390Y-83694978D01*
X48637680Y-83726857D01*
X48668204Y-83789707D01*
X48659903Y-83859082D01*
X48615413Y-83912956D01*
X48585904Y-83926432D01*
X48586236Y-83927342D01*
X48581140Y-83929197D01*
X48387671Y-84019412D01*
X48387669Y-84019413D01*
X48331969Y-84058415D01*
X48331968Y-84058415D01*
X48953554Y-84680000D01*
X48947339Y-84680000D01*
X48845606Y-84707259D01*
X48754394Y-84759920D01*
X48679920Y-84834394D01*
X48627259Y-84925606D01*
X48600000Y-85027339D01*
X48600000Y-85033553D01*
X47978415Y-84411968D01*
X47978415Y-84411969D01*
X47939413Y-84467669D01*
X47939412Y-84467671D01*
X47849197Y-84661140D01*
X47849194Y-84661146D01*
X47793945Y-84867337D01*
X47793944Y-84867345D01*
X47775340Y-85079997D01*
X47775340Y-85080002D01*
X47793944Y-85292654D01*
X47793945Y-85292662D01*
X47849194Y-85498853D01*
X47849197Y-85498859D01*
X47939413Y-85692329D01*
X47978415Y-85748030D01*
X48600000Y-85126445D01*
X48600000Y-85132661D01*
X48627259Y-85234394D01*
X48679920Y-85325606D01*
X48754394Y-85400080D01*
X48845606Y-85452741D01*
X48947339Y-85480000D01*
X48953553Y-85480000D01*
X48331968Y-86101584D01*
X48387663Y-86140582D01*
X48387669Y-86140586D01*
X48581140Y-86230802D01*
X48581146Y-86230805D01*
X48787337Y-86286054D01*
X48787345Y-86286055D01*
X48999998Y-86304660D01*
X49000002Y-86304660D01*
X49212654Y-86286055D01*
X49212662Y-86286054D01*
X49418853Y-86230805D01*
X49418864Y-86230801D01*
X49612325Y-86140589D01*
X49668030Y-86101583D01*
X49046448Y-85480000D01*
X49052661Y-85480000D01*
X49154394Y-85452741D01*
X49245606Y-85400080D01*
X49320080Y-85325606D01*
X49372741Y-85234394D01*
X49400000Y-85132661D01*
X49400000Y-85126446D01*
X50021583Y-85748029D01*
X50060589Y-85692325D01*
X50150801Y-85498864D01*
X50150805Y-85498853D01*
X50206054Y-85292662D01*
X50206055Y-85292654D01*
X50224660Y-85080002D01*
X50224660Y-85079997D01*
X50206055Y-84867345D01*
X50206054Y-84867337D01*
X50150805Y-84661146D01*
X50150802Y-84661140D01*
X50060586Y-84467669D01*
X50060582Y-84467663D01*
X50021584Y-84411968D01*
X49400000Y-85033552D01*
X49400000Y-85027339D01*
X49372741Y-84925606D01*
X49320080Y-84834394D01*
X49245606Y-84759920D01*
X49154394Y-84707259D01*
X49052661Y-84680000D01*
X49046447Y-84680000D01*
X49668030Y-84058415D01*
X49612329Y-84019413D01*
X49418859Y-83929197D01*
X49413764Y-83927342D01*
X49414455Y-83925443D01*
X49362325Y-83893667D01*
X49331797Y-83830820D01*
X49340093Y-83761444D01*
X49384579Y-83707567D01*
X49414257Y-83694014D01*
X49413936Y-83693130D01*
X49419013Y-83691280D01*
X49419030Y-83691276D01*
X49612581Y-83601021D01*
X49787519Y-83478529D01*
X49938529Y-83327519D01*
X50009133Y-83226686D01*
X50032456Y-83193377D01*
X50087033Y-83149752D01*
X50134031Y-83140500D01*
X50563331Y-83140500D01*
X50563347Y-83140501D01*
X50570943Y-83140501D01*
X50729054Y-83140501D01*
X50729057Y-83140501D01*
X50881785Y-83099577D01*
X50931904Y-83070639D01*
X51018716Y-83020520D01*
X51130520Y-82908716D01*
X51130520Y-82908714D01*
X51140728Y-82898507D01*
X51140730Y-82898504D01*
X51289235Y-82749999D01*
X52911127Y-82749999D01*
X52911128Y-82750000D01*
X53874314Y-82750000D01*
X53869920Y-82754394D01*
X53817259Y-82845606D01*
X53790000Y-82947339D01*
X53790000Y-83052661D01*
X53817259Y-83154394D01*
X53869920Y-83245606D01*
X53874314Y-83250000D01*
X52911128Y-83250000D01*
X52963730Y-83446317D01*
X52963734Y-83446326D01*
X53059865Y-83652482D01*
X53190342Y-83838820D01*
X53351179Y-83999657D01*
X53537517Y-84130134D01*
X53743673Y-84226265D01*
X53743682Y-84226269D01*
X53939999Y-84278872D01*
X53940000Y-84278871D01*
X53940000Y-83315686D01*
X53944394Y-83320080D01*
X54035606Y-83372741D01*
X54137339Y-83400000D01*
X54242661Y-83400000D01*
X54344394Y-83372741D01*
X54435606Y-83320080D01*
X54440000Y-83315686D01*
X54440000Y-84278872D01*
X54636317Y-84226269D01*
X54636326Y-84226265D01*
X54842482Y-84130134D01*
X55028820Y-83999657D01*
X55189657Y-83838820D01*
X55320134Y-83652482D01*
X55416265Y-83446326D01*
X55416269Y-83446317D01*
X55468872Y-83250000D01*
X54505686Y-83250000D01*
X54510080Y-83245606D01*
X54562741Y-83154394D01*
X54590000Y-83052661D01*
X54590000Y-83000001D01*
X60504532Y-83000001D01*
X60524364Y-83226686D01*
X60524366Y-83226697D01*
X60583258Y-83446488D01*
X60583261Y-83446497D01*
X60679431Y-83652732D01*
X60679432Y-83652734D01*
X60809954Y-83839141D01*
X60970858Y-84000045D01*
X60970861Y-84000047D01*
X61157266Y-84130568D01*
X61363504Y-84226739D01*
X61363509Y-84226740D01*
X61363511Y-84226741D01*
X61369378Y-84228313D01*
X61583308Y-84285635D01*
X61745230Y-84299801D01*
X61809998Y-84305468D01*
X61810000Y-84305468D01*
X61810002Y-84305468D01*
X61866673Y-84300509D01*
X62036692Y-84285635D01*
X62256496Y-84226739D01*
X62462734Y-84130568D01*
X62649139Y-84000047D01*
X62810047Y-83839139D01*
X62940568Y-83652734D01*
X63036739Y-83446496D01*
X63095635Y-83226692D01*
X63115468Y-83000000D01*
X63095635Y-82773308D01*
X63036739Y-82553504D01*
X62940568Y-82347266D01*
X62810047Y-82160861D01*
X62810045Y-82160858D01*
X62649141Y-81999954D01*
X62462734Y-81869432D01*
X62462732Y-81869431D01*
X62256497Y-81773261D01*
X62256488Y-81773258D01*
X62036697Y-81714366D01*
X62036693Y-81714365D01*
X62036692Y-81714365D01*
X62036691Y-81714364D01*
X62036686Y-81714364D01*
X61810002Y-81694532D01*
X61809998Y-81694532D01*
X61583313Y-81714364D01*
X61583302Y-81714366D01*
X61363511Y-81773258D01*
X61363502Y-81773261D01*
X61157267Y-81869431D01*
X61157265Y-81869432D01*
X60970858Y-81999954D01*
X60809954Y-82160858D01*
X60679432Y-82347265D01*
X60679431Y-82347267D01*
X60583261Y-82553502D01*
X60583258Y-82553511D01*
X60524366Y-82773302D01*
X60524364Y-82773313D01*
X60504532Y-82999998D01*
X60504532Y-83000001D01*
X54590000Y-83000001D01*
X54590000Y-82947339D01*
X54562741Y-82845606D01*
X54510080Y-82754394D01*
X54505686Y-82750000D01*
X55468872Y-82750000D01*
X55468872Y-82749999D01*
X55416269Y-82553682D01*
X55416265Y-82553673D01*
X55320134Y-82347517D01*
X55189657Y-82161179D01*
X55028820Y-82000342D01*
X54842482Y-81869865D01*
X54636328Y-81773734D01*
X54440000Y-81721127D01*
X54440000Y-82684314D01*
X54435606Y-82679920D01*
X54344394Y-82627259D01*
X54242661Y-82600000D01*
X54137339Y-82600000D01*
X54035606Y-82627259D01*
X53944394Y-82679920D01*
X53940000Y-82684314D01*
X53940000Y-81721127D01*
X53743671Y-81773734D01*
X53537517Y-81869865D01*
X53351179Y-82000342D01*
X53190342Y-82161179D01*
X53059865Y-82347517D01*
X52963734Y-82553673D01*
X52963730Y-82553682D01*
X52911127Y-82749999D01*
X51289235Y-82749999D01*
X53747294Y-80291939D01*
X53808615Y-80258456D01*
X53867066Y-80259847D01*
X53886604Y-80265082D01*
X53963308Y-80285635D01*
X54125230Y-80299801D01*
X54189998Y-80305468D01*
X54190000Y-80305468D01*
X54190002Y-80305468D01*
X54246673Y-80300509D01*
X54416692Y-80285635D01*
X54636496Y-80226739D01*
X54842734Y-80130568D01*
X55029139Y-80000047D01*
X55190047Y-79839139D01*
X55320568Y-79652734D01*
X55416739Y-79446496D01*
X55475635Y-79226692D01*
X55495468Y-79000001D01*
X60504532Y-79000001D01*
X60524364Y-79226686D01*
X60524366Y-79226697D01*
X60583258Y-79446488D01*
X60583261Y-79446497D01*
X60679431Y-79652732D01*
X60679432Y-79652734D01*
X60809954Y-79839141D01*
X60970858Y-80000045D01*
X60970861Y-80000047D01*
X61157266Y-80130568D01*
X61363504Y-80226739D01*
X61583308Y-80285635D01*
X61745230Y-80299801D01*
X61809998Y-80305468D01*
X61810000Y-80305468D01*
X61810002Y-80305468D01*
X61866673Y-80300509D01*
X62036692Y-80285635D01*
X62256496Y-80226739D01*
X62462734Y-80130568D01*
X62649139Y-80000047D01*
X62810047Y-79839139D01*
X62940568Y-79652734D01*
X63036739Y-79446496D01*
X63095635Y-79226692D01*
X63115468Y-79000000D01*
X63095635Y-78773308D01*
X63036739Y-78553504D01*
X62940568Y-78347266D01*
X62810047Y-78160861D01*
X62810045Y-78160858D01*
X62649141Y-77999954D01*
X62462734Y-77869432D01*
X62462732Y-77869431D01*
X62256497Y-77773261D01*
X62256488Y-77773258D01*
X62036697Y-77714366D01*
X62036693Y-77714365D01*
X62036692Y-77714365D01*
X62036691Y-77714364D01*
X62036686Y-77714364D01*
X61810002Y-77694532D01*
X61809998Y-77694532D01*
X61583313Y-77714364D01*
X61583302Y-77714366D01*
X61363511Y-77773258D01*
X61363502Y-77773261D01*
X61157267Y-77869431D01*
X61157265Y-77869432D01*
X60970858Y-77999954D01*
X60809954Y-78160858D01*
X60679432Y-78347265D01*
X60679431Y-78347267D01*
X60583261Y-78553502D01*
X60583258Y-78553511D01*
X60524366Y-78773302D01*
X60524364Y-78773313D01*
X60504532Y-78999998D01*
X60504532Y-79000001D01*
X55495468Y-79000001D01*
X55495468Y-79000000D01*
X55475635Y-78773308D01*
X55416739Y-78553504D01*
X55320568Y-78347266D01*
X55190047Y-78160861D01*
X55190045Y-78160858D01*
X55029141Y-77999954D01*
X54842734Y-77869432D01*
X54842732Y-77869431D01*
X54636497Y-77773261D01*
X54636488Y-77773258D01*
X54416697Y-77714366D01*
X54416693Y-77714365D01*
X54416692Y-77714365D01*
X54416691Y-77714364D01*
X54416686Y-77714364D01*
X54190002Y-77694532D01*
X54189998Y-77694532D01*
X53963313Y-77714364D01*
X53963302Y-77714366D01*
X53743511Y-77773258D01*
X53743502Y-77773261D01*
X53537267Y-77869431D01*
X53537265Y-77869432D01*
X53350858Y-77999954D01*
X53189954Y-78160858D01*
X53059432Y-78347265D01*
X53059431Y-78347267D01*
X52963261Y-78553502D01*
X52963258Y-78553511D01*
X52904366Y-78773302D01*
X52904364Y-78773313D01*
X52884532Y-78999998D01*
X52884532Y-79000001D01*
X52904364Y-79226686D01*
X52904366Y-79226697D01*
X52930152Y-79322931D01*
X52928489Y-79392781D01*
X52898058Y-79442705D01*
X50437584Y-81903181D01*
X50376261Y-81936666D01*
X50349903Y-81939500D01*
X50134031Y-81939500D01*
X50066992Y-81919815D01*
X50032456Y-81886623D01*
X49938527Y-81752478D01*
X49787521Y-81601472D01*
X49612578Y-81478977D01*
X49612579Y-81478977D01*
X49483547Y-81418809D01*
X49419030Y-81388724D01*
X49419023Y-81388722D01*
X49413936Y-81386870D01*
X49414709Y-81384746D01*
X49363305Y-81353424D01*
X49332766Y-81290581D01*
X49341050Y-81221204D01*
X49385528Y-81167320D01*
X49414315Y-81154172D01*
X49413936Y-81153130D01*
X49419013Y-81151280D01*
X49419030Y-81151276D01*
X49612581Y-81061021D01*
X49787519Y-80938529D01*
X49938529Y-80787519D01*
X50061021Y-80612581D01*
X50151276Y-80419030D01*
X50206549Y-80212747D01*
X50225162Y-80000000D01*
X50206549Y-79787253D01*
X50151276Y-79580970D01*
X50061021Y-79387419D01*
X49938529Y-79212481D01*
X49938527Y-79212478D01*
X49787521Y-79061472D01*
X49612578Y-78938977D01*
X49612579Y-78938977D01*
X49483547Y-78878809D01*
X49419030Y-78848724D01*
X49419026Y-78848723D01*
X49419022Y-78848721D01*
X49212752Y-78793452D01*
X49212748Y-78793451D01*
X49212747Y-78793451D01*
X49212746Y-78793450D01*
X49212741Y-78793450D01*
X49000002Y-78774838D01*
X48999999Y-78774838D01*
X48787253Y-78793451D01*
X48787246Y-78793452D01*
X48742386Y-78805472D01*
X48672536Y-78803808D01*
X48622613Y-78773378D01*
X47636819Y-77787584D01*
X47603334Y-77726261D01*
X47600500Y-77699903D01*
X47600500Y-74749999D01*
X52911127Y-74749999D01*
X52911128Y-74750000D01*
X53874314Y-74750000D01*
X53869920Y-74754394D01*
X53817259Y-74845606D01*
X53790000Y-74947339D01*
X53790000Y-75052661D01*
X53817259Y-75154394D01*
X53869920Y-75245606D01*
X53874314Y-75250000D01*
X52911128Y-75250000D01*
X52963730Y-75446317D01*
X52963734Y-75446326D01*
X53059865Y-75652482D01*
X53190342Y-75838820D01*
X53351179Y-75999657D01*
X53537517Y-76130134D01*
X53743673Y-76226265D01*
X53743682Y-76226269D01*
X53939999Y-76278872D01*
X53940000Y-76278871D01*
X53940000Y-75315686D01*
X53944394Y-75320080D01*
X54035606Y-75372741D01*
X54137339Y-75400000D01*
X54242661Y-75400000D01*
X54344394Y-75372741D01*
X54435606Y-75320080D01*
X54440000Y-75315686D01*
X54440000Y-76278872D01*
X54636317Y-76226269D01*
X54636326Y-76226265D01*
X54842482Y-76130134D01*
X55028820Y-75999657D01*
X55189657Y-75838820D01*
X55320134Y-75652482D01*
X55416265Y-75446326D01*
X55416269Y-75446317D01*
X55468872Y-75250000D01*
X54505686Y-75250000D01*
X54510080Y-75245606D01*
X54562741Y-75154394D01*
X54590000Y-75052661D01*
X54590000Y-75000001D01*
X60504532Y-75000001D01*
X60524364Y-75226686D01*
X60524366Y-75226697D01*
X60583258Y-75446488D01*
X60583261Y-75446497D01*
X60679431Y-75652732D01*
X60679432Y-75652734D01*
X60809954Y-75839141D01*
X60970858Y-76000045D01*
X60970861Y-76000047D01*
X61157266Y-76130568D01*
X61363504Y-76226739D01*
X61583308Y-76285635D01*
X61745230Y-76299801D01*
X61809998Y-76305468D01*
X61810000Y-76305468D01*
X61810002Y-76305468D01*
X61866673Y-76300509D01*
X62036692Y-76285635D01*
X62256496Y-76226739D01*
X62462734Y-76130568D01*
X62649139Y-76000047D01*
X62810047Y-75839139D01*
X62940568Y-75652734D01*
X63036739Y-75446496D01*
X63095635Y-75226692D01*
X63115468Y-75000000D01*
X63095635Y-74773308D01*
X63036739Y-74553504D01*
X62940568Y-74347266D01*
X62819018Y-74173673D01*
X62810045Y-74160858D01*
X62649141Y-73999954D01*
X62462734Y-73869432D01*
X62462732Y-73869431D01*
X62256497Y-73773261D01*
X62256488Y-73773258D01*
X62036697Y-73714366D01*
X62036693Y-73714365D01*
X62036692Y-73714365D01*
X62036691Y-73714364D01*
X62036686Y-73714364D01*
X61810002Y-73694532D01*
X61809998Y-73694532D01*
X61583313Y-73714364D01*
X61583302Y-73714366D01*
X61363511Y-73773258D01*
X61363502Y-73773261D01*
X61157267Y-73869431D01*
X61157265Y-73869432D01*
X60970858Y-73999954D01*
X60809954Y-74160858D01*
X60679432Y-74347265D01*
X60679431Y-74347267D01*
X60583261Y-74553502D01*
X60583258Y-74553511D01*
X60524366Y-74773302D01*
X60524364Y-74773313D01*
X60504532Y-74999998D01*
X60504532Y-75000001D01*
X54590000Y-75000001D01*
X54590000Y-74947339D01*
X54562741Y-74845606D01*
X54510080Y-74754394D01*
X54505686Y-74750000D01*
X55468872Y-74750000D01*
X55468872Y-74749999D01*
X55416269Y-74553682D01*
X55416265Y-74553673D01*
X55320134Y-74347517D01*
X55189657Y-74161179D01*
X55028820Y-74000342D01*
X54842482Y-73869865D01*
X54636328Y-73773734D01*
X54440000Y-73721127D01*
X54440000Y-74684314D01*
X54435606Y-74679920D01*
X54344394Y-74627259D01*
X54242661Y-74600000D01*
X54137339Y-74600000D01*
X54035606Y-74627259D01*
X53944394Y-74679920D01*
X53940000Y-74684314D01*
X53940000Y-73721127D01*
X53743671Y-73773734D01*
X53537517Y-73869865D01*
X53351179Y-74000342D01*
X53190342Y-74161179D01*
X53059865Y-74347517D01*
X52963734Y-74553673D01*
X52963730Y-74553682D01*
X52911127Y-74749999D01*
X47600500Y-74749999D01*
X47600500Y-71974520D01*
X47620185Y-71907481D01*
X47672989Y-71861726D01*
X47742147Y-71851782D01*
X47805703Y-71880807D01*
X47843477Y-71939585D01*
X47844275Y-71942427D01*
X47848721Y-71959022D01*
X47848723Y-71959026D01*
X47848724Y-71959030D01*
X47885030Y-72036888D01*
X47938977Y-72152578D01*
X48061472Y-72327521D01*
X48212478Y-72478527D01*
X48212481Y-72478529D01*
X48387419Y-72601021D01*
X48387421Y-72601022D01*
X48387420Y-72601022D01*
X48428220Y-72620047D01*
X48580970Y-72691276D01*
X48787253Y-72746549D01*
X48939215Y-72759844D01*
X48999998Y-72765162D01*
X49000000Y-72765162D01*
X49000002Y-72765162D01*
X49053186Y-72760508D01*
X49212747Y-72746549D01*
X49419030Y-72691276D01*
X49612581Y-72601021D01*
X49787519Y-72478529D01*
X49938529Y-72327519D01*
X50009094Y-72226741D01*
X50032456Y-72193377D01*
X50087033Y-72149752D01*
X50134031Y-72140500D01*
X51808966Y-72140500D01*
X51808982Y-72140501D01*
X51816578Y-72140501D01*
X51974689Y-72140501D01*
X51974692Y-72140501D01*
X52127420Y-72099577D01*
X52219270Y-72046547D01*
X52264351Y-72020520D01*
X52376155Y-71908716D01*
X52376155Y-71908714D01*
X52386359Y-71898511D01*
X52386363Y-71898506D01*
X52798325Y-71486543D01*
X52859646Y-71453060D01*
X52929338Y-71458044D01*
X52985271Y-71499916D01*
X52998385Y-71521819D01*
X53029403Y-71588337D01*
X53059431Y-71652732D01*
X53059432Y-71652734D01*
X53189954Y-71839141D01*
X53350858Y-72000045D01*
X53350861Y-72000047D01*
X53537266Y-72130568D01*
X53743504Y-72226739D01*
X53743509Y-72226740D01*
X53743511Y-72226741D01*
X53770520Y-72233978D01*
X53963308Y-72285635D01*
X54125230Y-72299801D01*
X54189998Y-72305468D01*
X54190000Y-72305468D01*
X54190002Y-72305468D01*
X54246673Y-72300509D01*
X54416692Y-72285635D01*
X54512932Y-72259847D01*
X54582781Y-72261510D01*
X54632706Y-72291941D01*
X54805139Y-72464374D01*
X54805149Y-72464385D01*
X54809479Y-72468715D01*
X54809480Y-72468716D01*
X54921284Y-72580520D01*
X54999426Y-72625635D01*
X55058215Y-72659577D01*
X55210943Y-72700501D01*
X55210946Y-72700501D01*
X55376653Y-72700501D01*
X55376669Y-72700500D01*
X62979055Y-72700500D01*
X62979057Y-72700500D01*
X63131784Y-72659577D01*
X63268716Y-72580520D01*
X63380520Y-72468716D01*
X63459577Y-72331784D01*
X63500500Y-72179057D01*
X63500500Y-71588337D01*
X63504725Y-71556244D01*
X63506275Y-71550458D01*
X63510500Y-71534692D01*
X63510500Y-71376578D01*
X63510500Y-70390097D01*
X63530185Y-70323058D01*
X63546813Y-70302421D01*
X63698758Y-70150476D01*
X63760078Y-70116994D01*
X63829769Y-70121978D01*
X63884811Y-70162673D01*
X63921127Y-70210000D01*
X64884314Y-70210000D01*
X64879920Y-70214394D01*
X64827259Y-70305606D01*
X64800000Y-70407339D01*
X64800000Y-70512661D01*
X64827259Y-70614394D01*
X64879920Y-70705606D01*
X64884314Y-70710000D01*
X63921128Y-70710000D01*
X63973730Y-70906317D01*
X63973734Y-70906326D01*
X64069865Y-71112482D01*
X64200342Y-71298820D01*
X64361179Y-71459657D01*
X64547518Y-71590134D01*
X64547520Y-71590135D01*
X64605865Y-71617342D01*
X64658305Y-71663514D01*
X64677457Y-71730707D01*
X64657242Y-71797589D01*
X64605867Y-71842105D01*
X64547268Y-71869431D01*
X64547264Y-71869433D01*
X64360858Y-71999954D01*
X64199954Y-72160858D01*
X64069432Y-72347265D01*
X64069431Y-72347267D01*
X63973261Y-72553502D01*
X63973258Y-72553511D01*
X63914366Y-72773302D01*
X63914364Y-72773313D01*
X63894532Y-72999998D01*
X63894532Y-73000001D01*
X63914364Y-73226686D01*
X63914366Y-73226697D01*
X63973258Y-73446488D01*
X63973261Y-73446497D01*
X64069431Y-73652732D01*
X64069432Y-73652734D01*
X64199951Y-73839137D01*
X64199952Y-73839138D01*
X64199953Y-73839139D01*
X64263182Y-73902368D01*
X64296666Y-73963689D01*
X64299500Y-73990048D01*
X64299500Y-87743229D01*
X64279815Y-87810268D01*
X64227011Y-87856023D01*
X64157853Y-87865967D01*
X64123095Y-87855611D01*
X64095476Y-87842732D01*
X63946496Y-87773261D01*
X63946492Y-87773260D01*
X63946488Y-87773258D01*
X63726697Y-87714366D01*
X63726693Y-87714365D01*
X63726692Y-87714365D01*
X63726691Y-87714364D01*
X63726686Y-87714364D01*
X63500002Y-87694532D01*
X63499998Y-87694532D01*
X63273313Y-87714364D01*
X63273302Y-87714366D01*
X63053511Y-87773258D01*
X63053502Y-87773261D01*
X62847267Y-87869431D01*
X62847265Y-87869432D01*
X62660858Y-87999954D01*
X62499954Y-88160858D01*
X62369432Y-88347265D01*
X62369431Y-88347267D01*
X62273261Y-88553502D01*
X62273258Y-88553511D01*
X62214366Y-88773302D01*
X62214364Y-88773313D01*
X62194532Y-88999998D01*
X62194532Y-89000001D01*
X62214364Y-89226686D01*
X62214366Y-89226697D01*
X62273258Y-89446488D01*
X62273261Y-89446497D01*
X62369431Y-89652732D01*
X62369432Y-89652734D01*
X62499954Y-89839141D01*
X62660858Y-90000045D01*
X62700500Y-90027802D01*
X62847266Y-90130568D01*
X63053504Y-90226739D01*
X63273308Y-90285635D01*
X63435230Y-90299801D01*
X63499998Y-90305468D01*
X63500000Y-90305468D01*
X63500002Y-90305468D01*
X63556673Y-90300509D01*
X63726692Y-90285635D01*
X63946496Y-90226739D01*
X64123095Y-90144389D01*
X64192173Y-90133897D01*
X64255957Y-90162417D01*
X64294196Y-90220893D01*
X64299500Y-90256771D01*
X64299500Y-91743229D01*
X64279815Y-91810268D01*
X64227011Y-91856023D01*
X64157853Y-91865967D01*
X64123095Y-91855611D01*
X64025857Y-91810268D01*
X63946496Y-91773261D01*
X63946492Y-91773260D01*
X63946488Y-91773258D01*
X63726697Y-91714366D01*
X63726693Y-91714365D01*
X63726692Y-91714365D01*
X63726691Y-91714364D01*
X63726686Y-91714364D01*
X63500002Y-91694532D01*
X63499998Y-91694532D01*
X63273313Y-91714364D01*
X63273302Y-91714366D01*
X63053511Y-91773258D01*
X63053502Y-91773261D01*
X62847267Y-91869431D01*
X62847265Y-91869432D01*
X62660858Y-91999954D01*
X62499954Y-92160858D01*
X62369432Y-92347265D01*
X62369431Y-92347267D01*
X62273261Y-92553502D01*
X62273258Y-92553511D01*
X62214366Y-92773302D01*
X62214364Y-92773313D01*
X62194532Y-92999998D01*
X62194532Y-93000001D01*
X62214364Y-93226686D01*
X62214366Y-93226697D01*
X62273258Y-93446488D01*
X62273261Y-93446497D01*
X62369431Y-93652732D01*
X62369432Y-93652734D01*
X62499954Y-93839141D01*
X62660858Y-94000045D01*
X62660861Y-94000047D01*
X62847266Y-94130568D01*
X63053504Y-94226739D01*
X63273308Y-94285635D01*
X63435230Y-94299801D01*
X63499998Y-94305468D01*
X63500000Y-94305468D01*
X63500002Y-94305468D01*
X63556673Y-94300509D01*
X63726692Y-94285635D01*
X63946496Y-94226739D01*
X64123095Y-94144389D01*
X64192173Y-94133897D01*
X64255957Y-94162417D01*
X64294196Y-94220893D01*
X64299500Y-94256771D01*
X64299500Y-96813330D01*
X64299499Y-96813348D01*
X64299499Y-96979054D01*
X64299498Y-96979054D01*
X64340424Y-97131789D01*
X64340425Y-97131790D01*
X64368015Y-97179576D01*
X64368016Y-97179577D01*
X64388255Y-97214632D01*
X64419479Y-97268714D01*
X64419481Y-97268717D01*
X64538349Y-97387585D01*
X64538355Y-97387590D01*
X65169298Y-98018533D01*
X65202783Y-98079856D01*
X65204837Y-98092330D01*
X65214630Y-98179249D01*
X65274210Y-98349521D01*
X65345931Y-98463663D01*
X65370184Y-98502262D01*
X65497738Y-98629816D01*
X65650478Y-98725789D01*
X65820745Y-98785368D01*
X65820750Y-98785369D01*
X65999996Y-98805565D01*
X66000000Y-98805565D01*
X66000004Y-98805565D01*
X66179249Y-98785369D01*
X66179252Y-98785368D01*
X66179255Y-98785368D01*
X66349522Y-98725789D01*
X66502262Y-98629816D01*
X66629816Y-98502262D01*
X66725789Y-98349522D01*
X66742132Y-98302817D01*
X66782854Y-98246041D01*
X66847807Y-98220293D01*
X66916368Y-98233749D01*
X66946855Y-98256090D01*
X69213681Y-100522916D01*
X69247166Y-100584239D01*
X69250000Y-100610597D01*
X69250000Y-101566988D01*
X69192993Y-101534075D01*
X69065826Y-101500000D01*
X68934174Y-101500000D01*
X68807007Y-101534075D01*
X68750000Y-101566988D01*
X68750000Y-100650000D01*
X68102155Y-100650000D01*
X68042627Y-100656401D01*
X68042620Y-100656403D01*
X67907913Y-100706645D01*
X67907906Y-100706649D01*
X67792812Y-100792809D01*
X67792809Y-100792812D01*
X67706649Y-100907906D01*
X67706645Y-100907913D01*
X67656403Y-101042620D01*
X67656401Y-101042627D01*
X67650000Y-101102155D01*
X67650000Y-101750000D01*
X68566988Y-101750000D01*
X68534075Y-101807007D01*
X68500000Y-101934174D01*
X68500000Y-102065826D01*
X68534075Y-102192993D01*
X68566988Y-102250000D01*
X67650000Y-102250000D01*
X67650000Y-102897844D01*
X67656401Y-102957372D01*
X67656403Y-102957379D01*
X67706645Y-103092086D01*
X67706649Y-103092093D01*
X67792809Y-103207187D01*
X67792812Y-103207190D01*
X67907906Y-103293350D01*
X67907913Y-103293354D01*
X68042620Y-103343596D01*
X68042627Y-103343598D01*
X68102155Y-103349999D01*
X68102172Y-103350000D01*
X68750000Y-103350000D01*
X68750000Y-102433012D01*
X68807007Y-102465925D01*
X68934174Y-102500000D01*
X69065826Y-102500000D01*
X69192993Y-102465925D01*
X69250000Y-102433012D01*
X69250000Y-103350000D01*
X69897828Y-103350000D01*
X69897844Y-103349999D01*
X69957372Y-103343598D01*
X69957379Y-103343596D01*
X70092086Y-103293354D01*
X70092093Y-103293350D01*
X70207187Y-103207190D01*
X70207190Y-103207187D01*
X70293350Y-103092093D01*
X70293354Y-103092086D01*
X70342422Y-102960529D01*
X70384293Y-102904595D01*
X70449757Y-102880178D01*
X70518030Y-102895030D01*
X70546285Y-102916181D01*
X70668599Y-103038495D01*
X70713680Y-103070061D01*
X70862165Y-103174032D01*
X70862167Y-103174033D01*
X70862170Y-103174035D01*
X71076337Y-103273903D01*
X71076343Y-103273904D01*
X71076344Y-103273905D01*
X71131285Y-103288626D01*
X71304592Y-103335063D01*
X71475319Y-103350000D01*
X71539999Y-103355659D01*
X71540000Y-103355659D01*
X71540001Y-103355659D01*
X71604681Y-103350000D01*
X71775408Y-103335063D01*
X72003663Y-103273903D01*
X72217830Y-103174035D01*
X72411401Y-103038495D01*
X72578495Y-102871401D01*
X72714035Y-102677830D01*
X72813903Y-102463663D01*
X72875063Y-102235408D01*
X72895659Y-102000000D01*
X72875063Y-101764592D01*
X72813903Y-101536337D01*
X72714035Y-101322171D01*
X72678440Y-101271335D01*
X72578494Y-101128597D01*
X72411402Y-100961506D01*
X72411395Y-100961501D01*
X72217834Y-100825967D01*
X72217830Y-100825965D01*
X72114154Y-100777620D01*
X72003663Y-100726097D01*
X72003659Y-100726096D01*
X72003655Y-100726094D01*
X71775413Y-100664938D01*
X71775403Y-100664936D01*
X71540001Y-100644341D01*
X71539999Y-100644341D01*
X71304596Y-100664936D01*
X71304583Y-100664939D01*
X71176241Y-100699327D01*
X71106392Y-100697664D01*
X71056468Y-100667233D01*
X67536819Y-97147584D01*
X67503334Y-97086261D01*
X67500500Y-97059903D01*
X67500500Y-96184136D01*
X67520185Y-96117097D01*
X67572989Y-96071342D01*
X67642147Y-96061398D01*
X67656582Y-96064358D01*
X67773308Y-96095635D01*
X67935230Y-96109801D01*
X67999998Y-96115468D01*
X68000000Y-96115468D01*
X68000002Y-96115468D01*
X68056673Y-96110509D01*
X68226692Y-96095635D01*
X68446496Y-96036739D01*
X68652734Y-95940568D01*
X68839139Y-95810047D01*
X69000047Y-95649139D01*
X69130568Y-95462734D01*
X69226739Y-95256496D01*
X69243912Y-95192406D01*
X69280277Y-95132746D01*
X69343124Y-95102217D01*
X69363687Y-95100500D01*
X70768308Y-95100500D01*
X70835347Y-95120185D01*
X70869880Y-95153374D01*
X70904475Y-95202781D01*
X70999954Y-95339141D01*
X71160858Y-95500045D01*
X71160861Y-95500047D01*
X71347266Y-95630568D01*
X71553504Y-95726739D01*
X71773308Y-95785635D01*
X71935230Y-95799801D01*
X71999998Y-95805468D01*
X72000000Y-95805468D01*
X72000002Y-95805468D01*
X72056673Y-95800509D01*
X72226692Y-95785635D01*
X72446496Y-95726739D01*
X72652734Y-95630568D01*
X72839139Y-95500047D01*
X73000047Y-95339139D01*
X73130568Y-95152734D01*
X73226739Y-94946496D01*
X73285635Y-94726692D01*
X73305468Y-94500000D01*
X73285635Y-94273308D01*
X73226739Y-94053504D01*
X73130568Y-93847266D01*
X73085249Y-93782544D01*
X73062923Y-93716339D01*
X73079933Y-93648571D01*
X73130882Y-93600759D01*
X73199592Y-93588081D01*
X73264248Y-93614563D01*
X73274506Y-93623741D01*
X73708058Y-94057293D01*
X73741543Y-94118616D01*
X73740152Y-94177067D01*
X73714366Y-94273302D01*
X73714364Y-94273313D01*
X73694532Y-94499998D01*
X73694532Y-94500001D01*
X73714364Y-94726686D01*
X73714366Y-94726697D01*
X73773258Y-94946488D01*
X73773261Y-94946497D01*
X73869431Y-95152732D01*
X73869432Y-95152734D01*
X73999954Y-95339141D01*
X74160858Y-95500045D01*
X74160861Y-95500047D01*
X74347266Y-95630568D01*
X74553504Y-95726739D01*
X74773308Y-95785635D01*
X74935230Y-95799801D01*
X74999998Y-95805468D01*
X75000000Y-95805468D01*
X75000002Y-95805468D01*
X75056673Y-95800509D01*
X75226692Y-95785635D01*
X75446496Y-95726739D01*
X75652734Y-95630568D01*
X75839139Y-95500047D01*
X76000047Y-95339139D01*
X76130568Y-95152734D01*
X76226739Y-94946496D01*
X76263312Y-94810002D01*
X77695034Y-94810002D01*
X77714858Y-95036599D01*
X77714860Y-95036610D01*
X77773730Y-95256317D01*
X77773735Y-95256331D01*
X77869863Y-95462478D01*
X77920974Y-95535472D01*
X78600000Y-94856446D01*
X78600000Y-94862661D01*
X78627259Y-94964394D01*
X78679920Y-95055606D01*
X78754394Y-95130080D01*
X78845606Y-95182741D01*
X78947339Y-95210000D01*
X78953553Y-95210000D01*
X78274526Y-95889025D01*
X78347513Y-95940132D01*
X78347521Y-95940136D01*
X78553668Y-96036264D01*
X78553682Y-96036269D01*
X78773389Y-96095139D01*
X78773400Y-96095141D01*
X78999998Y-96114966D01*
X79000002Y-96114966D01*
X79226599Y-96095141D01*
X79226610Y-96095139D01*
X79446317Y-96036269D01*
X79446331Y-96036264D01*
X79652478Y-95940136D01*
X79725471Y-95889024D01*
X79046447Y-95210000D01*
X79052661Y-95210000D01*
X79154394Y-95182741D01*
X79245606Y-95130080D01*
X79320080Y-95055606D01*
X79372741Y-94964394D01*
X79400000Y-94862661D01*
X79400000Y-94856447D01*
X80079024Y-95535471D01*
X80130136Y-95462478D01*
X80226264Y-95256331D01*
X80226269Y-95256317D01*
X80285139Y-95036610D01*
X80285141Y-95036599D01*
X80304966Y-94810002D01*
X80304966Y-94809997D01*
X80285141Y-94583400D01*
X80285139Y-94583389D01*
X80226269Y-94363682D01*
X80226264Y-94363668D01*
X80130136Y-94157521D01*
X80130132Y-94157513D01*
X80079025Y-94084526D01*
X79400000Y-94763551D01*
X79400000Y-94757339D01*
X79372741Y-94655606D01*
X79320080Y-94564394D01*
X79245606Y-94489920D01*
X79154394Y-94437259D01*
X79052661Y-94410000D01*
X79046448Y-94410000D01*
X79725472Y-93730974D01*
X79652478Y-93679863D01*
X79446331Y-93583735D01*
X79446317Y-93583730D01*
X79226610Y-93524860D01*
X79226599Y-93524858D01*
X79000002Y-93505034D01*
X78999998Y-93505034D01*
X78773400Y-93524858D01*
X78773389Y-93524860D01*
X78553682Y-93583730D01*
X78553673Y-93583734D01*
X78347516Y-93679866D01*
X78347512Y-93679868D01*
X78274526Y-93730973D01*
X78274526Y-93730974D01*
X78953553Y-94410000D01*
X78947339Y-94410000D01*
X78845606Y-94437259D01*
X78754394Y-94489920D01*
X78679920Y-94564394D01*
X78627259Y-94655606D01*
X78600000Y-94757339D01*
X78600000Y-94763552D01*
X77920974Y-94084526D01*
X77920973Y-94084526D01*
X77869868Y-94157512D01*
X77869866Y-94157516D01*
X77773734Y-94363673D01*
X77773730Y-94363682D01*
X77714860Y-94583389D01*
X77714858Y-94583400D01*
X77695034Y-94809997D01*
X77695034Y-94810002D01*
X76263312Y-94810002D01*
X76285635Y-94726692D01*
X76305468Y-94500000D01*
X76285635Y-94273308D01*
X76226739Y-94053504D01*
X76130568Y-93847266D01*
X76000047Y-93660861D01*
X76000045Y-93660858D01*
X75839141Y-93499954D01*
X75652734Y-93369432D01*
X75652732Y-93369431D01*
X75446497Y-93273261D01*
X75446488Y-93273258D01*
X75226697Y-93214366D01*
X75226693Y-93214365D01*
X75226692Y-93214365D01*
X75226691Y-93214364D01*
X75226686Y-93214364D01*
X75000002Y-93194532D01*
X74999998Y-93194532D01*
X74773313Y-93214364D01*
X74773302Y-93214366D01*
X74677067Y-93240152D01*
X74607217Y-93238489D01*
X74557293Y-93208058D01*
X72305735Y-90956499D01*
X72272250Y-90895176D01*
X72277234Y-90825484D01*
X72319106Y-90769551D01*
X72361323Y-90749043D01*
X72446317Y-90726269D01*
X72446331Y-90726264D01*
X72652478Y-90630136D01*
X72725471Y-90579024D01*
X72046447Y-89900000D01*
X72052661Y-89900000D01*
X72154394Y-89872741D01*
X72245606Y-89820080D01*
X72320080Y-89745606D01*
X72372741Y-89654394D01*
X72400000Y-89552661D01*
X72400000Y-89546447D01*
X73079024Y-90225471D01*
X73130136Y-90152478D01*
X73226264Y-89946331D01*
X73226269Y-89946317D01*
X73285139Y-89726610D01*
X73285141Y-89726599D01*
X73304966Y-89500002D01*
X73695034Y-89500002D01*
X73714858Y-89726599D01*
X73714860Y-89726610D01*
X73773730Y-89946317D01*
X73773735Y-89946331D01*
X73869863Y-90152478D01*
X73920974Y-90225472D01*
X74600000Y-89546446D01*
X74600000Y-89552661D01*
X74627259Y-89654394D01*
X74679920Y-89745606D01*
X74754394Y-89820080D01*
X74845606Y-89872741D01*
X74947339Y-89900000D01*
X74953553Y-89900000D01*
X74274526Y-90579025D01*
X74347513Y-90630132D01*
X74347521Y-90630136D01*
X74553668Y-90726264D01*
X74553682Y-90726269D01*
X74773389Y-90785139D01*
X74773400Y-90785141D01*
X74999998Y-90804966D01*
X75000002Y-90804966D01*
X75226599Y-90785141D01*
X75226610Y-90785139D01*
X75446317Y-90726269D01*
X75446331Y-90726264D01*
X75652478Y-90630136D01*
X75725471Y-90579024D01*
X75046447Y-89900000D01*
X75052661Y-89900000D01*
X75154394Y-89872741D01*
X75245606Y-89820080D01*
X75320080Y-89745606D01*
X75372741Y-89654394D01*
X75400000Y-89552661D01*
X75400000Y-89546447D01*
X76079024Y-90225471D01*
X76130136Y-90152478D01*
X76226264Y-89946331D01*
X76226269Y-89946317D01*
X76285139Y-89726610D01*
X76285141Y-89726599D01*
X76304966Y-89500002D01*
X76304966Y-89499997D01*
X76285141Y-89273400D01*
X76285139Y-89273389D01*
X76226269Y-89053682D01*
X76226264Y-89053668D01*
X76130136Y-88847521D01*
X76130132Y-88847513D01*
X76079025Y-88774526D01*
X75400000Y-89453551D01*
X75400000Y-89447339D01*
X75372741Y-89345606D01*
X75320080Y-89254394D01*
X75245606Y-89179920D01*
X75154394Y-89127259D01*
X75052661Y-89100000D01*
X75046448Y-89100000D01*
X75725472Y-88420974D01*
X75652478Y-88369863D01*
X75446331Y-88273735D01*
X75446317Y-88273730D01*
X75226610Y-88214860D01*
X75226599Y-88214858D01*
X75000002Y-88195034D01*
X74999998Y-88195034D01*
X74773400Y-88214858D01*
X74773389Y-88214860D01*
X74553682Y-88273730D01*
X74553673Y-88273734D01*
X74347516Y-88369866D01*
X74347512Y-88369868D01*
X74274526Y-88420973D01*
X74274526Y-88420974D01*
X74953553Y-89100000D01*
X74947339Y-89100000D01*
X74845606Y-89127259D01*
X74754394Y-89179920D01*
X74679920Y-89254394D01*
X74627259Y-89345606D01*
X74600000Y-89447339D01*
X74600000Y-89453552D01*
X73920974Y-88774526D01*
X73920973Y-88774526D01*
X73869868Y-88847512D01*
X73869866Y-88847516D01*
X73773734Y-89053673D01*
X73773730Y-89053682D01*
X73714860Y-89273389D01*
X73714858Y-89273400D01*
X73695034Y-89499997D01*
X73695034Y-89500002D01*
X73304966Y-89500002D01*
X73304966Y-89499997D01*
X73285141Y-89273400D01*
X73285139Y-89273389D01*
X73226269Y-89053682D01*
X73226264Y-89053668D01*
X73130136Y-88847521D01*
X73130132Y-88847513D01*
X73079025Y-88774526D01*
X72400000Y-89453551D01*
X72400000Y-89447339D01*
X72372741Y-89345606D01*
X72320080Y-89254394D01*
X72245606Y-89179920D01*
X72154394Y-89127259D01*
X72052661Y-89100000D01*
X72046447Y-89100000D01*
X72725472Y-88420974D01*
X72652480Y-88369864D01*
X72475749Y-88287453D01*
X72423310Y-88241281D01*
X72404158Y-88174087D01*
X72424374Y-88107206D01*
X72440465Y-88087399D01*
X73337863Y-87190001D01*
X77694532Y-87190001D01*
X77714364Y-87416686D01*
X77714366Y-87416697D01*
X77773258Y-87636488D01*
X77773261Y-87636497D01*
X77869431Y-87842732D01*
X77869432Y-87842734D01*
X77999954Y-88029141D01*
X78160858Y-88190045D01*
X78160861Y-88190047D01*
X78347266Y-88320568D01*
X78553504Y-88416739D01*
X78553509Y-88416740D01*
X78553511Y-88416741D01*
X78569309Y-88420974D01*
X78773308Y-88475635D01*
X78935230Y-88489801D01*
X78999998Y-88495468D01*
X79000000Y-88495468D01*
X79000002Y-88495468D01*
X79056673Y-88490509D01*
X79226692Y-88475635D01*
X79446496Y-88416739D01*
X79652734Y-88320568D01*
X79839139Y-88190047D01*
X80000047Y-88029139D01*
X80130118Y-87843375D01*
X80184693Y-87799752D01*
X80231692Y-87790500D01*
X81578308Y-87790500D01*
X81645347Y-87810185D01*
X81679880Y-87843374D01*
X81765480Y-87965624D01*
X81809954Y-88029141D01*
X81970858Y-88190045D01*
X81970861Y-88190047D01*
X82157266Y-88320568D01*
X82363504Y-88416739D01*
X82363509Y-88416740D01*
X82363511Y-88416741D01*
X82379309Y-88420974D01*
X82583308Y-88475635D01*
X82745230Y-88489801D01*
X82809998Y-88495468D01*
X82810000Y-88495468D01*
X82810002Y-88495468D01*
X82866673Y-88490509D01*
X83036692Y-88475635D01*
X83256496Y-88416739D01*
X83462734Y-88320568D01*
X83649139Y-88190047D01*
X83810047Y-88029139D01*
X83940568Y-87842734D01*
X84036739Y-87636496D01*
X84095635Y-87416692D01*
X84115468Y-87190000D01*
X84095635Y-86963308D01*
X84036739Y-86743504D01*
X83940568Y-86537266D01*
X83810047Y-86350861D01*
X83810045Y-86350858D01*
X83649141Y-86189954D01*
X83462734Y-86059432D01*
X83462732Y-86059431D01*
X83256497Y-85963261D01*
X83256488Y-85963258D01*
X83036697Y-85904366D01*
X83036693Y-85904365D01*
X83036692Y-85904365D01*
X83036691Y-85904364D01*
X83036686Y-85904364D01*
X82810002Y-85884532D01*
X82809998Y-85884532D01*
X82583313Y-85904364D01*
X82583302Y-85904366D01*
X82363511Y-85963258D01*
X82363502Y-85963261D01*
X82157267Y-86059431D01*
X82157265Y-86059432D01*
X81970858Y-86189954D01*
X81809954Y-86350858D01*
X81746655Y-86441261D01*
X81679881Y-86536624D01*
X81625307Y-86580248D01*
X81578308Y-86589500D01*
X80231692Y-86589500D01*
X80164653Y-86569815D01*
X80130119Y-86536625D01*
X80000047Y-86350861D01*
X80000045Y-86350858D01*
X79839141Y-86189954D01*
X79652734Y-86059432D01*
X79652732Y-86059431D01*
X79446497Y-85963261D01*
X79446488Y-85963258D01*
X79226697Y-85904366D01*
X79226693Y-85904365D01*
X79226692Y-85904365D01*
X79226691Y-85904364D01*
X79226686Y-85904364D01*
X79000002Y-85884532D01*
X78999998Y-85884532D01*
X78773313Y-85904364D01*
X78773302Y-85904366D01*
X78553511Y-85963258D01*
X78553502Y-85963261D01*
X78347267Y-86059431D01*
X78347265Y-86059432D01*
X78160858Y-86189954D01*
X77999954Y-86350858D01*
X77869432Y-86537265D01*
X77869431Y-86537267D01*
X77773261Y-86743502D01*
X77773258Y-86743511D01*
X77714366Y-86963302D01*
X77714364Y-86963313D01*
X77694532Y-87189998D01*
X77694532Y-87190001D01*
X73337863Y-87190001D01*
X76661659Y-83866204D01*
X76722980Y-83832721D01*
X76792672Y-83837705D01*
X76837019Y-83866206D01*
X76970858Y-84000045D01*
X76970861Y-84000047D01*
X77157266Y-84130568D01*
X77363504Y-84226739D01*
X77363509Y-84226740D01*
X77363511Y-84226741D01*
X77369378Y-84228313D01*
X77583308Y-84285635D01*
X77745230Y-84299801D01*
X77809998Y-84305468D01*
X77810000Y-84305468D01*
X77810002Y-84305468D01*
X77866673Y-84300509D01*
X78036692Y-84285635D01*
X78256496Y-84226739D01*
X78462734Y-84130568D01*
X78649139Y-84000047D01*
X78810047Y-83839139D01*
X78940568Y-83652734D01*
X79036739Y-83446496D01*
X79095635Y-83226692D01*
X79115468Y-83000000D01*
X79095635Y-82773308D01*
X79079256Y-82712181D01*
X79064362Y-82656593D01*
X79066025Y-82586743D01*
X79105188Y-82528881D01*
X79169417Y-82501377D01*
X79184137Y-82500500D01*
X82704903Y-82500500D01*
X82771942Y-82520185D01*
X82792584Y-82536819D01*
X84363181Y-84107416D01*
X84396666Y-84168739D01*
X84399500Y-84195097D01*
X84399500Y-89788330D01*
X84399499Y-89788348D01*
X84399499Y-89954054D01*
X84399498Y-89954054D01*
X84419259Y-90027802D01*
X84440423Y-90106785D01*
X84454154Y-90130568D01*
X84469358Y-90156900D01*
X84469359Y-90156904D01*
X84469360Y-90156904D01*
X84508946Y-90225471D01*
X84519479Y-90243714D01*
X84519481Y-90243717D01*
X84638349Y-90362585D01*
X84638355Y-90362590D01*
X85908058Y-91632293D01*
X85941543Y-91693616D01*
X85940152Y-91752067D01*
X85914366Y-91848302D01*
X85914364Y-91848313D01*
X85894532Y-92074998D01*
X85894532Y-92075001D01*
X85914364Y-92301686D01*
X85914366Y-92301697D01*
X85973258Y-92521488D01*
X85973261Y-92521497D01*
X86069431Y-92727732D01*
X86069432Y-92727734D01*
X86199954Y-92914141D01*
X86360858Y-93075045D01*
X86360861Y-93075047D01*
X86547266Y-93205568D01*
X86605275Y-93232618D01*
X86657714Y-93278791D01*
X86676866Y-93345984D01*
X86656650Y-93412865D01*
X86605275Y-93457382D01*
X86547267Y-93484431D01*
X86547265Y-93484432D01*
X86360858Y-93614954D01*
X86199954Y-93775858D01*
X86069432Y-93962265D01*
X86069431Y-93962267D01*
X85973261Y-94168502D01*
X85973258Y-94168511D01*
X85914366Y-94388302D01*
X85914364Y-94388313D01*
X85894532Y-94614998D01*
X85894532Y-94615001D01*
X85914364Y-94841686D01*
X85914366Y-94841697D01*
X85973258Y-95061488D01*
X85973261Y-95061497D01*
X86069431Y-95267732D01*
X86069432Y-95267734D01*
X86199954Y-95454141D01*
X86360858Y-95615045D01*
X86360861Y-95615047D01*
X86547266Y-95745568D01*
X86753504Y-95841739D01*
X86973308Y-95900635D01*
X87135230Y-95914801D01*
X87199998Y-95920468D01*
X87200000Y-95920468D01*
X87200002Y-95920468D01*
X87256673Y-95915509D01*
X87426692Y-95900635D01*
X87646496Y-95841739D01*
X87852734Y-95745568D01*
X88039139Y-95615047D01*
X88200047Y-95454139D01*
X88330568Y-95267734D01*
X88426739Y-95061496D01*
X88485635Y-94841692D01*
X88505468Y-94615000D01*
X88485635Y-94388308D01*
X88459505Y-94290790D01*
X88461168Y-94220943D01*
X88476844Y-94190978D01*
X88476456Y-94190754D01*
X88522770Y-94110536D01*
X88559577Y-94046785D01*
X88600501Y-93894057D01*
X88600501Y-93735943D01*
X88600501Y-93724123D01*
X88600499Y-93724101D01*
X88600499Y-92795943D01*
X88600499Y-92795941D01*
X88559576Y-92643214D01*
X88480519Y-92506282D01*
X88480518Y-92506281D01*
X88476455Y-92499243D01*
X88477710Y-92498517D01*
X88455711Y-92441629D01*
X88459506Y-92399204D01*
X88467676Y-92368716D01*
X88485635Y-92301692D01*
X88505468Y-92075000D01*
X88504665Y-92065826D01*
X88485635Y-91848313D01*
X88485635Y-91848308D01*
X88426739Y-91628504D01*
X88330568Y-91422266D01*
X88200047Y-91235861D01*
X88200045Y-91235858D01*
X88039141Y-91074954D01*
X87852734Y-90944432D01*
X87852728Y-90944429D01*
X87794725Y-90917382D01*
X87742285Y-90871210D01*
X87723133Y-90804017D01*
X87743348Y-90737135D01*
X87794725Y-90692618D01*
X87852734Y-90665568D01*
X88039139Y-90535047D01*
X88200047Y-90374139D01*
X88330568Y-90187734D01*
X88426739Y-89981496D01*
X88485635Y-89761692D01*
X88505468Y-89535000D01*
X88485635Y-89308308D01*
X88459847Y-89212066D01*
X88461510Y-89142217D01*
X88491939Y-89092294D01*
X88668713Y-88915521D01*
X88668716Y-88915520D01*
X88780520Y-88803716D01*
X88830639Y-88716904D01*
X88859577Y-88666785D01*
X88900501Y-88514057D01*
X88900501Y-88355943D01*
X88900501Y-88348348D01*
X88900500Y-88348330D01*
X88900500Y-75069059D01*
X88900501Y-75069046D01*
X88900501Y-74900945D01*
X88900501Y-74900943D01*
X88859577Y-74748215D01*
X88828583Y-74694532D01*
X88812397Y-74666498D01*
X88795926Y-74598599D01*
X88818779Y-74532572D01*
X88873701Y-74489382D01*
X88919786Y-74480500D01*
X90033331Y-74480500D01*
X90033347Y-74480501D01*
X90040943Y-74480501D01*
X90199054Y-74480501D01*
X90199057Y-74480501D01*
X90351785Y-74439577D01*
X90401904Y-74410639D01*
X90488716Y-74360520D01*
X90600520Y-74248716D01*
X90600520Y-74248714D01*
X90610728Y-74238507D01*
X90610730Y-74238504D01*
X92358506Y-72490728D01*
X92358511Y-72490724D01*
X92368714Y-72480520D01*
X92368716Y-72480520D01*
X92480520Y-72368716D01*
X92488112Y-72355565D01*
X92538677Y-72307350D01*
X92607284Y-72294125D01*
X92672149Y-72320091D01*
X92712679Y-72377005D01*
X92719500Y-72417564D01*
X92719500Y-81379902D01*
X92699815Y-81446941D01*
X92683181Y-81467583D01*
X91519481Y-82631282D01*
X91519475Y-82631290D01*
X91472294Y-82713012D01*
X91472294Y-82713013D01*
X91440423Y-82768215D01*
X91399499Y-82920943D01*
X91399499Y-82920945D01*
X91399499Y-83089046D01*
X91399500Y-83089059D01*
X91399500Y-86628330D01*
X91399499Y-86628348D01*
X91399499Y-86794054D01*
X91399498Y-86794054D01*
X91399499Y-86794057D01*
X91440423Y-86946785D01*
X91440424Y-86946787D01*
X91440423Y-86946787D01*
X91447023Y-86958217D01*
X91447024Y-86958218D01*
X91519477Y-87083712D01*
X91519481Y-87083717D01*
X91638349Y-87202585D01*
X91638355Y-87202590D01*
X93528058Y-89092293D01*
X93561543Y-89153616D01*
X93560152Y-89212067D01*
X93534366Y-89308302D01*
X93534364Y-89308313D01*
X93514532Y-89534998D01*
X93514532Y-89535001D01*
X93534364Y-89761686D01*
X93534366Y-89761697D01*
X93593258Y-89981488D01*
X93593261Y-89981497D01*
X93689431Y-90187732D01*
X93689432Y-90187734D01*
X93819954Y-90374141D01*
X93980858Y-90535045D01*
X93980861Y-90535047D01*
X94167266Y-90665568D01*
X94225275Y-90692618D01*
X94277714Y-90738791D01*
X94296866Y-90805984D01*
X94276650Y-90872865D01*
X94225275Y-90917382D01*
X94167267Y-90944431D01*
X94167265Y-90944432D01*
X93980858Y-91074954D01*
X93819954Y-91235858D01*
X93689432Y-91422265D01*
X93689431Y-91422267D01*
X93593261Y-91628502D01*
X93593258Y-91628511D01*
X93534366Y-91848302D01*
X93534364Y-91848313D01*
X93514532Y-92074998D01*
X93514532Y-92075001D01*
X93534364Y-92301686D01*
X93534366Y-92301697D01*
X93593258Y-92521488D01*
X93593261Y-92521497D01*
X93689431Y-92727732D01*
X93689432Y-92727734D01*
X93819954Y-92914141D01*
X93980858Y-93075045D01*
X93980861Y-93075047D01*
X94167266Y-93205568D01*
X94225275Y-93232618D01*
X94277714Y-93278791D01*
X94296866Y-93345984D01*
X94276650Y-93412865D01*
X94225275Y-93457382D01*
X94167267Y-93484431D01*
X94167265Y-93484432D01*
X93980858Y-93614954D01*
X93819954Y-93775858D01*
X93689432Y-93962265D01*
X93689431Y-93962267D01*
X93593261Y-94168502D01*
X93593258Y-94168511D01*
X93534366Y-94388302D01*
X93534364Y-94388313D01*
X93514532Y-94614998D01*
X93514532Y-94615001D01*
X93534364Y-94841686D01*
X93534366Y-94841697D01*
X93560152Y-94937931D01*
X93558489Y-95007781D01*
X93528058Y-95057705D01*
X92222584Y-96363181D01*
X92161261Y-96396666D01*
X92134903Y-96399500D01*
X85300098Y-96399500D01*
X85233059Y-96379815D01*
X85212417Y-96363181D01*
X84659281Y-95810045D01*
X84101940Y-95252705D01*
X84068456Y-95191383D01*
X84069847Y-95132931D01*
X84070611Y-95130080D01*
X84095635Y-95036692D01*
X84115468Y-94810000D01*
X84095635Y-94583308D01*
X84036739Y-94363504D01*
X83940568Y-94157266D01*
X83810047Y-93970861D01*
X83810045Y-93970858D01*
X83649141Y-93809954D01*
X83462734Y-93679432D01*
X83462732Y-93679431D01*
X83256497Y-93583261D01*
X83256488Y-93583258D01*
X83036697Y-93524366D01*
X83036693Y-93524365D01*
X83036692Y-93524365D01*
X83036691Y-93524364D01*
X83036686Y-93524364D01*
X82810002Y-93504532D01*
X82809998Y-93504532D01*
X82583313Y-93524364D01*
X82583302Y-93524366D01*
X82363511Y-93583258D01*
X82363502Y-93583261D01*
X82157267Y-93679431D01*
X82157265Y-93679432D01*
X81970858Y-93809954D01*
X81809954Y-93970858D01*
X81679432Y-94157265D01*
X81679431Y-94157267D01*
X81583261Y-94363502D01*
X81583258Y-94363511D01*
X81524366Y-94583302D01*
X81524364Y-94583313D01*
X81504532Y-94809998D01*
X81504532Y-94810001D01*
X81524364Y-95036686D01*
X81524366Y-95036697D01*
X81550152Y-95132931D01*
X81548489Y-95202781D01*
X81518058Y-95252705D01*
X80631286Y-96139478D01*
X80519481Y-96251282D01*
X80519479Y-96251285D01*
X80469361Y-96338094D01*
X80469359Y-96338096D01*
X80440425Y-96388209D01*
X80440424Y-96388210D01*
X80437399Y-96399500D01*
X80399499Y-96540943D01*
X80399499Y-96540945D01*
X80399499Y-96709046D01*
X80399500Y-96709059D01*
X80399500Y-100544357D01*
X80379815Y-100611396D01*
X80327011Y-100657151D01*
X80307593Y-100664132D01*
X80076344Y-100726094D01*
X80076335Y-100726098D01*
X79862171Y-100825964D01*
X79862169Y-100825965D01*
X79668600Y-100961503D01*
X79546284Y-101083819D01*
X79484961Y-101117303D01*
X79415269Y-101112319D01*
X79359336Y-101070447D01*
X79342421Y-101039470D01*
X79293354Y-100907913D01*
X79293350Y-100907906D01*
X79207190Y-100792812D01*
X79207187Y-100792809D01*
X79092093Y-100706649D01*
X79092086Y-100706645D01*
X78957379Y-100656403D01*
X78957372Y-100656401D01*
X78897844Y-100650000D01*
X78250000Y-100650000D01*
X78250000Y-101566988D01*
X78192993Y-101534075D01*
X78065826Y-101500000D01*
X77934174Y-101500000D01*
X77807007Y-101534075D01*
X77750000Y-101566988D01*
X77750000Y-100650000D01*
X77102155Y-100650000D01*
X77042627Y-100656401D01*
X77042620Y-100656403D01*
X76907913Y-100706645D01*
X76907906Y-100706649D01*
X76792812Y-100792809D01*
X76792809Y-100792812D01*
X76706649Y-100907906D01*
X76706645Y-100907913D01*
X76656403Y-101042620D01*
X76656401Y-101042627D01*
X76650000Y-101102155D01*
X76650000Y-101750000D01*
X77566988Y-101750000D01*
X77534075Y-101807007D01*
X77500000Y-101934174D01*
X77500000Y-102065826D01*
X77534075Y-102192993D01*
X77566988Y-102250000D01*
X76650000Y-102250000D01*
X76650000Y-102897844D01*
X76656401Y-102957372D01*
X76656403Y-102957379D01*
X76706645Y-103092086D01*
X76706649Y-103092093D01*
X76792809Y-103207187D01*
X76792812Y-103207190D01*
X76907906Y-103293350D01*
X76907913Y-103293354D01*
X77042620Y-103343596D01*
X77042627Y-103343598D01*
X77102155Y-103349999D01*
X77102172Y-103350000D01*
X77750000Y-103350000D01*
X77750000Y-102433012D01*
X77807007Y-102465925D01*
X77934174Y-102500000D01*
X78065826Y-102500000D01*
X78192993Y-102465925D01*
X78250000Y-102433012D01*
X78250000Y-103350000D01*
X78897828Y-103350000D01*
X78897844Y-103349999D01*
X78957372Y-103343598D01*
X78957379Y-103343596D01*
X79092086Y-103293354D01*
X79092093Y-103293350D01*
X79207187Y-103207190D01*
X79207190Y-103207187D01*
X79293350Y-103092093D01*
X79293354Y-103092086D01*
X79342422Y-102960529D01*
X79384293Y-102904595D01*
X79449757Y-102880178D01*
X79518030Y-102895030D01*
X79546285Y-102916181D01*
X79668599Y-103038495D01*
X79713680Y-103070061D01*
X79862165Y-103174032D01*
X79862167Y-103174033D01*
X79862170Y-103174035D01*
X80076337Y-103273903D01*
X80076343Y-103273904D01*
X80076344Y-103273905D01*
X80131285Y-103288626D01*
X80304592Y-103335063D01*
X80475319Y-103350000D01*
X80539999Y-103355659D01*
X80540000Y-103355659D01*
X80540001Y-103355659D01*
X80604681Y-103350000D01*
X80775408Y-103335063D01*
X81003663Y-103273903D01*
X81217830Y-103174035D01*
X81411401Y-103038495D01*
X81578495Y-102871401D01*
X81714035Y-102677830D01*
X81813903Y-102463663D01*
X81875063Y-102235408D01*
X81895659Y-102000000D01*
X81875063Y-101764592D01*
X81813903Y-101536337D01*
X81714035Y-101322171D01*
X81622925Y-101192051D01*
X81600598Y-101125844D01*
X81600500Y-101120928D01*
X81600500Y-96920096D01*
X81620185Y-96853057D01*
X81636815Y-96832419D01*
X82367294Y-96101939D01*
X82428615Y-96068456D01*
X82487066Y-96069847D01*
X82492646Y-96071342D01*
X82583308Y-96095635D01*
X82745230Y-96109801D01*
X82809998Y-96115468D01*
X82810000Y-96115468D01*
X82810002Y-96115468D01*
X82866673Y-96110509D01*
X83036692Y-96095635D01*
X83132932Y-96069847D01*
X83202781Y-96071510D01*
X83252706Y-96101941D01*
X84338583Y-97187819D01*
X84372068Y-97249142D01*
X84367084Y-97318834D01*
X84325212Y-97374767D01*
X84259748Y-97399184D01*
X84250902Y-97399500D01*
X83582412Y-97399500D01*
X83515373Y-97379815D01*
X83505097Y-97372445D01*
X83502263Y-97370185D01*
X83502262Y-97370184D01*
X83420539Y-97318834D01*
X83349523Y-97274211D01*
X83179254Y-97214631D01*
X83179249Y-97214630D01*
X83000004Y-97194435D01*
X82999996Y-97194435D01*
X82820750Y-97214630D01*
X82820745Y-97214631D01*
X82650476Y-97274211D01*
X82497737Y-97370184D01*
X82370184Y-97497737D01*
X82274211Y-97650476D01*
X82214631Y-97820745D01*
X82214630Y-97820750D01*
X82194435Y-97999996D01*
X82194435Y-98000003D01*
X82214630Y-98179249D01*
X82214631Y-98179254D01*
X82274211Y-98349523D01*
X82368763Y-98500000D01*
X82370184Y-98502262D01*
X82497738Y-98629816D01*
X82650478Y-98725789D01*
X82820745Y-98785368D01*
X82820750Y-98785369D01*
X82999996Y-98805565D01*
X83000000Y-98805565D01*
X83000004Y-98805565D01*
X83179249Y-98785369D01*
X83179252Y-98785368D01*
X83179255Y-98785368D01*
X83349522Y-98725789D01*
X83502262Y-98629816D01*
X83502267Y-98629810D01*
X83505097Y-98627555D01*
X83507275Y-98626665D01*
X83508158Y-98626111D01*
X83508255Y-98626265D01*
X83569783Y-98601145D01*
X83582412Y-98600500D01*
X92903966Y-98600500D01*
X92903982Y-98600501D01*
X92911578Y-98600501D01*
X93069689Y-98600501D01*
X93069692Y-98600501D01*
X93222420Y-98559577D01*
X93272539Y-98530639D01*
X93359351Y-98480520D01*
X93471155Y-98368716D01*
X93471155Y-98368714D01*
X93481363Y-98358507D01*
X93481364Y-98358504D01*
X96400520Y-95439351D01*
X96479577Y-95302419D01*
X96520501Y-95149692D01*
X96520501Y-94991577D01*
X96520501Y-94983982D01*
X96520500Y-94983964D01*
X96520500Y-88184059D01*
X96520501Y-88184046D01*
X96520501Y-88015945D01*
X96520501Y-88015943D01*
X96479577Y-87863215D01*
X96450639Y-87813095D01*
X96400520Y-87726284D01*
X96288716Y-87614480D01*
X96288715Y-87614479D01*
X96284385Y-87610149D01*
X96284374Y-87610139D01*
X96111941Y-87437706D01*
X96078456Y-87376383D01*
X96079847Y-87317931D01*
X96105635Y-87221692D01*
X96125468Y-86995000D01*
X96105635Y-86768308D01*
X96046739Y-86548504D01*
X95950568Y-86342266D01*
X95820047Y-86155861D01*
X95820045Y-86155858D01*
X95659141Y-85994954D01*
X95472734Y-85864432D01*
X95472732Y-85864431D01*
X95414725Y-85837382D01*
X95414132Y-85837105D01*
X95361694Y-85790934D01*
X95342542Y-85723740D01*
X95362758Y-85656859D01*
X95414134Y-85612341D01*
X95472484Y-85585132D01*
X95658820Y-85454657D01*
X95819659Y-85293819D01*
X95950134Y-85107482D01*
X96046265Y-84901326D01*
X96046269Y-84901317D01*
X96098872Y-84705000D01*
X95135686Y-84705000D01*
X95140080Y-84700606D01*
X95192741Y-84609394D01*
X95220000Y-84507661D01*
X95220000Y-84402339D01*
X95192741Y-84300606D01*
X95140080Y-84209394D01*
X95135686Y-84205000D01*
X96098872Y-84205000D01*
X96098872Y-84204999D01*
X96046269Y-84008682D01*
X96046265Y-84008673D01*
X95950134Y-83802517D01*
X95819657Y-83616179D01*
X95658820Y-83455342D01*
X95472482Y-83324865D01*
X95414133Y-83297657D01*
X95361694Y-83251484D01*
X95342542Y-83184291D01*
X95362758Y-83117410D01*
X95414129Y-83072895D01*
X95472734Y-83045568D01*
X95659139Y-82915047D01*
X95820047Y-82754139D01*
X95848481Y-82713530D01*
X95903056Y-82669905D01*
X95972554Y-82662711D01*
X96034910Y-82694233D01*
X96037737Y-82696972D01*
X97708058Y-84367293D01*
X97741543Y-84428616D01*
X97740152Y-84487067D01*
X97714366Y-84583302D01*
X97714364Y-84583313D01*
X97694532Y-84809998D01*
X97694532Y-84810001D01*
X97714364Y-85036686D01*
X97714366Y-85036697D01*
X97773258Y-85256488D01*
X97773261Y-85256497D01*
X97869431Y-85462732D01*
X97869432Y-85462734D01*
X97999954Y-85649141D01*
X98160858Y-85810045D01*
X98160861Y-85810047D01*
X98347266Y-85940568D01*
X98553504Y-86036739D01*
X98773308Y-86095635D01*
X98935230Y-86109801D01*
X98999998Y-86115468D01*
X99000000Y-86115468D01*
X99000002Y-86115468D01*
X99056673Y-86110509D01*
X99226692Y-86095635D01*
X99446496Y-86036739D01*
X99652734Y-85940568D01*
X99839139Y-85810047D01*
X100000047Y-85649139D01*
X100130568Y-85462734D01*
X100226739Y-85256496D01*
X100285635Y-85036692D01*
X100305468Y-84810000D01*
X100285635Y-84583308D01*
X100226739Y-84363504D01*
X100130568Y-84157266D01*
X100000047Y-83970861D01*
X100000045Y-83970858D01*
X99839141Y-83809954D01*
X99652734Y-83679432D01*
X99652732Y-83679431D01*
X99446497Y-83583261D01*
X99446488Y-83583258D01*
X99226697Y-83524366D01*
X99226693Y-83524365D01*
X99226692Y-83524365D01*
X99226691Y-83524364D01*
X99226686Y-83524364D01*
X99000002Y-83504532D01*
X98999998Y-83504532D01*
X98773313Y-83524364D01*
X98773302Y-83524366D01*
X98677067Y-83550152D01*
X98607217Y-83548489D01*
X98557293Y-83518058D01*
X96636819Y-81597583D01*
X96603334Y-81536260D01*
X96600500Y-81509902D01*
X96600500Y-73883062D01*
X96620185Y-73816023D01*
X96672989Y-73770268D01*
X96742147Y-73760324D01*
X96765448Y-73766018D01*
X96820745Y-73785368D01*
X96820748Y-73785368D01*
X96820750Y-73785369D01*
X96999996Y-73805565D01*
X97000000Y-73805565D01*
X97000004Y-73805565D01*
X97179249Y-73785369D01*
X97179252Y-73785368D01*
X97179255Y-73785368D01*
X97349522Y-73725789D01*
X97502262Y-73629816D01*
X97502267Y-73629810D01*
X97505097Y-73627555D01*
X97507275Y-73626665D01*
X97508158Y-73626111D01*
X97508255Y-73626265D01*
X97569783Y-73601145D01*
X97582412Y-73600500D01*
X97888653Y-73600500D01*
X97955692Y-73620185D01*
X98001447Y-73672989D01*
X98011391Y-73742147D01*
X97990228Y-73795624D01*
X97869865Y-73967517D01*
X97773734Y-74173673D01*
X97773730Y-74173682D01*
X97714860Y-74393389D01*
X97714858Y-74393400D01*
X97695034Y-74619997D01*
X97695034Y-74620002D01*
X97714858Y-74846599D01*
X97714860Y-74846610D01*
X97773730Y-75066317D01*
X97773735Y-75066331D01*
X97869863Y-75272478D01*
X97920974Y-75345472D01*
X98600000Y-74666446D01*
X98600000Y-74672661D01*
X98627259Y-74774394D01*
X98679920Y-74865606D01*
X98754394Y-74940080D01*
X98845606Y-74992741D01*
X98947339Y-75020000D01*
X98953553Y-75020000D01*
X98274526Y-75699025D01*
X98347513Y-75750132D01*
X98347517Y-75750134D01*
X98438624Y-75792618D01*
X98491063Y-75838790D01*
X98510215Y-75905984D01*
X98489999Y-75972865D01*
X98438624Y-76017382D01*
X98347516Y-76059866D01*
X98347512Y-76059868D01*
X98274526Y-76110973D01*
X98274526Y-76110974D01*
X98953553Y-76790000D01*
X98947339Y-76790000D01*
X98845606Y-76817259D01*
X98754394Y-76869920D01*
X98679920Y-76944394D01*
X98627259Y-77035606D01*
X98600000Y-77137339D01*
X98600000Y-77143552D01*
X97920974Y-76464526D01*
X97920973Y-76464526D01*
X97869868Y-76537512D01*
X97869866Y-76537516D01*
X97773734Y-76743673D01*
X97773730Y-76743682D01*
X97714860Y-76963389D01*
X97714858Y-76963400D01*
X97695034Y-77189997D01*
X97695034Y-77190002D01*
X97714858Y-77416599D01*
X97714860Y-77416610D01*
X97773730Y-77636317D01*
X97773735Y-77636331D01*
X97869863Y-77842478D01*
X97920974Y-77915472D01*
X98600000Y-77236446D01*
X98600000Y-77242661D01*
X98627259Y-77344394D01*
X98679920Y-77435606D01*
X98754394Y-77510080D01*
X98845606Y-77562741D01*
X98947339Y-77590000D01*
X98953553Y-77590000D01*
X98274526Y-78269025D01*
X98347513Y-78320132D01*
X98347521Y-78320136D01*
X98553668Y-78416264D01*
X98553682Y-78416269D01*
X98773389Y-78475139D01*
X98773400Y-78475141D01*
X98999998Y-78494966D01*
X99000002Y-78494966D01*
X99226599Y-78475141D01*
X99226610Y-78475139D01*
X99446317Y-78416269D01*
X99446331Y-78416264D01*
X99652478Y-78320136D01*
X99725471Y-78269024D01*
X99046447Y-77590000D01*
X99052661Y-77590000D01*
X99154394Y-77562741D01*
X99245606Y-77510080D01*
X99320080Y-77435606D01*
X99372741Y-77344394D01*
X99400000Y-77242661D01*
X99400000Y-77236447D01*
X100079024Y-77915471D01*
X100130136Y-77842478D01*
X100226264Y-77636331D01*
X100226269Y-77636317D01*
X100285139Y-77416610D01*
X100285141Y-77416599D01*
X100304966Y-77190002D01*
X100304966Y-77189997D01*
X100285141Y-76963400D01*
X100285139Y-76963389D01*
X100226269Y-76743682D01*
X100226264Y-76743668D01*
X100130136Y-76537521D01*
X100130132Y-76537513D01*
X100079025Y-76464526D01*
X99400000Y-77143551D01*
X99400000Y-77137339D01*
X99372741Y-77035606D01*
X99320080Y-76944394D01*
X99245606Y-76869920D01*
X99154394Y-76817259D01*
X99052661Y-76790000D01*
X99046448Y-76790000D01*
X99725472Y-76110974D01*
X99652478Y-76059863D01*
X99561376Y-76017382D01*
X99508936Y-75971210D01*
X99489784Y-75904017D01*
X99509999Y-75837136D01*
X99561376Y-75792618D01*
X99652478Y-75750136D01*
X99725471Y-75699024D01*
X99046447Y-75020000D01*
X99052661Y-75020000D01*
X99154394Y-74992741D01*
X99245606Y-74940080D01*
X99320080Y-74865606D01*
X99372741Y-74774394D01*
X99400000Y-74672661D01*
X99400000Y-74666447D01*
X100079024Y-75345471D01*
X100130136Y-75272478D01*
X100226264Y-75066331D01*
X100226269Y-75066317D01*
X100285139Y-74846610D01*
X100285141Y-74846599D01*
X100304966Y-74620002D01*
X100304966Y-74619997D01*
X100285141Y-74393400D01*
X100285139Y-74393389D01*
X100226269Y-74173682D01*
X100226264Y-74173668D01*
X100130136Y-73967521D01*
X100130132Y-73967513D01*
X100079025Y-73894526D01*
X99400000Y-74573551D01*
X99400000Y-74567339D01*
X99372741Y-74465606D01*
X99320080Y-74374394D01*
X99245606Y-74299920D01*
X99154394Y-74247259D01*
X99052661Y-74220000D01*
X99046446Y-74220000D01*
X99725472Y-73540974D01*
X99652478Y-73489863D01*
X99446331Y-73393735D01*
X99446317Y-73393730D01*
X99226610Y-73334860D01*
X99226599Y-73334858D01*
X99000002Y-73315034D01*
X98999998Y-73315034D01*
X98828931Y-73330000D01*
X98760431Y-73316233D01*
X98710248Y-73267618D01*
X98694315Y-73199589D01*
X98717691Y-73133746D01*
X98730443Y-73118791D01*
X99480520Y-72368716D01*
X99559577Y-72231784D01*
X99600501Y-72079057D01*
X99600501Y-71920942D01*
X99600501Y-71913347D01*
X99600500Y-71913329D01*
X99600500Y-68231692D01*
X99620185Y-68164653D01*
X99653374Y-68130119D01*
X99839139Y-68000047D01*
X100000047Y-67839139D01*
X100130568Y-67652734D01*
X100226739Y-67446496D01*
X100285635Y-67226692D01*
X100305468Y-67000000D01*
X100285635Y-66773308D01*
X100226739Y-66553504D01*
X100130568Y-66347266D01*
X100000047Y-66160861D01*
X100000045Y-66160858D01*
X99839141Y-65999954D01*
X99652734Y-65869432D01*
X99652732Y-65869431D01*
X99446497Y-65773261D01*
X99446488Y-65773258D01*
X99226697Y-65714366D01*
X99226693Y-65714365D01*
X99226692Y-65714365D01*
X99226691Y-65714364D01*
X99226686Y-65714364D01*
X99000002Y-65694532D01*
X98999998Y-65694532D01*
X98773313Y-65714364D01*
X98773302Y-65714366D01*
X98553511Y-65773258D01*
X98553502Y-65773261D01*
X98347267Y-65869431D01*
X98347265Y-65869432D01*
X98160858Y-65999954D01*
X97999954Y-66160858D01*
X97869432Y-66347265D01*
X97869431Y-66347267D01*
X97773261Y-66553502D01*
X97773258Y-66553511D01*
X97714366Y-66773302D01*
X97714364Y-66773313D01*
X97694532Y-66999998D01*
X97694532Y-67000001D01*
X97714364Y-67226686D01*
X97714366Y-67226697D01*
X97773258Y-67446488D01*
X97773261Y-67446497D01*
X97869431Y-67652732D01*
X97869432Y-67652734D01*
X97999954Y-67839141D01*
X98160858Y-68000045D01*
X98160861Y-68000047D01*
X98346624Y-68130118D01*
X98390248Y-68184693D01*
X98399500Y-68231692D01*
X98399500Y-71699902D01*
X98379815Y-71766941D01*
X98363181Y-71787583D01*
X97787584Y-72363181D01*
X97726261Y-72396666D01*
X97699903Y-72399500D01*
X97582412Y-72399500D01*
X97515373Y-72379815D01*
X97505097Y-72372445D01*
X97502263Y-72370185D01*
X97502262Y-72370184D01*
X97422540Y-72320091D01*
X97349523Y-72274211D01*
X97179254Y-72214631D01*
X97179249Y-72214630D01*
X97000004Y-72194435D01*
X96999996Y-72194435D01*
X96820750Y-72214630D01*
X96820739Y-72214633D01*
X96765453Y-72233978D01*
X96695674Y-72237539D01*
X96635047Y-72202809D01*
X96602821Y-72140816D01*
X96600500Y-72116936D01*
X96600500Y-71025783D01*
X96620185Y-70958744D01*
X96636814Y-70938106D01*
X96758506Y-70816413D01*
X96758510Y-70816411D01*
X96768714Y-70806206D01*
X96768716Y-70806206D01*
X96880520Y-70694402D01*
X96959577Y-70557470D01*
X97000500Y-70404743D01*
X97000500Y-63514732D01*
X97020185Y-63447693D01*
X97072989Y-63401938D01*
X97142147Y-63391994D01*
X97205703Y-63421019D01*
X97212178Y-63427048D01*
X98175649Y-64390520D01*
X98175651Y-64390521D01*
X98175655Y-64390524D01*
X98312574Y-64469573D01*
X98312577Y-64469575D01*
X98312581Y-64469577D01*
X98465308Y-64510501D01*
X98465310Y-64510501D01*
X98631019Y-64510501D01*
X98631035Y-64510500D01*
X99368966Y-64510500D01*
X99368982Y-64510501D01*
X99376578Y-64510501D01*
X99534689Y-64510501D01*
X99534692Y-64510501D01*
X99687420Y-64469577D01*
X99737916Y-64440423D01*
X99737917Y-64440423D01*
X99824344Y-64390524D01*
X99824343Y-64390524D01*
X99824351Y-64390520D01*
X99936155Y-64278716D01*
X99936155Y-64278714D01*
X99946359Y-64268511D01*
X99946363Y-64268506D01*
X100788319Y-63426550D01*
X100849642Y-63393065D01*
X100919334Y-63398049D01*
X100975267Y-63439921D01*
X100999684Y-63505385D01*
X101000000Y-63514231D01*
X101000000Y-101876000D01*
X100980315Y-101943039D01*
X100927511Y-101988794D01*
X100876000Y-102000000D01*
X97000000Y-102000000D01*
X97000000Y-105876000D01*
X96980315Y-105943039D01*
X96927511Y-105988794D01*
X96876000Y-106000000D01*
X49124000Y-106000000D01*
X49056961Y-105980315D01*
X49011206Y-105927511D01*
X49000000Y-105876000D01*
X49000000Y-102632844D01*
X58915000Y-102632844D01*
X58921401Y-102692372D01*
X58921403Y-102692379D01*
X58971645Y-102827086D01*
X58971649Y-102827093D01*
X59057809Y-102942187D01*
X59057812Y-102942190D01*
X59172906Y-103028350D01*
X59172913Y-103028354D01*
X59307620Y-103078596D01*
X59307627Y-103078598D01*
X59367155Y-103084999D01*
X59367172Y-103085000D01*
X60015000Y-103085000D01*
X60015000Y-102168012D01*
X60072007Y-102200925D01*
X60199174Y-102235000D01*
X60330826Y-102235000D01*
X60457993Y-102200925D01*
X60515000Y-102168012D01*
X60515000Y-103085000D01*
X61162828Y-103085000D01*
X61162844Y-103084999D01*
X61222372Y-103078598D01*
X61222379Y-103078596D01*
X61357086Y-103028354D01*
X61357093Y-103028350D01*
X61472187Y-102942190D01*
X61472190Y-102942187D01*
X61558350Y-102827093D01*
X61558354Y-102827086D01*
X61607422Y-102695529D01*
X61649293Y-102639595D01*
X61714757Y-102615178D01*
X61783030Y-102630030D01*
X61811285Y-102651181D01*
X61933599Y-102773495D01*
X62010135Y-102827086D01*
X62127165Y-102909032D01*
X62127167Y-102909033D01*
X62127170Y-102909035D01*
X62341337Y-103008903D01*
X62569592Y-103070063D01*
X62740319Y-103085000D01*
X62804999Y-103090659D01*
X62805000Y-103090659D01*
X62805001Y-103090659D01*
X62869681Y-103085000D01*
X63040408Y-103070063D01*
X63268663Y-103008903D01*
X63482830Y-102909035D01*
X63676401Y-102773495D01*
X63843495Y-102606401D01*
X63979035Y-102412830D01*
X64078903Y-102198663D01*
X64140063Y-101970408D01*
X64160659Y-101735000D01*
X64140063Y-101499592D01*
X64078903Y-101271337D01*
X63979035Y-101057171D01*
X63968852Y-101042627D01*
X63843494Y-100863597D01*
X63676402Y-100696506D01*
X63676395Y-100696501D01*
X63482834Y-100560967D01*
X63482830Y-100560965D01*
X63411727Y-100527809D01*
X63268663Y-100461097D01*
X63268659Y-100461096D01*
X63268655Y-100461094D01*
X63040413Y-100399938D01*
X63040403Y-100399936D01*
X62805001Y-100379341D01*
X62804999Y-100379341D01*
X62569596Y-100399936D01*
X62569586Y-100399938D01*
X62341344Y-100461094D01*
X62341335Y-100461098D01*
X62127171Y-100560964D01*
X62127169Y-100560965D01*
X61933600Y-100696503D01*
X61811284Y-100818819D01*
X61749961Y-100852303D01*
X61680269Y-100847319D01*
X61624336Y-100805447D01*
X61607421Y-100774470D01*
X61558354Y-100642913D01*
X61558350Y-100642906D01*
X61472190Y-100527812D01*
X61472187Y-100527809D01*
X61357093Y-100441649D01*
X61357086Y-100441645D01*
X61222379Y-100391403D01*
X61222372Y-100391401D01*
X61162844Y-100385000D01*
X60515000Y-100385000D01*
X60515000Y-101301988D01*
X60457993Y-101269075D01*
X60330826Y-101235000D01*
X60199174Y-101235000D01*
X60072007Y-101269075D01*
X60015000Y-101301988D01*
X60015000Y-100385000D01*
X59367155Y-100385000D01*
X59307627Y-100391401D01*
X59307620Y-100391403D01*
X59172913Y-100441645D01*
X59172906Y-100441649D01*
X59057812Y-100527809D01*
X59057809Y-100527812D01*
X58971649Y-100642906D01*
X58971645Y-100642913D01*
X58921403Y-100777620D01*
X58921401Y-100777627D01*
X58915000Y-100837155D01*
X58915000Y-101485000D01*
X59831988Y-101485000D01*
X59799075Y-101542007D01*
X59765000Y-101669174D01*
X59765000Y-101800826D01*
X59799075Y-101927993D01*
X59831988Y-101985000D01*
X58915000Y-101985000D01*
X58915000Y-102632844D01*
X49000000Y-102632844D01*
X49000000Y-102000000D01*
X45124000Y-102000000D01*
X45056961Y-101980315D01*
X45011206Y-101927511D01*
X45000000Y-101876000D01*
X45000000Y-98897844D01*
X46650000Y-98897844D01*
X46656401Y-98957372D01*
X46656403Y-98957379D01*
X46706645Y-99092086D01*
X46706649Y-99092093D01*
X46792809Y-99207187D01*
X46792812Y-99207190D01*
X46907906Y-99293350D01*
X46907913Y-99293354D01*
X47042620Y-99343596D01*
X47042627Y-99343598D01*
X47102155Y-99349999D01*
X47102172Y-99350000D01*
X47750000Y-99350000D01*
X47750000Y-98433012D01*
X47807007Y-98465925D01*
X47934174Y-98500000D01*
X48065826Y-98500000D01*
X48192993Y-98465925D01*
X48250000Y-98433012D01*
X48250000Y-99350000D01*
X48897828Y-99350000D01*
X48897844Y-99349999D01*
X48957372Y-99343598D01*
X48957379Y-99343596D01*
X49092086Y-99293354D01*
X49092093Y-99293350D01*
X49207187Y-99207190D01*
X49207190Y-99207187D01*
X49293350Y-99092093D01*
X49293354Y-99092086D01*
X49342422Y-98960529D01*
X49384293Y-98904595D01*
X49449757Y-98880178D01*
X49518030Y-98895030D01*
X49546285Y-98916181D01*
X49668599Y-99038495D01*
X49745135Y-99092086D01*
X49862165Y-99174032D01*
X49862167Y-99174033D01*
X49862170Y-99174035D01*
X50076337Y-99273903D01*
X50304592Y-99335063D01*
X50475319Y-99350000D01*
X50539999Y-99355659D01*
X50540000Y-99355659D01*
X50540001Y-99355659D01*
X50604681Y-99350000D01*
X50775408Y-99335063D01*
X51003663Y-99273903D01*
X51217830Y-99174035D01*
X51411401Y-99038495D01*
X51578495Y-98871401D01*
X51714035Y-98677830D01*
X51716707Y-98672097D01*
X51762878Y-98619658D01*
X51829091Y-98600500D01*
X53413331Y-98600500D01*
X53413347Y-98600501D01*
X53420943Y-98600501D01*
X53579054Y-98600501D01*
X53579057Y-98600501D01*
X53731785Y-98559577D01*
X53781904Y-98530639D01*
X53868716Y-98480520D01*
X53980520Y-98368716D01*
X53980520Y-98368714D01*
X53990728Y-98358507D01*
X53990730Y-98358504D01*
X58057294Y-94291939D01*
X58118615Y-94258456D01*
X58177066Y-94259847D01*
X58196604Y-94265082D01*
X58273308Y-94285635D01*
X58435230Y-94299801D01*
X58499998Y-94305468D01*
X58500000Y-94305468D01*
X58500002Y-94305468D01*
X58556673Y-94300509D01*
X58726692Y-94285635D01*
X58946496Y-94226739D01*
X59152734Y-94130568D01*
X59339139Y-94000047D01*
X59500047Y-93839139D01*
X59630568Y-93652734D01*
X59726739Y-93446496D01*
X59785635Y-93226692D01*
X59805468Y-93000000D01*
X59785635Y-92773308D01*
X59726739Y-92553504D01*
X59630568Y-92347266D01*
X59500047Y-92160861D01*
X59500045Y-92160858D01*
X59339141Y-91999954D01*
X59152734Y-91869432D01*
X59152732Y-91869431D01*
X58946497Y-91773261D01*
X58946488Y-91773258D01*
X58726697Y-91714366D01*
X58726693Y-91714365D01*
X58726692Y-91714365D01*
X58726691Y-91714364D01*
X58726686Y-91714364D01*
X58500002Y-91694532D01*
X58499998Y-91694532D01*
X58273313Y-91714364D01*
X58273302Y-91714366D01*
X58053511Y-91773258D01*
X58053502Y-91773261D01*
X57847267Y-91869431D01*
X57847265Y-91869432D01*
X57660858Y-91999954D01*
X57499954Y-92160858D01*
X57369432Y-92347265D01*
X57369431Y-92347267D01*
X57273261Y-92553502D01*
X57273258Y-92553511D01*
X57214366Y-92773302D01*
X57214364Y-92773313D01*
X57194532Y-92999998D01*
X57194532Y-93000001D01*
X57214364Y-93226686D01*
X57214366Y-93226697D01*
X57240152Y-93322931D01*
X57238489Y-93392781D01*
X57208058Y-93442705D01*
X53287584Y-97363181D01*
X53226261Y-97396666D01*
X53199903Y-97399500D01*
X51829091Y-97399500D01*
X51762052Y-97379815D01*
X51716711Y-97327909D01*
X51714037Y-97322175D01*
X51714034Y-97322170D01*
X51676605Y-97268716D01*
X51614190Y-97179577D01*
X51578494Y-97128597D01*
X51411402Y-96961506D01*
X51411395Y-96961501D01*
X51217834Y-96825967D01*
X51217830Y-96825965D01*
X51146727Y-96792809D01*
X51003663Y-96726097D01*
X51003659Y-96726096D01*
X51003655Y-96726094D01*
X50775413Y-96664938D01*
X50775403Y-96664936D01*
X50540001Y-96644341D01*
X50539999Y-96644341D01*
X50304596Y-96664936D01*
X50304586Y-96664938D01*
X50076344Y-96726094D01*
X50076335Y-96726098D01*
X49862171Y-96825964D01*
X49862169Y-96825965D01*
X49668600Y-96961503D01*
X49546284Y-97083819D01*
X49484961Y-97117303D01*
X49415269Y-97112319D01*
X49359336Y-97070447D01*
X49342421Y-97039470D01*
X49293354Y-96907913D01*
X49293350Y-96907906D01*
X49207190Y-96792812D01*
X49207187Y-96792809D01*
X49092093Y-96706649D01*
X49092086Y-96706645D01*
X48957379Y-96656403D01*
X48957372Y-96656401D01*
X48897844Y-96650000D01*
X48250000Y-96650000D01*
X48250000Y-97566988D01*
X48192993Y-97534075D01*
X48065826Y-97500000D01*
X47934174Y-97500000D01*
X47807007Y-97534075D01*
X47750000Y-97566988D01*
X47750000Y-96650000D01*
X47102155Y-96650000D01*
X47042627Y-96656401D01*
X47042620Y-96656403D01*
X46907913Y-96706645D01*
X46907906Y-96706649D01*
X46792812Y-96792809D01*
X46792809Y-96792812D01*
X46706649Y-96907906D01*
X46706645Y-96907913D01*
X46656403Y-97042620D01*
X46656401Y-97042627D01*
X46650000Y-97102155D01*
X46650000Y-97750000D01*
X47566988Y-97750000D01*
X47534075Y-97807007D01*
X47500000Y-97934174D01*
X47500000Y-98065826D01*
X47534075Y-98192993D01*
X47566988Y-98250000D01*
X46650000Y-98250000D01*
X46650000Y-98897844D01*
X45000000Y-98897844D01*
X45000000Y-92897844D01*
X46650000Y-92897844D01*
X46656401Y-92957372D01*
X46656403Y-92957379D01*
X46706645Y-93092086D01*
X46706649Y-93092093D01*
X46792809Y-93207187D01*
X46792812Y-93207190D01*
X46907906Y-93293350D01*
X46907913Y-93293354D01*
X47042620Y-93343596D01*
X47042627Y-93343598D01*
X47102155Y-93349999D01*
X47102172Y-93350000D01*
X47750000Y-93350000D01*
X47750000Y-92433012D01*
X47807007Y-92465925D01*
X47934174Y-92500000D01*
X48065826Y-92500000D01*
X48192993Y-92465925D01*
X48250000Y-92433012D01*
X48250000Y-93350000D01*
X48897828Y-93350000D01*
X48897844Y-93349999D01*
X48957372Y-93343598D01*
X48957379Y-93343596D01*
X49092086Y-93293354D01*
X49092093Y-93293350D01*
X49207187Y-93207190D01*
X49207190Y-93207187D01*
X49293350Y-93092093D01*
X49293354Y-93092086D01*
X49342422Y-92960529D01*
X49384293Y-92904595D01*
X49449757Y-92880178D01*
X49518030Y-92895030D01*
X49546285Y-92916181D01*
X49668599Y-93038495D01*
X49720798Y-93075045D01*
X49862165Y-93174032D01*
X49862167Y-93174033D01*
X49862170Y-93174035D01*
X50076337Y-93273903D01*
X50304592Y-93335063D01*
X50475319Y-93350000D01*
X50539999Y-93355659D01*
X50540000Y-93355659D01*
X50540001Y-93355659D01*
X50604681Y-93350000D01*
X50775408Y-93335063D01*
X51003663Y-93273903D01*
X51217830Y-93174035D01*
X51411401Y-93038495D01*
X51578495Y-92871401D01*
X51714035Y-92677830D01*
X51716707Y-92672097D01*
X51762878Y-92619658D01*
X51829091Y-92600500D01*
X55413331Y-92600500D01*
X55413347Y-92600501D01*
X55420943Y-92600501D01*
X55579054Y-92600501D01*
X55579057Y-92600501D01*
X55731785Y-92559577D01*
X55801233Y-92519481D01*
X55868716Y-92480520D01*
X55980520Y-92368716D01*
X55980520Y-92368714D01*
X55990724Y-92358511D01*
X55990728Y-92358506D01*
X58057294Y-90291939D01*
X58118615Y-90258456D01*
X58177066Y-90259847D01*
X58196604Y-90265082D01*
X58273308Y-90285635D01*
X58435230Y-90299801D01*
X58499998Y-90305468D01*
X58500000Y-90305468D01*
X58500002Y-90305468D01*
X58556673Y-90300509D01*
X58726692Y-90285635D01*
X58946496Y-90226739D01*
X59152734Y-90130568D01*
X59339139Y-90000047D01*
X59500047Y-89839139D01*
X59630568Y-89652734D01*
X59726739Y-89446496D01*
X59785635Y-89226692D01*
X59805468Y-89000000D01*
X59785635Y-88773308D01*
X59726739Y-88553504D01*
X59630568Y-88347266D01*
X59500047Y-88160861D01*
X59500045Y-88160858D01*
X59339141Y-87999954D01*
X59152734Y-87869432D01*
X59152732Y-87869431D01*
X58946497Y-87773261D01*
X58946488Y-87773258D01*
X58726697Y-87714366D01*
X58726693Y-87714365D01*
X58726692Y-87714365D01*
X58726691Y-87714364D01*
X58726686Y-87714364D01*
X58500002Y-87694532D01*
X58499998Y-87694532D01*
X58273313Y-87714364D01*
X58273302Y-87714366D01*
X58053511Y-87773258D01*
X58053502Y-87773261D01*
X57847267Y-87869431D01*
X57847265Y-87869432D01*
X57660858Y-87999954D01*
X57499954Y-88160858D01*
X57369432Y-88347265D01*
X57369431Y-88347267D01*
X57273261Y-88553502D01*
X57273258Y-88553511D01*
X57214366Y-88773302D01*
X57214364Y-88773313D01*
X57194532Y-88999998D01*
X57194532Y-89000001D01*
X57214364Y-89226686D01*
X57214366Y-89226697D01*
X57240152Y-89322931D01*
X57238489Y-89392781D01*
X57208058Y-89442705D01*
X55287584Y-91363181D01*
X55226261Y-91396666D01*
X55199903Y-91399500D01*
X51829091Y-91399500D01*
X51762052Y-91379815D01*
X51716711Y-91327909D01*
X51714037Y-91322175D01*
X51714034Y-91322170D01*
X51578494Y-91128597D01*
X51411402Y-90961506D01*
X51411395Y-90961501D01*
X51404251Y-90956499D01*
X51334854Y-90907906D01*
X51217834Y-90825967D01*
X51217830Y-90825965D01*
X51174981Y-90805984D01*
X51003663Y-90726097D01*
X51003659Y-90726096D01*
X51003655Y-90726094D01*
X50775413Y-90664938D01*
X50775403Y-90664936D01*
X50540001Y-90644341D01*
X50539999Y-90644341D01*
X50304596Y-90664936D01*
X50304586Y-90664938D01*
X50076344Y-90726094D01*
X50076335Y-90726098D01*
X49862171Y-90825964D01*
X49862169Y-90825965D01*
X49668600Y-90961503D01*
X49546284Y-91083819D01*
X49484961Y-91117303D01*
X49415269Y-91112319D01*
X49359336Y-91070447D01*
X49342421Y-91039470D01*
X49293354Y-90907913D01*
X49293350Y-90907906D01*
X49207190Y-90792812D01*
X49207187Y-90792809D01*
X49092093Y-90706649D01*
X49092086Y-90706645D01*
X48957379Y-90656403D01*
X48957372Y-90656401D01*
X48897844Y-90650000D01*
X48250000Y-90650000D01*
X48250000Y-91566988D01*
X48192993Y-91534075D01*
X48065826Y-91500000D01*
X47934174Y-91500000D01*
X47807007Y-91534075D01*
X47750000Y-91566988D01*
X47750000Y-90650000D01*
X47102155Y-90650000D01*
X47042627Y-90656401D01*
X47042620Y-90656403D01*
X46907913Y-90706645D01*
X46907906Y-90706649D01*
X46792812Y-90792809D01*
X46792809Y-90792812D01*
X46706649Y-90907906D01*
X46706645Y-90907913D01*
X46656403Y-91042620D01*
X46656401Y-91042627D01*
X46650000Y-91102155D01*
X46650000Y-91750000D01*
X47566988Y-91750000D01*
X47534075Y-91807007D01*
X47500000Y-91934174D01*
X47500000Y-92065826D01*
X47534075Y-92192993D01*
X47566988Y-92250000D01*
X46650000Y-92250000D01*
X46650000Y-92897844D01*
X45000000Y-92897844D01*
X45000000Y-52897844D01*
X46110000Y-52897844D01*
X46116401Y-52957372D01*
X46116403Y-52957379D01*
X46166645Y-53092086D01*
X46166649Y-53092093D01*
X46252809Y-53207187D01*
X46252812Y-53207190D01*
X46367906Y-53293350D01*
X46367913Y-53293354D01*
X46502620Y-53343596D01*
X46502627Y-53343598D01*
X46562155Y-53349999D01*
X46562172Y-53350000D01*
X47210000Y-53350000D01*
X47210000Y-52433012D01*
X47267007Y-52465925D01*
X47394174Y-52500000D01*
X47525826Y-52500000D01*
X47652993Y-52465925D01*
X47710000Y-52433012D01*
X47710000Y-53350000D01*
X48357828Y-53350000D01*
X48357844Y-53349999D01*
X48417372Y-53343598D01*
X48417379Y-53343596D01*
X48552086Y-53293354D01*
X48552093Y-53293350D01*
X48667187Y-53207190D01*
X48667190Y-53207187D01*
X48753350Y-53092093D01*
X48753354Y-53092086D01*
X48802422Y-52960529D01*
X48844293Y-52904595D01*
X48909757Y-52880178D01*
X48978030Y-52895030D01*
X49006285Y-52916181D01*
X49128599Y-53038495D01*
X49203992Y-53091286D01*
X49322165Y-53174032D01*
X49322167Y-53174033D01*
X49322170Y-53174035D01*
X49536337Y-53273903D01*
X49764592Y-53335063D01*
X49935319Y-53350000D01*
X49999999Y-53355659D01*
X50000000Y-53355659D01*
X50000001Y-53355659D01*
X50064681Y-53350000D01*
X50235408Y-53335063D01*
X50463663Y-53273903D01*
X50677830Y-53174035D01*
X50871401Y-53038495D01*
X51038495Y-52871401D01*
X51174035Y-52677830D01*
X51273903Y-52463663D01*
X51335063Y-52235408D01*
X51355659Y-52000000D01*
X51335063Y-51764592D01*
X51300671Y-51636239D01*
X51302334Y-51566393D01*
X51332763Y-51516470D01*
X52212416Y-50636819D01*
X52273739Y-50603334D01*
X52300097Y-50600500D01*
X53744665Y-50600500D01*
X53811704Y-50620185D01*
X53857459Y-50672989D01*
X53867403Y-50742147D01*
X53838378Y-50805703D01*
X53797071Y-50836881D01*
X53792225Y-50839141D01*
X53727267Y-50869431D01*
X53727265Y-50869432D01*
X53540858Y-50999954D01*
X53379954Y-51160858D01*
X53249432Y-51347265D01*
X53249431Y-51347267D01*
X53153261Y-51553502D01*
X53153258Y-51553511D01*
X53094366Y-51773302D01*
X53094364Y-51773313D01*
X53074532Y-51999998D01*
X53074532Y-52000001D01*
X53094364Y-52226686D01*
X53094366Y-52226697D01*
X53153258Y-52446488D01*
X53153261Y-52446497D01*
X53249431Y-52652732D01*
X53249432Y-52652734D01*
X53379954Y-52839141D01*
X53540858Y-53000045D01*
X53540861Y-53000047D01*
X53727266Y-53130568D01*
X53933504Y-53226739D01*
X53933509Y-53226740D01*
X53933511Y-53226741D01*
X53986415Y-53240916D01*
X54153308Y-53285635D01*
X54315230Y-53299801D01*
X54379998Y-53305468D01*
X54380000Y-53305468D01*
X54380002Y-53305468D01*
X54436673Y-53300509D01*
X54606692Y-53285635D01*
X54826496Y-53226739D01*
X55032734Y-53130568D01*
X55219139Y-53000047D01*
X55380047Y-52839139D01*
X55510568Y-52652734D01*
X55606739Y-52446496D01*
X55665635Y-52226692D01*
X55685468Y-52000000D01*
X55665635Y-51773308D01*
X55606739Y-51553504D01*
X55510568Y-51347266D01*
X55380047Y-51160861D01*
X55380045Y-51160858D01*
X55219141Y-50999954D01*
X55032734Y-50869432D01*
X55032732Y-50869431D01*
X55021644Y-50864260D01*
X54962929Y-50836881D01*
X54910491Y-50790710D01*
X54891339Y-50723516D01*
X54911555Y-50656635D01*
X54964720Y-50611300D01*
X55015335Y-50600500D01*
X59699903Y-50600500D01*
X59766942Y-50620185D01*
X59787584Y-50636819D01*
X60708058Y-51557293D01*
X60741543Y-51618616D01*
X60740152Y-51677067D01*
X60714366Y-51773302D01*
X60714364Y-51773313D01*
X60694532Y-51999998D01*
X60694532Y-52000001D01*
X60714364Y-52226686D01*
X60714366Y-52226697D01*
X60773258Y-52446488D01*
X60773261Y-52446497D01*
X60869431Y-52652732D01*
X60869432Y-52652734D01*
X60999954Y-52839141D01*
X61160858Y-53000045D01*
X61160861Y-53000047D01*
X61347266Y-53130568D01*
X61553504Y-53226739D01*
X61553509Y-53226740D01*
X61553511Y-53226741D01*
X61606415Y-53240916D01*
X61773308Y-53285635D01*
X61935230Y-53299801D01*
X61999998Y-53305468D01*
X62000000Y-53305468D01*
X62000002Y-53305468D01*
X62056673Y-53300509D01*
X62226692Y-53285635D01*
X62446496Y-53226739D01*
X62652734Y-53130568D01*
X62839139Y-53000047D01*
X63000047Y-52839139D01*
X63130568Y-52652734D01*
X63226739Y-52446496D01*
X63285635Y-52226692D01*
X63305468Y-52000000D01*
X63285635Y-51773308D01*
X63226739Y-51553504D01*
X63130568Y-51347266D01*
X63000047Y-51160861D01*
X63000045Y-51160858D01*
X62839141Y-50999954D01*
X62652734Y-50869432D01*
X62652732Y-50869431D01*
X62446497Y-50773261D01*
X62446488Y-50773258D01*
X62226697Y-50714366D01*
X62226693Y-50714365D01*
X62226692Y-50714365D01*
X62226691Y-50714364D01*
X62226686Y-50714364D01*
X62000002Y-50694532D01*
X61999998Y-50694532D01*
X61773313Y-50714364D01*
X61773302Y-50714366D01*
X61677067Y-50740152D01*
X61607217Y-50738489D01*
X61557293Y-50708058D01*
X60487590Y-49638355D01*
X60487588Y-49638352D01*
X60368717Y-49519481D01*
X60368716Y-49519480D01*
X60281904Y-49469360D01*
X60281904Y-49469359D01*
X60281900Y-49469358D01*
X60231785Y-49440423D01*
X60079057Y-49399499D01*
X59920943Y-49399499D01*
X59913347Y-49399499D01*
X59913331Y-49399500D01*
X52079057Y-49399500D01*
X51920943Y-49399500D01*
X51768215Y-49440423D01*
X51768214Y-49440423D01*
X51768212Y-49440424D01*
X51768209Y-49440425D01*
X51718096Y-49469359D01*
X51718095Y-49469360D01*
X51674689Y-49494420D01*
X51631285Y-49519479D01*
X51631282Y-49519481D01*
X51519478Y-49631286D01*
X50483530Y-50667233D01*
X50422207Y-50700718D01*
X50363756Y-50699327D01*
X50235413Y-50664938D01*
X50235403Y-50664936D01*
X50000001Y-50644341D01*
X49999999Y-50644341D01*
X49764596Y-50664936D01*
X49764586Y-50664938D01*
X49536344Y-50726094D01*
X49536335Y-50726098D01*
X49322171Y-50825964D01*
X49322169Y-50825965D01*
X49128600Y-50961503D01*
X49006284Y-51083819D01*
X48944961Y-51117303D01*
X48875269Y-51112319D01*
X48819336Y-51070447D01*
X48802421Y-51039470D01*
X48753354Y-50907913D01*
X48753350Y-50907906D01*
X48667190Y-50792812D01*
X48667187Y-50792809D01*
X48552093Y-50706649D01*
X48552086Y-50706645D01*
X48417379Y-50656403D01*
X48417372Y-50656401D01*
X48357844Y-50650000D01*
X47710000Y-50650000D01*
X47710000Y-51566988D01*
X47652993Y-51534075D01*
X47525826Y-51500000D01*
X47394174Y-51500000D01*
X47267007Y-51534075D01*
X47210000Y-51566988D01*
X47210000Y-50650000D01*
X46562155Y-50650000D01*
X46502627Y-50656401D01*
X46502620Y-50656403D01*
X46367913Y-50706645D01*
X46367906Y-50706649D01*
X46252812Y-50792809D01*
X46252809Y-50792812D01*
X46166649Y-50907906D01*
X46166645Y-50907913D01*
X46116403Y-51042620D01*
X46116401Y-51042627D01*
X46110000Y-51102155D01*
X46110000Y-51750000D01*
X47026988Y-51750000D01*
X46994075Y-51807007D01*
X46960000Y-51934174D01*
X46960000Y-52065826D01*
X46994075Y-52192993D01*
X47026988Y-52250000D01*
X46110000Y-52250000D01*
X46110000Y-52897844D01*
X45000000Y-52897844D01*
X45000000Y-43080000D01*
X54644341Y-43080000D01*
X54664936Y-43315403D01*
X54664938Y-43315413D01*
X54726094Y-43543655D01*
X54726096Y-43543659D01*
X54726097Y-43543663D01*
X54752601Y-43600500D01*
X54825965Y-43757830D01*
X54825967Y-43757834D01*
X54905484Y-43871395D01*
X54961505Y-43951401D01*
X55128599Y-44118495D01*
X55207914Y-44174032D01*
X55322165Y-44254032D01*
X55322167Y-44254033D01*
X55322170Y-44254035D01*
X55536337Y-44353903D01*
X55536343Y-44353904D01*
X55536344Y-44353905D01*
X55591285Y-44368626D01*
X55764592Y-44415063D01*
X55952918Y-44431539D01*
X55999999Y-44435659D01*
X56000000Y-44435659D01*
X56000001Y-44435659D01*
X56039234Y-44432226D01*
X56235408Y-44415063D01*
X56463663Y-44353903D01*
X56677830Y-44254035D01*
X56871401Y-44118495D01*
X57038495Y-43951401D01*
X57174035Y-43757830D01*
X57273903Y-43543663D01*
X57335063Y-43315408D01*
X57355659Y-43080000D01*
X57335063Y-42844592D01*
X57273903Y-42616337D01*
X57174035Y-42402171D01*
X57158382Y-42379815D01*
X57038494Y-42208597D01*
X56871402Y-42041506D01*
X56871401Y-42041505D01*
X56685405Y-41911269D01*
X56641781Y-41856692D01*
X56634588Y-41787193D01*
X56666110Y-41724839D01*
X56685405Y-41708119D01*
X56871082Y-41578105D01*
X57038105Y-41411082D01*
X57173600Y-41217578D01*
X57273429Y-41003492D01*
X57273432Y-41003486D01*
X57330636Y-40790000D01*
X56433012Y-40790000D01*
X56465925Y-40732993D01*
X56500000Y-40605826D01*
X56500000Y-40474174D01*
X56465925Y-40347007D01*
X56433012Y-40290000D01*
X57330636Y-40290000D01*
X57330635Y-40289999D01*
X57273432Y-40076513D01*
X57273429Y-40076507D01*
X57173600Y-39862422D01*
X57173599Y-39862420D01*
X57038113Y-39668926D01*
X57038108Y-39668920D01*
X56916053Y-39546865D01*
X56882568Y-39485542D01*
X56887552Y-39415850D01*
X56929424Y-39359917D01*
X56960400Y-39343002D01*
X57092331Y-39293796D01*
X57207546Y-39207546D01*
X57293796Y-39092331D01*
X57344091Y-38957483D01*
X57350500Y-38897873D01*
X57350499Y-37460000D01*
X62864341Y-37460000D01*
X62884936Y-37695403D01*
X62884938Y-37695413D01*
X62946094Y-37923655D01*
X62946096Y-37923659D01*
X62946097Y-37923663D01*
X62981694Y-38000000D01*
X63045965Y-38137830D01*
X63045967Y-38137834D01*
X63104462Y-38221373D01*
X63181505Y-38331401D01*
X63348599Y-38498495D01*
X63348604Y-38498499D01*
X63349968Y-38499643D01*
X63350407Y-38500303D01*
X63352427Y-38502323D01*
X63352021Y-38502728D01*
X63388669Y-38557815D01*
X63389776Y-38627676D01*
X63352937Y-38687046D01*
X63309267Y-38712336D01*
X63300669Y-38715184D01*
X63300663Y-38715187D01*
X63151342Y-38807289D01*
X63027289Y-38931342D01*
X62935187Y-39080663D01*
X62935185Y-39080668D01*
X62911207Y-39153031D01*
X62880001Y-39247203D01*
X62880001Y-39247204D01*
X62880000Y-39247204D01*
X62869500Y-39349983D01*
X62869500Y-40650001D01*
X62869501Y-40650018D01*
X62880000Y-40752796D01*
X62880001Y-40752799D01*
X62919303Y-40871402D01*
X62935186Y-40919334D01*
X63027288Y-41068656D01*
X63151344Y-41192712D01*
X63300666Y-41284814D01*
X63467203Y-41339999D01*
X63569991Y-41350500D01*
X64870008Y-41350499D01*
X64972797Y-41339999D01*
X65139334Y-41284814D01*
X65288656Y-41192712D01*
X65412712Y-41068656D01*
X65504814Y-40919334D01*
X65528794Y-40846965D01*
X65568565Y-40789523D01*
X65633081Y-40762699D01*
X65643861Y-40762585D01*
X66277037Y-40129409D01*
X66294075Y-40192993D01*
X66359901Y-40307007D01*
X66452993Y-40400099D01*
X66567007Y-40465925D01*
X66630590Y-40482962D01*
X65998625Y-41114925D01*
X66082421Y-41173599D01*
X66296507Y-41273429D01*
X66296516Y-41273433D01*
X66524673Y-41334567D01*
X66524684Y-41334569D01*
X66759998Y-41355157D01*
X66760002Y-41355157D01*
X66995315Y-41334569D01*
X66995326Y-41334567D01*
X67223483Y-41273433D01*
X67223492Y-41273429D01*
X67437578Y-41173600D01*
X67437582Y-41173598D01*
X67521373Y-41114926D01*
X67521373Y-41114925D01*
X66889409Y-40482962D01*
X66952993Y-40465925D01*
X67067007Y-40400099D01*
X67160099Y-40307007D01*
X67225925Y-40192993D01*
X67242962Y-40129409D01*
X67874925Y-40761373D01*
X67928425Y-40684968D01*
X67983002Y-40641344D01*
X68052501Y-40634151D01*
X68114855Y-40665673D01*
X68131576Y-40684969D01*
X68185073Y-40761372D01*
X68817037Y-40129409D01*
X68834075Y-40192993D01*
X68899901Y-40307007D01*
X68992993Y-40400099D01*
X69107007Y-40465925D01*
X69170590Y-40482962D01*
X68538625Y-41114925D01*
X68622421Y-41173599D01*
X68836507Y-41273429D01*
X68836516Y-41273433D01*
X69064673Y-41334567D01*
X69064684Y-41334569D01*
X69299998Y-41355157D01*
X69300002Y-41355157D01*
X69535315Y-41334569D01*
X69535326Y-41334567D01*
X69763483Y-41273433D01*
X69763492Y-41273429D01*
X69977578Y-41173600D01*
X69977582Y-41173598D01*
X70061373Y-41114926D01*
X70061373Y-41114925D01*
X69429409Y-40482962D01*
X69492993Y-40465925D01*
X69607007Y-40400099D01*
X69700099Y-40307007D01*
X69765925Y-40192993D01*
X69782962Y-40129410D01*
X70414925Y-40761373D01*
X70468425Y-40684968D01*
X70523002Y-40641344D01*
X70592501Y-40634151D01*
X70654855Y-40665673D01*
X70671576Y-40684969D01*
X70725073Y-40761372D01*
X71357037Y-40129409D01*
X71374075Y-40192993D01*
X71439901Y-40307007D01*
X71532993Y-40400099D01*
X71647007Y-40465925D01*
X71710590Y-40482962D01*
X71078625Y-41114925D01*
X71162421Y-41173599D01*
X71376507Y-41273429D01*
X71376516Y-41273433D01*
X71604673Y-41334567D01*
X71604684Y-41334569D01*
X71839998Y-41355157D01*
X71840002Y-41355157D01*
X72075315Y-41334569D01*
X72075326Y-41334567D01*
X72303483Y-41273433D01*
X72303492Y-41273429D01*
X72517578Y-41173600D01*
X72517582Y-41173598D01*
X72601373Y-41114926D01*
X72601373Y-41114925D01*
X71969409Y-40482962D01*
X72032993Y-40465925D01*
X72147007Y-40400099D01*
X72240099Y-40307007D01*
X72305925Y-40192993D01*
X72322962Y-40129410D01*
X72954925Y-40761373D01*
X73008119Y-40685405D01*
X73062696Y-40641781D01*
X73132195Y-40634588D01*
X73194549Y-40666110D01*
X73211269Y-40685405D01*
X73341505Y-40871401D01*
X73508599Y-41038495D01*
X73580349Y-41088735D01*
X73702165Y-41174032D01*
X73702167Y-41174033D01*
X73702170Y-41174035D01*
X73916337Y-41273903D01*
X74144592Y-41335063D01*
X74321034Y-41350500D01*
X74379999Y-41355659D01*
X74380000Y-41355659D01*
X74380001Y-41355659D01*
X74438966Y-41350500D01*
X74615408Y-41335063D01*
X74843663Y-41273903D01*
X75057830Y-41174035D01*
X75251401Y-41038495D01*
X75418495Y-40871401D01*
X75548425Y-40685842D01*
X75603002Y-40642217D01*
X75672500Y-40635023D01*
X75734855Y-40666546D01*
X75751575Y-40685842D01*
X75881500Y-40871395D01*
X75881505Y-40871401D01*
X76048599Y-41038495D01*
X76120349Y-41088735D01*
X76242165Y-41174032D01*
X76242167Y-41174033D01*
X76242170Y-41174035D01*
X76456337Y-41273903D01*
X76684592Y-41335063D01*
X76861034Y-41350500D01*
X76919999Y-41355659D01*
X76920000Y-41355659D01*
X76920001Y-41355659D01*
X76978966Y-41350500D01*
X77155408Y-41335063D01*
X77283757Y-41300672D01*
X77353606Y-41302335D01*
X77403531Y-41332766D01*
X78553181Y-42482416D01*
X78586666Y-42543739D01*
X78589500Y-42570097D01*
X78589500Y-48768306D01*
X78569815Y-48835345D01*
X78536623Y-48869881D01*
X78350859Y-48999953D01*
X78189954Y-49160858D01*
X78059432Y-49347265D01*
X78059431Y-49347267D01*
X77963261Y-49553502D01*
X77963258Y-49553511D01*
X77904366Y-49773302D01*
X77904364Y-49773313D01*
X77884532Y-49999998D01*
X77884532Y-50000001D01*
X77904364Y-50226686D01*
X77904366Y-50226697D01*
X77963258Y-50446488D01*
X77963261Y-50446497D01*
X78059431Y-50652732D01*
X78059432Y-50652734D01*
X78189954Y-50839141D01*
X78350858Y-51000045D01*
X78350861Y-51000047D01*
X78537266Y-51130568D01*
X78743504Y-51226739D01*
X78963308Y-51285635D01*
X79125230Y-51299801D01*
X79189998Y-51305468D01*
X79190000Y-51305468D01*
X79190002Y-51305468D01*
X79246673Y-51300509D01*
X79416692Y-51285635D01*
X79636496Y-51226739D01*
X79842734Y-51130568D01*
X80029139Y-51000047D01*
X80190047Y-50839139D01*
X80320568Y-50652734D01*
X80416739Y-50446496D01*
X80475635Y-50226692D01*
X80495468Y-50000001D01*
X85504532Y-50000001D01*
X85524364Y-50226686D01*
X85524366Y-50226697D01*
X85583258Y-50446488D01*
X85583261Y-50446497D01*
X85679431Y-50652732D01*
X85679432Y-50652734D01*
X85809954Y-50839141D01*
X85970858Y-51000045D01*
X85970861Y-51000047D01*
X86157266Y-51130568D01*
X86363504Y-51226739D01*
X86583308Y-51285635D01*
X86745230Y-51299801D01*
X86809998Y-51305468D01*
X86810000Y-51305468D01*
X86810002Y-51305468D01*
X86866673Y-51300509D01*
X87036692Y-51285635D01*
X87256496Y-51226739D01*
X87462734Y-51130568D01*
X87649139Y-51000047D01*
X87810047Y-50839139D01*
X87940568Y-50652734D01*
X88036739Y-50446496D01*
X88095635Y-50226692D01*
X88115468Y-50000001D01*
X88694532Y-50000001D01*
X88714364Y-50226686D01*
X88714366Y-50226697D01*
X88773258Y-50446488D01*
X88773261Y-50446497D01*
X88869431Y-50652732D01*
X88869432Y-50652734D01*
X88999954Y-50839141D01*
X89160858Y-51000045D01*
X89160861Y-51000047D01*
X89347266Y-51130568D01*
X89553504Y-51226739D01*
X89773308Y-51285635D01*
X89935230Y-51299801D01*
X89999998Y-51305468D01*
X90000000Y-51305468D01*
X90000002Y-51305468D01*
X90056673Y-51300509D01*
X90226692Y-51285635D01*
X90446496Y-51226739D01*
X90652734Y-51130568D01*
X90839139Y-51000047D01*
X91000047Y-50839139D01*
X91130568Y-50652734D01*
X91226739Y-50446496D01*
X91285635Y-50226692D01*
X91305468Y-50000000D01*
X91285635Y-49773308D01*
X91234100Y-49580977D01*
X91226741Y-49553511D01*
X91226738Y-49553502D01*
X91174009Y-49440425D01*
X91130568Y-49347266D01*
X91000047Y-49160861D01*
X91000045Y-49160858D01*
X90839141Y-48999954D01*
X90652734Y-48869432D01*
X90652732Y-48869431D01*
X90446497Y-48773261D01*
X90446488Y-48773258D01*
X90226697Y-48714366D01*
X90226693Y-48714365D01*
X90226692Y-48714365D01*
X90226691Y-48714364D01*
X90226686Y-48714364D01*
X90000002Y-48694532D01*
X89999998Y-48694532D01*
X89773313Y-48714364D01*
X89773302Y-48714366D01*
X89553511Y-48773258D01*
X89553502Y-48773261D01*
X89347267Y-48869431D01*
X89347265Y-48869432D01*
X89160858Y-48999954D01*
X88999954Y-49160858D01*
X88869432Y-49347265D01*
X88869431Y-49347267D01*
X88773261Y-49553502D01*
X88773258Y-49553511D01*
X88714366Y-49773302D01*
X88714364Y-49773313D01*
X88694532Y-49999998D01*
X88694532Y-50000001D01*
X88115468Y-50000001D01*
X88115468Y-50000000D01*
X88095635Y-49773308D01*
X88044100Y-49580977D01*
X88036741Y-49553511D01*
X88036738Y-49553502D01*
X87984009Y-49440425D01*
X87940568Y-49347266D01*
X87810047Y-49160861D01*
X87810045Y-49160858D01*
X87649141Y-48999954D01*
X87462734Y-48869432D01*
X87462732Y-48869431D01*
X87256497Y-48773261D01*
X87256488Y-48773258D01*
X87036697Y-48714366D01*
X87036693Y-48714365D01*
X87036692Y-48714365D01*
X87036691Y-48714364D01*
X87036686Y-48714364D01*
X86810002Y-48694532D01*
X86809998Y-48694532D01*
X86583313Y-48714364D01*
X86583302Y-48714366D01*
X86363511Y-48773258D01*
X86363502Y-48773261D01*
X86157267Y-48869431D01*
X86157265Y-48869432D01*
X85970858Y-48999954D01*
X85809954Y-49160858D01*
X85679432Y-49347265D01*
X85679431Y-49347267D01*
X85583261Y-49553502D01*
X85583258Y-49553511D01*
X85524366Y-49773302D01*
X85524364Y-49773313D01*
X85504532Y-49999998D01*
X85504532Y-50000001D01*
X80495468Y-50000001D01*
X80495468Y-50000000D01*
X80475635Y-49773308D01*
X80424100Y-49580977D01*
X80416741Y-49553511D01*
X80416738Y-49553502D01*
X80364009Y-49440425D01*
X80320568Y-49347266D01*
X80190047Y-49160861D01*
X80190045Y-49160858D01*
X80029140Y-48999953D01*
X79843377Y-48869881D01*
X79799752Y-48815304D01*
X79790500Y-48768306D01*
X79790500Y-42359060D01*
X79790501Y-42359047D01*
X79790501Y-42190945D01*
X79790501Y-42190943D01*
X79749577Y-42038215D01*
X79670520Y-41901284D01*
X79333668Y-41564432D01*
X79300183Y-41503109D01*
X79305167Y-41433417D01*
X79347039Y-41377484D01*
X79412503Y-41353067D01*
X79432157Y-41353223D01*
X79459999Y-41355659D01*
X79460000Y-41355659D01*
X79460001Y-41355659D01*
X79518966Y-41350500D01*
X79695408Y-41335063D01*
X79923663Y-41273903D01*
X80137830Y-41174035D01*
X80331401Y-41038495D01*
X80498495Y-40871401D01*
X80628425Y-40685842D01*
X80683002Y-40642217D01*
X80752500Y-40635023D01*
X80814855Y-40666546D01*
X80831575Y-40685842D01*
X80961500Y-40871395D01*
X80961505Y-40871401D01*
X81128599Y-41038495D01*
X81200349Y-41088735D01*
X81322165Y-41174032D01*
X81322167Y-41174033D01*
X81322170Y-41174035D01*
X81536337Y-41273903D01*
X81764592Y-41335063D01*
X81941034Y-41350500D01*
X81999999Y-41355659D01*
X82000000Y-41355659D01*
X82000001Y-41355659D01*
X82058966Y-41350500D01*
X82235408Y-41335063D01*
X82463663Y-41273903D01*
X82677830Y-41174035D01*
X82871401Y-41038495D01*
X83038495Y-40871401D01*
X83174035Y-40677830D01*
X83273903Y-40463663D01*
X83335063Y-40235408D01*
X83355659Y-40000000D01*
X83335063Y-39764592D01*
X83273903Y-39536337D01*
X83174035Y-39322171D01*
X83168731Y-39314595D01*
X83038494Y-39128597D01*
X82871402Y-38961506D01*
X82871396Y-38961501D01*
X82685842Y-38831575D01*
X82642217Y-38776998D01*
X82635023Y-38707500D01*
X82666546Y-38645145D01*
X82685842Y-38628425D01*
X82786683Y-38557815D01*
X82871401Y-38498495D01*
X83038495Y-38331401D01*
X83174035Y-38137830D01*
X83273903Y-37923663D01*
X83335063Y-37695408D01*
X83355659Y-37460000D01*
X83355621Y-37459571D01*
X83346947Y-37360423D01*
X83335063Y-37224592D01*
X83286276Y-37042516D01*
X83273905Y-36996344D01*
X83273904Y-36996343D01*
X83273903Y-36996337D01*
X83174035Y-36782171D01*
X83168731Y-36774595D01*
X83038494Y-36588597D01*
X82871402Y-36421506D01*
X82871395Y-36421501D01*
X82677834Y-36285967D01*
X82677830Y-36285965D01*
X82596030Y-36247821D01*
X82463663Y-36186097D01*
X82463659Y-36186096D01*
X82463655Y-36186094D01*
X82235413Y-36124938D01*
X82235403Y-36124936D01*
X82000001Y-36104341D01*
X81999999Y-36104341D01*
X81764596Y-36124936D01*
X81764586Y-36124938D01*
X81536344Y-36186094D01*
X81536335Y-36186098D01*
X81322171Y-36285964D01*
X81322169Y-36285965D01*
X81128597Y-36421505D01*
X80961505Y-36588597D01*
X80831575Y-36774158D01*
X80776998Y-36817783D01*
X80707500Y-36824977D01*
X80645145Y-36793454D01*
X80628425Y-36774158D01*
X80498494Y-36588597D01*
X80331402Y-36421506D01*
X80331395Y-36421501D01*
X80137834Y-36285967D01*
X80137830Y-36285965D01*
X80056030Y-36247821D01*
X79923663Y-36186097D01*
X79923659Y-36186096D01*
X79923655Y-36186094D01*
X79695413Y-36124938D01*
X79695403Y-36124936D01*
X79460001Y-36104341D01*
X79459999Y-36104341D01*
X79224596Y-36124936D01*
X79224586Y-36124938D01*
X78996344Y-36186094D01*
X78996335Y-36186098D01*
X78782171Y-36285964D01*
X78782169Y-36285965D01*
X78588597Y-36421505D01*
X78421505Y-36588597D01*
X78291575Y-36774158D01*
X78236998Y-36817783D01*
X78167500Y-36824977D01*
X78105145Y-36793454D01*
X78088425Y-36774158D01*
X77958494Y-36588597D01*
X77791402Y-36421506D01*
X77791395Y-36421501D01*
X77597834Y-36285967D01*
X77597830Y-36285965D01*
X77516030Y-36247821D01*
X77383663Y-36186097D01*
X77383659Y-36186096D01*
X77383655Y-36186094D01*
X77155413Y-36124938D01*
X77155403Y-36124936D01*
X76920001Y-36104341D01*
X76919999Y-36104341D01*
X76684596Y-36124936D01*
X76684586Y-36124938D01*
X76456344Y-36186094D01*
X76456335Y-36186098D01*
X76242171Y-36285964D01*
X76242169Y-36285965D01*
X76048597Y-36421505D01*
X75881505Y-36588597D01*
X75751575Y-36774158D01*
X75696998Y-36817783D01*
X75627500Y-36824977D01*
X75565145Y-36793454D01*
X75548425Y-36774158D01*
X75418494Y-36588597D01*
X75251402Y-36421506D01*
X75251395Y-36421501D01*
X75057834Y-36285967D01*
X75057830Y-36285965D01*
X74976030Y-36247821D01*
X74843663Y-36186097D01*
X74843659Y-36186096D01*
X74843655Y-36186094D01*
X74615413Y-36124938D01*
X74615403Y-36124936D01*
X74380001Y-36104341D01*
X74379999Y-36104341D01*
X74144596Y-36124936D01*
X74144586Y-36124938D01*
X73916344Y-36186094D01*
X73916335Y-36186098D01*
X73702171Y-36285964D01*
X73702169Y-36285965D01*
X73508597Y-36421505D01*
X73341505Y-36588597D01*
X73211269Y-36774595D01*
X73156692Y-36818220D01*
X73087194Y-36825414D01*
X73024839Y-36793891D01*
X73008119Y-36774595D01*
X72954925Y-36698626D01*
X72954925Y-36698625D01*
X72322962Y-37330589D01*
X72305925Y-37267007D01*
X72240099Y-37152993D01*
X72147007Y-37059901D01*
X72032993Y-36994075D01*
X71969410Y-36977037D01*
X72601373Y-36345073D01*
X72601373Y-36345072D01*
X72517583Y-36286402D01*
X72517579Y-36286400D01*
X72303492Y-36186570D01*
X72303483Y-36186566D01*
X72075326Y-36125432D01*
X72075315Y-36125430D01*
X71840002Y-36104843D01*
X71839998Y-36104843D01*
X71604684Y-36125430D01*
X71604673Y-36125432D01*
X71376516Y-36186566D01*
X71376507Y-36186570D01*
X71162419Y-36286401D01*
X71078625Y-36345072D01*
X71710590Y-36977037D01*
X71647007Y-36994075D01*
X71532993Y-37059901D01*
X71439901Y-37152993D01*
X71374075Y-37267007D01*
X71357037Y-37330590D01*
X70725072Y-36698625D01*
X70725072Y-36698626D01*
X70671574Y-36775030D01*
X70616998Y-36818655D01*
X70547499Y-36825849D01*
X70485144Y-36794326D01*
X70468424Y-36775030D01*
X70414925Y-36698626D01*
X70414925Y-36698625D01*
X69782962Y-37330589D01*
X69765925Y-37267007D01*
X69700099Y-37152993D01*
X69607007Y-37059901D01*
X69492993Y-36994075D01*
X69429410Y-36977037D01*
X70061373Y-36345073D01*
X70061373Y-36345072D01*
X69977583Y-36286402D01*
X69977579Y-36286400D01*
X69763492Y-36186570D01*
X69763483Y-36186566D01*
X69535326Y-36125432D01*
X69535315Y-36125430D01*
X69300002Y-36104843D01*
X69299998Y-36104843D01*
X69064684Y-36125430D01*
X69064673Y-36125432D01*
X68836516Y-36186566D01*
X68836507Y-36186570D01*
X68622419Y-36286401D01*
X68538625Y-36345072D01*
X69170590Y-36977037D01*
X69107007Y-36994075D01*
X68992993Y-37059901D01*
X68899901Y-37152993D01*
X68834075Y-37267007D01*
X68817037Y-37330590D01*
X68185072Y-36698625D01*
X68185072Y-36698626D01*
X68131574Y-36775030D01*
X68076998Y-36818655D01*
X68007499Y-36825849D01*
X67945144Y-36794326D01*
X67928424Y-36775030D01*
X67874925Y-36698626D01*
X67874925Y-36698625D01*
X67242962Y-37330589D01*
X67225925Y-37267007D01*
X67160099Y-37152993D01*
X67067007Y-37059901D01*
X66952993Y-36994075D01*
X66889410Y-36977037D01*
X67521373Y-36345073D01*
X67521373Y-36345072D01*
X67437583Y-36286402D01*
X67437579Y-36286400D01*
X67223492Y-36186570D01*
X67223483Y-36186566D01*
X66995326Y-36125432D01*
X66995315Y-36125430D01*
X66760002Y-36104843D01*
X66759998Y-36104843D01*
X66524684Y-36125430D01*
X66524673Y-36125432D01*
X66296516Y-36186566D01*
X66296507Y-36186570D01*
X66082419Y-36286401D01*
X65998625Y-36345072D01*
X66630590Y-36977037D01*
X66567007Y-36994075D01*
X66452993Y-37059901D01*
X66359901Y-37152993D01*
X66294075Y-37267007D01*
X66277037Y-37330590D01*
X65645073Y-36698626D01*
X65591881Y-36774594D01*
X65537304Y-36818219D01*
X65467806Y-36825413D01*
X65405451Y-36793891D01*
X65388730Y-36774594D01*
X65258494Y-36588597D01*
X65091402Y-36421506D01*
X65091395Y-36421501D01*
X64897834Y-36285967D01*
X64897830Y-36285965D01*
X64816030Y-36247821D01*
X64683663Y-36186097D01*
X64683659Y-36186096D01*
X64683655Y-36186094D01*
X64455413Y-36124938D01*
X64455403Y-36124936D01*
X64220001Y-36104341D01*
X64219999Y-36104341D01*
X63984596Y-36124936D01*
X63984586Y-36124938D01*
X63756344Y-36186094D01*
X63756335Y-36186098D01*
X63542171Y-36285964D01*
X63542169Y-36285965D01*
X63348597Y-36421505D01*
X63181505Y-36588597D01*
X63045965Y-36782169D01*
X63045964Y-36782171D01*
X62946098Y-36996335D01*
X62946094Y-36996344D01*
X62884938Y-37224586D01*
X62884936Y-37224596D01*
X62864341Y-37459999D01*
X62864341Y-37460000D01*
X57350499Y-37460000D01*
X57350499Y-37102128D01*
X57344091Y-37042517D01*
X57336486Y-37022128D01*
X57293797Y-36907671D01*
X57293793Y-36907664D01*
X57207547Y-36792455D01*
X57207544Y-36792452D01*
X57092335Y-36706206D01*
X57092328Y-36706202D01*
X56957482Y-36655908D01*
X56957483Y-36655908D01*
X56897883Y-36649501D01*
X56897881Y-36649500D01*
X56897873Y-36649500D01*
X56897864Y-36649500D01*
X55102129Y-36649500D01*
X55102123Y-36649501D01*
X55042516Y-36655908D01*
X54907671Y-36706202D01*
X54907664Y-36706206D01*
X54792455Y-36792452D01*
X54792452Y-36792455D01*
X54706206Y-36907664D01*
X54706202Y-36907671D01*
X54655908Y-37042517D01*
X54649501Y-37102116D01*
X54649501Y-37102123D01*
X54649500Y-37102135D01*
X54649500Y-38897870D01*
X54649501Y-38897876D01*
X54655908Y-38957483D01*
X54706202Y-39092328D01*
X54706206Y-39092335D01*
X54792452Y-39207544D01*
X54792455Y-39207547D01*
X54907664Y-39293793D01*
X54907671Y-39293797D01*
X54907674Y-39293798D01*
X55039598Y-39343002D01*
X55095531Y-39384873D01*
X55119949Y-39450337D01*
X55105098Y-39518610D01*
X55083947Y-39546865D01*
X54961886Y-39668926D01*
X54826400Y-39862420D01*
X54826399Y-39862422D01*
X54726570Y-40076507D01*
X54726567Y-40076513D01*
X54669364Y-40289999D01*
X54669364Y-40290000D01*
X55566988Y-40290000D01*
X55534075Y-40347007D01*
X55500000Y-40474174D01*
X55500000Y-40605826D01*
X55534075Y-40732993D01*
X55566988Y-40790000D01*
X54669364Y-40790000D01*
X54726567Y-41003486D01*
X54726570Y-41003492D01*
X54826399Y-41217578D01*
X54961894Y-41411082D01*
X55128917Y-41578105D01*
X55314595Y-41708119D01*
X55358219Y-41762696D01*
X55365412Y-41832195D01*
X55333890Y-41894549D01*
X55314595Y-41911269D01*
X55128594Y-42041508D01*
X54961505Y-42208597D01*
X54825965Y-42402169D01*
X54825964Y-42402171D01*
X54726098Y-42616335D01*
X54726094Y-42616344D01*
X54664938Y-42844586D01*
X54664936Y-42844596D01*
X54644341Y-43079999D01*
X54644341Y-43080000D01*
X45000000Y-43080000D01*
X45000000Y-38124000D01*
X45019685Y-38056961D01*
X45072489Y-38011206D01*
X45124000Y-38000000D01*
X49000000Y-38000000D01*
X49000000Y-34124000D01*
X49019685Y-34056961D01*
X49072489Y-34011206D01*
X49124000Y-34000000D01*
X96876000Y-34000000D01*
X96943039Y-34019685D01*
G37*
%TD.AperFunction*%
%TA.AperFunction,Conductor*%
G36*
X93565495Y-82386251D02*
G01*
X93621429Y-82428123D01*
X93634544Y-82450028D01*
X93689431Y-82567732D01*
X93689432Y-82567734D01*
X93819954Y-82754141D01*
X93980858Y-82915045D01*
X93980861Y-82915047D01*
X94167266Y-83045568D01*
X94225865Y-83072893D01*
X94278305Y-83119065D01*
X94297457Y-83186258D01*
X94277242Y-83253139D01*
X94225867Y-83297657D01*
X94167515Y-83324867D01*
X93981179Y-83455342D01*
X93820342Y-83616179D01*
X93689865Y-83802517D01*
X93593734Y-84008673D01*
X93593730Y-84008682D01*
X93541127Y-84204999D01*
X93541128Y-84205000D01*
X94504314Y-84205000D01*
X94499920Y-84209394D01*
X94447259Y-84300606D01*
X94420000Y-84402339D01*
X94420000Y-84507661D01*
X94447259Y-84609394D01*
X94499920Y-84700606D01*
X94504314Y-84705000D01*
X93541128Y-84705000D01*
X93593730Y-84901317D01*
X93593734Y-84901326D01*
X93689865Y-85107482D01*
X93820341Y-85293819D01*
X93981179Y-85454657D01*
X94167518Y-85585134D01*
X94167520Y-85585135D01*
X94225865Y-85612342D01*
X94278305Y-85658514D01*
X94297457Y-85725707D01*
X94277242Y-85792589D01*
X94225867Y-85837105D01*
X94225275Y-85837382D01*
X94167264Y-85864433D01*
X93980858Y-85994954D01*
X93819954Y-86155858D01*
X93689432Y-86342265D01*
X93689431Y-86342267D01*
X93593261Y-86548502D01*
X93593258Y-86548511D01*
X93534366Y-86768302D01*
X93534364Y-86768313D01*
X93514532Y-86994998D01*
X93514532Y-86995002D01*
X93521780Y-87077848D01*
X93508013Y-87146348D01*
X93459398Y-87196531D01*
X93391369Y-87212464D01*
X93325526Y-87189089D01*
X93310571Y-87176336D01*
X92636819Y-86502584D01*
X92603334Y-86441261D01*
X92600500Y-86414903D01*
X92600500Y-83300096D01*
X92620185Y-83233057D01*
X92636815Y-83212419D01*
X93434483Y-82414750D01*
X93495804Y-82381267D01*
X93565495Y-82386251D01*
G37*
%TD.AperFunction*%
%TA.AperFunction,Conductor*%
G36*
X71126942Y-69620185D02*
G01*
X71147584Y-69636819D01*
X71528058Y-70017293D01*
X71561543Y-70078616D01*
X71560152Y-70137067D01*
X71534366Y-70233302D01*
X71534364Y-70233313D01*
X71514532Y-70459998D01*
X71514532Y-70460001D01*
X71534364Y-70686686D01*
X71534366Y-70686697D01*
X71593258Y-70906488D01*
X71593261Y-70906497D01*
X71689431Y-71112732D01*
X71689432Y-71112734D01*
X71819954Y-71299141D01*
X71980858Y-71460045D01*
X71980861Y-71460047D01*
X72167266Y-71590568D01*
X72225865Y-71617893D01*
X72278305Y-71664065D01*
X72297457Y-71731258D01*
X72277242Y-71798139D01*
X72225867Y-71842657D01*
X72167515Y-71869867D01*
X71981179Y-72000342D01*
X71820342Y-72161179D01*
X71689865Y-72347517D01*
X71593734Y-72553673D01*
X71593730Y-72553682D01*
X71541127Y-72749999D01*
X71541128Y-72750000D01*
X72504314Y-72750000D01*
X72499920Y-72754394D01*
X72447259Y-72845606D01*
X72420000Y-72947339D01*
X72420000Y-73052661D01*
X72447259Y-73154394D01*
X72499920Y-73245606D01*
X72504314Y-73250000D01*
X71541128Y-73250000D01*
X71593730Y-73446317D01*
X71593734Y-73446326D01*
X71689865Y-73652482D01*
X71820342Y-73838820D01*
X71981179Y-73999657D01*
X72167517Y-74130134D01*
X72373673Y-74226265D01*
X72373682Y-74226269D01*
X72569999Y-74278872D01*
X72570000Y-74278871D01*
X72570000Y-73315686D01*
X72574394Y-73320080D01*
X72665606Y-73372741D01*
X72767339Y-73400000D01*
X72872661Y-73400000D01*
X72974394Y-73372741D01*
X73065606Y-73320080D01*
X73070000Y-73315686D01*
X73070000Y-74278872D01*
X73266317Y-74226269D01*
X73266326Y-74226265D01*
X73472482Y-74130134D01*
X73658820Y-73999657D01*
X73819657Y-73838820D01*
X73950134Y-73652482D01*
X74046265Y-73446326D01*
X74046269Y-73446317D01*
X74098872Y-73250000D01*
X73135686Y-73250000D01*
X73140080Y-73245606D01*
X73192741Y-73154394D01*
X73220000Y-73052661D01*
X73220000Y-72947339D01*
X73192741Y-72845606D01*
X73140080Y-72754394D01*
X73135686Y-72750000D01*
X74098872Y-72750000D01*
X74098872Y-72749999D01*
X74046269Y-72553682D01*
X74046265Y-72553673D01*
X73950134Y-72347517D01*
X73819657Y-72161179D01*
X73658820Y-72000342D01*
X73472482Y-71869865D01*
X73414133Y-71842657D01*
X73361694Y-71796484D01*
X73342542Y-71729291D01*
X73362758Y-71662410D01*
X73414129Y-71617895D01*
X73472734Y-71590568D01*
X73659139Y-71460047D01*
X73820047Y-71299139D01*
X73950118Y-71113375D01*
X74004693Y-71069752D01*
X74051692Y-71060500D01*
X75539903Y-71060500D01*
X75606942Y-71080185D01*
X75627584Y-71096819D01*
X75708058Y-71177293D01*
X75741543Y-71238616D01*
X75740152Y-71297067D01*
X75714366Y-71393302D01*
X75714364Y-71393313D01*
X75694532Y-71619998D01*
X75694532Y-71620001D01*
X75714364Y-71846686D01*
X75714366Y-71846697D01*
X75773258Y-72066488D01*
X75773261Y-72066497D01*
X75869431Y-72272732D01*
X75869432Y-72272734D01*
X75999954Y-72459141D01*
X76160858Y-72620045D01*
X76171161Y-72627259D01*
X76347266Y-72750568D01*
X76553504Y-72846739D01*
X76773308Y-72905635D01*
X76935230Y-72919801D01*
X76999998Y-72925468D01*
X77000000Y-72925468D01*
X77000002Y-72925468D01*
X77056673Y-72920509D01*
X77226692Y-72905635D01*
X77343408Y-72874361D01*
X77413256Y-72876024D01*
X77471119Y-72915186D01*
X77498623Y-72979415D01*
X77499500Y-72994136D01*
X77499500Y-73438380D01*
X77479815Y-73505419D01*
X77463181Y-73526061D01*
X73568499Y-77420742D01*
X73507176Y-77454227D01*
X73437484Y-77449243D01*
X73381551Y-77407371D01*
X73367262Y-77382871D01*
X73323731Y-77283630D01*
X73223434Y-77130116D01*
X72482962Y-77870588D01*
X72465925Y-77807007D01*
X72400099Y-77692993D01*
X72307007Y-77599901D01*
X72192993Y-77534075D01*
X72129410Y-77517037D01*
X72870057Y-76776390D01*
X72870056Y-76776389D01*
X72823229Y-76739943D01*
X72604614Y-76621635D01*
X72604603Y-76621630D01*
X72369493Y-76540916D01*
X72124293Y-76500000D01*
X71875707Y-76500000D01*
X71630506Y-76540916D01*
X71395396Y-76621630D01*
X71395390Y-76621632D01*
X71176761Y-76739949D01*
X71129942Y-76776388D01*
X71129942Y-76776390D01*
X71870590Y-77517037D01*
X71807007Y-77534075D01*
X71692993Y-77599901D01*
X71599901Y-77692993D01*
X71534075Y-77807007D01*
X71517037Y-77870590D01*
X70776564Y-77130116D01*
X70676267Y-77283632D01*
X70576412Y-77511282D01*
X70515387Y-77752261D01*
X70515385Y-77752270D01*
X70494859Y-77999994D01*
X70494859Y-78000005D01*
X70515385Y-78247729D01*
X70515387Y-78247738D01*
X70576411Y-78488714D01*
X70592630Y-78525689D01*
X70601533Y-78594989D01*
X70571556Y-78658102D01*
X70512217Y-78694989D01*
X70479074Y-78699500D01*
X69600098Y-78699500D01*
X69533059Y-78679815D01*
X69512417Y-78663181D01*
X67291941Y-76442706D01*
X67258456Y-76381383D01*
X67259847Y-76322931D01*
X67285635Y-76226692D01*
X67305468Y-76000000D01*
X67285635Y-75773308D01*
X67226739Y-75553504D01*
X67130568Y-75347266D01*
X67000047Y-75160861D01*
X67000045Y-75160858D01*
X66839141Y-74999954D01*
X66652734Y-74869432D01*
X66652732Y-74869431D01*
X66446497Y-74773261D01*
X66446488Y-74773258D01*
X66226697Y-74714366D01*
X66226693Y-74714365D01*
X66226692Y-74714365D01*
X66226691Y-74714364D01*
X66226686Y-74714364D01*
X66000002Y-74694532D01*
X65999998Y-74694532D01*
X65773313Y-74714364D01*
X65773302Y-74714366D01*
X65656593Y-74745638D01*
X65586743Y-74743975D01*
X65528881Y-74704812D01*
X65501377Y-74640583D01*
X65500500Y-74625863D01*
X65500500Y-74361007D01*
X65520185Y-74293968D01*
X65572989Y-74248213D01*
X65592407Y-74241232D01*
X65612546Y-74235835D01*
X65646496Y-74226739D01*
X65852734Y-74130568D01*
X66039139Y-74000047D01*
X66200047Y-73839139D01*
X66330568Y-73652734D01*
X66426739Y-73446496D01*
X66485635Y-73226692D01*
X66505468Y-73000000D01*
X66485635Y-72773308D01*
X66426739Y-72553504D01*
X66330568Y-72347266D01*
X66212787Y-72179056D01*
X66200045Y-72160858D01*
X66039141Y-71999954D01*
X65852734Y-71869432D01*
X65852732Y-71869431D01*
X65841275Y-71864088D01*
X65794132Y-71842105D01*
X65741694Y-71795934D01*
X65722542Y-71728740D01*
X65742758Y-71661859D01*
X65794134Y-71617341D01*
X65852484Y-71590132D01*
X66038820Y-71459657D01*
X66199657Y-71298820D01*
X66330134Y-71112482D01*
X66426265Y-70906326D01*
X66426269Y-70906317D01*
X66478872Y-70710000D01*
X65515686Y-70710000D01*
X65520080Y-70705606D01*
X65572741Y-70614394D01*
X65600000Y-70512661D01*
X65600000Y-70407339D01*
X65572741Y-70305606D01*
X65520080Y-70214394D01*
X65515686Y-70210000D01*
X66478872Y-70210000D01*
X66478872Y-70209999D01*
X66426269Y-70013682D01*
X66426265Y-70013673D01*
X66330133Y-69807517D01*
X66321806Y-69795624D01*
X66299479Y-69729417D01*
X66316489Y-69661650D01*
X66367437Y-69613837D01*
X66423381Y-69600500D01*
X71059903Y-69600500D01*
X71126942Y-69620185D01*
G37*
%TD.AperFunction*%
%TA.AperFunction,Conductor*%
G36*
X48600000Y-66512661D02*
G01*
X48627259Y-66614394D01*
X48679920Y-66705606D01*
X48754394Y-66780080D01*
X48845606Y-66832741D01*
X48947339Y-66860000D01*
X48953553Y-66860000D01*
X48331968Y-67481584D01*
X48387663Y-67520582D01*
X48387669Y-67520586D01*
X48581140Y-67610802D01*
X48586236Y-67612658D01*
X48585542Y-67614563D01*
X48637647Y-67646302D01*
X48668196Y-67709139D01*
X48659922Y-67778518D01*
X48615454Y-67832409D01*
X48585744Y-67845991D01*
X48586064Y-67846870D01*
X48580972Y-67848723D01*
X48580970Y-67848724D01*
X48580968Y-67848725D01*
X48387421Y-67938977D01*
X48212478Y-68061472D01*
X48061472Y-68212478D01*
X47938977Y-68387421D01*
X47848725Y-68580968D01*
X47848722Y-68580975D01*
X47844275Y-68597573D01*
X47807909Y-68657233D01*
X47745062Y-68687762D01*
X47675687Y-68679467D01*
X47621809Y-68634981D01*
X47600535Y-68568429D01*
X47600500Y-68565479D01*
X47600500Y-66892586D01*
X47620185Y-66825547D01*
X47672989Y-66779792D01*
X47742147Y-66769848D01*
X47805703Y-66798873D01*
X47843477Y-66857651D01*
X47844275Y-66860494D01*
X47849192Y-66878848D01*
X47849197Y-66878859D01*
X47939413Y-67072329D01*
X47978415Y-67128030D01*
X48600000Y-66506445D01*
X48600000Y-66512661D01*
G37*
%TD.AperFunction*%
%TA.AperFunction,Conductor*%
G36*
X52331307Y-64620185D02*
G01*
X52351949Y-64636819D01*
X53845714Y-66130585D01*
X53879199Y-66191908D01*
X53874215Y-66261600D01*
X53832343Y-66317533D01*
X53810438Y-66330648D01*
X53727267Y-66369431D01*
X53727265Y-66369432D01*
X53540858Y-66499954D01*
X53379954Y-66660858D01*
X53310886Y-66759500D01*
X53249881Y-66846624D01*
X53195307Y-66890248D01*
X53148308Y-66899500D01*
X51420940Y-66899500D01*
X51380019Y-66910464D01*
X51380019Y-66910465D01*
X51344610Y-66919953D01*
X51268214Y-66940423D01*
X51268209Y-66940426D01*
X51131290Y-67019475D01*
X51131282Y-67019481D01*
X51019478Y-67131286D01*
X50026087Y-68124676D01*
X49964764Y-68158161D01*
X49895072Y-68153177D01*
X49850725Y-68124676D01*
X49787521Y-68061472D01*
X49612578Y-67938977D01*
X49612579Y-67938977D01*
X49462434Y-67868964D01*
X49419030Y-67848724D01*
X49419023Y-67848722D01*
X49413936Y-67846870D01*
X49414606Y-67845028D01*
X49362293Y-67813114D01*
X49331789Y-67750255D01*
X49340111Y-67680883D01*
X49384617Y-67627022D01*
X49414097Y-67613574D01*
X49413764Y-67612658D01*
X49418864Y-67610801D01*
X49612325Y-67520589D01*
X49668030Y-67481583D01*
X49046448Y-66860000D01*
X49052661Y-66860000D01*
X49154394Y-66832741D01*
X49245606Y-66780080D01*
X49320080Y-66705606D01*
X49372741Y-66614394D01*
X49400000Y-66512661D01*
X49400000Y-66506446D01*
X50021583Y-67128029D01*
X50060589Y-67072325D01*
X50150801Y-66878864D01*
X50150805Y-66878853D01*
X50206054Y-66672662D01*
X50206055Y-66672654D01*
X50224660Y-66460002D01*
X50224660Y-66459997D01*
X50206055Y-66247345D01*
X50206054Y-66247337D01*
X50150805Y-66041146D01*
X50150802Y-66041140D01*
X50060586Y-65847669D01*
X50060582Y-65847663D01*
X50021584Y-65791968D01*
X49400000Y-66413552D01*
X49400000Y-66407339D01*
X49372741Y-66305606D01*
X49320080Y-66214394D01*
X49245606Y-66139920D01*
X49154394Y-66087259D01*
X49052661Y-66060000D01*
X49046447Y-66060000D01*
X49668030Y-65438415D01*
X49612329Y-65399413D01*
X49418859Y-65309197D01*
X49418853Y-65309194D01*
X49212662Y-65253945D01*
X49212654Y-65253944D01*
X49000002Y-65235340D01*
X48999998Y-65235340D01*
X48787345Y-65253944D01*
X48787337Y-65253945D01*
X48581146Y-65309194D01*
X48581140Y-65309197D01*
X48387671Y-65399412D01*
X48387669Y-65399413D01*
X48331969Y-65438415D01*
X48331968Y-65438415D01*
X48953554Y-66060000D01*
X48947339Y-66060000D01*
X48845606Y-66087259D01*
X48754394Y-66139920D01*
X48679920Y-66214394D01*
X48627259Y-66305606D01*
X48600000Y-66407339D01*
X48600000Y-66413553D01*
X47978415Y-65791968D01*
X47978415Y-65791969D01*
X47939413Y-65847669D01*
X47939412Y-65847671D01*
X47849197Y-66041140D01*
X47849194Y-66041146D01*
X47844275Y-66059507D01*
X47807910Y-66119167D01*
X47745063Y-66149696D01*
X47675687Y-66141401D01*
X47621809Y-66096916D01*
X47600535Y-66030364D01*
X47600500Y-66027413D01*
X47600500Y-65300097D01*
X47620185Y-65233058D01*
X47636819Y-65212416D01*
X48212417Y-64636819D01*
X48273740Y-64603334D01*
X48300098Y-64600500D01*
X52264268Y-64600500D01*
X52331307Y-64620185D01*
G37*
%TD.AperFunction*%
%TD*%
M02*
