%TF.GenerationSoftware,KiCad,Pcbnew,8.0.0*%
%TF.CreationDate,2024-03-09T23:27:07+01:00*%
%TF.ProjectId,Pure VCO,50757265-2056-4434-9f2e-6b696361645f,rev?*%
%TF.SameCoordinates,Original*%
%TF.FileFunction,AssemblyDrawing,Top*%
%FSLAX46Y46*%
G04 Gerber Fmt 4.6, Leading zero omitted, Abs format (unit mm)*
G04 Created by KiCad (PCBNEW 8.0.0) date 2024-03-09 23:27:07*
%MOMM*%
%LPD*%
G01*
G04 APERTURE LIST*
%ADD10C,0.150000*%
%ADD11C,0.100000*%
G04 APERTURE END LIST*
D10*
X49404761Y-63454819D02*
X49071428Y-62978628D01*
X48833333Y-63454819D02*
X48833333Y-62454819D01*
X48833333Y-62454819D02*
X49214285Y-62454819D01*
X49214285Y-62454819D02*
X49309523Y-62502438D01*
X49309523Y-62502438D02*
X49357142Y-62550057D01*
X49357142Y-62550057D02*
X49404761Y-62645295D01*
X49404761Y-62645295D02*
X49404761Y-62788152D01*
X49404761Y-62788152D02*
X49357142Y-62883390D01*
X49357142Y-62883390D02*
X49309523Y-62931009D01*
X49309523Y-62931009D02*
X49214285Y-62978628D01*
X49214285Y-62978628D02*
X48833333Y-62978628D01*
X49690476Y-62454819D02*
X50023809Y-63454819D01*
X50023809Y-63454819D02*
X50357142Y-62454819D01*
X51214285Y-63454819D02*
X50642857Y-63454819D01*
X50928571Y-63454819D02*
X50928571Y-62454819D01*
X50928571Y-62454819D02*
X50833333Y-62597676D01*
X50833333Y-62597676D02*
X50738095Y-62692914D01*
X50738095Y-62692914D02*
X50642857Y-62740533D01*
X78357142Y-97454819D02*
X78023809Y-96978628D01*
X77785714Y-97454819D02*
X77785714Y-96454819D01*
X77785714Y-96454819D02*
X78166666Y-96454819D01*
X78166666Y-96454819D02*
X78261904Y-96502438D01*
X78261904Y-96502438D02*
X78309523Y-96550057D01*
X78309523Y-96550057D02*
X78357142Y-96645295D01*
X78357142Y-96645295D02*
X78357142Y-96788152D01*
X78357142Y-96788152D02*
X78309523Y-96883390D01*
X78309523Y-96883390D02*
X78261904Y-96931009D01*
X78261904Y-96931009D02*
X78166666Y-96978628D01*
X78166666Y-96978628D02*
X77785714Y-96978628D01*
X79309523Y-97454819D02*
X78738095Y-97454819D01*
X79023809Y-97454819D02*
X79023809Y-96454819D01*
X79023809Y-96454819D02*
X78928571Y-96597676D01*
X78928571Y-96597676D02*
X78833333Y-96692914D01*
X78833333Y-96692914D02*
X78738095Y-96740533D01*
X79928571Y-96454819D02*
X80023809Y-96454819D01*
X80023809Y-96454819D02*
X80119047Y-96502438D01*
X80119047Y-96502438D02*
X80166666Y-96550057D01*
X80166666Y-96550057D02*
X80214285Y-96645295D01*
X80214285Y-96645295D02*
X80261904Y-96835771D01*
X80261904Y-96835771D02*
X80261904Y-97073866D01*
X80261904Y-97073866D02*
X80214285Y-97264342D01*
X80214285Y-97264342D02*
X80166666Y-97359580D01*
X80166666Y-97359580D02*
X80119047Y-97407200D01*
X80119047Y-97407200D02*
X80023809Y-97454819D01*
X80023809Y-97454819D02*
X79928571Y-97454819D01*
X79928571Y-97454819D02*
X79833333Y-97407200D01*
X79833333Y-97407200D02*
X79785714Y-97359580D01*
X79785714Y-97359580D02*
X79738095Y-97264342D01*
X79738095Y-97264342D02*
X79690476Y-97073866D01*
X79690476Y-97073866D02*
X79690476Y-96835771D01*
X79690476Y-96835771D02*
X79738095Y-96645295D01*
X79738095Y-96645295D02*
X79785714Y-96550057D01*
X79785714Y-96550057D02*
X79833333Y-96502438D01*
X79833333Y-96502438D02*
X79928571Y-96454819D01*
X93643333Y-48454819D02*
X93310000Y-47978628D01*
X93071905Y-48454819D02*
X93071905Y-47454819D01*
X93071905Y-47454819D02*
X93452857Y-47454819D01*
X93452857Y-47454819D02*
X93548095Y-47502438D01*
X93548095Y-47502438D02*
X93595714Y-47550057D01*
X93595714Y-47550057D02*
X93643333Y-47645295D01*
X93643333Y-47645295D02*
X93643333Y-47788152D01*
X93643333Y-47788152D02*
X93595714Y-47883390D01*
X93595714Y-47883390D02*
X93548095Y-47931009D01*
X93548095Y-47931009D02*
X93452857Y-47978628D01*
X93452857Y-47978628D02*
X93071905Y-47978628D01*
X94548095Y-47454819D02*
X94071905Y-47454819D01*
X94071905Y-47454819D02*
X94024286Y-47931009D01*
X94024286Y-47931009D02*
X94071905Y-47883390D01*
X94071905Y-47883390D02*
X94167143Y-47835771D01*
X94167143Y-47835771D02*
X94405238Y-47835771D01*
X94405238Y-47835771D02*
X94500476Y-47883390D01*
X94500476Y-47883390D02*
X94548095Y-47931009D01*
X94548095Y-47931009D02*
X94595714Y-48026247D01*
X94595714Y-48026247D02*
X94595714Y-48264342D01*
X94595714Y-48264342D02*
X94548095Y-48359580D01*
X94548095Y-48359580D02*
X94500476Y-48407200D01*
X94500476Y-48407200D02*
X94405238Y-48454819D01*
X94405238Y-48454819D02*
X94167143Y-48454819D01*
X94167143Y-48454819D02*
X94071905Y-48407200D01*
X94071905Y-48407200D02*
X94024286Y-48359580D01*
X53454819Y-83166666D02*
X52978628Y-83499999D01*
X53454819Y-83738094D02*
X52454819Y-83738094D01*
X52454819Y-83738094D02*
X52454819Y-83357142D01*
X52454819Y-83357142D02*
X52502438Y-83261904D01*
X52502438Y-83261904D02*
X52550057Y-83214285D01*
X52550057Y-83214285D02*
X52645295Y-83166666D01*
X52645295Y-83166666D02*
X52788152Y-83166666D01*
X52788152Y-83166666D02*
X52883390Y-83214285D01*
X52883390Y-83214285D02*
X52931009Y-83261904D01*
X52931009Y-83261904D02*
X52978628Y-83357142D01*
X52978628Y-83357142D02*
X52978628Y-83738094D01*
X52883390Y-82595237D02*
X52835771Y-82690475D01*
X52835771Y-82690475D02*
X52788152Y-82738094D01*
X52788152Y-82738094D02*
X52692914Y-82785713D01*
X52692914Y-82785713D02*
X52645295Y-82785713D01*
X52645295Y-82785713D02*
X52550057Y-82738094D01*
X52550057Y-82738094D02*
X52502438Y-82690475D01*
X52502438Y-82690475D02*
X52454819Y-82595237D01*
X52454819Y-82595237D02*
X52454819Y-82404761D01*
X52454819Y-82404761D02*
X52502438Y-82309523D01*
X52502438Y-82309523D02*
X52550057Y-82261904D01*
X52550057Y-82261904D02*
X52645295Y-82214285D01*
X52645295Y-82214285D02*
X52692914Y-82214285D01*
X52692914Y-82214285D02*
X52788152Y-82261904D01*
X52788152Y-82261904D02*
X52835771Y-82309523D01*
X52835771Y-82309523D02*
X52883390Y-82404761D01*
X52883390Y-82404761D02*
X52883390Y-82595237D01*
X52883390Y-82595237D02*
X52931009Y-82690475D01*
X52931009Y-82690475D02*
X52978628Y-82738094D01*
X52978628Y-82738094D02*
X53073866Y-82785713D01*
X53073866Y-82785713D02*
X53264342Y-82785713D01*
X53264342Y-82785713D02*
X53359580Y-82738094D01*
X53359580Y-82738094D02*
X53407200Y-82690475D01*
X53407200Y-82690475D02*
X53454819Y-82595237D01*
X53454819Y-82595237D02*
X53454819Y-82404761D01*
X53454819Y-82404761D02*
X53407200Y-82309523D01*
X53407200Y-82309523D02*
X53359580Y-82261904D01*
X53359580Y-82261904D02*
X53264342Y-82214285D01*
X53264342Y-82214285D02*
X53073866Y-82214285D01*
X53073866Y-82214285D02*
X52978628Y-82261904D01*
X52978628Y-82261904D02*
X52931009Y-82309523D01*
X52931009Y-82309523D02*
X52883390Y-82404761D01*
X79357142Y-83454819D02*
X79023809Y-82978628D01*
X78785714Y-83454819D02*
X78785714Y-82454819D01*
X78785714Y-82454819D02*
X79166666Y-82454819D01*
X79166666Y-82454819D02*
X79261904Y-82502438D01*
X79261904Y-82502438D02*
X79309523Y-82550057D01*
X79309523Y-82550057D02*
X79357142Y-82645295D01*
X79357142Y-82645295D02*
X79357142Y-82788152D01*
X79357142Y-82788152D02*
X79309523Y-82883390D01*
X79309523Y-82883390D02*
X79261904Y-82931009D01*
X79261904Y-82931009D02*
X79166666Y-82978628D01*
X79166666Y-82978628D02*
X78785714Y-82978628D01*
X80309523Y-83454819D02*
X79738095Y-83454819D01*
X80023809Y-83454819D02*
X80023809Y-82454819D01*
X80023809Y-82454819D02*
X79928571Y-82597676D01*
X79928571Y-82597676D02*
X79833333Y-82692914D01*
X79833333Y-82692914D02*
X79738095Y-82740533D01*
X81214285Y-82454819D02*
X80738095Y-82454819D01*
X80738095Y-82454819D02*
X80690476Y-82931009D01*
X80690476Y-82931009D02*
X80738095Y-82883390D01*
X80738095Y-82883390D02*
X80833333Y-82835771D01*
X80833333Y-82835771D02*
X81071428Y-82835771D01*
X81071428Y-82835771D02*
X81166666Y-82883390D01*
X81166666Y-82883390D02*
X81214285Y-82931009D01*
X81214285Y-82931009D02*
X81261904Y-83026247D01*
X81261904Y-83026247D02*
X81261904Y-83264342D01*
X81261904Y-83264342D02*
X81214285Y-83359580D01*
X81214285Y-83359580D02*
X81166666Y-83407200D01*
X81166666Y-83407200D02*
X81071428Y-83454819D01*
X81071428Y-83454819D02*
X80833333Y-83454819D01*
X80833333Y-83454819D02*
X80738095Y-83407200D01*
X80738095Y-83407200D02*
X80690476Y-83359580D01*
X89454819Y-40793333D02*
X90169104Y-40793333D01*
X90169104Y-40793333D02*
X90311961Y-40840952D01*
X90311961Y-40840952D02*
X90407200Y-40936190D01*
X90407200Y-40936190D02*
X90454819Y-41079047D01*
X90454819Y-41079047D02*
X90454819Y-41174285D01*
X90454819Y-40269523D02*
X90454819Y-40079047D01*
X90454819Y-40079047D02*
X90407200Y-39983809D01*
X90407200Y-39983809D02*
X90359580Y-39936190D01*
X90359580Y-39936190D02*
X90216723Y-39840952D01*
X90216723Y-39840952D02*
X90026247Y-39793333D01*
X90026247Y-39793333D02*
X89645295Y-39793333D01*
X89645295Y-39793333D02*
X89550057Y-39840952D01*
X89550057Y-39840952D02*
X89502438Y-39888571D01*
X89502438Y-39888571D02*
X89454819Y-39983809D01*
X89454819Y-39983809D02*
X89454819Y-40174285D01*
X89454819Y-40174285D02*
X89502438Y-40269523D01*
X89502438Y-40269523D02*
X89550057Y-40317142D01*
X89550057Y-40317142D02*
X89645295Y-40364761D01*
X89645295Y-40364761D02*
X89883390Y-40364761D01*
X89883390Y-40364761D02*
X89978628Y-40317142D01*
X89978628Y-40317142D02*
X90026247Y-40269523D01*
X90026247Y-40269523D02*
X90073866Y-40174285D01*
X90073866Y-40174285D02*
X90073866Y-39983809D01*
X90073866Y-39983809D02*
X90026247Y-39888571D01*
X90026247Y-39888571D02*
X89978628Y-39840952D01*
X89978628Y-39840952D02*
X89883390Y-39793333D01*
X77833334Y-54454818D02*
X77500001Y-53978627D01*
X77261906Y-54454818D02*
X77261906Y-53454818D01*
X77261906Y-53454818D02*
X77642858Y-53454818D01*
X77642858Y-53454818D02*
X77738096Y-53502437D01*
X77738096Y-53502437D02*
X77785715Y-53550056D01*
X77785715Y-53550056D02*
X77833334Y-53645294D01*
X77833334Y-53645294D02*
X77833334Y-53788151D01*
X77833334Y-53788151D02*
X77785715Y-53883389D01*
X77785715Y-53883389D02*
X77738096Y-53931008D01*
X77738096Y-53931008D02*
X77642858Y-53978627D01*
X77642858Y-53978627D02*
X77261906Y-53978627D01*
X78214287Y-53550056D02*
X78261906Y-53502437D01*
X78261906Y-53502437D02*
X78357144Y-53454818D01*
X78357144Y-53454818D02*
X78595239Y-53454818D01*
X78595239Y-53454818D02*
X78690477Y-53502437D01*
X78690477Y-53502437D02*
X78738096Y-53550056D01*
X78738096Y-53550056D02*
X78785715Y-53645294D01*
X78785715Y-53645294D02*
X78785715Y-53740532D01*
X78785715Y-53740532D02*
X78738096Y-53883389D01*
X78738096Y-53883389D02*
X78166668Y-54454818D01*
X78166668Y-54454818D02*
X78785715Y-54454818D01*
X45666666Y-91454819D02*
X45666666Y-92169104D01*
X45666666Y-92169104D02*
X45619047Y-92311961D01*
X45619047Y-92311961D02*
X45523809Y-92407200D01*
X45523809Y-92407200D02*
X45380952Y-92454819D01*
X45380952Y-92454819D02*
X45285714Y-92454819D01*
X46666666Y-92454819D02*
X46095238Y-92454819D01*
X46380952Y-92454819D02*
X46380952Y-91454819D01*
X46380952Y-91454819D02*
X46285714Y-91597676D01*
X46285714Y-91597676D02*
X46190476Y-91692914D01*
X46190476Y-91692914D02*
X46095238Y-91740533D01*
X61201666Y-101189819D02*
X61201666Y-101904104D01*
X61201666Y-101904104D02*
X61154047Y-102046961D01*
X61154047Y-102046961D02*
X61058809Y-102142200D01*
X61058809Y-102142200D02*
X60915952Y-102189819D01*
X60915952Y-102189819D02*
X60820714Y-102189819D01*
X62106428Y-101523152D02*
X62106428Y-102189819D01*
X61868333Y-101142200D02*
X61630238Y-101856485D01*
X61630238Y-101856485D02*
X62249285Y-101856485D01*
X69936666Y-101454819D02*
X69936666Y-102169104D01*
X69936666Y-102169104D02*
X69889047Y-102311961D01*
X69889047Y-102311961D02*
X69793809Y-102407200D01*
X69793809Y-102407200D02*
X69650952Y-102454819D01*
X69650952Y-102454819D02*
X69555714Y-102454819D01*
X70889047Y-101454819D02*
X70412857Y-101454819D01*
X70412857Y-101454819D02*
X70365238Y-101931009D01*
X70365238Y-101931009D02*
X70412857Y-101883390D01*
X70412857Y-101883390D02*
X70508095Y-101835771D01*
X70508095Y-101835771D02*
X70746190Y-101835771D01*
X70746190Y-101835771D02*
X70841428Y-101883390D01*
X70841428Y-101883390D02*
X70889047Y-101931009D01*
X70889047Y-101931009D02*
X70936666Y-102026247D01*
X70936666Y-102026247D02*
X70936666Y-102264342D01*
X70936666Y-102264342D02*
X70889047Y-102359580D01*
X70889047Y-102359580D02*
X70841428Y-102407200D01*
X70841428Y-102407200D02*
X70746190Y-102454819D01*
X70746190Y-102454819D02*
X70508095Y-102454819D01*
X70508095Y-102454819D02*
X70412857Y-102407200D01*
X70412857Y-102407200D02*
X70365238Y-102359580D01*
X101454819Y-69166666D02*
X100978628Y-69499999D01*
X101454819Y-69738094D02*
X100454819Y-69738094D01*
X100454819Y-69738094D02*
X100454819Y-69357142D01*
X100454819Y-69357142D02*
X100502438Y-69261904D01*
X100502438Y-69261904D02*
X100550057Y-69214285D01*
X100550057Y-69214285D02*
X100645295Y-69166666D01*
X100645295Y-69166666D02*
X100788152Y-69166666D01*
X100788152Y-69166666D02*
X100883390Y-69214285D01*
X100883390Y-69214285D02*
X100931009Y-69261904D01*
X100931009Y-69261904D02*
X100978628Y-69357142D01*
X100978628Y-69357142D02*
X100978628Y-69738094D01*
X101454819Y-68214285D02*
X101454819Y-68785713D01*
X101454819Y-68499999D02*
X100454819Y-68499999D01*
X100454819Y-68499999D02*
X100597676Y-68595237D01*
X100597676Y-68595237D02*
X100692914Y-68690475D01*
X100692914Y-68690475D02*
X100740533Y-68785713D01*
X78460476Y-101454819D02*
X78460476Y-102169104D01*
X78460476Y-102169104D02*
X78412857Y-102311961D01*
X78412857Y-102311961D02*
X78317619Y-102407200D01*
X78317619Y-102407200D02*
X78174762Y-102454819D01*
X78174762Y-102454819D02*
X78079524Y-102454819D01*
X79460476Y-102454819D02*
X78889048Y-102454819D01*
X79174762Y-102454819D02*
X79174762Y-101454819D01*
X79174762Y-101454819D02*
X79079524Y-101597676D01*
X79079524Y-101597676D02*
X78984286Y-101692914D01*
X78984286Y-101692914D02*
X78889048Y-101740533D01*
X80079524Y-101454819D02*
X80174762Y-101454819D01*
X80174762Y-101454819D02*
X80270000Y-101502438D01*
X80270000Y-101502438D02*
X80317619Y-101550057D01*
X80317619Y-101550057D02*
X80365238Y-101645295D01*
X80365238Y-101645295D02*
X80412857Y-101835771D01*
X80412857Y-101835771D02*
X80412857Y-102073866D01*
X80412857Y-102073866D02*
X80365238Y-102264342D01*
X80365238Y-102264342D02*
X80317619Y-102359580D01*
X80317619Y-102359580D02*
X80270000Y-102407200D01*
X80270000Y-102407200D02*
X80174762Y-102454819D01*
X80174762Y-102454819D02*
X80079524Y-102454819D01*
X80079524Y-102454819D02*
X79984286Y-102407200D01*
X79984286Y-102407200D02*
X79936667Y-102359580D01*
X79936667Y-102359580D02*
X79889048Y-102264342D01*
X79889048Y-102264342D02*
X79841429Y-102073866D01*
X79841429Y-102073866D02*
X79841429Y-101835771D01*
X79841429Y-101835771D02*
X79889048Y-101645295D01*
X79889048Y-101645295D02*
X79936667Y-101550057D01*
X79936667Y-101550057D02*
X79984286Y-101502438D01*
X79984286Y-101502438D02*
X80079524Y-101454819D01*
X63833334Y-84454818D02*
X63500001Y-83978627D01*
X63261906Y-84454818D02*
X63261906Y-83454818D01*
X63261906Y-83454818D02*
X63642858Y-83454818D01*
X63642858Y-83454818D02*
X63738096Y-83502437D01*
X63738096Y-83502437D02*
X63785715Y-83550056D01*
X63785715Y-83550056D02*
X63833334Y-83645294D01*
X63833334Y-83645294D02*
X63833334Y-83788151D01*
X63833334Y-83788151D02*
X63785715Y-83883389D01*
X63785715Y-83883389D02*
X63738096Y-83931008D01*
X63738096Y-83931008D02*
X63642858Y-83978627D01*
X63642858Y-83978627D02*
X63261906Y-83978627D01*
X64166668Y-83454818D02*
X64833334Y-83454818D01*
X64833334Y-83454818D02*
X64404763Y-84454818D01*
X53454819Y-60642857D02*
X52978628Y-60976190D01*
X53454819Y-61214285D02*
X52454819Y-61214285D01*
X52454819Y-61214285D02*
X52454819Y-60833333D01*
X52454819Y-60833333D02*
X52502438Y-60738095D01*
X52502438Y-60738095D02*
X52550057Y-60690476D01*
X52550057Y-60690476D02*
X52645295Y-60642857D01*
X52645295Y-60642857D02*
X52788152Y-60642857D01*
X52788152Y-60642857D02*
X52883390Y-60690476D01*
X52883390Y-60690476D02*
X52931009Y-60738095D01*
X52931009Y-60738095D02*
X52978628Y-60833333D01*
X52978628Y-60833333D02*
X52978628Y-61214285D01*
X53454819Y-59690476D02*
X53454819Y-60261904D01*
X53454819Y-59976190D02*
X52454819Y-59976190D01*
X52454819Y-59976190D02*
X52597676Y-60071428D01*
X52597676Y-60071428D02*
X52692914Y-60166666D01*
X52692914Y-60166666D02*
X52740533Y-60261904D01*
X53454819Y-59214285D02*
X53454819Y-59023809D01*
X53454819Y-59023809D02*
X53407200Y-58928571D01*
X53407200Y-58928571D02*
X53359580Y-58880952D01*
X53359580Y-58880952D02*
X53216723Y-58785714D01*
X53216723Y-58785714D02*
X53026247Y-58738095D01*
X53026247Y-58738095D02*
X52645295Y-58738095D01*
X52645295Y-58738095D02*
X52550057Y-58785714D01*
X52550057Y-58785714D02*
X52502438Y-58833333D01*
X52502438Y-58833333D02*
X52454819Y-58928571D01*
X52454819Y-58928571D02*
X52454819Y-59119047D01*
X52454819Y-59119047D02*
X52502438Y-59214285D01*
X52502438Y-59214285D02*
X52550057Y-59261904D01*
X52550057Y-59261904D02*
X52645295Y-59309523D01*
X52645295Y-59309523D02*
X52883390Y-59309523D01*
X52883390Y-59309523D02*
X52978628Y-59261904D01*
X52978628Y-59261904D02*
X53026247Y-59214285D01*
X53026247Y-59214285D02*
X53073866Y-59119047D01*
X53073866Y-59119047D02*
X53073866Y-58928571D01*
X53073866Y-58928571D02*
X53026247Y-58833333D01*
X53026247Y-58833333D02*
X52978628Y-58785714D01*
X52978628Y-58785714D02*
X52883390Y-58738095D01*
X77357142Y-62454819D02*
X77023809Y-61978628D01*
X76785714Y-62454819D02*
X76785714Y-61454819D01*
X76785714Y-61454819D02*
X77166666Y-61454819D01*
X77166666Y-61454819D02*
X77261904Y-61502438D01*
X77261904Y-61502438D02*
X77309523Y-61550057D01*
X77309523Y-61550057D02*
X77357142Y-61645295D01*
X77357142Y-61645295D02*
X77357142Y-61788152D01*
X77357142Y-61788152D02*
X77309523Y-61883390D01*
X77309523Y-61883390D02*
X77261904Y-61931009D01*
X77261904Y-61931009D02*
X77166666Y-61978628D01*
X77166666Y-61978628D02*
X76785714Y-61978628D01*
X77738095Y-61550057D02*
X77785714Y-61502438D01*
X77785714Y-61502438D02*
X77880952Y-61454819D01*
X77880952Y-61454819D02*
X78119047Y-61454819D01*
X78119047Y-61454819D02*
X78214285Y-61502438D01*
X78214285Y-61502438D02*
X78261904Y-61550057D01*
X78261904Y-61550057D02*
X78309523Y-61645295D01*
X78309523Y-61645295D02*
X78309523Y-61740533D01*
X78309523Y-61740533D02*
X78261904Y-61883390D01*
X78261904Y-61883390D02*
X77690476Y-62454819D01*
X77690476Y-62454819D02*
X78309523Y-62454819D01*
X79166666Y-61788152D02*
X79166666Y-62454819D01*
X78928571Y-61407200D02*
X78690476Y-62121485D01*
X78690476Y-62121485D02*
X79309523Y-62121485D01*
X66454819Y-91642857D02*
X65978628Y-91976190D01*
X66454819Y-92214285D02*
X65454819Y-92214285D01*
X65454819Y-92214285D02*
X65454819Y-91833333D01*
X65454819Y-91833333D02*
X65502438Y-91738095D01*
X65502438Y-91738095D02*
X65550057Y-91690476D01*
X65550057Y-91690476D02*
X65645295Y-91642857D01*
X65645295Y-91642857D02*
X65788152Y-91642857D01*
X65788152Y-91642857D02*
X65883390Y-91690476D01*
X65883390Y-91690476D02*
X65931009Y-91738095D01*
X65931009Y-91738095D02*
X65978628Y-91833333D01*
X65978628Y-91833333D02*
X65978628Y-92214285D01*
X66454819Y-90690476D02*
X66454819Y-91261904D01*
X66454819Y-90976190D02*
X65454819Y-90976190D01*
X65454819Y-90976190D02*
X65597676Y-91071428D01*
X65597676Y-91071428D02*
X65692914Y-91166666D01*
X65692914Y-91166666D02*
X65740533Y-91261904D01*
X65550057Y-90309523D02*
X65502438Y-90261904D01*
X65502438Y-90261904D02*
X65454819Y-90166666D01*
X65454819Y-90166666D02*
X65454819Y-89928571D01*
X65454819Y-89928571D02*
X65502438Y-89833333D01*
X65502438Y-89833333D02*
X65550057Y-89785714D01*
X65550057Y-89785714D02*
X65645295Y-89738095D01*
X65645295Y-89738095D02*
X65740533Y-89738095D01*
X65740533Y-89738095D02*
X65883390Y-89785714D01*
X65883390Y-89785714D02*
X66454819Y-90357142D01*
X66454819Y-90357142D02*
X66454819Y-89738095D01*
X98357142Y-53454819D02*
X98023809Y-52978628D01*
X97785714Y-53454819D02*
X97785714Y-52454819D01*
X97785714Y-52454819D02*
X98166666Y-52454819D01*
X98166666Y-52454819D02*
X98261904Y-52502438D01*
X98261904Y-52502438D02*
X98309523Y-52550057D01*
X98309523Y-52550057D02*
X98357142Y-52645295D01*
X98357142Y-52645295D02*
X98357142Y-52788152D01*
X98357142Y-52788152D02*
X98309523Y-52883390D01*
X98309523Y-52883390D02*
X98261904Y-52931009D01*
X98261904Y-52931009D02*
X98166666Y-52978628D01*
X98166666Y-52978628D02*
X97785714Y-52978628D01*
X99309523Y-53454819D02*
X98738095Y-53454819D01*
X99023809Y-53454819D02*
X99023809Y-52454819D01*
X99023809Y-52454819D02*
X98928571Y-52597676D01*
X98928571Y-52597676D02*
X98833333Y-52692914D01*
X98833333Y-52692914D02*
X98738095Y-52740533D01*
X100166666Y-52788152D02*
X100166666Y-53454819D01*
X99928571Y-52407200D02*
X99690476Y-53121485D01*
X99690476Y-53121485D02*
X100309523Y-53121485D01*
X53454819Y-67166666D02*
X52978628Y-67499999D01*
X53454819Y-67738094D02*
X52454819Y-67738094D01*
X52454819Y-67738094D02*
X52454819Y-67357142D01*
X52454819Y-67357142D02*
X52502438Y-67261904D01*
X52502438Y-67261904D02*
X52550057Y-67214285D01*
X52550057Y-67214285D02*
X52645295Y-67166666D01*
X52645295Y-67166666D02*
X52788152Y-67166666D01*
X52788152Y-67166666D02*
X52883390Y-67214285D01*
X52883390Y-67214285D02*
X52931009Y-67261904D01*
X52931009Y-67261904D02*
X52978628Y-67357142D01*
X52978628Y-67357142D02*
X52978628Y-67738094D01*
X53454819Y-66690475D02*
X53454819Y-66499999D01*
X53454819Y-66499999D02*
X53407200Y-66404761D01*
X53407200Y-66404761D02*
X53359580Y-66357142D01*
X53359580Y-66357142D02*
X53216723Y-66261904D01*
X53216723Y-66261904D02*
X53026247Y-66214285D01*
X53026247Y-66214285D02*
X52645295Y-66214285D01*
X52645295Y-66214285D02*
X52550057Y-66261904D01*
X52550057Y-66261904D02*
X52502438Y-66309523D01*
X52502438Y-66309523D02*
X52454819Y-66404761D01*
X52454819Y-66404761D02*
X52454819Y-66595237D01*
X52454819Y-66595237D02*
X52502438Y-66690475D01*
X52502438Y-66690475D02*
X52550057Y-66738094D01*
X52550057Y-66738094D02*
X52645295Y-66785713D01*
X52645295Y-66785713D02*
X52883390Y-66785713D01*
X52883390Y-66785713D02*
X52978628Y-66738094D01*
X52978628Y-66738094D02*
X53026247Y-66690475D01*
X53026247Y-66690475D02*
X53073866Y-66595237D01*
X53073866Y-66595237D02*
X53073866Y-66404761D01*
X53073866Y-66404761D02*
X53026247Y-66309523D01*
X53026247Y-66309523D02*
X52978628Y-66261904D01*
X52978628Y-66261904D02*
X52883390Y-66214285D01*
X83833333Y-67454819D02*
X83500000Y-66978628D01*
X83261905Y-67454819D02*
X83261905Y-66454819D01*
X83261905Y-66454819D02*
X83642857Y-66454819D01*
X83642857Y-66454819D02*
X83738095Y-66502438D01*
X83738095Y-66502438D02*
X83785714Y-66550057D01*
X83785714Y-66550057D02*
X83833333Y-66645295D01*
X83833333Y-66645295D02*
X83833333Y-66788152D01*
X83833333Y-66788152D02*
X83785714Y-66883390D01*
X83785714Y-66883390D02*
X83738095Y-66931009D01*
X83738095Y-66931009D02*
X83642857Y-66978628D01*
X83642857Y-66978628D02*
X83261905Y-66978628D01*
X84690476Y-66788152D02*
X84690476Y-67454819D01*
X84452381Y-66407200D02*
X84214286Y-67121485D01*
X84214286Y-67121485D02*
X84833333Y-67121485D01*
X53454819Y-56642857D02*
X52978628Y-56976190D01*
X53454819Y-57214285D02*
X52454819Y-57214285D01*
X52454819Y-57214285D02*
X52454819Y-56833333D01*
X52454819Y-56833333D02*
X52502438Y-56738095D01*
X52502438Y-56738095D02*
X52550057Y-56690476D01*
X52550057Y-56690476D02*
X52645295Y-56642857D01*
X52645295Y-56642857D02*
X52788152Y-56642857D01*
X52788152Y-56642857D02*
X52883390Y-56690476D01*
X52883390Y-56690476D02*
X52931009Y-56738095D01*
X52931009Y-56738095D02*
X52978628Y-56833333D01*
X52978628Y-56833333D02*
X52978628Y-57214285D01*
X53454819Y-55690476D02*
X53454819Y-56261904D01*
X53454819Y-55976190D02*
X52454819Y-55976190D01*
X52454819Y-55976190D02*
X52597676Y-56071428D01*
X52597676Y-56071428D02*
X52692914Y-56166666D01*
X52692914Y-56166666D02*
X52740533Y-56261904D01*
X52883390Y-55119047D02*
X52835771Y-55214285D01*
X52835771Y-55214285D02*
X52788152Y-55261904D01*
X52788152Y-55261904D02*
X52692914Y-55309523D01*
X52692914Y-55309523D02*
X52645295Y-55309523D01*
X52645295Y-55309523D02*
X52550057Y-55261904D01*
X52550057Y-55261904D02*
X52502438Y-55214285D01*
X52502438Y-55214285D02*
X52454819Y-55119047D01*
X52454819Y-55119047D02*
X52454819Y-54928571D01*
X52454819Y-54928571D02*
X52502438Y-54833333D01*
X52502438Y-54833333D02*
X52550057Y-54785714D01*
X52550057Y-54785714D02*
X52645295Y-54738095D01*
X52645295Y-54738095D02*
X52692914Y-54738095D01*
X52692914Y-54738095D02*
X52788152Y-54785714D01*
X52788152Y-54785714D02*
X52835771Y-54833333D01*
X52835771Y-54833333D02*
X52883390Y-54928571D01*
X52883390Y-54928571D02*
X52883390Y-55119047D01*
X52883390Y-55119047D02*
X52931009Y-55214285D01*
X52931009Y-55214285D02*
X52978628Y-55261904D01*
X52978628Y-55261904D02*
X53073866Y-55309523D01*
X53073866Y-55309523D02*
X53264342Y-55309523D01*
X53264342Y-55309523D02*
X53359580Y-55261904D01*
X53359580Y-55261904D02*
X53407200Y-55214285D01*
X53407200Y-55214285D02*
X53454819Y-55119047D01*
X53454819Y-55119047D02*
X53454819Y-54928571D01*
X53454819Y-54928571D02*
X53407200Y-54833333D01*
X53407200Y-54833333D02*
X53359580Y-54785714D01*
X53359580Y-54785714D02*
X53264342Y-54738095D01*
X53264342Y-54738095D02*
X53073866Y-54738095D01*
X53073866Y-54738095D02*
X52978628Y-54785714D01*
X52978628Y-54785714D02*
X52931009Y-54833333D01*
X52931009Y-54833333D02*
X52883390Y-54928571D01*
X94238095Y-76454819D02*
X94238095Y-77264342D01*
X94238095Y-77264342D02*
X94285714Y-77359580D01*
X94285714Y-77359580D02*
X94333333Y-77407200D01*
X94333333Y-77407200D02*
X94428571Y-77454819D01*
X94428571Y-77454819D02*
X94619047Y-77454819D01*
X94619047Y-77454819D02*
X94714285Y-77407200D01*
X94714285Y-77407200D02*
X94761904Y-77359580D01*
X94761904Y-77359580D02*
X94809523Y-77264342D01*
X94809523Y-77264342D02*
X94809523Y-76454819D01*
X95238095Y-76550057D02*
X95285714Y-76502438D01*
X95285714Y-76502438D02*
X95380952Y-76454819D01*
X95380952Y-76454819D02*
X95619047Y-76454819D01*
X95619047Y-76454819D02*
X95714285Y-76502438D01*
X95714285Y-76502438D02*
X95761904Y-76550057D01*
X95761904Y-76550057D02*
X95809523Y-76645295D01*
X95809523Y-76645295D02*
X95809523Y-76740533D01*
X95809523Y-76740533D02*
X95761904Y-76883390D01*
X95761904Y-76883390D02*
X95190476Y-77454819D01*
X95190476Y-77454819D02*
X95809523Y-77454819D01*
X53454819Y-79642857D02*
X52978628Y-79976190D01*
X53454819Y-80214285D02*
X52454819Y-80214285D01*
X52454819Y-80214285D02*
X52454819Y-79833333D01*
X52454819Y-79833333D02*
X52502438Y-79738095D01*
X52502438Y-79738095D02*
X52550057Y-79690476D01*
X52550057Y-79690476D02*
X52645295Y-79642857D01*
X52645295Y-79642857D02*
X52788152Y-79642857D01*
X52788152Y-79642857D02*
X52883390Y-79690476D01*
X52883390Y-79690476D02*
X52931009Y-79738095D01*
X52931009Y-79738095D02*
X52978628Y-79833333D01*
X52978628Y-79833333D02*
X52978628Y-80214285D01*
X53454819Y-78690476D02*
X53454819Y-79261904D01*
X53454819Y-78976190D02*
X52454819Y-78976190D01*
X52454819Y-78976190D02*
X52597676Y-79071428D01*
X52597676Y-79071428D02*
X52692914Y-79166666D01*
X52692914Y-79166666D02*
X52740533Y-79261904D01*
X52454819Y-78357142D02*
X52454819Y-77690476D01*
X52454819Y-77690476D02*
X53454819Y-78119047D01*
X53454819Y-71642857D02*
X52978628Y-71976190D01*
X53454819Y-72214285D02*
X52454819Y-72214285D01*
X52454819Y-72214285D02*
X52454819Y-71833333D01*
X52454819Y-71833333D02*
X52502438Y-71738095D01*
X52502438Y-71738095D02*
X52550057Y-71690476D01*
X52550057Y-71690476D02*
X52645295Y-71642857D01*
X52645295Y-71642857D02*
X52788152Y-71642857D01*
X52788152Y-71642857D02*
X52883390Y-71690476D01*
X52883390Y-71690476D02*
X52931009Y-71738095D01*
X52931009Y-71738095D02*
X52978628Y-71833333D01*
X52978628Y-71833333D02*
X52978628Y-72214285D01*
X53454819Y-70690476D02*
X53454819Y-71261904D01*
X53454819Y-70976190D02*
X52454819Y-70976190D01*
X52454819Y-70976190D02*
X52597676Y-71071428D01*
X52597676Y-71071428D02*
X52692914Y-71166666D01*
X52692914Y-71166666D02*
X52740533Y-71261904D01*
X53454819Y-70214285D02*
X53454819Y-70023809D01*
X53454819Y-70023809D02*
X53407200Y-69928571D01*
X53407200Y-69928571D02*
X53359580Y-69880952D01*
X53359580Y-69880952D02*
X53216723Y-69785714D01*
X53216723Y-69785714D02*
X53026247Y-69738095D01*
X53026247Y-69738095D02*
X52645295Y-69738095D01*
X52645295Y-69738095D02*
X52550057Y-69785714D01*
X52550057Y-69785714D02*
X52502438Y-69833333D01*
X52502438Y-69833333D02*
X52454819Y-69928571D01*
X52454819Y-69928571D02*
X52454819Y-70119047D01*
X52454819Y-70119047D02*
X52502438Y-70214285D01*
X52502438Y-70214285D02*
X52550057Y-70261904D01*
X52550057Y-70261904D02*
X52645295Y-70309523D01*
X52645295Y-70309523D02*
X52883390Y-70309523D01*
X52883390Y-70309523D02*
X52978628Y-70261904D01*
X52978628Y-70261904D02*
X53026247Y-70214285D01*
X53026247Y-70214285D02*
X53073866Y-70119047D01*
X53073866Y-70119047D02*
X53073866Y-69928571D01*
X53073866Y-69928571D02*
X53026247Y-69833333D01*
X53026247Y-69833333D02*
X52978628Y-69785714D01*
X52978628Y-69785714D02*
X52883390Y-69738095D01*
X67382381Y-50507809D02*
X67075715Y-50069714D01*
X66856667Y-50507809D02*
X66856667Y-49587809D01*
X66856667Y-49587809D02*
X67207143Y-49587809D01*
X67207143Y-49587809D02*
X67294762Y-49631619D01*
X67294762Y-49631619D02*
X67338572Y-49675428D01*
X67338572Y-49675428D02*
X67382381Y-49763047D01*
X67382381Y-49763047D02*
X67382381Y-49894476D01*
X67382381Y-49894476D02*
X67338572Y-49982095D01*
X67338572Y-49982095D02*
X67294762Y-50025904D01*
X67294762Y-50025904D02*
X67207143Y-50069714D01*
X67207143Y-50069714D02*
X66856667Y-50069714D01*
X67645239Y-49587809D02*
X67951905Y-50507809D01*
X67951905Y-50507809D02*
X68258572Y-49587809D01*
X68477619Y-49587809D02*
X69047143Y-49587809D01*
X69047143Y-49587809D02*
X68740476Y-49938285D01*
X68740476Y-49938285D02*
X68871905Y-49938285D01*
X68871905Y-49938285D02*
X68959524Y-49982095D01*
X68959524Y-49982095D02*
X69003333Y-50025904D01*
X69003333Y-50025904D02*
X69047143Y-50113523D01*
X69047143Y-50113523D02*
X69047143Y-50332571D01*
X69047143Y-50332571D02*
X69003333Y-50420190D01*
X69003333Y-50420190D02*
X68959524Y-50464000D01*
X68959524Y-50464000D02*
X68871905Y-50507809D01*
X68871905Y-50507809D02*
X68609048Y-50507809D01*
X68609048Y-50507809D02*
X68521429Y-50464000D01*
X68521429Y-50464000D02*
X68477619Y-50420190D01*
X67833333Y-54454819D02*
X67500000Y-53978628D01*
X67261905Y-54454819D02*
X67261905Y-53454819D01*
X67261905Y-53454819D02*
X67642857Y-53454819D01*
X67642857Y-53454819D02*
X67738095Y-53502438D01*
X67738095Y-53502438D02*
X67785714Y-53550057D01*
X67785714Y-53550057D02*
X67833333Y-53645295D01*
X67833333Y-53645295D02*
X67833333Y-53788152D01*
X67833333Y-53788152D02*
X67785714Y-53883390D01*
X67785714Y-53883390D02*
X67738095Y-53931009D01*
X67738095Y-53931009D02*
X67642857Y-53978628D01*
X67642857Y-53978628D02*
X67261905Y-53978628D01*
X68166667Y-53454819D02*
X68785714Y-53454819D01*
X68785714Y-53454819D02*
X68452381Y-53835771D01*
X68452381Y-53835771D02*
X68595238Y-53835771D01*
X68595238Y-53835771D02*
X68690476Y-53883390D01*
X68690476Y-53883390D02*
X68738095Y-53931009D01*
X68738095Y-53931009D02*
X68785714Y-54026247D01*
X68785714Y-54026247D02*
X68785714Y-54264342D01*
X68785714Y-54264342D02*
X68738095Y-54359580D01*
X68738095Y-54359580D02*
X68690476Y-54407200D01*
X68690476Y-54407200D02*
X68595238Y-54454819D01*
X68595238Y-54454819D02*
X68309524Y-54454819D01*
X68309524Y-54454819D02*
X68214286Y-54407200D01*
X68214286Y-54407200D02*
X68166667Y-54359580D01*
X53454819Y-52642857D02*
X52978628Y-52976190D01*
X53454819Y-53214285D02*
X52454819Y-53214285D01*
X52454819Y-53214285D02*
X52454819Y-52833333D01*
X52454819Y-52833333D02*
X52502438Y-52738095D01*
X52502438Y-52738095D02*
X52550057Y-52690476D01*
X52550057Y-52690476D02*
X52645295Y-52642857D01*
X52645295Y-52642857D02*
X52788152Y-52642857D01*
X52788152Y-52642857D02*
X52883390Y-52690476D01*
X52883390Y-52690476D02*
X52931009Y-52738095D01*
X52931009Y-52738095D02*
X52978628Y-52833333D01*
X52978628Y-52833333D02*
X52978628Y-53214285D01*
X53454819Y-51690476D02*
X53454819Y-52261904D01*
X53454819Y-51976190D02*
X52454819Y-51976190D01*
X52454819Y-51976190D02*
X52597676Y-52071428D01*
X52597676Y-52071428D02*
X52692914Y-52166666D01*
X52692914Y-52166666D02*
X52740533Y-52261904D01*
X52454819Y-50833333D02*
X52454819Y-51023809D01*
X52454819Y-51023809D02*
X52502438Y-51119047D01*
X52502438Y-51119047D02*
X52550057Y-51166666D01*
X52550057Y-51166666D02*
X52692914Y-51261904D01*
X52692914Y-51261904D02*
X52883390Y-51309523D01*
X52883390Y-51309523D02*
X53264342Y-51309523D01*
X53264342Y-51309523D02*
X53359580Y-51261904D01*
X53359580Y-51261904D02*
X53407200Y-51214285D01*
X53407200Y-51214285D02*
X53454819Y-51119047D01*
X53454819Y-51119047D02*
X53454819Y-50928571D01*
X53454819Y-50928571D02*
X53407200Y-50833333D01*
X53407200Y-50833333D02*
X53359580Y-50785714D01*
X53359580Y-50785714D02*
X53264342Y-50738095D01*
X53264342Y-50738095D02*
X53026247Y-50738095D01*
X53026247Y-50738095D02*
X52931009Y-50785714D01*
X52931009Y-50785714D02*
X52883390Y-50833333D01*
X52883390Y-50833333D02*
X52835771Y-50928571D01*
X52835771Y-50928571D02*
X52835771Y-51119047D01*
X52835771Y-51119047D02*
X52883390Y-51214285D01*
X52883390Y-51214285D02*
X52931009Y-51261904D01*
X52931009Y-51261904D02*
X53026247Y-51309523D01*
X64357142Y-62454819D02*
X64023809Y-61978628D01*
X63785714Y-62454819D02*
X63785714Y-61454819D01*
X63785714Y-61454819D02*
X64166666Y-61454819D01*
X64166666Y-61454819D02*
X64261904Y-61502438D01*
X64261904Y-61502438D02*
X64309523Y-61550057D01*
X64309523Y-61550057D02*
X64357142Y-61645295D01*
X64357142Y-61645295D02*
X64357142Y-61788152D01*
X64357142Y-61788152D02*
X64309523Y-61883390D01*
X64309523Y-61883390D02*
X64261904Y-61931009D01*
X64261904Y-61931009D02*
X64166666Y-61978628D01*
X64166666Y-61978628D02*
X63785714Y-61978628D01*
X64738095Y-61550057D02*
X64785714Y-61502438D01*
X64785714Y-61502438D02*
X64880952Y-61454819D01*
X64880952Y-61454819D02*
X65119047Y-61454819D01*
X65119047Y-61454819D02*
X65214285Y-61502438D01*
X65214285Y-61502438D02*
X65261904Y-61550057D01*
X65261904Y-61550057D02*
X65309523Y-61645295D01*
X65309523Y-61645295D02*
X65309523Y-61740533D01*
X65309523Y-61740533D02*
X65261904Y-61883390D01*
X65261904Y-61883390D02*
X64690476Y-62454819D01*
X64690476Y-62454819D02*
X65309523Y-62454819D01*
X65642857Y-61454819D02*
X66261904Y-61454819D01*
X66261904Y-61454819D02*
X65928571Y-61835771D01*
X65928571Y-61835771D02*
X66071428Y-61835771D01*
X66071428Y-61835771D02*
X66166666Y-61883390D01*
X66166666Y-61883390D02*
X66214285Y-61931009D01*
X66214285Y-61931009D02*
X66261904Y-62026247D01*
X66261904Y-62026247D02*
X66261904Y-62264342D01*
X66261904Y-62264342D02*
X66214285Y-62359580D01*
X66214285Y-62359580D02*
X66166666Y-62407200D01*
X66166666Y-62407200D02*
X66071428Y-62454819D01*
X66071428Y-62454819D02*
X65785714Y-62454819D01*
X65785714Y-62454819D02*
X65690476Y-62407200D01*
X65690476Y-62407200D02*
X65642857Y-62359580D01*
X48396666Y-51454819D02*
X48396666Y-52169104D01*
X48396666Y-52169104D02*
X48349047Y-52311961D01*
X48349047Y-52311961D02*
X48253809Y-52407200D01*
X48253809Y-52407200D02*
X48110952Y-52454819D01*
X48110952Y-52454819D02*
X48015714Y-52454819D01*
X49015714Y-51883390D02*
X48920476Y-51835771D01*
X48920476Y-51835771D02*
X48872857Y-51788152D01*
X48872857Y-51788152D02*
X48825238Y-51692914D01*
X48825238Y-51692914D02*
X48825238Y-51645295D01*
X48825238Y-51645295D02*
X48872857Y-51550057D01*
X48872857Y-51550057D02*
X48920476Y-51502438D01*
X48920476Y-51502438D02*
X49015714Y-51454819D01*
X49015714Y-51454819D02*
X49206190Y-51454819D01*
X49206190Y-51454819D02*
X49301428Y-51502438D01*
X49301428Y-51502438D02*
X49349047Y-51550057D01*
X49349047Y-51550057D02*
X49396666Y-51645295D01*
X49396666Y-51645295D02*
X49396666Y-51692914D01*
X49396666Y-51692914D02*
X49349047Y-51788152D01*
X49349047Y-51788152D02*
X49301428Y-51835771D01*
X49301428Y-51835771D02*
X49206190Y-51883390D01*
X49206190Y-51883390D02*
X49015714Y-51883390D01*
X49015714Y-51883390D02*
X48920476Y-51931009D01*
X48920476Y-51931009D02*
X48872857Y-51978628D01*
X48872857Y-51978628D02*
X48825238Y-52073866D01*
X48825238Y-52073866D02*
X48825238Y-52264342D01*
X48825238Y-52264342D02*
X48872857Y-52359580D01*
X48872857Y-52359580D02*
X48920476Y-52407200D01*
X48920476Y-52407200D02*
X49015714Y-52454819D01*
X49015714Y-52454819D02*
X49206190Y-52454819D01*
X49206190Y-52454819D02*
X49301428Y-52407200D01*
X49301428Y-52407200D02*
X49349047Y-52359580D01*
X49349047Y-52359580D02*
X49396666Y-52264342D01*
X49396666Y-52264342D02*
X49396666Y-52073866D01*
X49396666Y-52073866D02*
X49349047Y-51978628D01*
X49349047Y-51978628D02*
X49301428Y-51931009D01*
X49301428Y-51931009D02*
X49206190Y-51883390D01*
X75454819Y-68452857D02*
X74978628Y-68786190D01*
X75454819Y-69024285D02*
X74454819Y-69024285D01*
X74454819Y-69024285D02*
X74454819Y-68643333D01*
X74454819Y-68643333D02*
X74502438Y-68548095D01*
X74502438Y-68548095D02*
X74550057Y-68500476D01*
X74550057Y-68500476D02*
X74645295Y-68452857D01*
X74645295Y-68452857D02*
X74788152Y-68452857D01*
X74788152Y-68452857D02*
X74883390Y-68500476D01*
X74883390Y-68500476D02*
X74931009Y-68548095D01*
X74931009Y-68548095D02*
X74978628Y-68643333D01*
X74978628Y-68643333D02*
X74978628Y-69024285D01*
X74550057Y-68071904D02*
X74502438Y-68024285D01*
X74502438Y-68024285D02*
X74454819Y-67929047D01*
X74454819Y-67929047D02*
X74454819Y-67690952D01*
X74454819Y-67690952D02*
X74502438Y-67595714D01*
X74502438Y-67595714D02*
X74550057Y-67548095D01*
X74550057Y-67548095D02*
X74645295Y-67500476D01*
X74645295Y-67500476D02*
X74740533Y-67500476D01*
X74740533Y-67500476D02*
X74883390Y-67548095D01*
X74883390Y-67548095D02*
X75454819Y-68119523D01*
X75454819Y-68119523D02*
X75454819Y-67500476D01*
X74550057Y-67119523D02*
X74502438Y-67071904D01*
X74502438Y-67071904D02*
X74454819Y-66976666D01*
X74454819Y-66976666D02*
X74454819Y-66738571D01*
X74454819Y-66738571D02*
X74502438Y-66643333D01*
X74502438Y-66643333D02*
X74550057Y-66595714D01*
X74550057Y-66595714D02*
X74645295Y-66548095D01*
X74645295Y-66548095D02*
X74740533Y-66548095D01*
X74740533Y-66548095D02*
X74883390Y-66595714D01*
X74883390Y-66595714D02*
X75454819Y-67167142D01*
X75454819Y-67167142D02*
X75454819Y-66548095D01*
X48404761Y-82994819D02*
X48071428Y-82518628D01*
X47833333Y-82994819D02*
X47833333Y-81994819D01*
X47833333Y-81994819D02*
X48214285Y-81994819D01*
X48214285Y-81994819D02*
X48309523Y-82042438D01*
X48309523Y-82042438D02*
X48357142Y-82090057D01*
X48357142Y-82090057D02*
X48404761Y-82185295D01*
X48404761Y-82185295D02*
X48404761Y-82328152D01*
X48404761Y-82328152D02*
X48357142Y-82423390D01*
X48357142Y-82423390D02*
X48309523Y-82471009D01*
X48309523Y-82471009D02*
X48214285Y-82518628D01*
X48214285Y-82518628D02*
X47833333Y-82518628D01*
X48690476Y-81994819D02*
X49023809Y-82994819D01*
X49023809Y-82994819D02*
X49357142Y-81994819D01*
X49642857Y-82090057D02*
X49690476Y-82042438D01*
X49690476Y-82042438D02*
X49785714Y-81994819D01*
X49785714Y-81994819D02*
X50023809Y-81994819D01*
X50023809Y-81994819D02*
X50119047Y-82042438D01*
X50119047Y-82042438D02*
X50166666Y-82090057D01*
X50166666Y-82090057D02*
X50214285Y-82185295D01*
X50214285Y-82185295D02*
X50214285Y-82280533D01*
X50214285Y-82280533D02*
X50166666Y-82423390D01*
X50166666Y-82423390D02*
X49595238Y-82994819D01*
X49595238Y-82994819D02*
X50214285Y-82994819D01*
X55454819Y-40873333D02*
X56169104Y-40873333D01*
X56169104Y-40873333D02*
X56311961Y-40920952D01*
X56311961Y-40920952D02*
X56407200Y-41016190D01*
X56407200Y-41016190D02*
X56454819Y-41159047D01*
X56454819Y-41159047D02*
X56454819Y-41254285D01*
X55454819Y-39968571D02*
X55454819Y-40159047D01*
X55454819Y-40159047D02*
X55502438Y-40254285D01*
X55502438Y-40254285D02*
X55550057Y-40301904D01*
X55550057Y-40301904D02*
X55692914Y-40397142D01*
X55692914Y-40397142D02*
X55883390Y-40444761D01*
X55883390Y-40444761D02*
X56264342Y-40444761D01*
X56264342Y-40444761D02*
X56359580Y-40397142D01*
X56359580Y-40397142D02*
X56407200Y-40349523D01*
X56407200Y-40349523D02*
X56454819Y-40254285D01*
X56454819Y-40254285D02*
X56454819Y-40063809D01*
X56454819Y-40063809D02*
X56407200Y-39968571D01*
X56407200Y-39968571D02*
X56359580Y-39920952D01*
X56359580Y-39920952D02*
X56264342Y-39873333D01*
X56264342Y-39873333D02*
X56026247Y-39873333D01*
X56026247Y-39873333D02*
X55931009Y-39920952D01*
X55931009Y-39920952D02*
X55883390Y-39968571D01*
X55883390Y-39968571D02*
X55835771Y-40063809D01*
X55835771Y-40063809D02*
X55835771Y-40254285D01*
X55835771Y-40254285D02*
X55883390Y-40349523D01*
X55883390Y-40349523D02*
X55931009Y-40397142D01*
X55931009Y-40397142D02*
X56026247Y-40444761D01*
X82833333Y-48454819D02*
X82500000Y-47978628D01*
X82261905Y-48454819D02*
X82261905Y-47454819D01*
X82261905Y-47454819D02*
X82642857Y-47454819D01*
X82642857Y-47454819D02*
X82738095Y-47502438D01*
X82738095Y-47502438D02*
X82785714Y-47550057D01*
X82785714Y-47550057D02*
X82833333Y-47645295D01*
X82833333Y-47645295D02*
X82833333Y-47788152D01*
X82833333Y-47788152D02*
X82785714Y-47883390D01*
X82785714Y-47883390D02*
X82738095Y-47931009D01*
X82738095Y-47931009D02*
X82642857Y-47978628D01*
X82642857Y-47978628D02*
X82261905Y-47978628D01*
X83690476Y-47454819D02*
X83500000Y-47454819D01*
X83500000Y-47454819D02*
X83404762Y-47502438D01*
X83404762Y-47502438D02*
X83357143Y-47550057D01*
X83357143Y-47550057D02*
X83261905Y-47692914D01*
X83261905Y-47692914D02*
X83214286Y-47883390D01*
X83214286Y-47883390D02*
X83214286Y-48264342D01*
X83214286Y-48264342D02*
X83261905Y-48359580D01*
X83261905Y-48359580D02*
X83309524Y-48407200D01*
X83309524Y-48407200D02*
X83404762Y-48454819D01*
X83404762Y-48454819D02*
X83595238Y-48454819D01*
X83595238Y-48454819D02*
X83690476Y-48407200D01*
X83690476Y-48407200D02*
X83738095Y-48359580D01*
X83738095Y-48359580D02*
X83785714Y-48264342D01*
X83785714Y-48264342D02*
X83785714Y-48026247D01*
X83785714Y-48026247D02*
X83738095Y-47931009D01*
X83738095Y-47931009D02*
X83690476Y-47883390D01*
X83690476Y-47883390D02*
X83595238Y-47835771D01*
X83595238Y-47835771D02*
X83404762Y-47835771D01*
X83404762Y-47835771D02*
X83309524Y-47883390D01*
X83309524Y-47883390D02*
X83261905Y-47931009D01*
X83261905Y-47931009D02*
X83214286Y-48026247D01*
X53454819Y-75642857D02*
X52978628Y-75976190D01*
X53454819Y-76214285D02*
X52454819Y-76214285D01*
X52454819Y-76214285D02*
X52454819Y-75833333D01*
X52454819Y-75833333D02*
X52502438Y-75738095D01*
X52502438Y-75738095D02*
X52550057Y-75690476D01*
X52550057Y-75690476D02*
X52645295Y-75642857D01*
X52645295Y-75642857D02*
X52788152Y-75642857D01*
X52788152Y-75642857D02*
X52883390Y-75690476D01*
X52883390Y-75690476D02*
X52931009Y-75738095D01*
X52931009Y-75738095D02*
X52978628Y-75833333D01*
X52978628Y-75833333D02*
X52978628Y-76214285D01*
X52550057Y-75261904D02*
X52502438Y-75214285D01*
X52502438Y-75214285D02*
X52454819Y-75119047D01*
X52454819Y-75119047D02*
X52454819Y-74880952D01*
X52454819Y-74880952D02*
X52502438Y-74785714D01*
X52502438Y-74785714D02*
X52550057Y-74738095D01*
X52550057Y-74738095D02*
X52645295Y-74690476D01*
X52645295Y-74690476D02*
X52740533Y-74690476D01*
X52740533Y-74690476D02*
X52883390Y-74738095D01*
X52883390Y-74738095D02*
X53454819Y-75309523D01*
X53454819Y-75309523D02*
X53454819Y-74690476D01*
X52454819Y-73785714D02*
X52454819Y-74261904D01*
X52454819Y-74261904D02*
X52931009Y-74309523D01*
X52931009Y-74309523D02*
X52883390Y-74261904D01*
X52883390Y-74261904D02*
X52835771Y-74166666D01*
X52835771Y-74166666D02*
X52835771Y-73928571D01*
X52835771Y-73928571D02*
X52883390Y-73833333D01*
X52883390Y-73833333D02*
X52931009Y-73785714D01*
X52931009Y-73785714D02*
X53026247Y-73738095D01*
X53026247Y-73738095D02*
X53264342Y-73738095D01*
X53264342Y-73738095D02*
X53359580Y-73785714D01*
X53359580Y-73785714D02*
X53407200Y-73833333D01*
X53407200Y-73833333D02*
X53454819Y-73928571D01*
X53454819Y-73928571D02*
X53454819Y-74166666D01*
X53454819Y-74166666D02*
X53407200Y-74261904D01*
X53407200Y-74261904D02*
X53359580Y-74309523D01*
X72776666Y-38184819D02*
X72776666Y-38899104D01*
X72776666Y-38899104D02*
X72729047Y-39041961D01*
X72729047Y-39041961D02*
X72633809Y-39137200D01*
X72633809Y-39137200D02*
X72490952Y-39184819D01*
X72490952Y-39184819D02*
X72395714Y-39184819D01*
X73205238Y-38280057D02*
X73252857Y-38232438D01*
X73252857Y-38232438D02*
X73348095Y-38184819D01*
X73348095Y-38184819D02*
X73586190Y-38184819D01*
X73586190Y-38184819D02*
X73681428Y-38232438D01*
X73681428Y-38232438D02*
X73729047Y-38280057D01*
X73729047Y-38280057D02*
X73776666Y-38375295D01*
X73776666Y-38375295D02*
X73776666Y-38470533D01*
X73776666Y-38470533D02*
X73729047Y-38613390D01*
X73729047Y-38613390D02*
X73157619Y-39184819D01*
X73157619Y-39184819D02*
X73776666Y-39184819D01*
X79833333Y-74359580D02*
X79785714Y-74407200D01*
X79785714Y-74407200D02*
X79642857Y-74454819D01*
X79642857Y-74454819D02*
X79547619Y-74454819D01*
X79547619Y-74454819D02*
X79404762Y-74407200D01*
X79404762Y-74407200D02*
X79309524Y-74311961D01*
X79309524Y-74311961D02*
X79261905Y-74216723D01*
X79261905Y-74216723D02*
X79214286Y-74026247D01*
X79214286Y-74026247D02*
X79214286Y-73883390D01*
X79214286Y-73883390D02*
X79261905Y-73692914D01*
X79261905Y-73692914D02*
X79309524Y-73597676D01*
X79309524Y-73597676D02*
X79404762Y-73502438D01*
X79404762Y-73502438D02*
X79547619Y-73454819D01*
X79547619Y-73454819D02*
X79642857Y-73454819D01*
X79642857Y-73454819D02*
X79785714Y-73502438D01*
X79785714Y-73502438D02*
X79833333Y-73550057D01*
X80785714Y-74454819D02*
X80214286Y-74454819D01*
X80500000Y-74454819D02*
X80500000Y-73454819D01*
X80500000Y-73454819D02*
X80404762Y-73597676D01*
X80404762Y-73597676D02*
X80309524Y-73692914D01*
X80309524Y-73692914D02*
X80214286Y-73740533D01*
X53454819Y-64642857D02*
X52978628Y-64976190D01*
X53454819Y-65214285D02*
X52454819Y-65214285D01*
X52454819Y-65214285D02*
X52454819Y-64833333D01*
X52454819Y-64833333D02*
X52502438Y-64738095D01*
X52502438Y-64738095D02*
X52550057Y-64690476D01*
X52550057Y-64690476D02*
X52645295Y-64642857D01*
X52645295Y-64642857D02*
X52788152Y-64642857D01*
X52788152Y-64642857D02*
X52883390Y-64690476D01*
X52883390Y-64690476D02*
X52931009Y-64738095D01*
X52931009Y-64738095D02*
X52978628Y-64833333D01*
X52978628Y-64833333D02*
X52978628Y-65214285D01*
X53454819Y-63690476D02*
X53454819Y-64261904D01*
X53454819Y-63976190D02*
X52454819Y-63976190D01*
X52454819Y-63976190D02*
X52597676Y-64071428D01*
X52597676Y-64071428D02*
X52692914Y-64166666D01*
X52692914Y-64166666D02*
X52740533Y-64261904D01*
X52883390Y-63119047D02*
X52835771Y-63214285D01*
X52835771Y-63214285D02*
X52788152Y-63261904D01*
X52788152Y-63261904D02*
X52692914Y-63309523D01*
X52692914Y-63309523D02*
X52645295Y-63309523D01*
X52645295Y-63309523D02*
X52550057Y-63261904D01*
X52550057Y-63261904D02*
X52502438Y-63214285D01*
X52502438Y-63214285D02*
X52454819Y-63119047D01*
X52454819Y-63119047D02*
X52454819Y-62928571D01*
X52454819Y-62928571D02*
X52502438Y-62833333D01*
X52502438Y-62833333D02*
X52550057Y-62785714D01*
X52550057Y-62785714D02*
X52645295Y-62738095D01*
X52645295Y-62738095D02*
X52692914Y-62738095D01*
X52692914Y-62738095D02*
X52788152Y-62785714D01*
X52788152Y-62785714D02*
X52835771Y-62833333D01*
X52835771Y-62833333D02*
X52883390Y-62928571D01*
X52883390Y-62928571D02*
X52883390Y-63119047D01*
X52883390Y-63119047D02*
X52931009Y-63214285D01*
X52931009Y-63214285D02*
X52978628Y-63261904D01*
X52978628Y-63261904D02*
X53073866Y-63309523D01*
X53073866Y-63309523D02*
X53264342Y-63309523D01*
X53264342Y-63309523D02*
X53359580Y-63261904D01*
X53359580Y-63261904D02*
X53407200Y-63214285D01*
X53407200Y-63214285D02*
X53454819Y-63119047D01*
X53454819Y-63119047D02*
X53454819Y-62928571D01*
X53454819Y-62928571D02*
X53407200Y-62833333D01*
X53407200Y-62833333D02*
X53359580Y-62785714D01*
X53359580Y-62785714D02*
X53264342Y-62738095D01*
X53264342Y-62738095D02*
X53073866Y-62738095D01*
X53073866Y-62738095D02*
X52978628Y-62785714D01*
X52978628Y-62785714D02*
X52931009Y-62833333D01*
X52931009Y-62833333D02*
X52883390Y-62928571D01*
X48396666Y-58454819D02*
X48396666Y-59169104D01*
X48396666Y-59169104D02*
X48349047Y-59311961D01*
X48349047Y-59311961D02*
X48253809Y-59407200D01*
X48253809Y-59407200D02*
X48110952Y-59454819D01*
X48110952Y-59454819D02*
X48015714Y-59454819D01*
X48777619Y-58454819D02*
X49444285Y-58454819D01*
X49444285Y-58454819D02*
X49015714Y-59454819D01*
X72238095Y-62454819D02*
X72238095Y-63264342D01*
X72238095Y-63264342D02*
X72285714Y-63359580D01*
X72285714Y-63359580D02*
X72333333Y-63407200D01*
X72333333Y-63407200D02*
X72428571Y-63454819D01*
X72428571Y-63454819D02*
X72619047Y-63454819D01*
X72619047Y-63454819D02*
X72714285Y-63407200D01*
X72714285Y-63407200D02*
X72761904Y-63359580D01*
X72761904Y-63359580D02*
X72809523Y-63264342D01*
X72809523Y-63264342D02*
X72809523Y-62454819D01*
X73190476Y-62454819D02*
X73809523Y-62454819D01*
X73809523Y-62454819D02*
X73476190Y-62835771D01*
X73476190Y-62835771D02*
X73619047Y-62835771D01*
X73619047Y-62835771D02*
X73714285Y-62883390D01*
X73714285Y-62883390D02*
X73761904Y-62931009D01*
X73761904Y-62931009D02*
X73809523Y-63026247D01*
X73809523Y-63026247D02*
X73809523Y-63264342D01*
X73809523Y-63264342D02*
X73761904Y-63359580D01*
X73761904Y-63359580D02*
X73714285Y-63407200D01*
X73714285Y-63407200D02*
X73619047Y-63454819D01*
X73619047Y-63454819D02*
X73333333Y-63454819D01*
X73333333Y-63454819D02*
X73238095Y-63407200D01*
X73238095Y-63407200D02*
X73190476Y-63359580D01*
X82357142Y-97454819D02*
X82023809Y-96978628D01*
X81785714Y-97454819D02*
X81785714Y-96454819D01*
X81785714Y-96454819D02*
X82166666Y-96454819D01*
X82166666Y-96454819D02*
X82261904Y-96502438D01*
X82261904Y-96502438D02*
X82309523Y-96550057D01*
X82309523Y-96550057D02*
X82357142Y-96645295D01*
X82357142Y-96645295D02*
X82357142Y-96788152D01*
X82357142Y-96788152D02*
X82309523Y-96883390D01*
X82309523Y-96883390D02*
X82261904Y-96931009D01*
X82261904Y-96931009D02*
X82166666Y-96978628D01*
X82166666Y-96978628D02*
X81785714Y-96978628D01*
X83309523Y-97454819D02*
X82738095Y-97454819D01*
X83023809Y-97454819D02*
X83023809Y-96454819D01*
X83023809Y-96454819D02*
X82928571Y-96597676D01*
X82928571Y-96597676D02*
X82833333Y-96692914D01*
X82833333Y-96692914D02*
X82738095Y-96740533D01*
X84261904Y-97454819D02*
X83690476Y-97454819D01*
X83976190Y-97454819D02*
X83976190Y-96454819D01*
X83976190Y-96454819D02*
X83880952Y-96597676D01*
X83880952Y-96597676D02*
X83785714Y-96692914D01*
X83785714Y-96692914D02*
X83690476Y-96740533D01*
X45666666Y-97454819D02*
X45666666Y-98169104D01*
X45666666Y-98169104D02*
X45619047Y-98311961D01*
X45619047Y-98311961D02*
X45523809Y-98407200D01*
X45523809Y-98407200D02*
X45380952Y-98454819D01*
X45380952Y-98454819D02*
X45285714Y-98454819D01*
X46047619Y-97454819D02*
X46666666Y-97454819D01*
X46666666Y-97454819D02*
X46333333Y-97835771D01*
X46333333Y-97835771D02*
X46476190Y-97835771D01*
X46476190Y-97835771D02*
X46571428Y-97883390D01*
X46571428Y-97883390D02*
X46619047Y-97931009D01*
X46619047Y-97931009D02*
X46666666Y-98026247D01*
X46666666Y-98026247D02*
X46666666Y-98264342D01*
X46666666Y-98264342D02*
X46619047Y-98359580D01*
X46619047Y-98359580D02*
X46571428Y-98407200D01*
X46571428Y-98407200D02*
X46476190Y-98454819D01*
X46476190Y-98454819D02*
X46190476Y-98454819D01*
X46190476Y-98454819D02*
X46095238Y-98407200D01*
X46095238Y-98407200D02*
X46047619Y-98359580D01*
X101454819Y-78642857D02*
X100978628Y-78976190D01*
X101454819Y-79214285D02*
X100454819Y-79214285D01*
X100454819Y-79214285D02*
X100454819Y-78833333D01*
X100454819Y-78833333D02*
X100502438Y-78738095D01*
X100502438Y-78738095D02*
X100550057Y-78690476D01*
X100550057Y-78690476D02*
X100645295Y-78642857D01*
X100645295Y-78642857D02*
X100788152Y-78642857D01*
X100788152Y-78642857D02*
X100883390Y-78690476D01*
X100883390Y-78690476D02*
X100931009Y-78738095D01*
X100931009Y-78738095D02*
X100978628Y-78833333D01*
X100978628Y-78833333D02*
X100978628Y-79214285D01*
X101454819Y-77690476D02*
X101454819Y-78261904D01*
X101454819Y-77976190D02*
X100454819Y-77976190D01*
X100454819Y-77976190D02*
X100597676Y-78071428D01*
X100597676Y-78071428D02*
X100692914Y-78166666D01*
X100692914Y-78166666D02*
X100740533Y-78261904D01*
X100454819Y-77357142D02*
X100454819Y-76738095D01*
X100454819Y-76738095D02*
X100835771Y-77071428D01*
X100835771Y-77071428D02*
X100835771Y-76928571D01*
X100835771Y-76928571D02*
X100883390Y-76833333D01*
X100883390Y-76833333D02*
X100931009Y-76785714D01*
X100931009Y-76785714D02*
X101026247Y-76738095D01*
X101026247Y-76738095D02*
X101264342Y-76738095D01*
X101264342Y-76738095D02*
X101359580Y-76785714D01*
X101359580Y-76785714D02*
X101407200Y-76833333D01*
X101407200Y-76833333D02*
X101454819Y-76928571D01*
X101454819Y-76928571D02*
X101454819Y-77214285D01*
X101454819Y-77214285D02*
X101407200Y-77309523D01*
X101407200Y-77309523D02*
X101359580Y-77357142D01*
D11*
%TO.C,C5*%
X74050000Y-89850000D02*
X74050000Y-94150000D01*
X74050000Y-94150000D02*
X75950000Y-94150000D01*
X75950000Y-89850000D02*
X74050000Y-89850000D01*
X75950000Y-94150000D02*
X75950000Y-89850000D01*
%TO.C,RV1*%
X46585000Y-64235000D02*
X51415000Y-64235000D01*
X46585000Y-73765000D02*
X46585000Y-64235000D01*
X51415000Y-64235000D02*
X51415000Y-73765000D01*
X51415000Y-73765000D02*
X46585000Y-73765000D01*
%TO.C,C4*%
X71050000Y-89850000D02*
X71050000Y-94150000D01*
X71050000Y-94150000D02*
X72950000Y-94150000D01*
X72950000Y-89850000D02*
X71050000Y-89850000D01*
X72950000Y-94150000D02*
X72950000Y-89850000D01*
%TO.C,R10*%
X77750000Y-87850000D02*
X77750000Y-94150000D01*
X77750000Y-94150000D02*
X80250000Y-94150000D01*
X79000000Y-87190000D02*
X79000000Y-87850000D01*
X79000000Y-94810000D02*
X79000000Y-94150000D01*
X80250000Y-87850000D02*
X77750000Y-87850000D01*
X80250000Y-94150000D02*
X80250000Y-87850000D01*
%TO.C,R5*%
X90000000Y-50000000D02*
X90660000Y-50000000D01*
X90660000Y-48750000D02*
X90660000Y-51250000D01*
X90660000Y-51250000D02*
X96960000Y-51250000D01*
X96960000Y-48750000D02*
X90660000Y-48750000D01*
X96960000Y-51250000D02*
X96960000Y-48750000D01*
X97620000Y-50000000D02*
X96960000Y-50000000D01*
%TO.C,R8*%
X54190000Y-83000000D02*
X54850000Y-83000000D01*
X54850000Y-81750000D02*
X54850000Y-84250000D01*
X54850000Y-84250000D02*
X61150000Y-84250000D01*
X61150000Y-81750000D02*
X54850000Y-81750000D01*
X61150000Y-84250000D02*
X61150000Y-81750000D01*
X61810000Y-83000000D02*
X61150000Y-83000000D01*
%TO.C,R15*%
X70190000Y-83000000D02*
X70850000Y-83000000D01*
X70850000Y-81750000D02*
X70850000Y-84250000D01*
X70850000Y-84250000D02*
X77150000Y-84250000D01*
X77150000Y-81750000D02*
X70850000Y-81750000D01*
X77150000Y-84250000D02*
X77150000Y-81750000D01*
X77810000Y-83000000D02*
X77150000Y-83000000D01*
%TO.C,J9*%
X88730000Y-37285000D02*
X89365000Y-36650000D01*
X88730000Y-44270000D02*
X88730000Y-37285000D01*
X89365000Y-36650000D02*
X91270000Y-36650000D01*
X91270000Y-36650000D02*
X91270000Y-44270000D01*
X91270000Y-44270000D02*
X88730000Y-44270000D01*
%TO.C,R2*%
X74380000Y-56000000D02*
X75040000Y-56000000D01*
X75040000Y-54750000D02*
X75040000Y-57250000D01*
X75040000Y-57250000D02*
X81340000Y-57250000D01*
X81340000Y-54750000D02*
X75040000Y-54750000D01*
X81340000Y-57250000D02*
X81340000Y-54750000D01*
X82000000Y-56000000D02*
X81340000Y-56000000D01*
%TO.C,J1*%
X46730000Y-90730000D02*
X51810000Y-90730000D01*
X46730000Y-92635000D02*
X46730000Y-90730000D01*
X47365000Y-93270000D02*
X46730000Y-92635000D01*
X51810000Y-90730000D02*
X51810000Y-93270000D01*
X51810000Y-93270000D02*
X47365000Y-93270000D01*
%TO.C,J4*%
X58995000Y-100465000D02*
X64075000Y-100465000D01*
X58995000Y-102370000D02*
X58995000Y-100465000D01*
X59630000Y-103005000D02*
X58995000Y-102370000D01*
X64075000Y-100465000D02*
X64075000Y-103005000D01*
X64075000Y-103005000D02*
X59630000Y-103005000D01*
%TO.C,J5*%
X67730000Y-100730000D02*
X72810000Y-100730000D01*
X67730000Y-102635000D02*
X67730000Y-100730000D01*
X68365000Y-103270000D02*
X67730000Y-102635000D01*
X72810000Y-100730000D02*
X72810000Y-103270000D01*
X72810000Y-103270000D02*
X68365000Y-103270000D01*
%TO.C,R1*%
X97750000Y-67660000D02*
X97750000Y-73960000D01*
X97750000Y-73960000D02*
X100250000Y-73960000D01*
X99000000Y-67000000D02*
X99000000Y-67660000D01*
X99000000Y-74620000D02*
X99000000Y-73960000D01*
X100250000Y-67660000D02*
X97750000Y-67660000D01*
X100250000Y-73960000D02*
X100250000Y-67660000D01*
%TO.C,J10*%
X76730000Y-100730000D02*
X81810000Y-100730000D01*
X76730000Y-102635000D02*
X76730000Y-100730000D01*
X77365000Y-103270000D02*
X76730000Y-102635000D01*
X81810000Y-100730000D02*
X81810000Y-103270000D01*
X81810000Y-103270000D02*
X77365000Y-103270000D01*
%TO.C,R7*%
X64750000Y-76660000D02*
X64750000Y-82960000D01*
X64750000Y-82960000D02*
X67250000Y-82960000D01*
X66000000Y-76000000D02*
X66000000Y-76660000D01*
X66000000Y-83620000D02*
X66000000Y-82960000D01*
X67250000Y-76660000D02*
X64750000Y-76660000D01*
X67250000Y-82960000D02*
X67250000Y-76660000D01*
%TO.C,R19*%
X54380000Y-60000000D02*
X55040000Y-60000000D01*
X55040000Y-58750000D02*
X55040000Y-61250000D01*
X55040000Y-61250000D02*
X61340000Y-61250000D01*
X61340000Y-58750000D02*
X55040000Y-58750000D01*
X61340000Y-61250000D02*
X61340000Y-58750000D01*
X62000000Y-60000000D02*
X61340000Y-60000000D01*
%TO.C,R24*%
X74380000Y-60000000D02*
X75040000Y-60000000D01*
X75040000Y-58750000D02*
X75040000Y-61250000D01*
X75040000Y-61250000D02*
X81340000Y-61250000D01*
X81340000Y-58750000D02*
X75040000Y-58750000D01*
X81340000Y-61250000D02*
X81340000Y-58750000D01*
X82000000Y-60000000D02*
X81340000Y-60000000D01*
%TO.C,R12*%
X66750000Y-87850000D02*
X66750000Y-94150000D01*
X66750000Y-94150000D02*
X69250000Y-94150000D01*
X68000000Y-87190000D02*
X68000000Y-87850000D01*
X68000000Y-94810000D02*
X68000000Y-94150000D01*
X69250000Y-87850000D02*
X66750000Y-87850000D01*
X69250000Y-94150000D02*
X69250000Y-87850000D01*
%TO.C,R14*%
X97750000Y-55850000D02*
X97750000Y-62150000D01*
X97750000Y-62150000D02*
X100250000Y-62150000D01*
X99000000Y-55190000D02*
X99000000Y-55850000D01*
X99000000Y-62810000D02*
X99000000Y-62150000D01*
X100250000Y-55850000D02*
X97750000Y-55850000D01*
X100250000Y-62150000D02*
X100250000Y-55850000D01*
%TO.C,R9*%
X54380000Y-67500000D02*
X55040000Y-67500000D01*
X55040000Y-66250000D02*
X55040000Y-68750000D01*
X55040000Y-68750000D02*
X61340000Y-68750000D01*
X61340000Y-66250000D02*
X55040000Y-66250000D01*
X61340000Y-68750000D02*
X61340000Y-66250000D01*
X62000000Y-67500000D02*
X61340000Y-67500000D01*
%TO.C,R4*%
X79750000Y-64660000D02*
X79750000Y-70960000D01*
X79750000Y-70960000D02*
X82250000Y-70960000D01*
X81000000Y-64000000D02*
X81000000Y-64660000D01*
X81000000Y-71620000D02*
X81000000Y-70960000D01*
X82250000Y-64660000D02*
X79750000Y-64660000D01*
X82250000Y-70960000D02*
X82250000Y-64660000D01*
%TO.C,R18*%
X54380000Y-56000000D02*
X55040000Y-56000000D01*
X55040000Y-54750000D02*
X55040000Y-57250000D01*
X55040000Y-57250000D02*
X61340000Y-57250000D01*
X61340000Y-54750000D02*
X55040000Y-54750000D01*
X61340000Y-57250000D02*
X61340000Y-54750000D01*
X62000000Y-56000000D02*
X61340000Y-56000000D01*
%TO.C,U2*%
X85930000Y-78045000D02*
X85930000Y-95945000D01*
X85930000Y-95945000D02*
X96090000Y-95945000D01*
X87835000Y-79105000D02*
X88835000Y-78105000D01*
X87835000Y-95885000D02*
X87835000Y-79105000D01*
X88835000Y-78105000D02*
X94185000Y-78105000D01*
X94185000Y-78105000D02*
X94185000Y-95885000D01*
X94185000Y-95885000D02*
X87835000Y-95885000D01*
X96090000Y-78045000D02*
X85930000Y-78045000D01*
X96090000Y-95945000D02*
X96090000Y-78045000D01*
%TO.C,R17*%
X54190000Y-79000000D02*
X54850000Y-79000000D01*
X54850000Y-77750000D02*
X54850000Y-80250000D01*
X54850000Y-80250000D02*
X61150000Y-80250000D01*
X61150000Y-77750000D02*
X54850000Y-77750000D01*
X61150000Y-80250000D02*
X61150000Y-77750000D01*
X61810000Y-79000000D02*
X61150000Y-79000000D01*
%TO.C,R19*%
X54190000Y-71000000D02*
X54850000Y-71000000D01*
X54850000Y-69750000D02*
X54850000Y-72250000D01*
X54850000Y-72250000D02*
X61150000Y-72250000D01*
X61150000Y-69750000D02*
X54850000Y-69750000D01*
X61150000Y-72250000D02*
X61150000Y-69750000D01*
X61810000Y-71000000D02*
X61150000Y-71000000D01*
%TO.C,RV3*%
X65185000Y-47840000D02*
X65185000Y-52340000D01*
X65185000Y-52340000D02*
X71895000Y-52340000D01*
X70675000Y-51952000D02*
X70676000Y-50189000D01*
X70675000Y-51952000D02*
X70676000Y-50189000D01*
X71895000Y-47840000D02*
X65185000Y-47840000D01*
X71895000Y-52340000D02*
X71895000Y-47840000D01*
X71565000Y-51070000D02*
G75*
G02*
X69785000Y-51070000I-890000J0D01*
G01*
X69785000Y-51070000D02*
G75*
G02*
X71565000Y-51070000I890000J0D01*
G01*
%TO.C,R3*%
X64380000Y-56000000D02*
X65040000Y-56000000D01*
X65040000Y-54750000D02*
X65040000Y-57250000D01*
X65040000Y-57250000D02*
X71340000Y-57250000D01*
X71340000Y-54750000D02*
X65040000Y-54750000D01*
X71340000Y-57250000D02*
X71340000Y-54750000D01*
X72000000Y-56000000D02*
X71340000Y-56000000D01*
%TO.C,R16*%
X54380000Y-52000000D02*
X55040000Y-52000000D01*
X55040000Y-50750000D02*
X55040000Y-53250000D01*
X55040000Y-53250000D02*
X61340000Y-53250000D01*
X61340000Y-50750000D02*
X55040000Y-50750000D01*
X61340000Y-53250000D02*
X61340000Y-50750000D01*
X62000000Y-52000000D02*
X61340000Y-52000000D01*
%TO.C,C3*%
X58850000Y-92050000D02*
X58850000Y-93950000D01*
X58850000Y-93950000D02*
X63150000Y-93950000D01*
X63150000Y-92050000D02*
X58850000Y-92050000D01*
X63150000Y-93950000D02*
X63150000Y-92050000D01*
%TO.C,R23*%
X64380000Y-60000000D02*
X65040000Y-60000000D01*
X65040000Y-58750000D02*
X65040000Y-61250000D01*
X65040000Y-61250000D02*
X71340000Y-61250000D01*
X71340000Y-58750000D02*
X65040000Y-58750000D01*
X71340000Y-61250000D02*
X71340000Y-58750000D01*
X72000000Y-60000000D02*
X71340000Y-60000000D01*
%TO.C,J8*%
X46190000Y-50730000D02*
X51270000Y-50730000D01*
X46190000Y-52635000D02*
X46190000Y-50730000D01*
X46825000Y-53270000D02*
X46190000Y-52635000D01*
X51270000Y-50730000D02*
X51270000Y-53270000D01*
X51270000Y-53270000D02*
X46825000Y-53270000D01*
%TO.C,R22*%
X75750000Y-64660000D02*
X75750000Y-70960000D01*
X75750000Y-70960000D02*
X78250000Y-70960000D01*
X77000000Y-64000000D02*
X77000000Y-64660000D01*
X77000000Y-71620000D02*
X77000000Y-70960000D01*
X78250000Y-64660000D02*
X75750000Y-64660000D01*
X78250000Y-70960000D02*
X78250000Y-64660000D01*
%TO.C,C2*%
X58850000Y-88050000D02*
X58850000Y-89950000D01*
X58850000Y-89950000D02*
X63150000Y-89950000D01*
X63150000Y-88050000D02*
X58850000Y-88050000D01*
X63150000Y-89950000D02*
X63150000Y-88050000D01*
%TO.C,RV2*%
X46585000Y-77775000D02*
X51415000Y-77775000D01*
X46585000Y-87305000D02*
X46585000Y-77775000D01*
X51415000Y-77775000D02*
X51415000Y-87305000D01*
X51415000Y-87305000D02*
X46585000Y-87305000D01*
%TO.C,J6*%
X54730000Y-37365000D02*
X55365000Y-36730000D01*
X54730000Y-44350000D02*
X54730000Y-37365000D01*
X55365000Y-36730000D02*
X57270000Y-36730000D01*
X57270000Y-36730000D02*
X57270000Y-44350000D01*
X57270000Y-44350000D02*
X54730000Y-44350000D01*
%TO.C,R6*%
X79190000Y-50000000D02*
X79850000Y-50000000D01*
X79850000Y-48750000D02*
X79850000Y-51250000D01*
X79850000Y-51250000D02*
X86150000Y-51250000D01*
X86150000Y-48750000D02*
X79850000Y-48750000D01*
X86150000Y-51250000D02*
X86150000Y-48750000D01*
X86810000Y-50000000D02*
X86150000Y-50000000D01*
%TO.C,U1*%
X85930000Y-54770000D02*
X85930000Y-75210000D01*
X85930000Y-75210000D02*
X96090000Y-75210000D01*
X87835000Y-55830000D02*
X88835000Y-54830000D01*
X87835000Y-75150000D02*
X87835000Y-55830000D01*
X88835000Y-54830000D02*
X94185000Y-54830000D01*
X94185000Y-54830000D02*
X94185000Y-75150000D01*
X94185000Y-75150000D02*
X87835000Y-75150000D01*
X96090000Y-54770000D02*
X85930000Y-54770000D01*
X96090000Y-75210000D02*
X96090000Y-54770000D01*
%TO.C,R25*%
X54190000Y-75000000D02*
X54850000Y-75000000D01*
X54850000Y-73750000D02*
X54850000Y-76250000D01*
X54850000Y-76250000D02*
X61150000Y-76250000D01*
X61150000Y-73750000D02*
X54850000Y-73750000D01*
X61150000Y-76250000D02*
X61150000Y-73750000D01*
X61810000Y-75000000D02*
X61150000Y-75000000D01*
%TO.C,J2*%
X59120000Y-34280000D02*
X87100000Y-34280000D01*
X59120000Y-42180000D02*
X59120000Y-34280000D01*
X60120000Y-43180000D02*
X59120000Y-42180000D01*
X60310000Y-35480000D02*
X85910000Y-35480000D01*
X60310000Y-41980000D02*
X60310000Y-35480000D01*
X71060000Y-41980000D02*
X60310000Y-41980000D01*
X71060000Y-43180000D02*
X71060000Y-41980000D01*
X75160000Y-41980000D02*
X75160000Y-41980000D01*
X75160000Y-41980000D02*
X75160000Y-43180000D01*
X85910000Y-35480000D02*
X85910000Y-41980000D01*
X85910000Y-41980000D02*
X75160000Y-41980000D01*
X87100000Y-34280000D02*
X87100000Y-43180000D01*
X87100000Y-43180000D02*
X60120000Y-43180000D01*
%TO.C,C1*%
X69750000Y-75500000D02*
X69750000Y-80500000D01*
X69750000Y-80500000D02*
X84250000Y-80500000D01*
X84250000Y-75500000D02*
X69750000Y-75500000D01*
X84250000Y-80500000D02*
X84250000Y-75500000D01*
%TO.C,R18*%
X54380000Y-64000000D02*
X55040000Y-64000000D01*
X55040000Y-62750000D02*
X55040000Y-65250000D01*
X55040000Y-65250000D02*
X61340000Y-65250000D01*
X61340000Y-62750000D02*
X55040000Y-62750000D01*
X61340000Y-65250000D02*
X61340000Y-62750000D01*
X62000000Y-64000000D02*
X61340000Y-64000000D01*
%TO.C,J7*%
X46190000Y-57730000D02*
X51270000Y-57730000D01*
X46190000Y-59635000D02*
X46190000Y-57730000D01*
X46825000Y-60270000D02*
X46190000Y-59635000D01*
X51270000Y-57730000D02*
X51270000Y-60270000D01*
X51270000Y-60270000D02*
X46825000Y-60270000D01*
%TO.C,U3*%
X63930000Y-64050000D02*
X63930000Y-74330000D01*
X63930000Y-74330000D02*
X74090000Y-74330000D01*
X65835000Y-65110000D02*
X66835000Y-64110000D01*
X65835000Y-74270000D02*
X65835000Y-65110000D01*
X66835000Y-64110000D02*
X72185000Y-64110000D01*
X72185000Y-64110000D02*
X72185000Y-74270000D01*
X72185000Y-74270000D02*
X65835000Y-74270000D01*
X74090000Y-64050000D02*
X63930000Y-64050000D01*
X74090000Y-74330000D02*
X74090000Y-64050000D01*
%TO.C,R11*%
X81560000Y-87850000D02*
X81560000Y-94150000D01*
X81560000Y-94150000D02*
X84060000Y-94150000D01*
X82810000Y-87190000D02*
X82810000Y-87850000D01*
X82810000Y-94810000D02*
X82810000Y-94150000D01*
X84060000Y-87850000D02*
X81560000Y-87850000D01*
X84060000Y-94150000D02*
X84060000Y-87850000D01*
%TO.C,J3*%
X46730000Y-96730000D02*
X51810000Y-96730000D01*
X46730000Y-98635000D02*
X46730000Y-96730000D01*
X47365000Y-99270000D02*
X46730000Y-98635000D01*
X51810000Y-96730000D02*
X51810000Y-99270000D01*
X51810000Y-99270000D02*
X47365000Y-99270000D01*
%TO.C,R13*%
X97750000Y-77850000D02*
X97750000Y-84150000D01*
X97750000Y-84150000D02*
X100250000Y-84150000D01*
X99000000Y-77190000D02*
X99000000Y-77850000D01*
X99000000Y-84810000D02*
X99000000Y-84150000D01*
X100250000Y-77850000D02*
X97750000Y-77850000D01*
X100250000Y-84150000D02*
X100250000Y-77850000D01*
%TD*%
M02*
