%TF.GenerationSoftware,KiCad,Pcbnew,8.0.0*%
%TF.CreationDate,2024-03-09T23:27:06+01:00*%
%TF.ProjectId,Pure VCO,50757265-2056-4434-9f2e-6b696361645f,rev?*%
%TF.SameCoordinates,Original*%
%TF.FileFunction,Copper,L2,Bot*%
%TF.FilePolarity,Positive*%
%FSLAX46Y46*%
G04 Gerber Fmt 4.6, Leading zero omitted, Abs format (unit mm)*
G04 Created by KiCad (PCBNEW 8.0.0) date 2024-03-09 23:27:06*
%MOMM*%
%LPD*%
G01*
G04 APERTURE LIST*
G04 Aperture macros list*
%AMRoundRect*
0 Rectangle with rounded corners*
0 $1 Rounding radius*
0 $2 $3 $4 $5 $6 $7 $8 $9 X,Y pos of 4 corners*
0 Add a 4 corners polygon primitive as box body*
4,1,4,$2,$3,$4,$5,$6,$7,$8,$9,$2,$3,0*
0 Add four circle primitives for the rounded corners*
1,1,$1+$1,$2,$3*
1,1,$1+$1,$4,$5*
1,1,$1+$1,$6,$7*
1,1,$1+$1,$8,$9*
0 Add four rect primitives between the rounded corners*
20,1,$1+$1,$2,$3,$4,$5,0*
20,1,$1+$1,$4,$5,$6,$7,0*
20,1,$1+$1,$6,$7,$8,$9,0*
20,1,$1+$1,$8,$9,$2,$3,0*%
G04 Aperture macros list end*
%TA.AperFunction,ComponentPad*%
%ADD10C,1.600000*%
%TD*%
%TA.AperFunction,ComponentPad*%
%ADD11C,1.440000*%
%TD*%
%TA.AperFunction,ComponentPad*%
%ADD12O,1.600000X1.600000*%
%TD*%
%TA.AperFunction,ComponentPad*%
%ADD13R,1.700000X1.700000*%
%TD*%
%TA.AperFunction,ComponentPad*%
%ADD14O,1.700000X1.700000*%
%TD*%
%TA.AperFunction,ComponentPad*%
%ADD15R,1.600000X1.600000*%
%TD*%
%TA.AperFunction,ComponentPad*%
%ADD16RoundRect,0.250000X0.600000X-0.600000X0.600000X0.600000X-0.600000X0.600000X-0.600000X-0.600000X0*%
%TD*%
%TA.AperFunction,ComponentPad*%
%ADD17C,1.700000*%
%TD*%
%TA.AperFunction,ComponentPad*%
%ADD18C,2.000000*%
%TD*%
%TA.AperFunction,ViaPad*%
%ADD19C,0.600000*%
%TD*%
%TA.AperFunction,Conductor*%
%ADD20C,0.200000*%
%TD*%
G04 APERTURE END LIST*
D10*
%TO.P,C5,1*%
%TO.N,GND*%
X75000000Y-89500000D03*
%TO.P,C5,2*%
%TO.N,Net-(C5-Pad2)*%
X75000000Y-94500000D03*
%TD*%
D11*
%TO.P,RV1,1,1*%
%TO.N,GND*%
X49000000Y-66460000D03*
%TO.P,RV1,2,2*%
%TO.N,Net-(R9-Pad1)*%
X49000000Y-69000000D03*
%TO.P,RV1,3,3*%
%TO.N,+12V*%
X49000000Y-71540000D03*
%TD*%
D10*
%TO.P,C4,1*%
%TO.N,GND*%
X72000000Y-89500000D03*
%TO.P,C4,2*%
%TO.N,Net-(C4-Pad2)*%
X72000000Y-94500000D03*
%TD*%
%TO.P,R10,1*%
%TO.N,GND*%
X79000000Y-94810000D03*
D12*
%TO.P,R10,2*%
%TO.N,Net-(U2C--)*%
X79000000Y-87190000D03*
%TD*%
D10*
%TO.P,R5,1*%
%TO.N,Net-(R5-Pad1)*%
X90000000Y-50000000D03*
D12*
%TO.P,R5,2*%
%TO.N,Net-(U1-VLFI)*%
X97620000Y-50000000D03*
%TD*%
D10*
%TO.P,R8,1*%
%TO.N,Net-(U2A-+)*%
X61810000Y-83000000D03*
D12*
%TO.P,R8,2*%
%TO.N,GND*%
X54190000Y-83000000D03*
%TD*%
D10*
%TO.P,R15,1*%
%TO.N,Net-(C5-Pad2)*%
X77810000Y-83000000D03*
D12*
%TO.P,R15,2*%
%TO.N,Net-(U1-VFCI)*%
X70190000Y-83000000D03*
%TD*%
D13*
%TO.P,J9,1,Pin_1*%
%TO.N,Net-(J9-Pin_1)*%
X90000000Y-37920000D03*
D14*
%TO.P,J9,2,Pin_2*%
%TO.N,Net-(J9-Pin_2)*%
X90000000Y-40460000D03*
%TO.P,J9,3,Pin_3*%
%TO.N,Net-(J9-Pin_3)*%
X90000000Y-43000000D03*
%TD*%
D10*
%TO.P,R2,1*%
%TO.N,Net-(U1-SCALE1)*%
X74380000Y-56000000D03*
D12*
%TO.P,R2,2*%
%TO.N,Net-(R2-Pad2)*%
X82000000Y-56000000D03*
%TD*%
D13*
%TO.P,J1,1,Pin_1*%
%TO.N,GND*%
X48000000Y-92000000D03*
D14*
%TO.P,J1,2,Pin_2*%
%TO.N,Net-(J1-Pin_2)*%
X50540000Y-92000000D03*
%TD*%
D13*
%TO.P,J4,1,Pin_1*%
%TO.N,GND*%
X60265000Y-101735000D03*
D14*
%TO.P,J4,2,Pin_2*%
%TO.N,Net-(J4-Pin_2)*%
X62805000Y-101735000D03*
%TD*%
D13*
%TO.P,J5,1,Pin_1*%
%TO.N,GND*%
X69000000Y-102000000D03*
D14*
%TO.P,J5,2,Pin_2*%
%TO.N,Net-(J5-Pin_2)*%
X71540000Y-102000000D03*
%TD*%
D10*
%TO.P,R1,1*%
%TO.N,GND*%
X99000000Y-74620000D03*
D12*
%TO.P,R1,2*%
%TO.N,Net-(U1-VHFT)*%
X99000000Y-67000000D03*
%TD*%
D13*
%TO.P,J10,1,Pin_1*%
%TO.N,GND*%
X78000000Y-102000000D03*
D14*
%TO.P,J10,2,Pin_2*%
%TO.N,Net-(J10-Pin_2)*%
X80540000Y-102000000D03*
%TD*%
D10*
%TO.P,R7,1*%
%TO.N,Net-(J9-Pin_3)*%
X66000000Y-76000000D03*
D12*
%TO.P,R7,2*%
%TO.N,Net-(U2A-+)*%
X66000000Y-83620000D03*
%TD*%
D10*
%TO.P,R19,1*%
%TO.N,Net-(R18-Pad2)*%
X62000000Y-60000000D03*
D12*
%TO.P,R19,2*%
%TO.N,GND*%
X54380000Y-60000000D03*
%TD*%
D10*
%TO.P,R24,1*%
%TO.N,Net-(R22-Pad2)*%
X74380000Y-60000000D03*
D12*
%TO.P,R24,2*%
%TO.N,Net-(U1-VPWM)*%
X82000000Y-60000000D03*
%TD*%
D10*
%TO.P,R12,1*%
%TO.N,Net-(C4-Pad2)*%
X68000000Y-94810000D03*
D12*
%TO.P,R12,2*%
%TO.N,Net-(U1-VLFI)*%
X68000000Y-87190000D03*
%TD*%
D10*
%TO.P,R14,1*%
%TO.N,Net-(U1-VFCI)*%
X99000000Y-62810000D03*
D12*
%TO.P,R14,2*%
%TO.N,+12V*%
X99000000Y-55190000D03*
%TD*%
D10*
%TO.P,R9,1*%
%TO.N,Net-(R9-Pad1)*%
X54380000Y-67500000D03*
D12*
%TO.P,R9,2*%
%TO.N,Net-(U3A--)*%
X62000000Y-67500000D03*
%TD*%
D10*
%TO.P,R4,1*%
%TO.N,Net-(U1-SCALE2)*%
X81000000Y-64000000D03*
D12*
%TO.P,R4,2*%
%TO.N,Net-(U1-VEE)*%
X81000000Y-71620000D03*
%TD*%
D10*
%TO.P,R18,1*%
%TO.N,Net-(J7-Pin_2)*%
X54380000Y-56000000D03*
D12*
%TO.P,R18,2*%
%TO.N,Net-(R18-Pad2)*%
X62000000Y-56000000D03*
%TD*%
D15*
%TO.P,U2,1*%
%TO.N,Net-(J4-Pin_2)*%
X87200000Y-79375000D03*
D12*
%TO.P,U2,2,-*%
X87200000Y-81915000D03*
%TO.P,U2,3,+*%
%TO.N,Net-(U2A-+)*%
X87200000Y-84455000D03*
%TO.P,U2,4,V+*%
%TO.N,+12V*%
X87200000Y-86995000D03*
%TO.P,U2,5,+*%
%TO.N,Net-(J9-Pin_2)*%
X87200000Y-89535000D03*
%TO.P,U2,6,-*%
%TO.N,Net-(J5-Pin_2)*%
X87200000Y-92075000D03*
%TO.P,U2,7*%
X87200000Y-94615000D03*
%TO.P,U2,8*%
%TO.N,Net-(J10-Pin_2)*%
X94820000Y-94615000D03*
%TO.P,U2,9,-*%
%TO.N,Net-(U2C--)*%
X94820000Y-92075000D03*
%TO.P,U2,10,+*%
%TO.N,Net-(J9-Pin_1)*%
X94820000Y-89535000D03*
%TO.P,U2,11,V-*%
%TO.N,-12V*%
X94820000Y-86995000D03*
%TO.P,U2,12,+*%
%TO.N,GND*%
X94820000Y-84455000D03*
%TO.P,U2,13,-*%
%TO.N,Net-(U2D--)*%
X94820000Y-81915000D03*
%TO.P,U2,14*%
X94820000Y-79375000D03*
%TD*%
D10*
%TO.P,R17,1*%
%TO.N,Net-(R17-Pad1)*%
X54190000Y-79000000D03*
D12*
%TO.P,R17,2*%
%TO.N,Net-(U1-VFCI)*%
X61810000Y-79000000D03*
%TD*%
D10*
%TO.P,R19,1*%
%TO.N,Net-(R19-Pad1)*%
X61810000Y-71000000D03*
D12*
%TO.P,R19,2*%
%TO.N,Net-(U3B--)*%
X54190000Y-71000000D03*
%TD*%
D11*
%TO.P,RV3,1,1*%
%TO.N,Net-(R2-Pad2)*%
X71080000Y-50000000D03*
%TO.P,RV3,2,2*%
%TO.N,Net-(U1-VEE)*%
X68540000Y-50000000D03*
%TO.P,RV3,3,3*%
X66000000Y-50000000D03*
%TD*%
D10*
%TO.P,R3,1*%
%TO.N,Net-(U1-VEE)*%
X72000000Y-56000000D03*
D12*
%TO.P,R3,2*%
%TO.N,-12V*%
X64380000Y-56000000D03*
%TD*%
D10*
%TO.P,R16,1*%
%TO.N,Net-(U1-VFCI)*%
X54380000Y-52000000D03*
D12*
%TO.P,R16,2*%
%TO.N,Net-(J8-Pin_2)*%
X62000000Y-52000000D03*
%TD*%
D10*
%TO.P,C3,1*%
%TO.N,Net-(J3-Pin_2)*%
X58500000Y-93000000D03*
%TO.P,C3,2*%
%TO.N,Net-(U1-VSSI)*%
X63500000Y-93000000D03*
%TD*%
%TO.P,R23,1*%
%TO.N,Net-(U3A--)*%
X72000000Y-60000000D03*
D12*
%TO.P,R23,2*%
%TO.N,Net-(R19-Pad1)*%
X64380000Y-60000000D03*
%TD*%
D13*
%TO.P,J8,1,Pin_1*%
%TO.N,GND*%
X47460000Y-52000000D03*
D14*
%TO.P,J8,2,Pin_2*%
%TO.N,Net-(J8-Pin_2)*%
X50000000Y-52000000D03*
%TD*%
D10*
%TO.P,R22,1*%
%TO.N,Net-(U3B--)*%
X77000000Y-71620000D03*
D12*
%TO.P,R22,2*%
%TO.N,Net-(R22-Pad2)*%
X77000000Y-64000000D03*
%TD*%
D10*
%TO.P,C2,1*%
%TO.N,Net-(J1-Pin_2)*%
X58500000Y-89000000D03*
%TO.P,C2,2*%
%TO.N,Net-(U1-VHSI)*%
X63500000Y-89000000D03*
%TD*%
D11*
%TO.P,RV2,1,1*%
%TO.N,GND*%
X49000000Y-85080000D03*
%TO.P,RV2,2,2*%
%TO.N,Net-(R17-Pad1)*%
X49000000Y-82540000D03*
%TO.P,RV2,3,3*%
%TO.N,+12V*%
X49000000Y-80000000D03*
%TD*%
D13*
%TO.P,J6,1,Pin_1*%
%TO.N,+12V*%
X56000000Y-38000000D03*
D14*
%TO.P,J6,2,Pin_2*%
%TO.N,GND*%
X56000000Y-40540000D03*
%TO.P,J6,3,Pin_3*%
%TO.N,-12V*%
X56000000Y-43080000D03*
%TD*%
D10*
%TO.P,R6,1*%
%TO.N,+12V*%
X79190000Y-50000000D03*
D12*
%TO.P,R6,2*%
%TO.N,Net-(R5-Pad1)*%
X86810000Y-50000000D03*
%TD*%
D15*
%TO.P,U1,1,SCALE1*%
%TO.N,Net-(U1-SCALE1)*%
X87200000Y-56100000D03*
D12*
%TO.P,U1,2,SCALE2*%
%TO.N,Net-(U1-SCALE2)*%
X87200000Y-58640000D03*
%TO.P,U1,3,VEE*%
%TO.N,Net-(U1-VEE)*%
X87200000Y-61180000D03*
%TO.P,U1,4,VP*%
%TO.N,Net-(J9-Pin_3)*%
X87200000Y-63720000D03*
%TO.P,U1,5,VPWM*%
%TO.N,Net-(U1-VPWM)*%
X87200000Y-66260000D03*
%TO.P,U1,6,VHSI*%
%TO.N,Net-(U1-VHSI)*%
X87200000Y-68800000D03*
%TO.P,U1,7,VHFT*%
%TO.N,Net-(U1-VHFT)*%
X87200000Y-71340000D03*
%TO.P,U1,8,VSO*%
%TO.N,Net-(J9-Pin_2)*%
X87200000Y-73880000D03*
%TO.P,U1,9,VSSI*%
%TO.N,Net-(U1-VSSI)*%
X94820000Y-73880000D03*
%TO.P,U1,10,VTO*%
%TO.N,Net-(J9-Pin_1)*%
X94820000Y-71340000D03*
%TO.P,U1,11,CAP*%
%TO.N,Net-(U1-CAP)*%
X94820000Y-68800000D03*
%TO.P,U1,12,GND*%
%TO.N,GND*%
X94820000Y-66260000D03*
%TO.P,U1,13,VLFI*%
%TO.N,Net-(U1-VLFI)*%
X94820000Y-63720000D03*
%TO.P,U1,14,VS*%
%TO.N,Net-(U1-VS)*%
X94820000Y-61180000D03*
%TO.P,U1,15,VFCI*%
%TO.N,Net-(U1-VFCI)*%
X94820000Y-58640000D03*
%TO.P,U1,16,VCC*%
%TO.N,+12V*%
X94820000Y-56100000D03*
%TD*%
D10*
%TO.P,R25,1*%
%TO.N,Net-(U1-VPWM)*%
X61810000Y-75000000D03*
D12*
%TO.P,R25,2*%
%TO.N,GND*%
X54190000Y-75000000D03*
%TD*%
D16*
%TO.P,J2,1,Pin_1*%
%TO.N,-12V*%
X64220000Y-40000000D03*
D17*
%TO.P,J2,2,Pin_2*%
X64220000Y-37460000D03*
%TO.P,J2,3,Pin_3*%
%TO.N,GND*%
X66760000Y-40000000D03*
%TO.P,J2,4,Pin_4*%
X66760000Y-37460000D03*
%TO.P,J2,5,Pin_5*%
X69300000Y-40000000D03*
%TO.P,J2,6,Pin_6*%
X69300000Y-37460000D03*
%TO.P,J2,7,Pin_7*%
X71840000Y-40000000D03*
%TO.P,J2,8,Pin_8*%
X71840000Y-37460000D03*
%TO.P,J2,9,Pin_9*%
%TO.N,Net-(J2-Pin_10)*%
X74380000Y-40000000D03*
%TO.P,J2,10,Pin_10*%
X74380000Y-37460000D03*
%TO.P,J2,11,Pin_11*%
%TO.N,+12V*%
X76920000Y-40000000D03*
%TO.P,J2,12,Pin_12*%
X76920000Y-37460000D03*
%TO.P,J2,13,Pin_13*%
%TO.N,Net-(J2-Pin_13)*%
X79460000Y-40000000D03*
%TO.P,J2,14,Pin_14*%
X79460000Y-37460000D03*
%TO.P,J2,15,Pin_15*%
%TO.N,Net-(J2-Pin_15)*%
X82000000Y-40000000D03*
%TO.P,J2,16,Pin_16*%
X82000000Y-37460000D03*
%TD*%
D18*
%TO.P,C1,1*%
%TO.N,GND*%
X72000000Y-78000000D03*
%TO.P,C1,2*%
%TO.N,Net-(U1-CAP)*%
X82000000Y-78000000D03*
%TD*%
D10*
%TO.P,R18,1*%
%TO.N,Net-(U3A--)*%
X62000000Y-64000000D03*
D12*
%TO.P,R18,2*%
%TO.N,Net-(J7-Pin_2)*%
X54380000Y-64000000D03*
%TD*%
D13*
%TO.P,J7,1,Pin_1*%
%TO.N,GND*%
X47460000Y-59000000D03*
D14*
%TO.P,J7,2,Pin_2*%
%TO.N,Net-(J7-Pin_2)*%
X50000000Y-59000000D03*
%TD*%
D15*
%TO.P,U3,1*%
%TO.N,Net-(R19-Pad1)*%
X65200000Y-65380000D03*
D12*
%TO.P,U3,2,-*%
%TO.N,Net-(U3A--)*%
X65200000Y-67920000D03*
%TO.P,U3,3,+*%
%TO.N,GND*%
X65200000Y-70460000D03*
%TO.P,U3,4,V-*%
%TO.N,-12V*%
X65200000Y-73000000D03*
%TO.P,U3,5,+*%
%TO.N,GND*%
X72820000Y-73000000D03*
%TO.P,U3,6,-*%
%TO.N,Net-(U3B--)*%
X72820000Y-70460000D03*
%TO.P,U3,7*%
%TO.N,Net-(R22-Pad2)*%
X72820000Y-67920000D03*
%TO.P,U3,8,V+*%
%TO.N,+12V*%
X72820000Y-65380000D03*
%TD*%
D10*
%TO.P,R11,1*%
%TO.N,Net-(U2C--)*%
X82810000Y-87190000D03*
D12*
%TO.P,R11,2*%
%TO.N,Net-(J10-Pin_2)*%
X82810000Y-94810000D03*
%TD*%
D13*
%TO.P,J3,1,Pin_1*%
%TO.N,GND*%
X48000000Y-98000000D03*
D14*
%TO.P,J3,2,Pin_2*%
%TO.N,Net-(J3-Pin_2)*%
X50540000Y-98000000D03*
%TD*%
D10*
%TO.P,R13,1*%
%TO.N,GND*%
X99000000Y-77190000D03*
D12*
%TO.P,R13,2*%
%TO.N,Net-(U1-VS)*%
X99000000Y-84810000D03*
%TD*%
D19*
%TO.N,GND*%
X97000000Y-76000000D03*
X97000000Y-65000000D03*
%TO.N,-12V*%
X66000000Y-98000000D03*
X83000000Y-98000000D03*
%TO.N,Net-(J9-Pin_1)*%
X99000000Y-60000000D03*
%TO.N,Net-(J9-Pin_2)*%
X90000000Y-59000000D03*
X92000000Y-66000000D03*
%TO.N,Net-(U1-VHFT)*%
X90000000Y-72000000D03*
X97000000Y-73000000D03*
%TD*%
D20*
%TO.N,Net-(U1-CAP)*%
X89200000Y-68800000D02*
X88300000Y-69700000D01*
X94820000Y-68800000D02*
X89200000Y-68800000D01*
X84000000Y-78000000D02*
X82000000Y-78000000D01*
X87020000Y-74980000D02*
X84000000Y-78000000D01*
X88300000Y-74335635D02*
X87655635Y-74980000D01*
X88300000Y-69700000D02*
X88300000Y-74335635D01*
X87655635Y-74980000D02*
X87020000Y-74980000D01*
%TO.N,GND*%
X97000000Y-76000000D02*
X97620000Y-76000000D01*
X97620000Y-76000000D02*
X99000000Y-74620000D01*
X97000000Y-65000000D02*
X96080000Y-65000000D01*
X96080000Y-65000000D02*
X94820000Y-66260000D01*
%TO.N,Net-(U1-VHSI)*%
X87200000Y-68800000D02*
X70000000Y-86000000D01*
X66500000Y-86000000D02*
X63500000Y-89000000D01*
X70000000Y-86000000D02*
X66500000Y-86000000D01*
%TO.N,Net-(U1-VSSI)*%
X87620000Y-75380000D02*
X74600000Y-88400000D01*
X88700000Y-74501321D02*
X87821321Y-75380000D01*
X66600000Y-88400000D02*
X63500000Y-91500000D01*
X87821321Y-75380000D02*
X87620000Y-75380000D01*
X94820000Y-73880000D02*
X89120000Y-73880000D01*
X89120000Y-73880000D02*
X88700000Y-74300000D01*
X88700000Y-74300000D02*
X88700000Y-74501321D01*
X63500000Y-91500000D02*
X63500000Y-93000000D01*
X74600000Y-88400000D02*
X66600000Y-88400000D01*
%TO.N,Net-(U1-VEE)*%
X77180000Y-61180000D02*
X87200000Y-61180000D01*
X72000000Y-56000000D02*
X77180000Y-61180000D01*
%TO.N,-12V*%
X66300000Y-71900000D02*
X65200000Y-73000000D01*
X54380000Y-66000000D02*
X53442498Y-66000000D01*
X64380000Y-40160000D02*
X64220000Y-40000000D01*
X64744365Y-69360000D02*
X65655635Y-69360000D01*
X47980000Y-71020000D02*
X47980000Y-71980000D01*
X53442498Y-66000000D02*
X49422498Y-70020000D01*
X66000000Y-98000000D02*
X67000000Y-98000000D01*
X64100000Y-70004365D02*
X64744365Y-69360000D01*
X48560000Y-72560000D02*
X62624365Y-72560000D01*
X64380000Y-56000000D02*
X64380000Y-40160000D01*
X48980000Y-70020000D02*
X47980000Y-71020000D01*
X64100000Y-71084365D02*
X64100000Y-70004365D01*
X56000000Y-43080000D02*
X59080000Y-40000000D01*
X67000000Y-98000000D02*
X83000000Y-98000000D01*
X59080000Y-40000000D02*
X64220000Y-40000000D01*
X62624365Y-72560000D02*
X64100000Y-71084365D01*
X47980000Y-71980000D02*
X48560000Y-72560000D01*
X65655635Y-69360000D02*
X66300000Y-70004365D01*
X49422498Y-70020000D02*
X48980000Y-70020000D01*
X66300000Y-70004365D02*
X66300000Y-71900000D01*
X64380000Y-56000000D02*
X54380000Y-66000000D01*
%TO.N,Net-(R5-Pad1)*%
X86810000Y-50000000D02*
X90000000Y-50000000D01*
%TO.N,+12V*%
X69000000Y-56000000D02*
X69000000Y-63000000D01*
X87200000Y-86995000D02*
X93000000Y-81195000D01*
X99000000Y-59400000D02*
X99000000Y-55190000D01*
X98544365Y-68100000D02*
X97900000Y-67455635D01*
X72820000Y-65380000D02*
X71200000Y-67000000D01*
X69000000Y-63000000D02*
X71380000Y-65380000D01*
X91354365Y-56100000D02*
X85254365Y-50000000D01*
X59000000Y-35000000D02*
X74460000Y-35000000D01*
X62455635Y-66400000D02*
X53924365Y-66400000D01*
X75058630Y-53000000D02*
X72000000Y-53000000D01*
X56000000Y-38000000D02*
X59000000Y-35000000D01*
X93000000Y-81195000D02*
X93000000Y-79000000D01*
X53924365Y-66400000D02*
X49000000Y-71324365D01*
X74460000Y-35000000D02*
X76920000Y-37460000D01*
X97900000Y-60251471D02*
X98751471Y-59400000D01*
X97900000Y-67455635D02*
X97900000Y-60251471D01*
X71380000Y-65380000D02*
X72820000Y-65380000D01*
X65655635Y-66820000D02*
X62875635Y-66820000D01*
X99000000Y-73000000D02*
X99000000Y-68100000D01*
X98090000Y-56100000D02*
X94820000Y-56100000D01*
X94820000Y-56100000D02*
X91354365Y-56100000D01*
X72000000Y-53000000D02*
X69000000Y-56000000D01*
X71200000Y-67000000D02*
X65835635Y-67000000D01*
X99000000Y-68100000D02*
X98544365Y-68100000D01*
X99000000Y-55190000D02*
X98090000Y-56100000D01*
X85254365Y-50000000D02*
X79190000Y-50000000D01*
X49000000Y-71324365D02*
X49000000Y-71540000D01*
X93000000Y-79000000D02*
X99000000Y-73000000D01*
X62875635Y-66820000D02*
X62455635Y-66400000D01*
X98751471Y-59400000D02*
X99000000Y-59400000D01*
X78058630Y-50000000D02*
X75058630Y-53000000D01*
X79190000Y-50000000D02*
X78058630Y-50000000D01*
X65835635Y-67000000D02*
X65655635Y-66820000D01*
%TO.N,Net-(U2A-+)*%
X92600000Y-78834314D02*
X92600000Y-80400000D01*
X62430000Y-83620000D02*
X61810000Y-83000000D01*
X95275635Y-67700000D02*
X98600000Y-71024365D01*
X86744365Y-67700000D02*
X95275635Y-67700000D01*
X98600000Y-72834314D02*
X92600000Y-78834314D01*
X92600000Y-80400000D02*
X88545000Y-84455000D01*
X66000000Y-83620000D02*
X68620000Y-81000000D01*
X98600000Y-71024365D02*
X98600000Y-72834314D01*
X68620000Y-81000000D02*
X73444365Y-81000000D01*
X66000000Y-83620000D02*
X62430000Y-83620000D01*
X88545000Y-84455000D02*
X87200000Y-84455000D01*
X73444365Y-81000000D02*
X86744365Y-67700000D01*
%TO.N,Net-(J9-Pin_3)*%
X74000000Y-76000000D02*
X66000000Y-76000000D01*
X77920000Y-73000000D02*
X77000000Y-73000000D01*
X77000000Y-73000000D02*
X74000000Y-76000000D01*
X87200000Y-63720000D02*
X77920000Y-73000000D01*
%TO.N,Net-(U2C--)*%
X86000000Y-87435000D02*
X87000000Y-88435000D01*
X91180000Y-88435000D02*
X94820000Y-92075000D01*
X86100000Y-78275000D02*
X88300000Y-78275000D01*
X87000000Y-88435000D02*
X91180000Y-88435000D01*
X82810000Y-87190000D02*
X82810000Y-81565000D01*
X86759023Y-83340343D02*
X86000000Y-84099366D01*
X82810000Y-81565000D02*
X86100000Y-78275000D01*
X87330292Y-83340343D02*
X86759023Y-83340343D01*
X88300000Y-78275000D02*
X88300000Y-82370635D01*
X88300000Y-82370635D02*
X87330292Y-83340343D01*
X86000000Y-84099366D02*
X86000000Y-87435000D01*
%TO.N,Net-(U1-VFCI)*%
X46310000Y-70875685D02*
X53334315Y-77900000D01*
X61030000Y-84720000D02*
X68470000Y-84720000D01*
X51150000Y-52000000D02*
X51150000Y-52476346D01*
X48850000Y-53150000D02*
X45000000Y-57000000D01*
X50476346Y-53150000D02*
X48850000Y-53150000D01*
X61810000Y-79000000D02*
X60710000Y-80100000D01*
X68470000Y-84720000D02*
X70190000Y-83000000D01*
X46310000Y-62310000D02*
X46310000Y-70875685D01*
X45000000Y-61000000D02*
X46310000Y-62310000D01*
X60710000Y-84400000D02*
X61030000Y-84720000D01*
X53334315Y-77900000D02*
X60710000Y-77900000D01*
X54380000Y-52000000D02*
X51150000Y-52000000D01*
X60710000Y-77900000D02*
X61810000Y-79000000D01*
X60710000Y-80100000D02*
X60710000Y-84400000D01*
X45000000Y-57000000D02*
X45000000Y-61000000D01*
X51150000Y-52476346D02*
X50476346Y-53150000D01*
%TO.N,Net-(U1-VPWM)*%
X74424365Y-69020000D02*
X81164365Y-62280000D01*
X89000000Y-64460000D02*
X87200000Y-66260000D01*
X87575635Y-60000000D02*
X89000000Y-61424365D01*
X87575635Y-60000000D02*
X82000000Y-60000000D01*
X88300000Y-61635635D02*
X88300000Y-60724365D01*
X87655635Y-62280000D02*
X88300000Y-61635635D01*
X81164365Y-62280000D02*
X87655635Y-62280000D01*
X64755635Y-75000000D02*
X70735635Y-69020000D01*
X61810000Y-75000000D02*
X64755635Y-75000000D01*
X70735635Y-69020000D02*
X74424365Y-69020000D01*
X88300000Y-60724365D02*
X87575635Y-60000000D01*
X89000000Y-61424365D02*
X89000000Y-64460000D01*
%TO.N,Net-(J9-Pin_1)*%
X98465000Y-89535000D02*
X94820000Y-89535000D01*
X100100000Y-85265635D02*
X99000000Y-86365635D01*
X100100000Y-61100000D02*
X100100000Y-85265635D01*
X99000000Y-86365635D02*
X99000000Y-89000000D01*
X99000000Y-89000000D02*
X98465000Y-89535000D01*
X99000000Y-60000000D02*
X100100000Y-61100000D01*
%TO.N,Net-(J9-Pin_2)*%
X89700000Y-59300000D02*
X89700000Y-63700000D01*
X89700000Y-63700000D02*
X92000000Y-66000000D01*
X90000000Y-59000000D02*
X89700000Y-59300000D01*
%TO.N,Net-(J4-Pin_2)*%
X85000000Y-99000000D02*
X85000000Y-84115000D01*
X62805000Y-101735000D02*
X63690000Y-100850000D01*
X87200000Y-79375000D02*
X87200000Y-81915000D01*
X85000000Y-84115000D02*
X87200000Y-81915000D01*
X63690000Y-100850000D02*
X83150000Y-100850000D01*
X83150000Y-100850000D02*
X85000000Y-99000000D01*
%TO.N,Net-(U1-VHFT)*%
X96780000Y-72780000D02*
X90780000Y-72780000D01*
X90780000Y-72780000D02*
X90000000Y-72000000D01*
X97000000Y-73000000D02*
X96780000Y-72780000D01*
%TD*%
%TA.AperFunction,Conductor*%
%TO.N,GND*%
G36*
X96943039Y-34019685D02*
G01*
X96988794Y-34072489D01*
X97000000Y-34124000D01*
X97000000Y-38000000D01*
X100876000Y-38000000D01*
X100943039Y-38019685D01*
X100988794Y-38072489D01*
X101000000Y-38124000D01*
X101000000Y-101876000D01*
X100980315Y-101943039D01*
X100927511Y-101988794D01*
X100876000Y-102000000D01*
X97000000Y-102000000D01*
X97000000Y-105876000D01*
X96980315Y-105943039D01*
X96927511Y-105988794D01*
X96876000Y-106000000D01*
X49124000Y-106000000D01*
X49056961Y-105980315D01*
X49011206Y-105927511D01*
X49000000Y-105876000D01*
X49000000Y-102000000D01*
X45124000Y-102000000D01*
X45056961Y-101980315D01*
X45011206Y-101927511D01*
X45000000Y-101876000D01*
X45000000Y-98897844D01*
X46650000Y-98897844D01*
X46656401Y-98957372D01*
X46656403Y-98957379D01*
X46706645Y-99092086D01*
X46706649Y-99092093D01*
X46792809Y-99207187D01*
X46792812Y-99207190D01*
X46907906Y-99293350D01*
X46907913Y-99293354D01*
X47042620Y-99343596D01*
X47042627Y-99343598D01*
X47102155Y-99349999D01*
X47102172Y-99350000D01*
X47750000Y-99350000D01*
X47750000Y-98433012D01*
X47807007Y-98465925D01*
X47934174Y-98500000D01*
X48065826Y-98500000D01*
X48192993Y-98465925D01*
X48250000Y-98433012D01*
X48250000Y-99350000D01*
X48897828Y-99350000D01*
X48897844Y-99349999D01*
X48957372Y-99343598D01*
X48957379Y-99343596D01*
X49092086Y-99293354D01*
X49092093Y-99293350D01*
X49207187Y-99207190D01*
X49207190Y-99207187D01*
X49293350Y-99092093D01*
X49293354Y-99092086D01*
X49342422Y-98960529D01*
X49384293Y-98904595D01*
X49449757Y-98880178D01*
X49518030Y-98895030D01*
X49546285Y-98916181D01*
X49668599Y-99038495D01*
X49745135Y-99092086D01*
X49862165Y-99174032D01*
X49862167Y-99174033D01*
X49862170Y-99174035D01*
X50076337Y-99273903D01*
X50304592Y-99335063D01*
X50475319Y-99350000D01*
X50539999Y-99355659D01*
X50540000Y-99355659D01*
X50540001Y-99355659D01*
X50604681Y-99350000D01*
X50775408Y-99335063D01*
X51003663Y-99273903D01*
X51217830Y-99174035D01*
X51411401Y-99038495D01*
X51578495Y-98871401D01*
X51714035Y-98677830D01*
X51813903Y-98463663D01*
X51875063Y-98235408D01*
X51895659Y-98000003D01*
X65194435Y-98000003D01*
X65214630Y-98179249D01*
X65214631Y-98179254D01*
X65274211Y-98349523D01*
X65345931Y-98463664D01*
X65370184Y-98502262D01*
X65497738Y-98629816D01*
X65650478Y-98725789D01*
X65768087Y-98766942D01*
X65820745Y-98785368D01*
X65820750Y-98785369D01*
X65999996Y-98805565D01*
X66000000Y-98805565D01*
X66000004Y-98805565D01*
X66179249Y-98785369D01*
X66179252Y-98785368D01*
X66179255Y-98785368D01*
X66349522Y-98725789D01*
X66502262Y-98629816D01*
X66502267Y-98629810D01*
X66505097Y-98627555D01*
X66507275Y-98626665D01*
X66508158Y-98626111D01*
X66508255Y-98626265D01*
X66569783Y-98601145D01*
X66582412Y-98600500D01*
X66920943Y-98600500D01*
X82417588Y-98600500D01*
X82484627Y-98620185D01*
X82494903Y-98627555D01*
X82497736Y-98629814D01*
X82497738Y-98629816D01*
X82650478Y-98725789D01*
X82768087Y-98766942D01*
X82820745Y-98785368D01*
X82820750Y-98785369D01*
X82999996Y-98805565D01*
X83000000Y-98805565D01*
X83000004Y-98805565D01*
X83179249Y-98785369D01*
X83179252Y-98785368D01*
X83179255Y-98785368D01*
X83349522Y-98725789D01*
X83502262Y-98629816D01*
X83629816Y-98502262D01*
X83725789Y-98349522D01*
X83785368Y-98179255D01*
X83785369Y-98179249D01*
X83805565Y-98000003D01*
X83805565Y-97999996D01*
X83785369Y-97820750D01*
X83785368Y-97820745D01*
X83760613Y-97750000D01*
X83725789Y-97650478D01*
X83629816Y-97497738D01*
X83502262Y-97370184D01*
X83425847Y-97322169D01*
X83349523Y-97274211D01*
X83179254Y-97214631D01*
X83179249Y-97214630D01*
X83000004Y-97194435D01*
X82999996Y-97194435D01*
X82820750Y-97214630D01*
X82820745Y-97214631D01*
X82650476Y-97274211D01*
X82497736Y-97370185D01*
X82494903Y-97372445D01*
X82492724Y-97373334D01*
X82491842Y-97373889D01*
X82491744Y-97373734D01*
X82430217Y-97398855D01*
X82417588Y-97399500D01*
X66582412Y-97399500D01*
X66515373Y-97379815D01*
X66505097Y-97372445D01*
X66502263Y-97370185D01*
X66502262Y-97370184D01*
X66425847Y-97322169D01*
X66349523Y-97274211D01*
X66179254Y-97214631D01*
X66179249Y-97214630D01*
X66000004Y-97194435D01*
X65999996Y-97194435D01*
X65820750Y-97214630D01*
X65820745Y-97214631D01*
X65650476Y-97274211D01*
X65497737Y-97370184D01*
X65370184Y-97497737D01*
X65274211Y-97650476D01*
X65214631Y-97820745D01*
X65214630Y-97820750D01*
X65194435Y-97999996D01*
X65194435Y-98000003D01*
X51895659Y-98000003D01*
X51895659Y-98000000D01*
X51875063Y-97764592D01*
X51813903Y-97536337D01*
X51714035Y-97322171D01*
X51680454Y-97274211D01*
X51578494Y-97128597D01*
X51411402Y-96961506D01*
X51411395Y-96961501D01*
X51217834Y-96825967D01*
X51217830Y-96825965D01*
X51146727Y-96792809D01*
X51003663Y-96726097D01*
X51003659Y-96726096D01*
X51003655Y-96726094D01*
X50775413Y-96664938D01*
X50775403Y-96664936D01*
X50540001Y-96644341D01*
X50539999Y-96644341D01*
X50304596Y-96664936D01*
X50304586Y-96664938D01*
X50076344Y-96726094D01*
X50076335Y-96726098D01*
X49862171Y-96825964D01*
X49862169Y-96825965D01*
X49668600Y-96961503D01*
X49546284Y-97083819D01*
X49484961Y-97117303D01*
X49415269Y-97112319D01*
X49359336Y-97070447D01*
X49342421Y-97039470D01*
X49293354Y-96907913D01*
X49293350Y-96907906D01*
X49207190Y-96792812D01*
X49207187Y-96792809D01*
X49092093Y-96706649D01*
X49092086Y-96706645D01*
X48957379Y-96656403D01*
X48957372Y-96656401D01*
X48897844Y-96650000D01*
X48250000Y-96650000D01*
X48250000Y-97566988D01*
X48192993Y-97534075D01*
X48065826Y-97500000D01*
X47934174Y-97500000D01*
X47807007Y-97534075D01*
X47750000Y-97566988D01*
X47750000Y-96650000D01*
X47102155Y-96650000D01*
X47042627Y-96656401D01*
X47042620Y-96656403D01*
X46907913Y-96706645D01*
X46907906Y-96706649D01*
X46792812Y-96792809D01*
X46792809Y-96792812D01*
X46706649Y-96907906D01*
X46706645Y-96907913D01*
X46656403Y-97042620D01*
X46656401Y-97042627D01*
X46650000Y-97102155D01*
X46650000Y-97750000D01*
X47566988Y-97750000D01*
X47534075Y-97807007D01*
X47500000Y-97934174D01*
X47500000Y-98065826D01*
X47534075Y-98192993D01*
X47566988Y-98250000D01*
X46650000Y-98250000D01*
X46650000Y-98897844D01*
X45000000Y-98897844D01*
X45000000Y-94810001D01*
X66694532Y-94810001D01*
X66714364Y-95036686D01*
X66714366Y-95036697D01*
X66773258Y-95256488D01*
X66773261Y-95256497D01*
X66869431Y-95462732D01*
X66869432Y-95462734D01*
X66999954Y-95649141D01*
X67160858Y-95810045D01*
X67160861Y-95810047D01*
X67347266Y-95940568D01*
X67553504Y-96036739D01*
X67773308Y-96095635D01*
X67935230Y-96109801D01*
X67999998Y-96115468D01*
X68000000Y-96115468D01*
X68000002Y-96115468D01*
X68056673Y-96110509D01*
X68226692Y-96095635D01*
X68446496Y-96036739D01*
X68652734Y-95940568D01*
X68839139Y-95810047D01*
X69000047Y-95649139D01*
X69130568Y-95462734D01*
X69226739Y-95256496D01*
X69285635Y-95036692D01*
X69305468Y-94810000D01*
X69285635Y-94583308D01*
X69263313Y-94500001D01*
X70694532Y-94500001D01*
X70714364Y-94726686D01*
X70714366Y-94726697D01*
X70773258Y-94946488D01*
X70773261Y-94946497D01*
X70869431Y-95152732D01*
X70869432Y-95152734D01*
X70999954Y-95339141D01*
X71160858Y-95500045D01*
X71160861Y-95500047D01*
X71347266Y-95630568D01*
X71553504Y-95726739D01*
X71773308Y-95785635D01*
X71935230Y-95799801D01*
X71999998Y-95805468D01*
X72000000Y-95805468D01*
X72000002Y-95805468D01*
X72056673Y-95800509D01*
X72226692Y-95785635D01*
X72446496Y-95726739D01*
X72652734Y-95630568D01*
X72839139Y-95500047D01*
X73000047Y-95339139D01*
X73130568Y-95152734D01*
X73226739Y-94946496D01*
X73285635Y-94726692D01*
X73305468Y-94500001D01*
X73694532Y-94500001D01*
X73714364Y-94726686D01*
X73714366Y-94726697D01*
X73773258Y-94946488D01*
X73773261Y-94946497D01*
X73869431Y-95152732D01*
X73869432Y-95152734D01*
X73999954Y-95339141D01*
X74160858Y-95500045D01*
X74160861Y-95500047D01*
X74347266Y-95630568D01*
X74553504Y-95726739D01*
X74773308Y-95785635D01*
X74935230Y-95799801D01*
X74999998Y-95805468D01*
X75000000Y-95805468D01*
X75000002Y-95805468D01*
X75056673Y-95800509D01*
X75226692Y-95785635D01*
X75446496Y-95726739D01*
X75652734Y-95630568D01*
X75839139Y-95500047D01*
X76000047Y-95339139D01*
X76130568Y-95152734D01*
X76226739Y-94946496D01*
X76263312Y-94810002D01*
X77695034Y-94810002D01*
X77714858Y-95036599D01*
X77714860Y-95036610D01*
X77773730Y-95256317D01*
X77773735Y-95256331D01*
X77869863Y-95462478D01*
X77920974Y-95535472D01*
X78600000Y-94856446D01*
X78600000Y-94862661D01*
X78627259Y-94964394D01*
X78679920Y-95055606D01*
X78754394Y-95130080D01*
X78845606Y-95182741D01*
X78947339Y-95210000D01*
X78953553Y-95210000D01*
X78274526Y-95889025D01*
X78347513Y-95940132D01*
X78347521Y-95940136D01*
X78553668Y-96036264D01*
X78553682Y-96036269D01*
X78773389Y-96095139D01*
X78773400Y-96095141D01*
X78999998Y-96114966D01*
X79000002Y-96114966D01*
X79226599Y-96095141D01*
X79226610Y-96095139D01*
X79446317Y-96036269D01*
X79446331Y-96036264D01*
X79652478Y-95940136D01*
X79725471Y-95889024D01*
X79046447Y-95210000D01*
X79052661Y-95210000D01*
X79154394Y-95182741D01*
X79245606Y-95130080D01*
X79320080Y-95055606D01*
X79372741Y-94964394D01*
X79400000Y-94862661D01*
X79400000Y-94856447D01*
X80079024Y-95535471D01*
X80130136Y-95462478D01*
X80226264Y-95256331D01*
X80226269Y-95256317D01*
X80285139Y-95036610D01*
X80285141Y-95036599D01*
X80304966Y-94810002D01*
X80304966Y-94810001D01*
X81504532Y-94810001D01*
X81524364Y-95036686D01*
X81524366Y-95036697D01*
X81583258Y-95256488D01*
X81583261Y-95256497D01*
X81679431Y-95462732D01*
X81679432Y-95462734D01*
X81809954Y-95649141D01*
X81970858Y-95810045D01*
X81970861Y-95810047D01*
X82157266Y-95940568D01*
X82363504Y-96036739D01*
X82583308Y-96095635D01*
X82745230Y-96109801D01*
X82809998Y-96115468D01*
X82810000Y-96115468D01*
X82810002Y-96115468D01*
X82866673Y-96110509D01*
X83036692Y-96095635D01*
X83256496Y-96036739D01*
X83462734Y-95940568D01*
X83649139Y-95810047D01*
X83810047Y-95649139D01*
X83940568Y-95462734D01*
X84036739Y-95256496D01*
X84095635Y-95036692D01*
X84115468Y-94810000D01*
X84095635Y-94583308D01*
X84036739Y-94363504D01*
X83940568Y-94157266D01*
X83810047Y-93970861D01*
X83810045Y-93970858D01*
X83649141Y-93809954D01*
X83462734Y-93679432D01*
X83462732Y-93679431D01*
X83256497Y-93583261D01*
X83256488Y-93583258D01*
X83036697Y-93524366D01*
X83036693Y-93524365D01*
X83036692Y-93524365D01*
X83036691Y-93524364D01*
X83036686Y-93524364D01*
X82810002Y-93504532D01*
X82809998Y-93504532D01*
X82583313Y-93524364D01*
X82583302Y-93524366D01*
X82363511Y-93583258D01*
X82363502Y-93583261D01*
X82157267Y-93679431D01*
X82157265Y-93679432D01*
X81970858Y-93809954D01*
X81809954Y-93970858D01*
X81679432Y-94157265D01*
X81679431Y-94157267D01*
X81583261Y-94363502D01*
X81583258Y-94363511D01*
X81524366Y-94583302D01*
X81524364Y-94583313D01*
X81504532Y-94809998D01*
X81504532Y-94810001D01*
X80304966Y-94810001D01*
X80304966Y-94809997D01*
X80285141Y-94583400D01*
X80285139Y-94583389D01*
X80226269Y-94363682D01*
X80226264Y-94363668D01*
X80130136Y-94157521D01*
X80130132Y-94157513D01*
X80079025Y-94084526D01*
X79400000Y-94763551D01*
X79400000Y-94757339D01*
X79372741Y-94655606D01*
X79320080Y-94564394D01*
X79245606Y-94489920D01*
X79154394Y-94437259D01*
X79052661Y-94410000D01*
X79046448Y-94410000D01*
X79725472Y-93730974D01*
X79652478Y-93679863D01*
X79446331Y-93583735D01*
X79446317Y-93583730D01*
X79226610Y-93524860D01*
X79226599Y-93524858D01*
X79000002Y-93505034D01*
X78999998Y-93505034D01*
X78773400Y-93524858D01*
X78773389Y-93524860D01*
X78553682Y-93583730D01*
X78553673Y-93583734D01*
X78347516Y-93679866D01*
X78347512Y-93679868D01*
X78274526Y-93730973D01*
X78274526Y-93730974D01*
X78953553Y-94410000D01*
X78947339Y-94410000D01*
X78845606Y-94437259D01*
X78754394Y-94489920D01*
X78679920Y-94564394D01*
X78627259Y-94655606D01*
X78600000Y-94757339D01*
X78600000Y-94763552D01*
X77920974Y-94084526D01*
X77920973Y-94084526D01*
X77869868Y-94157512D01*
X77869866Y-94157516D01*
X77773734Y-94363673D01*
X77773730Y-94363682D01*
X77714860Y-94583389D01*
X77714858Y-94583400D01*
X77695034Y-94809997D01*
X77695034Y-94810002D01*
X76263312Y-94810002D01*
X76285635Y-94726692D01*
X76305468Y-94500000D01*
X76285635Y-94273308D01*
X76226739Y-94053504D01*
X76130568Y-93847266D01*
X76000047Y-93660861D01*
X76000045Y-93660858D01*
X75839141Y-93499954D01*
X75652734Y-93369432D01*
X75652732Y-93369431D01*
X75446497Y-93273261D01*
X75446488Y-93273258D01*
X75226697Y-93214366D01*
X75226693Y-93214365D01*
X75226692Y-93214365D01*
X75226691Y-93214364D01*
X75226686Y-93214364D01*
X75000002Y-93194532D01*
X74999998Y-93194532D01*
X74773313Y-93214364D01*
X74773302Y-93214366D01*
X74553511Y-93273258D01*
X74553502Y-93273261D01*
X74347267Y-93369431D01*
X74347265Y-93369432D01*
X74160858Y-93499954D01*
X73999954Y-93660858D01*
X73869432Y-93847265D01*
X73869431Y-93847267D01*
X73773261Y-94053502D01*
X73773258Y-94053511D01*
X73714366Y-94273302D01*
X73714364Y-94273313D01*
X73694532Y-94499998D01*
X73694532Y-94500001D01*
X73305468Y-94500001D01*
X73305468Y-94500000D01*
X73285635Y-94273308D01*
X73226739Y-94053504D01*
X73130568Y-93847266D01*
X73000047Y-93660861D01*
X73000045Y-93660858D01*
X72839141Y-93499954D01*
X72652734Y-93369432D01*
X72652732Y-93369431D01*
X72446497Y-93273261D01*
X72446488Y-93273258D01*
X72226697Y-93214366D01*
X72226693Y-93214365D01*
X72226692Y-93214365D01*
X72226691Y-93214364D01*
X72226686Y-93214364D01*
X72000002Y-93194532D01*
X71999998Y-93194532D01*
X71773313Y-93214364D01*
X71773302Y-93214366D01*
X71553511Y-93273258D01*
X71553502Y-93273261D01*
X71347267Y-93369431D01*
X71347265Y-93369432D01*
X71160858Y-93499954D01*
X70999954Y-93660858D01*
X70869432Y-93847265D01*
X70869431Y-93847267D01*
X70773261Y-94053502D01*
X70773258Y-94053511D01*
X70714366Y-94273302D01*
X70714364Y-94273313D01*
X70694532Y-94499998D01*
X70694532Y-94500001D01*
X69263313Y-94500001D01*
X69226739Y-94363504D01*
X69130568Y-94157266D01*
X69000047Y-93970861D01*
X69000045Y-93970858D01*
X68839141Y-93809954D01*
X68652734Y-93679432D01*
X68652732Y-93679431D01*
X68446497Y-93583261D01*
X68446488Y-93583258D01*
X68226697Y-93524366D01*
X68226693Y-93524365D01*
X68226692Y-93524365D01*
X68226691Y-93524364D01*
X68226686Y-93524364D01*
X68000002Y-93504532D01*
X67999998Y-93504532D01*
X67773313Y-93524364D01*
X67773302Y-93524366D01*
X67553511Y-93583258D01*
X67553502Y-93583261D01*
X67347267Y-93679431D01*
X67347265Y-93679432D01*
X67160858Y-93809954D01*
X66999954Y-93970858D01*
X66869432Y-94157265D01*
X66869431Y-94157267D01*
X66773261Y-94363502D01*
X66773258Y-94363511D01*
X66714366Y-94583302D01*
X66714364Y-94583313D01*
X66694532Y-94809998D01*
X66694532Y-94810001D01*
X45000000Y-94810001D01*
X45000000Y-92897844D01*
X46650000Y-92897844D01*
X46656401Y-92957372D01*
X46656403Y-92957379D01*
X46706645Y-93092086D01*
X46706649Y-93092093D01*
X46792809Y-93207187D01*
X46792812Y-93207190D01*
X46907906Y-93293350D01*
X46907913Y-93293354D01*
X47042620Y-93343596D01*
X47042627Y-93343598D01*
X47102155Y-93349999D01*
X47102172Y-93350000D01*
X47750000Y-93350000D01*
X47750000Y-92433012D01*
X47807007Y-92465925D01*
X47934174Y-92500000D01*
X48065826Y-92500000D01*
X48192993Y-92465925D01*
X48250000Y-92433012D01*
X48250000Y-93350000D01*
X48897828Y-93350000D01*
X48897844Y-93349999D01*
X48957372Y-93343598D01*
X48957379Y-93343596D01*
X49092086Y-93293354D01*
X49092093Y-93293350D01*
X49207187Y-93207190D01*
X49207190Y-93207187D01*
X49293350Y-93092093D01*
X49293354Y-93092086D01*
X49342422Y-92960529D01*
X49384293Y-92904595D01*
X49449757Y-92880178D01*
X49518030Y-92895030D01*
X49546285Y-92916181D01*
X49668599Y-93038495D01*
X49720798Y-93075045D01*
X49862165Y-93174032D01*
X49862167Y-93174033D01*
X49862170Y-93174035D01*
X50076337Y-93273903D01*
X50304592Y-93335063D01*
X50475319Y-93350000D01*
X50539999Y-93355659D01*
X50540000Y-93355659D01*
X50540001Y-93355659D01*
X50604681Y-93350000D01*
X50775408Y-93335063D01*
X51003663Y-93273903D01*
X51217830Y-93174035D01*
X51411401Y-93038495D01*
X51449895Y-93000001D01*
X57194532Y-93000001D01*
X57214364Y-93226686D01*
X57214366Y-93226697D01*
X57273258Y-93446488D01*
X57273261Y-93446497D01*
X57369431Y-93652732D01*
X57369432Y-93652734D01*
X57499954Y-93839141D01*
X57660858Y-94000045D01*
X57660861Y-94000047D01*
X57847266Y-94130568D01*
X58053504Y-94226739D01*
X58273308Y-94285635D01*
X58435230Y-94299801D01*
X58499998Y-94305468D01*
X58500000Y-94305468D01*
X58500002Y-94305468D01*
X58556673Y-94300509D01*
X58726692Y-94285635D01*
X58946496Y-94226739D01*
X59152734Y-94130568D01*
X59339139Y-94000047D01*
X59500047Y-93839139D01*
X59630568Y-93652734D01*
X59726739Y-93446496D01*
X59785635Y-93226692D01*
X59805468Y-93000000D01*
X59785635Y-92773308D01*
X59726739Y-92553504D01*
X59630568Y-92347266D01*
X59500047Y-92160861D01*
X59500045Y-92160858D01*
X59339141Y-91999954D01*
X59152734Y-91869432D01*
X59152732Y-91869431D01*
X58946497Y-91773261D01*
X58946488Y-91773258D01*
X58726697Y-91714366D01*
X58726693Y-91714365D01*
X58726692Y-91714365D01*
X58726691Y-91714364D01*
X58726686Y-91714364D01*
X58500002Y-91694532D01*
X58499998Y-91694532D01*
X58273313Y-91714364D01*
X58273302Y-91714366D01*
X58053511Y-91773258D01*
X58053502Y-91773261D01*
X57847267Y-91869431D01*
X57847265Y-91869432D01*
X57660858Y-91999954D01*
X57499954Y-92160858D01*
X57369432Y-92347265D01*
X57369431Y-92347267D01*
X57273261Y-92553502D01*
X57273258Y-92553511D01*
X57214366Y-92773302D01*
X57214364Y-92773313D01*
X57194532Y-92999998D01*
X57194532Y-93000001D01*
X51449895Y-93000001D01*
X51578495Y-92871401D01*
X51714035Y-92677830D01*
X51813903Y-92463663D01*
X51875063Y-92235408D01*
X51895659Y-92000000D01*
X51875063Y-91764592D01*
X51813903Y-91536337D01*
X51714035Y-91322171D01*
X51653601Y-91235861D01*
X51578494Y-91128597D01*
X51411402Y-90961506D01*
X51411395Y-90961501D01*
X51217834Y-90825967D01*
X51217830Y-90825965D01*
X51174981Y-90805984D01*
X51003663Y-90726097D01*
X51003659Y-90726096D01*
X51003655Y-90726094D01*
X50775413Y-90664938D01*
X50775403Y-90664936D01*
X50540001Y-90644341D01*
X50539999Y-90644341D01*
X50304596Y-90664936D01*
X50304586Y-90664938D01*
X50076344Y-90726094D01*
X50076335Y-90726098D01*
X49862171Y-90825964D01*
X49862169Y-90825965D01*
X49668600Y-90961503D01*
X49546284Y-91083819D01*
X49484961Y-91117303D01*
X49415269Y-91112319D01*
X49359336Y-91070447D01*
X49342421Y-91039470D01*
X49293354Y-90907913D01*
X49293350Y-90907906D01*
X49207190Y-90792812D01*
X49207187Y-90792809D01*
X49092093Y-90706649D01*
X49092086Y-90706645D01*
X48957379Y-90656403D01*
X48957372Y-90656401D01*
X48897844Y-90650000D01*
X48250000Y-90650000D01*
X48250000Y-91566988D01*
X48192993Y-91534075D01*
X48065826Y-91500000D01*
X47934174Y-91500000D01*
X47807007Y-91534075D01*
X47750000Y-91566988D01*
X47750000Y-90650000D01*
X47102155Y-90650000D01*
X47042627Y-90656401D01*
X47042620Y-90656403D01*
X46907913Y-90706645D01*
X46907906Y-90706649D01*
X46792812Y-90792809D01*
X46792809Y-90792812D01*
X46706649Y-90907906D01*
X46706645Y-90907913D01*
X46656403Y-91042620D01*
X46656401Y-91042627D01*
X46650000Y-91102155D01*
X46650000Y-91750000D01*
X47566988Y-91750000D01*
X47534075Y-91807007D01*
X47500000Y-91934174D01*
X47500000Y-92065826D01*
X47534075Y-92192993D01*
X47566988Y-92250000D01*
X46650000Y-92250000D01*
X46650000Y-92897844D01*
X45000000Y-92897844D01*
X45000000Y-89000001D01*
X57194532Y-89000001D01*
X57214364Y-89226686D01*
X57214366Y-89226697D01*
X57273258Y-89446488D01*
X57273261Y-89446497D01*
X57369431Y-89652732D01*
X57369432Y-89652734D01*
X57499954Y-89839141D01*
X57660858Y-90000045D01*
X57682959Y-90015520D01*
X57847266Y-90130568D01*
X58053504Y-90226739D01*
X58053509Y-90226740D01*
X58053511Y-90226741D01*
X58106415Y-90240916D01*
X58273308Y-90285635D01*
X58435230Y-90299801D01*
X58499998Y-90305468D01*
X58500000Y-90305468D01*
X58500002Y-90305468D01*
X58556673Y-90300509D01*
X58726692Y-90285635D01*
X58946496Y-90226739D01*
X59152734Y-90130568D01*
X59339139Y-90000047D01*
X59500047Y-89839139D01*
X59630568Y-89652734D01*
X59726739Y-89446496D01*
X59785635Y-89226692D01*
X59805468Y-89000000D01*
X59801931Y-88959577D01*
X59795168Y-88882267D01*
X59785635Y-88773308D01*
X59726739Y-88553504D01*
X59630568Y-88347266D01*
X59500047Y-88160861D01*
X59500045Y-88160858D01*
X59339141Y-87999954D01*
X59152734Y-87869432D01*
X59152732Y-87869431D01*
X58946497Y-87773261D01*
X58946488Y-87773258D01*
X58726697Y-87714366D01*
X58726693Y-87714365D01*
X58726692Y-87714365D01*
X58726691Y-87714364D01*
X58726686Y-87714364D01*
X58500002Y-87694532D01*
X58499998Y-87694532D01*
X58273313Y-87714364D01*
X58273302Y-87714366D01*
X58053511Y-87773258D01*
X58053502Y-87773261D01*
X57847267Y-87869431D01*
X57847265Y-87869432D01*
X57660858Y-87999954D01*
X57499954Y-88160858D01*
X57369432Y-88347265D01*
X57369431Y-88347267D01*
X57273261Y-88553502D01*
X57273258Y-88553511D01*
X57214366Y-88773302D01*
X57214364Y-88773313D01*
X57194532Y-88999998D01*
X57194532Y-89000001D01*
X45000000Y-89000001D01*
X45000000Y-82540001D01*
X47774838Y-82540001D01*
X47793450Y-82752741D01*
X47793452Y-82752752D01*
X47848721Y-82959022D01*
X47848723Y-82959026D01*
X47848724Y-82959030D01*
X47872608Y-83010248D01*
X47938977Y-83152578D01*
X47938978Y-83152580D01*
X47938979Y-83152581D01*
X47956282Y-83177292D01*
X48061472Y-83327521D01*
X48212478Y-83478527D01*
X48212481Y-83478529D01*
X48387419Y-83601021D01*
X48387421Y-83601022D01*
X48387420Y-83601022D01*
X48419243Y-83615861D01*
X48580970Y-83691276D01*
X48580983Y-83691279D01*
X48586064Y-83693130D01*
X48585390Y-83694978D01*
X48637680Y-83726857D01*
X48668204Y-83789707D01*
X48659903Y-83859082D01*
X48615413Y-83912956D01*
X48585904Y-83926432D01*
X48586236Y-83927342D01*
X48581140Y-83929197D01*
X48387671Y-84019412D01*
X48387669Y-84019413D01*
X48331969Y-84058415D01*
X48331968Y-84058415D01*
X48953554Y-84680000D01*
X48947339Y-84680000D01*
X48845606Y-84707259D01*
X48754394Y-84759920D01*
X48679920Y-84834394D01*
X48627259Y-84925606D01*
X48600000Y-85027339D01*
X48600000Y-85033553D01*
X47978415Y-84411968D01*
X47978415Y-84411969D01*
X47939413Y-84467669D01*
X47939412Y-84467671D01*
X47849197Y-84661140D01*
X47849194Y-84661146D01*
X47793945Y-84867337D01*
X47793944Y-84867345D01*
X47775340Y-85079997D01*
X47775340Y-85080002D01*
X47793944Y-85292654D01*
X47793945Y-85292662D01*
X47849194Y-85498853D01*
X47849197Y-85498859D01*
X47939413Y-85692329D01*
X47978415Y-85748030D01*
X48600000Y-85126445D01*
X48600000Y-85132661D01*
X48627259Y-85234394D01*
X48679920Y-85325606D01*
X48754394Y-85400080D01*
X48845606Y-85452741D01*
X48947339Y-85480000D01*
X48953553Y-85480000D01*
X48331968Y-86101584D01*
X48387663Y-86140582D01*
X48387669Y-86140586D01*
X48581140Y-86230802D01*
X48581146Y-86230805D01*
X48787337Y-86286054D01*
X48787345Y-86286055D01*
X48999998Y-86304660D01*
X49000002Y-86304660D01*
X49212654Y-86286055D01*
X49212662Y-86286054D01*
X49418853Y-86230805D01*
X49418864Y-86230801D01*
X49612325Y-86140589D01*
X49668030Y-86101583D01*
X49046448Y-85480000D01*
X49052661Y-85480000D01*
X49154394Y-85452741D01*
X49245606Y-85400080D01*
X49320080Y-85325606D01*
X49372741Y-85234394D01*
X49400000Y-85132661D01*
X49400000Y-85126446D01*
X50021583Y-85748029D01*
X50060589Y-85692325D01*
X50150801Y-85498864D01*
X50150805Y-85498853D01*
X50206054Y-85292662D01*
X50206055Y-85292654D01*
X50224660Y-85080002D01*
X50224660Y-85079997D01*
X50206055Y-84867345D01*
X50206054Y-84867337D01*
X50150805Y-84661146D01*
X50150802Y-84661140D01*
X50060586Y-84467669D01*
X50060582Y-84467663D01*
X50021584Y-84411968D01*
X49400000Y-85033552D01*
X49400000Y-85027339D01*
X49372741Y-84925606D01*
X49320080Y-84834394D01*
X49245606Y-84759920D01*
X49154394Y-84707259D01*
X49052661Y-84680000D01*
X49046447Y-84680000D01*
X49668030Y-84058415D01*
X49612329Y-84019413D01*
X49418859Y-83929197D01*
X49413764Y-83927342D01*
X49414455Y-83925443D01*
X49362325Y-83893667D01*
X49331797Y-83830820D01*
X49340093Y-83761444D01*
X49384579Y-83707567D01*
X49414257Y-83694014D01*
X49413936Y-83693130D01*
X49419013Y-83691280D01*
X49419030Y-83691276D01*
X49612581Y-83601021D01*
X49787519Y-83478529D01*
X49938529Y-83327519D01*
X50061021Y-83152581D01*
X50151276Y-82959030D01*
X50206549Y-82752747D01*
X50206789Y-82749999D01*
X52911127Y-82749999D01*
X52911128Y-82750000D01*
X53874314Y-82750000D01*
X53869920Y-82754394D01*
X53817259Y-82845606D01*
X53790000Y-82947339D01*
X53790000Y-83052661D01*
X53817259Y-83154394D01*
X53869920Y-83245606D01*
X53874314Y-83250000D01*
X52911128Y-83250000D01*
X52963730Y-83446317D01*
X52963734Y-83446326D01*
X53059865Y-83652482D01*
X53190342Y-83838820D01*
X53351179Y-83999657D01*
X53537517Y-84130134D01*
X53743673Y-84226265D01*
X53743682Y-84226269D01*
X53939999Y-84278872D01*
X53940000Y-84278871D01*
X53940000Y-83315686D01*
X53944394Y-83320080D01*
X54035606Y-83372741D01*
X54137339Y-83400000D01*
X54242661Y-83400000D01*
X54344394Y-83372741D01*
X54435606Y-83320080D01*
X54440000Y-83315686D01*
X54440000Y-84278872D01*
X54636317Y-84226269D01*
X54636326Y-84226265D01*
X54842482Y-84130134D01*
X55028820Y-83999657D01*
X55189657Y-83838820D01*
X55320134Y-83652482D01*
X55416265Y-83446326D01*
X55416269Y-83446317D01*
X55468872Y-83250000D01*
X54505686Y-83250000D01*
X54510080Y-83245606D01*
X54562741Y-83154394D01*
X54590000Y-83052661D01*
X54590000Y-82947339D01*
X54562741Y-82845606D01*
X54510080Y-82754394D01*
X54505686Y-82750000D01*
X55468872Y-82750000D01*
X55468872Y-82749999D01*
X55416269Y-82553682D01*
X55416265Y-82553673D01*
X55320134Y-82347517D01*
X55189657Y-82161179D01*
X55028820Y-82000342D01*
X54842482Y-81869865D01*
X54636328Y-81773734D01*
X54440000Y-81721127D01*
X54440000Y-82684314D01*
X54435606Y-82679920D01*
X54344394Y-82627259D01*
X54242661Y-82600000D01*
X54137339Y-82600000D01*
X54035606Y-82627259D01*
X53944394Y-82679920D01*
X53940000Y-82684314D01*
X53940000Y-81721127D01*
X53743671Y-81773734D01*
X53537517Y-81869865D01*
X53351179Y-82000342D01*
X53190342Y-82161179D01*
X53059865Y-82347517D01*
X52963734Y-82553673D01*
X52963730Y-82553682D01*
X52911127Y-82749999D01*
X50206789Y-82749999D01*
X50225162Y-82540000D01*
X50206549Y-82327253D01*
X50151276Y-82120970D01*
X50061021Y-81927419D01*
X49938529Y-81752481D01*
X49938527Y-81752478D01*
X49787521Y-81601472D01*
X49612578Y-81478977D01*
X49612579Y-81478977D01*
X49483547Y-81418809D01*
X49419030Y-81388724D01*
X49419023Y-81388722D01*
X49413936Y-81386870D01*
X49414709Y-81384746D01*
X49363305Y-81353424D01*
X49332766Y-81290581D01*
X49341050Y-81221204D01*
X49385528Y-81167320D01*
X49414315Y-81154172D01*
X49413936Y-81153130D01*
X49419013Y-81151280D01*
X49419030Y-81151276D01*
X49612581Y-81061021D01*
X49787519Y-80938529D01*
X49938529Y-80787519D01*
X50061021Y-80612581D01*
X50151276Y-80419030D01*
X50206549Y-80212747D01*
X50225162Y-80000000D01*
X50206549Y-79787253D01*
X50151276Y-79580970D01*
X50061021Y-79387419D01*
X49938529Y-79212481D01*
X49938527Y-79212478D01*
X49787521Y-79061472D01*
X49612578Y-78938977D01*
X49612579Y-78938977D01*
X49464403Y-78869882D01*
X49419030Y-78848724D01*
X49419026Y-78848723D01*
X49419022Y-78848721D01*
X49212752Y-78793452D01*
X49212748Y-78793451D01*
X49212747Y-78793451D01*
X49212746Y-78793450D01*
X49212741Y-78793450D01*
X49000002Y-78774838D01*
X48999998Y-78774838D01*
X48787258Y-78793450D01*
X48787247Y-78793452D01*
X48580977Y-78848721D01*
X48580968Y-78848725D01*
X48387421Y-78938977D01*
X48212478Y-79061472D01*
X48061472Y-79212478D01*
X47938977Y-79387421D01*
X47848725Y-79580968D01*
X47848721Y-79580977D01*
X47793452Y-79787247D01*
X47793450Y-79787258D01*
X47774838Y-79999998D01*
X47774838Y-80000001D01*
X47793450Y-80212741D01*
X47793452Y-80212752D01*
X47848721Y-80419022D01*
X47848723Y-80419026D01*
X47848724Y-80419030D01*
X47889077Y-80505567D01*
X47938977Y-80612578D01*
X47938978Y-80612580D01*
X47938979Y-80612581D01*
X47960991Y-80644017D01*
X48061472Y-80787521D01*
X48212478Y-80938527D01*
X48212481Y-80938529D01*
X48387419Y-81061021D01*
X48387421Y-81061022D01*
X48387420Y-81061022D01*
X48427452Y-81079689D01*
X48580970Y-81151276D01*
X48580983Y-81151279D01*
X48586064Y-81153130D01*
X48585292Y-81155250D01*
X48636710Y-81186594D01*
X48667237Y-81249442D01*
X48658939Y-81318817D01*
X48614452Y-81372693D01*
X48585685Y-81385830D01*
X48586064Y-81386870D01*
X48580972Y-81388723D01*
X48580970Y-81388724D01*
X48580968Y-81388725D01*
X48387421Y-81478977D01*
X48212478Y-81601472D01*
X48061472Y-81752478D01*
X47938977Y-81927421D01*
X47848725Y-82120968D01*
X47848721Y-82120977D01*
X47793452Y-82327247D01*
X47793450Y-82327258D01*
X47774838Y-82539998D01*
X47774838Y-82540001D01*
X45000000Y-82540001D01*
X45000000Y-62148597D01*
X45019685Y-62081558D01*
X45072489Y-62035803D01*
X45141647Y-62025859D01*
X45205203Y-62054884D01*
X45211681Y-62060916D01*
X45673181Y-62522416D01*
X45706666Y-62583739D01*
X45709500Y-62610097D01*
X45709500Y-70789015D01*
X45709499Y-70789033D01*
X45709499Y-70954739D01*
X45709498Y-70954739D01*
X45734338Y-71047441D01*
X45750423Y-71107470D01*
X45760646Y-71125177D01*
X45779358Y-71157585D01*
X45779359Y-71157589D01*
X45779360Y-71157589D01*
X45819252Y-71226686D01*
X45829479Y-71244399D01*
X45829481Y-71244402D01*
X45948349Y-71363270D01*
X45948355Y-71363275D01*
X52957621Y-78372542D01*
X52991106Y-78433865D01*
X52986122Y-78503557D01*
X52982322Y-78512628D01*
X52963262Y-78553502D01*
X52963258Y-78553511D01*
X52904366Y-78773302D01*
X52904364Y-78773313D01*
X52884532Y-78999998D01*
X52884532Y-79000001D01*
X52904364Y-79226686D01*
X52904366Y-79226697D01*
X52963258Y-79446488D01*
X52963261Y-79446497D01*
X53059431Y-79652732D01*
X53059432Y-79652734D01*
X53189954Y-79839141D01*
X53350858Y-80000045D01*
X53350861Y-80000047D01*
X53537266Y-80130568D01*
X53743504Y-80226739D01*
X53963308Y-80285635D01*
X54125230Y-80299801D01*
X54189998Y-80305468D01*
X54190000Y-80305468D01*
X54190002Y-80305468D01*
X54246673Y-80300509D01*
X54416692Y-80285635D01*
X54636496Y-80226739D01*
X54842734Y-80130568D01*
X55029139Y-80000047D01*
X55190047Y-79839139D01*
X55320568Y-79652734D01*
X55416739Y-79446496D01*
X55475635Y-79226692D01*
X55495468Y-79000000D01*
X55475635Y-78773308D01*
X55460377Y-78716364D01*
X55444362Y-78656593D01*
X55446025Y-78586743D01*
X55485188Y-78528881D01*
X55549417Y-78501377D01*
X55564137Y-78500500D01*
X60409903Y-78500500D01*
X60476942Y-78520185D01*
X60497584Y-78536819D01*
X60518058Y-78557293D01*
X60551543Y-78618616D01*
X60550152Y-78677067D01*
X60524366Y-78773302D01*
X60524364Y-78773313D01*
X60504532Y-78999998D01*
X60504532Y-79000001D01*
X60524364Y-79226686D01*
X60524366Y-79226697D01*
X60550152Y-79322931D01*
X60548489Y-79392781D01*
X60518058Y-79442705D01*
X60341286Y-79619478D01*
X60229481Y-79731282D01*
X60229480Y-79731284D01*
X60188914Y-79801547D01*
X60150423Y-79868215D01*
X60109499Y-80020943D01*
X60109499Y-80020945D01*
X60109499Y-80189046D01*
X60109500Y-80189059D01*
X60109500Y-84313330D01*
X60109499Y-84313348D01*
X60109499Y-84479054D01*
X60109498Y-84479054D01*
X60126794Y-84543602D01*
X60150423Y-84631785D01*
X60150424Y-84631786D01*
X60166102Y-84658943D01*
X60166103Y-84658944D01*
X60229475Y-84768709D01*
X60229481Y-84768717D01*
X60348349Y-84887585D01*
X60348355Y-84887590D01*
X60545139Y-85084374D01*
X60545149Y-85084385D01*
X60549479Y-85088715D01*
X60549480Y-85088716D01*
X60661284Y-85200520D01*
X60661286Y-85200521D01*
X60661290Y-85200524D01*
X60798209Y-85279573D01*
X60798216Y-85279577D01*
X60910019Y-85309534D01*
X60950942Y-85320500D01*
X60950943Y-85320500D01*
X66030902Y-85320500D01*
X66097941Y-85340185D01*
X66143696Y-85392989D01*
X66153640Y-85462147D01*
X66124615Y-85525703D01*
X66118583Y-85532181D01*
X63942705Y-87708058D01*
X63881382Y-87741543D01*
X63822931Y-87740152D01*
X63726697Y-87714366D01*
X63726693Y-87714365D01*
X63726692Y-87714365D01*
X63726691Y-87714364D01*
X63726686Y-87714364D01*
X63500002Y-87694532D01*
X63499998Y-87694532D01*
X63273313Y-87714364D01*
X63273302Y-87714366D01*
X63053511Y-87773258D01*
X63053502Y-87773261D01*
X62847267Y-87869431D01*
X62847265Y-87869432D01*
X62660858Y-87999954D01*
X62499954Y-88160858D01*
X62369432Y-88347265D01*
X62369431Y-88347267D01*
X62273261Y-88553502D01*
X62273258Y-88553511D01*
X62214366Y-88773302D01*
X62214364Y-88773313D01*
X62194532Y-88999998D01*
X62194532Y-89000001D01*
X62214364Y-89226686D01*
X62214366Y-89226697D01*
X62273258Y-89446488D01*
X62273261Y-89446497D01*
X62369431Y-89652732D01*
X62369432Y-89652734D01*
X62499954Y-89839141D01*
X62660858Y-90000045D01*
X62682959Y-90015520D01*
X62847266Y-90130568D01*
X63053504Y-90226739D01*
X63053509Y-90226740D01*
X63053511Y-90226741D01*
X63106415Y-90240916D01*
X63273308Y-90285635D01*
X63435230Y-90299801D01*
X63499998Y-90305468D01*
X63500000Y-90305468D01*
X63500001Y-90305468D01*
X63522557Y-90303494D01*
X63539010Y-90302055D01*
X63607510Y-90315821D01*
X63657693Y-90364437D01*
X63673627Y-90432465D01*
X63650252Y-90498309D01*
X63637499Y-90513264D01*
X63131286Y-91019478D01*
X63019481Y-91131282D01*
X63019477Y-91131287D01*
X62974550Y-91209105D01*
X62974550Y-91209106D01*
X62940423Y-91268214D01*
X62940423Y-91268215D01*
X62899499Y-91420943D01*
X62899499Y-91420945D01*
X62899499Y-91589046D01*
X62899500Y-91589059D01*
X62899500Y-91768306D01*
X62879815Y-91835345D01*
X62846623Y-91869881D01*
X62660859Y-91999953D01*
X62499954Y-92160858D01*
X62369432Y-92347265D01*
X62369431Y-92347267D01*
X62273261Y-92553502D01*
X62273258Y-92553511D01*
X62214366Y-92773302D01*
X62214364Y-92773313D01*
X62194532Y-92999998D01*
X62194532Y-93000001D01*
X62214364Y-93226686D01*
X62214366Y-93226697D01*
X62273258Y-93446488D01*
X62273261Y-93446497D01*
X62369431Y-93652732D01*
X62369432Y-93652734D01*
X62499954Y-93839141D01*
X62660858Y-94000045D01*
X62660861Y-94000047D01*
X62847266Y-94130568D01*
X63053504Y-94226739D01*
X63273308Y-94285635D01*
X63435230Y-94299801D01*
X63499998Y-94305468D01*
X63500000Y-94305468D01*
X63500002Y-94305468D01*
X63556673Y-94300509D01*
X63726692Y-94285635D01*
X63946496Y-94226739D01*
X64152734Y-94130568D01*
X64339139Y-94000047D01*
X64500047Y-93839139D01*
X64630568Y-93652734D01*
X64726739Y-93446496D01*
X64785635Y-93226692D01*
X64805468Y-93000000D01*
X64785635Y-92773308D01*
X64726739Y-92553504D01*
X64630568Y-92347266D01*
X64500047Y-92160861D01*
X64500045Y-92160858D01*
X64339141Y-91999954D01*
X64172074Y-91882974D01*
X64128449Y-91828398D01*
X64121255Y-91758899D01*
X64152777Y-91696544D01*
X64155484Y-91693750D01*
X66812416Y-89036819D01*
X66873739Y-89003334D01*
X66900097Y-89000500D01*
X70626381Y-89000500D01*
X70693420Y-89020185D01*
X70739175Y-89072989D01*
X70749119Y-89142147D01*
X70746156Y-89156593D01*
X70714860Y-89273390D01*
X70714858Y-89273400D01*
X70695034Y-89499997D01*
X70695034Y-89500002D01*
X70714858Y-89726599D01*
X70714860Y-89726610D01*
X70773730Y-89946317D01*
X70773735Y-89946331D01*
X70869863Y-90152478D01*
X70920974Y-90225472D01*
X71600000Y-89546446D01*
X71600000Y-89552661D01*
X71627259Y-89654394D01*
X71679920Y-89745606D01*
X71754394Y-89820080D01*
X71845606Y-89872741D01*
X71947339Y-89900000D01*
X71953553Y-89900000D01*
X71274526Y-90579025D01*
X71347513Y-90630132D01*
X71347521Y-90630136D01*
X71553668Y-90726264D01*
X71553682Y-90726269D01*
X71773389Y-90785139D01*
X71773400Y-90785141D01*
X71999998Y-90804966D01*
X72000002Y-90804966D01*
X72226599Y-90785141D01*
X72226610Y-90785139D01*
X72446317Y-90726269D01*
X72446331Y-90726264D01*
X72652478Y-90630136D01*
X72725471Y-90579024D01*
X72046447Y-89900000D01*
X72052661Y-89900000D01*
X72154394Y-89872741D01*
X72245606Y-89820080D01*
X72320080Y-89745606D01*
X72372741Y-89654394D01*
X72400000Y-89552661D01*
X72400000Y-89546447D01*
X73079024Y-90225471D01*
X73130136Y-90152478D01*
X73226264Y-89946331D01*
X73226269Y-89946317D01*
X73285139Y-89726610D01*
X73285141Y-89726599D01*
X73304966Y-89500002D01*
X73304966Y-89499997D01*
X73285141Y-89273400D01*
X73285139Y-89273390D01*
X73253844Y-89156593D01*
X73255507Y-89086744D01*
X73294669Y-89028881D01*
X73358898Y-89001377D01*
X73373619Y-89000500D01*
X73626381Y-89000500D01*
X73693420Y-89020185D01*
X73739175Y-89072989D01*
X73749119Y-89142147D01*
X73746156Y-89156593D01*
X73714860Y-89273390D01*
X73714858Y-89273400D01*
X73695034Y-89499997D01*
X73695034Y-89500002D01*
X73714858Y-89726599D01*
X73714860Y-89726610D01*
X73773730Y-89946317D01*
X73773735Y-89946331D01*
X73869863Y-90152478D01*
X73920974Y-90225472D01*
X74600000Y-89546446D01*
X74600000Y-89552661D01*
X74627259Y-89654394D01*
X74679920Y-89745606D01*
X74754394Y-89820080D01*
X74845606Y-89872741D01*
X74947339Y-89900000D01*
X74953553Y-89900000D01*
X74274526Y-90579025D01*
X74347513Y-90630132D01*
X74347521Y-90630136D01*
X74553668Y-90726264D01*
X74553682Y-90726269D01*
X74773389Y-90785139D01*
X74773400Y-90785141D01*
X74999998Y-90804966D01*
X75000002Y-90804966D01*
X75226599Y-90785141D01*
X75226610Y-90785139D01*
X75446317Y-90726269D01*
X75446331Y-90726264D01*
X75652478Y-90630136D01*
X75725471Y-90579024D01*
X75046447Y-89900000D01*
X75052661Y-89900000D01*
X75154394Y-89872741D01*
X75245606Y-89820080D01*
X75320080Y-89745606D01*
X75372741Y-89654394D01*
X75400000Y-89552661D01*
X75400000Y-89546447D01*
X76079024Y-90225471D01*
X76130136Y-90152478D01*
X76226264Y-89946331D01*
X76226269Y-89946317D01*
X76285139Y-89726610D01*
X76285141Y-89726599D01*
X76304966Y-89500002D01*
X76304966Y-89499997D01*
X76285141Y-89273400D01*
X76285139Y-89273389D01*
X76226269Y-89053682D01*
X76226264Y-89053668D01*
X76130136Y-88847521D01*
X76130132Y-88847513D01*
X76079025Y-88774526D01*
X75400000Y-89453551D01*
X75400000Y-89447339D01*
X75372741Y-89345606D01*
X75320080Y-89254394D01*
X75245606Y-89179920D01*
X75154394Y-89127259D01*
X75052661Y-89100000D01*
X75046446Y-89100000D01*
X75725472Y-88420974D01*
X75671713Y-88383332D01*
X75628089Y-88328755D01*
X75620896Y-88259256D01*
X75652418Y-88196902D01*
X75655091Y-88194142D01*
X76659232Y-87190001D01*
X77694532Y-87190001D01*
X77714364Y-87416686D01*
X77714366Y-87416697D01*
X77773258Y-87636488D01*
X77773261Y-87636497D01*
X77869431Y-87842732D01*
X77869432Y-87842734D01*
X77999954Y-88029141D01*
X78160858Y-88190045D01*
X78160861Y-88190047D01*
X78347266Y-88320568D01*
X78553504Y-88416739D01*
X78773308Y-88475635D01*
X78935230Y-88489801D01*
X78999998Y-88495468D01*
X79000000Y-88495468D01*
X79000002Y-88495468D01*
X79056673Y-88490509D01*
X79226692Y-88475635D01*
X79446496Y-88416739D01*
X79652734Y-88320568D01*
X79839139Y-88190047D01*
X80000047Y-88029139D01*
X80130568Y-87842734D01*
X80226739Y-87636496D01*
X80285635Y-87416692D01*
X80305468Y-87190000D01*
X80285635Y-86963308D01*
X80226739Y-86743504D01*
X80130568Y-86537266D01*
X80000047Y-86350861D01*
X80000045Y-86350858D01*
X79839141Y-86189954D01*
X79652734Y-86059432D01*
X79652732Y-86059431D01*
X79446497Y-85963261D01*
X79446488Y-85963258D01*
X79226697Y-85904366D01*
X79226693Y-85904365D01*
X79226692Y-85904365D01*
X79226691Y-85904364D01*
X79226686Y-85904364D01*
X79000002Y-85884532D01*
X78999998Y-85884532D01*
X78773313Y-85904364D01*
X78773302Y-85904366D01*
X78553511Y-85963258D01*
X78553502Y-85963261D01*
X78347267Y-86059431D01*
X78347265Y-86059432D01*
X78160858Y-86189954D01*
X77999954Y-86350858D01*
X77869432Y-86537265D01*
X77869431Y-86537267D01*
X77773261Y-86743502D01*
X77773258Y-86743511D01*
X77714366Y-86963302D01*
X77714364Y-86963313D01*
X77694532Y-87189998D01*
X77694532Y-87190001D01*
X76659232Y-87190001D01*
X81997821Y-81851413D01*
X82059142Y-81817930D01*
X82128834Y-81822914D01*
X82184767Y-81864786D01*
X82209184Y-81930250D01*
X82209500Y-81939096D01*
X82209500Y-85958306D01*
X82189815Y-86025345D01*
X82156623Y-86059881D01*
X81970859Y-86189953D01*
X81809954Y-86350858D01*
X81679432Y-86537265D01*
X81679431Y-86537267D01*
X81583261Y-86743502D01*
X81583258Y-86743511D01*
X81524366Y-86963302D01*
X81524364Y-86963313D01*
X81504532Y-87189998D01*
X81504532Y-87190001D01*
X81524364Y-87416686D01*
X81524366Y-87416697D01*
X81583258Y-87636488D01*
X81583261Y-87636497D01*
X81679431Y-87842732D01*
X81679432Y-87842734D01*
X81809954Y-88029141D01*
X81970858Y-88190045D01*
X81970861Y-88190047D01*
X82157266Y-88320568D01*
X82363504Y-88416739D01*
X82583308Y-88475635D01*
X82745230Y-88489801D01*
X82809998Y-88495468D01*
X82810000Y-88495468D01*
X82810002Y-88495468D01*
X82866673Y-88490509D01*
X83036692Y-88475635D01*
X83256496Y-88416739D01*
X83462734Y-88320568D01*
X83649139Y-88190047D01*
X83810047Y-88029139D01*
X83940568Y-87842734D01*
X84036739Y-87636496D01*
X84095635Y-87416692D01*
X84115468Y-87190000D01*
X84095635Y-86963308D01*
X84036739Y-86743504D01*
X83940568Y-86537266D01*
X83810047Y-86350861D01*
X83810045Y-86350858D01*
X83649140Y-86189953D01*
X83463377Y-86059881D01*
X83419752Y-86005304D01*
X83410500Y-85958306D01*
X83410500Y-81865097D01*
X83430185Y-81798058D01*
X83446819Y-81777416D01*
X84555146Y-80669089D01*
X85687821Y-79536413D01*
X85749142Y-79502930D01*
X85818834Y-79507914D01*
X85874767Y-79549786D01*
X85899184Y-79615250D01*
X85899500Y-79624096D01*
X85899500Y-80222870D01*
X85899501Y-80222876D01*
X85905908Y-80282483D01*
X85956202Y-80417328D01*
X85956206Y-80417335D01*
X86042452Y-80532544D01*
X86042455Y-80532547D01*
X86157664Y-80618793D01*
X86157671Y-80618797D01*
X86202618Y-80635561D01*
X86292517Y-80669091D01*
X86327596Y-80672862D01*
X86392144Y-80699599D01*
X86431993Y-80756991D01*
X86434488Y-80826816D01*
X86398836Y-80886905D01*
X86385464Y-80897725D01*
X86360858Y-80914954D01*
X86199954Y-81075858D01*
X86069432Y-81262265D01*
X86069431Y-81262267D01*
X85973261Y-81468502D01*
X85973258Y-81468511D01*
X85914366Y-81688302D01*
X85914364Y-81688313D01*
X85894532Y-81914998D01*
X85894532Y-81915001D01*
X85914364Y-82141686D01*
X85914366Y-82141697D01*
X85940152Y-82237931D01*
X85938489Y-82307781D01*
X85908058Y-82357705D01*
X84631286Y-83634478D01*
X84519481Y-83746282D01*
X84519479Y-83746285D01*
X84489616Y-83798011D01*
X84489615Y-83798013D01*
X84440423Y-83883214D01*
X84440423Y-83883215D01*
X84399499Y-84035943D01*
X84399499Y-84035945D01*
X84399499Y-84204046D01*
X84399500Y-84204059D01*
X84399500Y-98699903D01*
X84379815Y-98766942D01*
X84363181Y-98787584D01*
X82937584Y-100213181D01*
X82876261Y-100246666D01*
X82849903Y-100249500D01*
X63776669Y-100249500D01*
X63776653Y-100249499D01*
X63769057Y-100249499D01*
X63610943Y-100249499D01*
X63503587Y-100278265D01*
X63458210Y-100290424D01*
X63458209Y-100290425D01*
X63408096Y-100319359D01*
X63408095Y-100319360D01*
X63376317Y-100337706D01*
X63321281Y-100369481D01*
X63288528Y-100402234D01*
X63227205Y-100435719D01*
X63168755Y-100434327D01*
X63040413Y-100399938D01*
X63040403Y-100399936D01*
X62805001Y-100379341D01*
X62804999Y-100379341D01*
X62569596Y-100399936D01*
X62569586Y-100399938D01*
X62341344Y-100461094D01*
X62341335Y-100461098D01*
X62127171Y-100560964D01*
X62127169Y-100560965D01*
X61933600Y-100696503D01*
X61811284Y-100818819D01*
X61749961Y-100852303D01*
X61680269Y-100847319D01*
X61624336Y-100805447D01*
X61607421Y-100774470D01*
X61558354Y-100642913D01*
X61558350Y-100642906D01*
X61472190Y-100527812D01*
X61472187Y-100527809D01*
X61357093Y-100441649D01*
X61357086Y-100441645D01*
X61222379Y-100391403D01*
X61222372Y-100391401D01*
X61162844Y-100385000D01*
X60515000Y-100385000D01*
X60515000Y-101301988D01*
X60457993Y-101269075D01*
X60330826Y-101235000D01*
X60199174Y-101235000D01*
X60072007Y-101269075D01*
X60015000Y-101301988D01*
X60015000Y-100385000D01*
X59367155Y-100385000D01*
X59307627Y-100391401D01*
X59307620Y-100391403D01*
X59172913Y-100441645D01*
X59172906Y-100441649D01*
X59057812Y-100527809D01*
X59057809Y-100527812D01*
X58971649Y-100642906D01*
X58971645Y-100642913D01*
X58921403Y-100777620D01*
X58921401Y-100777627D01*
X58915000Y-100837155D01*
X58915000Y-101485000D01*
X59831988Y-101485000D01*
X59799075Y-101542007D01*
X59765000Y-101669174D01*
X59765000Y-101800826D01*
X59799075Y-101927993D01*
X59831988Y-101985000D01*
X58915000Y-101985000D01*
X58915000Y-102632844D01*
X58921401Y-102692372D01*
X58921403Y-102692379D01*
X58971645Y-102827086D01*
X58971649Y-102827093D01*
X59057809Y-102942187D01*
X59057812Y-102942190D01*
X59172906Y-103028350D01*
X59172913Y-103028354D01*
X59307620Y-103078596D01*
X59307627Y-103078598D01*
X59367155Y-103084999D01*
X59367172Y-103085000D01*
X60015000Y-103085000D01*
X60015000Y-102168012D01*
X60072007Y-102200925D01*
X60199174Y-102235000D01*
X60330826Y-102235000D01*
X60457993Y-102200925D01*
X60515000Y-102168012D01*
X60515000Y-103085000D01*
X61162828Y-103085000D01*
X61162844Y-103084999D01*
X61222372Y-103078598D01*
X61222379Y-103078596D01*
X61357086Y-103028354D01*
X61357093Y-103028350D01*
X61472187Y-102942190D01*
X61472190Y-102942187D01*
X61558350Y-102827093D01*
X61558354Y-102827086D01*
X61607422Y-102695529D01*
X61649293Y-102639595D01*
X61714757Y-102615178D01*
X61783030Y-102630030D01*
X61811285Y-102651181D01*
X61933599Y-102773495D01*
X62010135Y-102827086D01*
X62127165Y-102909032D01*
X62127167Y-102909033D01*
X62127170Y-102909035D01*
X62341337Y-103008903D01*
X62569592Y-103070063D01*
X62740319Y-103085000D01*
X62804999Y-103090659D01*
X62805000Y-103090659D01*
X62805001Y-103090659D01*
X62869681Y-103085000D01*
X63040408Y-103070063D01*
X63268663Y-103008903D01*
X63482830Y-102909035D01*
X63676401Y-102773495D01*
X63843495Y-102606401D01*
X63979035Y-102412830D01*
X64078903Y-102198663D01*
X64140063Y-101970408D01*
X64160659Y-101735000D01*
X64147562Y-101585306D01*
X64161328Y-101516808D01*
X64209943Y-101466625D01*
X64271090Y-101450500D01*
X67526000Y-101450500D01*
X67593039Y-101470185D01*
X67638794Y-101522989D01*
X67650000Y-101574500D01*
X67650000Y-101750000D01*
X68566988Y-101750000D01*
X68534075Y-101807007D01*
X68500000Y-101934174D01*
X68500000Y-102065826D01*
X68534075Y-102192993D01*
X68566988Y-102250000D01*
X67650000Y-102250000D01*
X67650000Y-102897844D01*
X67656401Y-102957372D01*
X67656403Y-102957379D01*
X67706645Y-103092086D01*
X67706649Y-103092093D01*
X67792809Y-103207187D01*
X67792812Y-103207190D01*
X67907906Y-103293350D01*
X67907913Y-103293354D01*
X68042620Y-103343596D01*
X68042627Y-103343598D01*
X68102155Y-103349999D01*
X68102172Y-103350000D01*
X68750000Y-103350000D01*
X68750000Y-102433012D01*
X68807007Y-102465925D01*
X68934174Y-102500000D01*
X69065826Y-102500000D01*
X69192993Y-102465925D01*
X69250000Y-102433012D01*
X69250000Y-103350000D01*
X69897828Y-103350000D01*
X69897844Y-103349999D01*
X69957372Y-103343598D01*
X69957379Y-103343596D01*
X70092086Y-103293354D01*
X70092093Y-103293350D01*
X70207187Y-103207190D01*
X70207190Y-103207187D01*
X70293350Y-103092093D01*
X70293354Y-103092086D01*
X70342422Y-102960529D01*
X70384293Y-102904595D01*
X70449757Y-102880178D01*
X70518030Y-102895030D01*
X70546285Y-102916181D01*
X70668599Y-103038495D01*
X70713680Y-103070061D01*
X70862165Y-103174032D01*
X70862167Y-103174033D01*
X70862170Y-103174035D01*
X71076337Y-103273903D01*
X71076343Y-103273904D01*
X71076344Y-103273905D01*
X71131285Y-103288626D01*
X71304592Y-103335063D01*
X71475319Y-103350000D01*
X71539999Y-103355659D01*
X71540000Y-103355659D01*
X71540001Y-103355659D01*
X71604681Y-103350000D01*
X71775408Y-103335063D01*
X72003663Y-103273903D01*
X72217830Y-103174035D01*
X72411401Y-103038495D01*
X72578495Y-102871401D01*
X72714035Y-102677830D01*
X72813903Y-102463663D01*
X72875063Y-102235408D01*
X72895659Y-102000000D01*
X72875063Y-101764592D01*
X72832728Y-101606593D01*
X72834391Y-101536743D01*
X72873554Y-101478881D01*
X72937782Y-101451377D01*
X72952503Y-101450500D01*
X76526000Y-101450500D01*
X76593039Y-101470185D01*
X76638794Y-101522989D01*
X76650000Y-101574500D01*
X76650000Y-101750000D01*
X77566988Y-101750000D01*
X77534075Y-101807007D01*
X77500000Y-101934174D01*
X77500000Y-102065826D01*
X77534075Y-102192993D01*
X77566988Y-102250000D01*
X76650000Y-102250000D01*
X76650000Y-102897844D01*
X76656401Y-102957372D01*
X76656403Y-102957379D01*
X76706645Y-103092086D01*
X76706649Y-103092093D01*
X76792809Y-103207187D01*
X76792812Y-103207190D01*
X76907906Y-103293350D01*
X76907913Y-103293354D01*
X77042620Y-103343596D01*
X77042627Y-103343598D01*
X77102155Y-103349999D01*
X77102172Y-103350000D01*
X77750000Y-103350000D01*
X77750000Y-102433012D01*
X77807007Y-102465925D01*
X77934174Y-102500000D01*
X78065826Y-102500000D01*
X78192993Y-102465925D01*
X78250000Y-102433012D01*
X78250000Y-103350000D01*
X78897828Y-103350000D01*
X78897844Y-103349999D01*
X78957372Y-103343598D01*
X78957379Y-103343596D01*
X79092086Y-103293354D01*
X79092093Y-103293350D01*
X79207187Y-103207190D01*
X79207190Y-103207187D01*
X79293350Y-103092093D01*
X79293354Y-103092086D01*
X79342422Y-102960529D01*
X79384293Y-102904595D01*
X79449757Y-102880178D01*
X79518030Y-102895030D01*
X79546285Y-102916181D01*
X79668599Y-103038495D01*
X79713680Y-103070061D01*
X79862165Y-103174032D01*
X79862167Y-103174033D01*
X79862170Y-103174035D01*
X80076337Y-103273903D01*
X80076343Y-103273904D01*
X80076344Y-103273905D01*
X80131285Y-103288626D01*
X80304592Y-103335063D01*
X80475319Y-103350000D01*
X80539999Y-103355659D01*
X80540000Y-103355659D01*
X80540001Y-103355659D01*
X80604681Y-103350000D01*
X80775408Y-103335063D01*
X81003663Y-103273903D01*
X81217830Y-103174035D01*
X81411401Y-103038495D01*
X81578495Y-102871401D01*
X81714035Y-102677830D01*
X81813903Y-102463663D01*
X81875063Y-102235408D01*
X81895659Y-102000000D01*
X81875063Y-101764592D01*
X81832728Y-101606593D01*
X81834391Y-101536743D01*
X81873554Y-101478881D01*
X81937782Y-101451377D01*
X81952503Y-101450500D01*
X83063331Y-101450500D01*
X83063347Y-101450501D01*
X83070943Y-101450501D01*
X83229054Y-101450501D01*
X83229057Y-101450501D01*
X83381785Y-101409577D01*
X83456770Y-101366284D01*
X83518716Y-101330520D01*
X83630520Y-101218716D01*
X83630520Y-101218714D01*
X83640724Y-101208511D01*
X83640728Y-101208506D01*
X85358506Y-99490728D01*
X85358511Y-99490724D01*
X85368714Y-99480520D01*
X85368716Y-99480520D01*
X85480520Y-99368716D01*
X85495023Y-99343596D01*
X85535260Y-99273904D01*
X85535261Y-99273902D01*
X85559574Y-99231790D01*
X85559573Y-99231790D01*
X85559577Y-99231785D01*
X85600500Y-99079057D01*
X85600500Y-98920943D01*
X85600500Y-88184097D01*
X85620185Y-88117058D01*
X85672989Y-88071303D01*
X85742147Y-88061359D01*
X85805703Y-88090384D01*
X85812181Y-88096416D01*
X86218107Y-88502342D01*
X86251592Y-88563665D01*
X86246608Y-88633357D01*
X86218111Y-88677700D01*
X86199954Y-88695857D01*
X86069432Y-88882265D01*
X86069431Y-88882267D01*
X85973261Y-89088502D01*
X85973258Y-89088511D01*
X85914366Y-89308302D01*
X85914364Y-89308313D01*
X85894532Y-89534998D01*
X85894532Y-89535001D01*
X85914364Y-89761686D01*
X85914366Y-89761697D01*
X85973258Y-89981488D01*
X85973261Y-89981497D01*
X86069431Y-90187732D01*
X86069432Y-90187734D01*
X86199954Y-90374141D01*
X86360858Y-90535045D01*
X86360861Y-90535047D01*
X86547266Y-90665568D01*
X86605275Y-90692618D01*
X86657714Y-90738791D01*
X86676866Y-90805984D01*
X86656650Y-90872865D01*
X86605275Y-90917382D01*
X86547267Y-90944431D01*
X86547265Y-90944432D01*
X86360858Y-91074954D01*
X86199954Y-91235858D01*
X86069432Y-91422265D01*
X86069431Y-91422267D01*
X85973261Y-91628502D01*
X85973258Y-91628511D01*
X85914366Y-91848302D01*
X85914364Y-91848313D01*
X85894532Y-92074998D01*
X85894532Y-92075001D01*
X85914364Y-92301686D01*
X85914366Y-92301697D01*
X85973258Y-92521488D01*
X85973261Y-92521497D01*
X86069431Y-92727732D01*
X86069432Y-92727734D01*
X86199954Y-92914141D01*
X86360858Y-93075045D01*
X86360861Y-93075047D01*
X86547266Y-93205568D01*
X86605275Y-93232618D01*
X86657714Y-93278791D01*
X86676866Y-93345984D01*
X86656650Y-93412865D01*
X86605275Y-93457382D01*
X86547267Y-93484431D01*
X86547265Y-93484432D01*
X86360858Y-93614954D01*
X86199954Y-93775858D01*
X86069432Y-93962265D01*
X86069431Y-93962267D01*
X85973261Y-94168502D01*
X85973258Y-94168511D01*
X85914366Y-94388302D01*
X85914364Y-94388313D01*
X85894532Y-94614998D01*
X85894532Y-94615001D01*
X85914364Y-94841686D01*
X85914366Y-94841697D01*
X85973258Y-95061488D01*
X85973261Y-95061497D01*
X86069431Y-95267732D01*
X86069432Y-95267734D01*
X86199954Y-95454141D01*
X86360858Y-95615045D01*
X86360861Y-95615047D01*
X86547266Y-95745568D01*
X86753504Y-95841739D01*
X86973308Y-95900635D01*
X87135230Y-95914801D01*
X87199998Y-95920468D01*
X87200000Y-95920468D01*
X87200002Y-95920468D01*
X87256673Y-95915509D01*
X87426692Y-95900635D01*
X87646496Y-95841739D01*
X87852734Y-95745568D01*
X88039139Y-95615047D01*
X88200047Y-95454139D01*
X88330568Y-95267734D01*
X88426739Y-95061496D01*
X88485635Y-94841692D01*
X88505468Y-94615000D01*
X88485635Y-94388308D01*
X88426739Y-94168504D01*
X88330568Y-93962266D01*
X88200047Y-93775861D01*
X88200045Y-93775858D01*
X88039141Y-93614954D01*
X87852734Y-93484432D01*
X87852728Y-93484429D01*
X87794725Y-93457382D01*
X87742285Y-93411210D01*
X87723133Y-93344017D01*
X87743348Y-93277135D01*
X87794725Y-93232618D01*
X87852734Y-93205568D01*
X88039139Y-93075047D01*
X88200047Y-92914139D01*
X88330568Y-92727734D01*
X88426739Y-92521496D01*
X88485635Y-92301692D01*
X88505468Y-92075000D01*
X88504665Y-92065826D01*
X88485635Y-91848313D01*
X88485635Y-91848308D01*
X88426739Y-91628504D01*
X88330568Y-91422266D01*
X88200047Y-91235861D01*
X88200045Y-91235858D01*
X88039141Y-91074954D01*
X87852734Y-90944432D01*
X87852728Y-90944429D01*
X87794725Y-90917382D01*
X87742285Y-90871210D01*
X87723133Y-90804017D01*
X87743348Y-90737135D01*
X87794725Y-90692618D01*
X87852734Y-90665568D01*
X88039139Y-90535047D01*
X88200047Y-90374139D01*
X88330568Y-90187734D01*
X88426739Y-89981496D01*
X88485635Y-89761692D01*
X88505468Y-89535000D01*
X88485635Y-89308308D01*
X88465759Y-89234128D01*
X88454362Y-89191593D01*
X88456025Y-89121743D01*
X88495188Y-89063881D01*
X88559417Y-89036377D01*
X88574137Y-89035500D01*
X90879903Y-89035500D01*
X90946942Y-89055185D01*
X90967584Y-89071819D01*
X93528058Y-91632293D01*
X93561543Y-91693616D01*
X93560152Y-91752067D01*
X93534366Y-91848302D01*
X93534364Y-91848313D01*
X93514532Y-92074998D01*
X93514532Y-92075001D01*
X93534364Y-92301686D01*
X93534366Y-92301697D01*
X93593258Y-92521488D01*
X93593261Y-92521497D01*
X93689431Y-92727732D01*
X93689432Y-92727734D01*
X93819954Y-92914141D01*
X93980858Y-93075045D01*
X93980861Y-93075047D01*
X94167266Y-93205568D01*
X94225275Y-93232618D01*
X94277714Y-93278791D01*
X94296866Y-93345984D01*
X94276650Y-93412865D01*
X94225275Y-93457382D01*
X94167267Y-93484431D01*
X94167265Y-93484432D01*
X93980858Y-93614954D01*
X93819954Y-93775858D01*
X93689432Y-93962265D01*
X93689431Y-93962267D01*
X93593261Y-94168502D01*
X93593258Y-94168511D01*
X93534366Y-94388302D01*
X93534364Y-94388313D01*
X93514532Y-94614998D01*
X93514532Y-94615001D01*
X93534364Y-94841686D01*
X93534366Y-94841697D01*
X93593258Y-95061488D01*
X93593261Y-95061497D01*
X93689431Y-95267732D01*
X93689432Y-95267734D01*
X93819954Y-95454141D01*
X93980858Y-95615045D01*
X93980861Y-95615047D01*
X94167266Y-95745568D01*
X94373504Y-95841739D01*
X94593308Y-95900635D01*
X94755230Y-95914801D01*
X94819998Y-95920468D01*
X94820000Y-95920468D01*
X94820002Y-95920468D01*
X94876673Y-95915509D01*
X95046692Y-95900635D01*
X95266496Y-95841739D01*
X95472734Y-95745568D01*
X95659139Y-95615047D01*
X95820047Y-95454139D01*
X95950568Y-95267734D01*
X96046739Y-95061496D01*
X96105635Y-94841692D01*
X96125468Y-94615000D01*
X96105635Y-94388308D01*
X96046739Y-94168504D01*
X95950568Y-93962266D01*
X95820047Y-93775861D01*
X95820045Y-93775858D01*
X95659141Y-93614954D01*
X95472734Y-93484432D01*
X95472728Y-93484429D01*
X95414725Y-93457382D01*
X95362285Y-93411210D01*
X95343133Y-93344017D01*
X95363348Y-93277135D01*
X95414725Y-93232618D01*
X95472734Y-93205568D01*
X95659139Y-93075047D01*
X95820047Y-92914139D01*
X95950568Y-92727734D01*
X96046739Y-92521496D01*
X96105635Y-92301692D01*
X96125468Y-92075000D01*
X96124665Y-92065826D01*
X96105635Y-91848313D01*
X96105635Y-91848308D01*
X96046739Y-91628504D01*
X95950568Y-91422266D01*
X95820047Y-91235861D01*
X95820045Y-91235858D01*
X95659141Y-91074954D01*
X95472734Y-90944432D01*
X95472728Y-90944429D01*
X95414725Y-90917382D01*
X95362285Y-90871210D01*
X95343133Y-90804017D01*
X95363348Y-90737135D01*
X95414725Y-90692618D01*
X95472734Y-90665568D01*
X95659139Y-90535047D01*
X95820047Y-90374139D01*
X95950118Y-90188375D01*
X96004693Y-90144752D01*
X96051692Y-90135500D01*
X98378331Y-90135500D01*
X98378347Y-90135501D01*
X98385943Y-90135501D01*
X98544054Y-90135501D01*
X98544057Y-90135501D01*
X98696785Y-90094577D01*
X98746904Y-90065639D01*
X98833716Y-90015520D01*
X98945520Y-89903716D01*
X98945520Y-89903714D01*
X98955728Y-89893507D01*
X98955730Y-89893504D01*
X99358506Y-89490728D01*
X99358511Y-89490724D01*
X99368714Y-89480520D01*
X99368716Y-89480520D01*
X99480520Y-89368716D01*
X99536166Y-89272334D01*
X99559577Y-89231785D01*
X99600500Y-89079058D01*
X99600500Y-88920943D01*
X99600500Y-86665731D01*
X99620185Y-86598692D01*
X99636815Y-86578054D01*
X100468713Y-85746156D01*
X100468716Y-85746155D01*
X100580520Y-85634351D01*
X100630639Y-85547539D01*
X100659577Y-85497420D01*
X100700501Y-85344692D01*
X100700501Y-85186578D01*
X100700501Y-85178983D01*
X100700500Y-85178965D01*
X100700500Y-61189059D01*
X100700501Y-61189046D01*
X100700501Y-61020945D01*
X100700501Y-61020943D01*
X100659577Y-60868215D01*
X100622169Y-60803423D01*
X100590546Y-60748649D01*
X100580522Y-60731287D01*
X100580521Y-60731286D01*
X100580520Y-60731284D01*
X100468716Y-60619480D01*
X100468715Y-60619479D01*
X100464385Y-60615149D01*
X100464374Y-60615139D01*
X99830700Y-59981465D01*
X99797215Y-59920142D01*
X99795163Y-59907686D01*
X99785368Y-59820745D01*
X99725789Y-59650478D01*
X99629816Y-59497738D01*
X99629814Y-59497736D01*
X99629813Y-59497734D01*
X99627550Y-59494896D01*
X99626659Y-59492715D01*
X99626111Y-59491842D01*
X99626264Y-59491745D01*
X99601144Y-59430209D01*
X99600500Y-59417587D01*
X99600500Y-56421692D01*
X99620185Y-56354653D01*
X99653374Y-56320119D01*
X99839139Y-56190047D01*
X100000047Y-56029139D01*
X100130568Y-55842734D01*
X100226739Y-55636496D01*
X100285635Y-55416692D01*
X100305468Y-55190000D01*
X100285635Y-54963308D01*
X100226739Y-54743504D01*
X100130568Y-54537266D01*
X100000047Y-54350861D01*
X100000045Y-54350858D01*
X99839141Y-54189954D01*
X99652734Y-54059432D01*
X99652732Y-54059431D01*
X99446497Y-53963261D01*
X99446488Y-53963258D01*
X99226697Y-53904366D01*
X99226693Y-53904365D01*
X99226692Y-53904365D01*
X99226691Y-53904364D01*
X99226686Y-53904364D01*
X99000002Y-53884532D01*
X98999998Y-53884532D01*
X98773313Y-53904364D01*
X98773302Y-53904366D01*
X98553511Y-53963258D01*
X98553502Y-53963261D01*
X98347267Y-54059431D01*
X98347265Y-54059432D01*
X98160858Y-54189954D01*
X97999954Y-54350858D01*
X97869432Y-54537265D01*
X97869431Y-54537267D01*
X97773261Y-54743502D01*
X97773258Y-54743511D01*
X97714366Y-54963302D01*
X97714364Y-54963313D01*
X97697081Y-55160861D01*
X97694532Y-55190000D01*
X97707471Y-55337898D01*
X97709816Y-55364692D01*
X97696050Y-55433192D01*
X97647434Y-55483375D01*
X97586288Y-55499500D01*
X96051692Y-55499500D01*
X95984653Y-55479815D01*
X95950119Y-55446625D01*
X95820047Y-55260861D01*
X95820045Y-55260858D01*
X95659141Y-55099954D01*
X95472734Y-54969432D01*
X95472732Y-54969431D01*
X95266497Y-54873261D01*
X95266488Y-54873258D01*
X95046697Y-54814366D01*
X95046693Y-54814365D01*
X95046692Y-54814365D01*
X95046691Y-54814364D01*
X95046686Y-54814364D01*
X94820002Y-54794532D01*
X94819998Y-54794532D01*
X94593313Y-54814364D01*
X94593302Y-54814366D01*
X94373511Y-54873258D01*
X94373502Y-54873261D01*
X94167267Y-54969431D01*
X94167265Y-54969432D01*
X93980858Y-55099954D01*
X93819954Y-55260858D01*
X93759453Y-55347265D01*
X93689881Y-55446624D01*
X93635307Y-55490248D01*
X93588308Y-55499500D01*
X91654463Y-55499500D01*
X91587424Y-55479815D01*
X91566782Y-55463181D01*
X89560042Y-53456441D01*
X87432075Y-51328475D01*
X87398591Y-51267153D01*
X87403575Y-51197461D01*
X87445447Y-51141528D01*
X87458361Y-51133827D01*
X87458043Y-51133276D01*
X87462725Y-51130572D01*
X87462734Y-51130568D01*
X87649139Y-51000047D01*
X87810047Y-50839139D01*
X87940118Y-50653375D01*
X87994693Y-50609752D01*
X88041692Y-50600500D01*
X88768308Y-50600500D01*
X88835347Y-50620185D01*
X88869880Y-50653374D01*
X88912586Y-50714365D01*
X88999954Y-50839141D01*
X89160858Y-51000045D01*
X89160861Y-51000047D01*
X89347266Y-51130568D01*
X89553504Y-51226739D01*
X89773308Y-51285635D01*
X89935230Y-51299801D01*
X89999998Y-51305468D01*
X90000000Y-51305468D01*
X90000002Y-51305468D01*
X90056673Y-51300509D01*
X90226692Y-51285635D01*
X90446496Y-51226739D01*
X90652734Y-51130568D01*
X90839139Y-51000047D01*
X91000047Y-50839139D01*
X91130568Y-50652734D01*
X91226739Y-50446496D01*
X91285635Y-50226692D01*
X91305468Y-50000001D01*
X96314532Y-50000001D01*
X96334364Y-50226686D01*
X96334366Y-50226697D01*
X96393258Y-50446488D01*
X96393261Y-50446497D01*
X96489431Y-50652732D01*
X96489432Y-50652734D01*
X96619954Y-50839141D01*
X96780858Y-51000045D01*
X96780861Y-51000047D01*
X96967266Y-51130568D01*
X97173504Y-51226739D01*
X97393308Y-51285635D01*
X97555230Y-51299801D01*
X97619998Y-51305468D01*
X97620000Y-51305468D01*
X97620002Y-51305468D01*
X97676673Y-51300509D01*
X97846692Y-51285635D01*
X98066496Y-51226739D01*
X98272734Y-51130568D01*
X98459139Y-51000047D01*
X98620047Y-50839139D01*
X98750568Y-50652734D01*
X98846739Y-50446496D01*
X98905635Y-50226692D01*
X98925468Y-50000000D01*
X98905635Y-49773308D01*
X98854100Y-49580977D01*
X98846741Y-49553511D01*
X98846738Y-49553502D01*
X98794241Y-49440923D01*
X98750568Y-49347266D01*
X98620047Y-49160861D01*
X98620045Y-49160858D01*
X98459141Y-48999954D01*
X98272734Y-48869432D01*
X98272732Y-48869431D01*
X98066497Y-48773261D01*
X98066488Y-48773258D01*
X97846697Y-48714366D01*
X97846693Y-48714365D01*
X97846692Y-48714365D01*
X97846691Y-48714364D01*
X97846686Y-48714364D01*
X97620002Y-48694532D01*
X97619998Y-48694532D01*
X97393313Y-48714364D01*
X97393302Y-48714366D01*
X97173511Y-48773258D01*
X97173502Y-48773261D01*
X96967267Y-48869431D01*
X96967265Y-48869432D01*
X96780858Y-48999954D01*
X96619954Y-49160858D01*
X96489432Y-49347265D01*
X96489431Y-49347267D01*
X96393261Y-49553502D01*
X96393258Y-49553511D01*
X96334366Y-49773302D01*
X96334364Y-49773313D01*
X96314532Y-49999998D01*
X96314532Y-50000001D01*
X91305468Y-50000001D01*
X91305468Y-50000000D01*
X91285635Y-49773308D01*
X91234100Y-49580977D01*
X91226741Y-49553511D01*
X91226738Y-49553502D01*
X91174241Y-49440923D01*
X91130568Y-49347266D01*
X91000047Y-49160861D01*
X91000045Y-49160858D01*
X90839141Y-48999954D01*
X90652734Y-48869432D01*
X90652732Y-48869431D01*
X90446497Y-48773261D01*
X90446488Y-48773258D01*
X90226697Y-48714366D01*
X90226693Y-48714365D01*
X90226692Y-48714365D01*
X90226691Y-48714364D01*
X90226686Y-48714364D01*
X90000002Y-48694532D01*
X89999998Y-48694532D01*
X89773313Y-48714364D01*
X89773302Y-48714366D01*
X89553511Y-48773258D01*
X89553502Y-48773261D01*
X89347267Y-48869431D01*
X89347265Y-48869432D01*
X89160858Y-48999954D01*
X88999954Y-49160858D01*
X88923450Y-49270118D01*
X88869881Y-49346624D01*
X88815307Y-49390248D01*
X88768308Y-49399500D01*
X88041692Y-49399500D01*
X87974653Y-49379815D01*
X87940119Y-49346625D01*
X87810047Y-49160861D01*
X87810045Y-49160858D01*
X87649141Y-48999954D01*
X87462734Y-48869432D01*
X87462732Y-48869431D01*
X87256497Y-48773261D01*
X87256488Y-48773258D01*
X87036697Y-48714366D01*
X87036693Y-48714365D01*
X87036692Y-48714365D01*
X87036691Y-48714364D01*
X87036686Y-48714364D01*
X86810002Y-48694532D01*
X86809998Y-48694532D01*
X86583313Y-48714364D01*
X86583302Y-48714366D01*
X86363511Y-48773258D01*
X86363502Y-48773261D01*
X86157267Y-48869431D01*
X86157265Y-48869432D01*
X85970858Y-48999954D01*
X85809954Y-49160858D01*
X85679430Y-49347268D01*
X85679427Y-49347273D01*
X85661396Y-49385941D01*
X85615223Y-49438380D01*
X85548029Y-49457531D01*
X85493956Y-49442812D01*
X85493658Y-49443533D01*
X85488009Y-49441193D01*
X85487017Y-49440923D01*
X85486152Y-49440424D01*
X85486151Y-49440423D01*
X85486150Y-49440423D01*
X85333422Y-49399499D01*
X85175308Y-49399499D01*
X85167712Y-49399499D01*
X85167696Y-49399500D01*
X80421692Y-49399500D01*
X80354653Y-49379815D01*
X80320119Y-49346625D01*
X80190047Y-49160861D01*
X80190045Y-49160858D01*
X80029141Y-48999954D01*
X79842734Y-48869432D01*
X79842732Y-48869431D01*
X79636497Y-48773261D01*
X79636488Y-48773258D01*
X79416697Y-48714366D01*
X79416693Y-48714365D01*
X79416692Y-48714365D01*
X79416691Y-48714364D01*
X79416686Y-48714364D01*
X79190002Y-48694532D01*
X79189998Y-48694532D01*
X78963313Y-48714364D01*
X78963302Y-48714366D01*
X78743511Y-48773258D01*
X78743502Y-48773261D01*
X78537267Y-48869431D01*
X78537265Y-48869432D01*
X78350858Y-48999954D01*
X78189954Y-49160858D01*
X78058549Y-49348527D01*
X78003973Y-49392152D01*
X77987212Y-49396609D01*
X77987423Y-49397396D01*
X77979574Y-49399499D01*
X77979573Y-49399499D01*
X77914250Y-49417002D01*
X77826844Y-49440423D01*
X77826839Y-49440426D01*
X77689920Y-49519475D01*
X77689912Y-49519481D01*
X74846214Y-52363181D01*
X74784891Y-52396666D01*
X74758533Y-52399500D01*
X72086670Y-52399500D01*
X72086654Y-52399499D01*
X72079058Y-52399499D01*
X71920943Y-52399499D01*
X71844579Y-52419961D01*
X71768214Y-52440423D01*
X71768209Y-52440426D01*
X71631290Y-52519475D01*
X71631282Y-52519481D01*
X68519479Y-55631284D01*
X68502367Y-55660924D01*
X68495134Y-55673453D01*
X68440423Y-55768215D01*
X68399499Y-55920943D01*
X68399499Y-55920945D01*
X68399499Y-56089046D01*
X68399500Y-56089059D01*
X68399500Y-62913330D01*
X68399499Y-62913348D01*
X68399499Y-63079054D01*
X68399498Y-63079054D01*
X68440424Y-63231787D01*
X68454689Y-63256494D01*
X68454690Y-63256496D01*
X68519477Y-63368712D01*
X68519481Y-63368717D01*
X68638348Y-63487584D01*
X68638355Y-63487590D01*
X70895139Y-65744374D01*
X70895149Y-65744385D01*
X70899479Y-65748715D01*
X70899480Y-65748716D01*
X71011284Y-65860520D01*
X71057599Y-65887259D01*
X71098095Y-65910639D01*
X71098097Y-65910641D01*
X71148212Y-65939576D01*
X71155725Y-65942688D01*
X71155232Y-65943876D01*
X71207811Y-65975916D01*
X71238347Y-66038759D01*
X71230060Y-66108136D01*
X71203747Y-66147017D01*
X70987584Y-66363181D01*
X70926261Y-66396666D01*
X70899903Y-66399500D01*
X66620094Y-66399500D01*
X66553055Y-66379815D01*
X66507300Y-66327011D01*
X66496804Y-66262246D01*
X66500500Y-66227873D01*
X66500499Y-64532128D01*
X66494091Y-64472517D01*
X66484386Y-64446497D01*
X66443797Y-64337671D01*
X66443793Y-64337664D01*
X66357547Y-64222455D01*
X66357544Y-64222452D01*
X66242335Y-64136206D01*
X66242328Y-64136202D01*
X66107482Y-64085908D01*
X66107483Y-64085908D01*
X66047883Y-64079501D01*
X66047881Y-64079500D01*
X66047873Y-64079500D01*
X66047864Y-64079500D01*
X64352129Y-64079500D01*
X64352123Y-64079501D01*
X64292516Y-64085908D01*
X64157671Y-64136202D01*
X64157664Y-64136206D01*
X64042455Y-64222452D01*
X64042452Y-64222455D01*
X63956206Y-64337664D01*
X63956202Y-64337671D01*
X63905908Y-64472517D01*
X63903292Y-64496855D01*
X63899500Y-64532127D01*
X63899500Y-65370184D01*
X63899501Y-66095500D01*
X63879816Y-66162539D01*
X63827013Y-66208294D01*
X63775501Y-66219500D01*
X63175733Y-66219500D01*
X63108694Y-66199815D01*
X63088052Y-66183181D01*
X62824352Y-65919481D01*
X62824351Y-65919480D01*
X62737539Y-65869360D01*
X62737539Y-65869359D01*
X62737535Y-65869358D01*
X62687420Y-65840423D01*
X62534692Y-65799499D01*
X62376578Y-65799499D01*
X62368982Y-65799499D01*
X62368966Y-65799500D01*
X55729097Y-65799500D01*
X55662058Y-65779815D01*
X55616303Y-65727011D01*
X55606359Y-65657853D01*
X55635384Y-65594297D01*
X55641416Y-65587819D01*
X57229234Y-64000001D01*
X60694532Y-64000001D01*
X60714364Y-64226686D01*
X60714366Y-64226697D01*
X60773258Y-64446488D01*
X60773261Y-64446497D01*
X60869431Y-64652732D01*
X60869432Y-64652734D01*
X60999954Y-64839141D01*
X61160858Y-65000045D01*
X61187473Y-65018681D01*
X61347266Y-65130568D01*
X61553504Y-65226739D01*
X61553509Y-65226740D01*
X61553511Y-65226741D01*
X61606415Y-65240916D01*
X61773308Y-65285635D01*
X61935230Y-65299801D01*
X61999998Y-65305468D01*
X62000000Y-65305468D01*
X62000002Y-65305468D01*
X62056673Y-65300509D01*
X62226692Y-65285635D01*
X62446496Y-65226739D01*
X62652734Y-65130568D01*
X62839139Y-65000047D01*
X63000047Y-64839139D01*
X63130568Y-64652734D01*
X63226739Y-64446496D01*
X63285635Y-64226692D01*
X63305468Y-64000000D01*
X63285635Y-63773308D01*
X63226739Y-63553504D01*
X63130568Y-63347266D01*
X63000047Y-63160861D01*
X63000045Y-63160858D01*
X62839141Y-62999954D01*
X62652734Y-62869432D01*
X62652732Y-62869431D01*
X62446497Y-62773261D01*
X62446488Y-62773258D01*
X62226697Y-62714366D01*
X62226693Y-62714365D01*
X62226692Y-62714365D01*
X62226691Y-62714364D01*
X62226686Y-62714364D01*
X62000002Y-62694532D01*
X61999998Y-62694532D01*
X61773313Y-62714364D01*
X61773302Y-62714366D01*
X61553511Y-62773258D01*
X61553502Y-62773261D01*
X61347267Y-62869431D01*
X61347265Y-62869432D01*
X61160858Y-62999954D01*
X60999954Y-63160858D01*
X60869432Y-63347265D01*
X60869431Y-63347267D01*
X60773261Y-63553502D01*
X60773258Y-63553511D01*
X60714366Y-63773302D01*
X60714364Y-63773313D01*
X60694532Y-63999998D01*
X60694532Y-64000001D01*
X57229234Y-64000001D01*
X58137054Y-63092181D01*
X60651055Y-60578179D01*
X60712376Y-60544696D01*
X60782068Y-60549680D01*
X60838001Y-60591552D01*
X60851116Y-60613456D01*
X60869431Y-60652733D01*
X60999954Y-60839141D01*
X61160858Y-61000045D01*
X61160861Y-61000047D01*
X61347266Y-61130568D01*
X61553504Y-61226739D01*
X61773308Y-61285635D01*
X61935230Y-61299801D01*
X61999998Y-61305468D01*
X62000000Y-61305468D01*
X62000002Y-61305468D01*
X62056673Y-61300509D01*
X62226692Y-61285635D01*
X62446496Y-61226739D01*
X62652734Y-61130568D01*
X62839139Y-61000047D01*
X63000047Y-60839139D01*
X63088426Y-60712919D01*
X63143001Y-60669295D01*
X63212499Y-60662101D01*
X63274854Y-60693623D01*
X63291570Y-60712915D01*
X63371816Y-60827518D01*
X63379955Y-60839142D01*
X63540858Y-61000045D01*
X63540861Y-61000047D01*
X63727266Y-61130568D01*
X63933504Y-61226739D01*
X64153308Y-61285635D01*
X64315230Y-61299801D01*
X64379998Y-61305468D01*
X64380000Y-61305468D01*
X64380002Y-61305468D01*
X64436673Y-61300509D01*
X64606692Y-61285635D01*
X64826496Y-61226739D01*
X65032734Y-61130568D01*
X65219139Y-61000047D01*
X65380047Y-60839139D01*
X65510568Y-60652734D01*
X65606739Y-60446496D01*
X65665635Y-60226692D01*
X65685468Y-60000000D01*
X65683846Y-59981465D01*
X65674217Y-59871401D01*
X65665635Y-59773308D01*
X65606739Y-59553504D01*
X65510568Y-59347266D01*
X65380047Y-59160861D01*
X65380045Y-59160858D01*
X65219141Y-58999954D01*
X65032734Y-58869432D01*
X65032732Y-58869431D01*
X64826497Y-58773261D01*
X64826488Y-58773258D01*
X64606697Y-58714366D01*
X64606693Y-58714365D01*
X64606692Y-58714365D01*
X64606691Y-58714364D01*
X64606686Y-58714364D01*
X64380002Y-58694532D01*
X64379998Y-58694532D01*
X64153313Y-58714364D01*
X64153302Y-58714366D01*
X63933511Y-58773258D01*
X63933502Y-58773261D01*
X63727267Y-58869431D01*
X63727265Y-58869432D01*
X63540858Y-58999954D01*
X63379954Y-59160858D01*
X63291575Y-59287079D01*
X63236999Y-59330704D01*
X63167500Y-59337898D01*
X63105145Y-59306376D01*
X63088425Y-59287079D01*
X63000045Y-59160858D01*
X62839141Y-58999954D01*
X62652733Y-58869431D01*
X62613456Y-58851116D01*
X62561017Y-58804943D01*
X62541866Y-58737749D01*
X62562083Y-58670868D01*
X62578176Y-58651058D01*
X63937295Y-57291939D01*
X63998616Y-57258456D01*
X64057067Y-57259846D01*
X64153308Y-57285635D01*
X64315230Y-57299801D01*
X64379998Y-57305468D01*
X64380000Y-57305468D01*
X64380002Y-57305468D01*
X64441391Y-57300097D01*
X64606692Y-57285635D01*
X64826496Y-57226739D01*
X65032734Y-57130568D01*
X65219139Y-57000047D01*
X65380047Y-56839139D01*
X65510568Y-56652734D01*
X65606739Y-56446496D01*
X65665635Y-56226692D01*
X65685468Y-56000000D01*
X65665635Y-55773308D01*
X65606739Y-55553504D01*
X65510568Y-55347266D01*
X65380047Y-55160861D01*
X65380045Y-55160858D01*
X65219140Y-54999953D01*
X65033377Y-54869881D01*
X64989752Y-54815304D01*
X64980500Y-54768306D01*
X64980500Y-51005911D01*
X65000185Y-50938872D01*
X65052989Y-50893117D01*
X65122147Y-50883173D01*
X65185703Y-50912198D01*
X65192181Y-50918230D01*
X65212478Y-50938527D01*
X65212481Y-50938529D01*
X65387419Y-51061021D01*
X65387421Y-51061022D01*
X65387420Y-51061022D01*
X65436309Y-51083819D01*
X65580970Y-51151276D01*
X65787253Y-51206549D01*
X65939215Y-51219844D01*
X65999998Y-51225162D01*
X66000000Y-51225162D01*
X66000002Y-51225162D01*
X66053186Y-51220508D01*
X66212747Y-51206549D01*
X66419030Y-51151276D01*
X66612581Y-51061021D01*
X66787519Y-50938529D01*
X66938529Y-50787519D01*
X67061021Y-50612581D01*
X67151276Y-50419030D01*
X67151280Y-50419013D01*
X67153130Y-50413936D01*
X67155253Y-50414709D01*
X67186576Y-50363305D01*
X67249419Y-50332766D01*
X67318796Y-50341050D01*
X67372680Y-50385528D01*
X67385827Y-50414315D01*
X67386870Y-50413936D01*
X67388722Y-50419022D01*
X67388724Y-50419030D01*
X67431171Y-50510058D01*
X67478977Y-50612578D01*
X67601472Y-50787521D01*
X67752478Y-50938527D01*
X67752481Y-50938529D01*
X67927419Y-51061021D01*
X67927421Y-51061022D01*
X67927420Y-51061022D01*
X67976309Y-51083819D01*
X68120970Y-51151276D01*
X68327253Y-51206549D01*
X68479215Y-51219844D01*
X68539998Y-51225162D01*
X68540000Y-51225162D01*
X68540002Y-51225162D01*
X68593186Y-51220508D01*
X68752747Y-51206549D01*
X68959030Y-51151276D01*
X69152581Y-51061021D01*
X69327519Y-50938529D01*
X69478529Y-50787519D01*
X69601021Y-50612581D01*
X69691276Y-50419030D01*
X69691280Y-50419013D01*
X69693130Y-50413936D01*
X69695253Y-50414709D01*
X69726576Y-50363305D01*
X69789419Y-50332766D01*
X69858796Y-50341050D01*
X69912680Y-50385528D01*
X69925827Y-50414315D01*
X69926870Y-50413936D01*
X69928722Y-50419022D01*
X69928724Y-50419030D01*
X69971171Y-50510058D01*
X70018977Y-50612578D01*
X70141472Y-50787521D01*
X70292478Y-50938527D01*
X70292481Y-50938529D01*
X70467419Y-51061021D01*
X70467421Y-51061022D01*
X70467420Y-51061022D01*
X70516309Y-51083819D01*
X70660970Y-51151276D01*
X70867253Y-51206549D01*
X71019215Y-51219844D01*
X71079998Y-51225162D01*
X71080000Y-51225162D01*
X71080002Y-51225162D01*
X71133186Y-51220508D01*
X71292747Y-51206549D01*
X71499030Y-51151276D01*
X71692581Y-51061021D01*
X71867519Y-50938529D01*
X72018529Y-50787519D01*
X72141021Y-50612581D01*
X72231276Y-50419030D01*
X72286549Y-50212747D01*
X72305162Y-50000000D01*
X72286549Y-49787253D01*
X72231276Y-49580970D01*
X72141021Y-49387419D01*
X72018529Y-49212481D01*
X72018527Y-49212478D01*
X71867521Y-49061472D01*
X71692578Y-48938977D01*
X71692579Y-48938977D01*
X71543436Y-48869431D01*
X71499030Y-48848724D01*
X71499026Y-48848723D01*
X71499022Y-48848721D01*
X71292752Y-48793452D01*
X71292748Y-48793451D01*
X71292747Y-48793451D01*
X71292746Y-48793450D01*
X71292741Y-48793450D01*
X71080002Y-48774838D01*
X71079998Y-48774838D01*
X70867258Y-48793450D01*
X70867247Y-48793452D01*
X70660977Y-48848721D01*
X70660968Y-48848725D01*
X70467421Y-48938977D01*
X70292478Y-49061472D01*
X70141472Y-49212478D01*
X70018977Y-49387421D01*
X69928725Y-49580968D01*
X69926870Y-49586064D01*
X69924749Y-49585292D01*
X69893406Y-49636710D01*
X69830558Y-49667237D01*
X69761183Y-49658939D01*
X69707307Y-49614452D01*
X69694169Y-49585685D01*
X69693130Y-49586064D01*
X69691279Y-49580983D01*
X69691276Y-49580970D01*
X69601021Y-49387419D01*
X69478529Y-49212481D01*
X69478527Y-49212478D01*
X69327521Y-49061472D01*
X69152578Y-48938977D01*
X69152579Y-48938977D01*
X69003436Y-48869431D01*
X68959030Y-48848724D01*
X68959026Y-48848723D01*
X68959022Y-48848721D01*
X68752752Y-48793452D01*
X68752748Y-48793451D01*
X68752747Y-48793451D01*
X68752746Y-48793450D01*
X68752741Y-48793450D01*
X68540002Y-48774838D01*
X68539998Y-48774838D01*
X68327258Y-48793450D01*
X68327247Y-48793452D01*
X68120977Y-48848721D01*
X68120968Y-48848725D01*
X67927421Y-48938977D01*
X67752478Y-49061472D01*
X67601472Y-49212478D01*
X67478977Y-49387421D01*
X67388725Y-49580968D01*
X67386870Y-49586064D01*
X67384749Y-49585292D01*
X67353406Y-49636710D01*
X67290558Y-49667237D01*
X67221183Y-49658939D01*
X67167307Y-49614452D01*
X67154169Y-49585685D01*
X67153130Y-49586064D01*
X67151279Y-49580983D01*
X67151276Y-49580970D01*
X67061021Y-49387419D01*
X66938529Y-49212481D01*
X66938527Y-49212478D01*
X66787521Y-49061472D01*
X66612578Y-48938977D01*
X66612579Y-48938977D01*
X66463436Y-48869431D01*
X66419030Y-48848724D01*
X66419026Y-48848723D01*
X66419022Y-48848721D01*
X66212752Y-48793452D01*
X66212748Y-48793451D01*
X66212747Y-48793451D01*
X66212746Y-48793450D01*
X66212741Y-48793450D01*
X66000002Y-48774838D01*
X65999998Y-48774838D01*
X65787258Y-48793450D01*
X65787247Y-48793452D01*
X65580977Y-48848721D01*
X65580968Y-48848725D01*
X65387421Y-48938977D01*
X65212478Y-49061472D01*
X65192181Y-49081770D01*
X65130858Y-49115255D01*
X65061166Y-49110271D01*
X65005233Y-49068399D01*
X64980816Y-49002935D01*
X64980500Y-48994089D01*
X64980500Y-43000000D01*
X88644341Y-43000000D01*
X88664936Y-43235403D01*
X88664938Y-43235413D01*
X88726094Y-43463655D01*
X88726096Y-43463659D01*
X88726097Y-43463663D01*
X88825965Y-43677830D01*
X88825967Y-43677834D01*
X88881984Y-43757834D01*
X88961505Y-43871401D01*
X89128599Y-44038495D01*
X89225384Y-44106265D01*
X89322165Y-44174032D01*
X89322167Y-44174033D01*
X89322170Y-44174035D01*
X89536337Y-44273903D01*
X89764592Y-44335063D01*
X89952918Y-44351539D01*
X89999999Y-44355659D01*
X90000000Y-44355659D01*
X90000001Y-44355659D01*
X90039234Y-44352226D01*
X90235408Y-44335063D01*
X90463663Y-44273903D01*
X90677830Y-44174035D01*
X90871401Y-44038495D01*
X91038495Y-43871401D01*
X91174035Y-43677830D01*
X91273903Y-43463663D01*
X91335063Y-43235408D01*
X91355659Y-43000000D01*
X91335063Y-42764592D01*
X91273903Y-42536337D01*
X91174035Y-42322171D01*
X91094512Y-42208599D01*
X91038494Y-42128597D01*
X90871402Y-41961506D01*
X90871396Y-41961501D01*
X90685842Y-41831575D01*
X90642217Y-41776998D01*
X90635023Y-41707500D01*
X90666546Y-41645145D01*
X90685842Y-41628425D01*
X90757706Y-41578105D01*
X90871401Y-41498495D01*
X91038495Y-41331401D01*
X91174035Y-41137830D01*
X91273903Y-40923663D01*
X91335063Y-40695408D01*
X91355659Y-40460000D01*
X91335063Y-40224592D01*
X91274885Y-40000001D01*
X91273905Y-39996344D01*
X91273904Y-39996343D01*
X91273903Y-39996337D01*
X91174035Y-39782171D01*
X91111592Y-39692993D01*
X91038496Y-39588600D01*
X90977863Y-39527967D01*
X90916567Y-39466671D01*
X90883084Y-39405351D01*
X90888068Y-39335659D01*
X90929939Y-39279725D01*
X90960915Y-39262810D01*
X91092331Y-39213796D01*
X91207546Y-39127546D01*
X91293796Y-39012331D01*
X91344091Y-38877483D01*
X91350500Y-38817873D01*
X91350499Y-37022128D01*
X91344091Y-36962517D01*
X91343152Y-36960000D01*
X91293797Y-36827671D01*
X91293793Y-36827664D01*
X91207547Y-36712455D01*
X91207544Y-36712452D01*
X91092335Y-36626206D01*
X91092328Y-36626202D01*
X90957482Y-36575908D01*
X90957483Y-36575908D01*
X90897883Y-36569501D01*
X90897881Y-36569500D01*
X90897873Y-36569500D01*
X90897864Y-36569500D01*
X89102129Y-36569500D01*
X89102123Y-36569501D01*
X89042516Y-36575908D01*
X88907671Y-36626202D01*
X88907664Y-36626206D01*
X88792455Y-36712452D01*
X88792452Y-36712455D01*
X88706206Y-36827664D01*
X88706202Y-36827671D01*
X88655908Y-36962517D01*
X88652272Y-36996344D01*
X88649501Y-37022123D01*
X88649500Y-37022135D01*
X88649500Y-38817870D01*
X88649501Y-38817876D01*
X88655908Y-38877483D01*
X88706202Y-39012328D01*
X88706206Y-39012335D01*
X88792452Y-39127544D01*
X88792455Y-39127547D01*
X88907664Y-39213793D01*
X88907671Y-39213797D01*
X89039081Y-39262810D01*
X89095015Y-39304681D01*
X89119432Y-39370145D01*
X89104580Y-39438418D01*
X89083430Y-39466673D01*
X88961503Y-39588600D01*
X88825965Y-39782169D01*
X88825964Y-39782171D01*
X88726098Y-39996335D01*
X88726094Y-39996344D01*
X88664938Y-40224586D01*
X88664936Y-40224596D01*
X88644341Y-40459999D01*
X88644341Y-40460000D01*
X88664936Y-40695403D01*
X88664938Y-40695413D01*
X88726094Y-40923655D01*
X88726096Y-40923659D01*
X88726097Y-40923663D01*
X88779644Y-41038495D01*
X88825965Y-41137830D01*
X88825967Y-41137834D01*
X88961501Y-41331395D01*
X88961506Y-41331402D01*
X89128597Y-41498493D01*
X89128603Y-41498498D01*
X89314158Y-41628425D01*
X89357783Y-41683002D01*
X89364977Y-41752500D01*
X89333454Y-41814855D01*
X89314158Y-41831575D01*
X89128597Y-41961505D01*
X88961505Y-42128597D01*
X88825965Y-42322169D01*
X88825964Y-42322171D01*
X88726098Y-42536335D01*
X88726094Y-42536344D01*
X88664938Y-42764586D01*
X88664936Y-42764596D01*
X88644341Y-42999999D01*
X88644341Y-43000000D01*
X64980500Y-43000000D01*
X64980500Y-41426987D01*
X65000185Y-41359948D01*
X65052989Y-41314193D01*
X65065490Y-41309283D01*
X65139334Y-41284814D01*
X65288656Y-41192712D01*
X65412712Y-41068656D01*
X65504814Y-40919334D01*
X65528794Y-40846965D01*
X65568565Y-40789523D01*
X65633081Y-40762699D01*
X65643861Y-40762585D01*
X66277037Y-40129409D01*
X66294075Y-40192993D01*
X66359901Y-40307007D01*
X66452993Y-40400099D01*
X66567007Y-40465925D01*
X66630590Y-40482962D01*
X65998625Y-41114925D01*
X66082421Y-41173599D01*
X66296507Y-41273429D01*
X66296516Y-41273433D01*
X66524673Y-41334567D01*
X66524684Y-41334569D01*
X66759998Y-41355157D01*
X66760002Y-41355157D01*
X66995315Y-41334569D01*
X66995326Y-41334567D01*
X67223483Y-41273433D01*
X67223492Y-41273429D01*
X67437578Y-41173600D01*
X67437582Y-41173598D01*
X67521373Y-41114926D01*
X67521373Y-41114925D01*
X66889409Y-40482962D01*
X66952993Y-40465925D01*
X67067007Y-40400099D01*
X67160099Y-40307007D01*
X67225925Y-40192993D01*
X67242962Y-40129409D01*
X67874925Y-40761373D01*
X67928425Y-40684968D01*
X67983002Y-40641344D01*
X68052501Y-40634151D01*
X68114855Y-40665673D01*
X68131576Y-40684969D01*
X68185073Y-40761372D01*
X68817037Y-40129409D01*
X68834075Y-40192993D01*
X68899901Y-40307007D01*
X68992993Y-40400099D01*
X69107007Y-40465925D01*
X69170590Y-40482962D01*
X68538625Y-41114925D01*
X68622421Y-41173599D01*
X68836507Y-41273429D01*
X68836516Y-41273433D01*
X69064673Y-41334567D01*
X69064684Y-41334569D01*
X69299998Y-41355157D01*
X69300002Y-41355157D01*
X69535315Y-41334569D01*
X69535326Y-41334567D01*
X69763483Y-41273433D01*
X69763492Y-41273429D01*
X69977578Y-41173600D01*
X69977582Y-41173598D01*
X70061373Y-41114926D01*
X70061373Y-41114925D01*
X69429409Y-40482962D01*
X69492993Y-40465925D01*
X69607007Y-40400099D01*
X69700099Y-40307007D01*
X69765925Y-40192993D01*
X69782962Y-40129410D01*
X70414925Y-40761373D01*
X70468425Y-40684968D01*
X70523002Y-40641344D01*
X70592501Y-40634151D01*
X70654855Y-40665673D01*
X70671576Y-40684969D01*
X70725073Y-40761372D01*
X71357037Y-40129409D01*
X71374075Y-40192993D01*
X71439901Y-40307007D01*
X71532993Y-40400099D01*
X71647007Y-40465925D01*
X71710590Y-40482962D01*
X71078625Y-41114925D01*
X71162421Y-41173599D01*
X71376507Y-41273429D01*
X71376516Y-41273433D01*
X71604673Y-41334567D01*
X71604684Y-41334569D01*
X71839998Y-41355157D01*
X71840002Y-41355157D01*
X72075315Y-41334569D01*
X72075326Y-41334567D01*
X72303483Y-41273433D01*
X72303492Y-41273429D01*
X72517578Y-41173600D01*
X72517582Y-41173598D01*
X72601373Y-41114926D01*
X72601373Y-41114925D01*
X71969409Y-40482962D01*
X72032993Y-40465925D01*
X72147007Y-40400099D01*
X72240099Y-40307007D01*
X72305925Y-40192993D01*
X72322962Y-40129410D01*
X72954925Y-40761373D01*
X73008119Y-40685405D01*
X73062696Y-40641781D01*
X73132195Y-40634588D01*
X73194549Y-40666110D01*
X73211269Y-40685405D01*
X73341505Y-40871401D01*
X73508599Y-41038495D01*
X73551675Y-41068657D01*
X73702165Y-41174032D01*
X73702167Y-41174033D01*
X73702170Y-41174035D01*
X73916337Y-41273903D01*
X74144592Y-41335063D01*
X74321034Y-41350500D01*
X74379999Y-41355659D01*
X74380000Y-41355659D01*
X74380001Y-41355659D01*
X74438966Y-41350500D01*
X74615408Y-41335063D01*
X74843663Y-41273903D01*
X75057830Y-41174035D01*
X75251401Y-41038495D01*
X75418495Y-40871401D01*
X75548425Y-40685842D01*
X75603002Y-40642217D01*
X75672500Y-40635023D01*
X75734855Y-40666546D01*
X75751575Y-40685842D01*
X75881500Y-40871395D01*
X75881505Y-40871401D01*
X76048599Y-41038495D01*
X76091675Y-41068657D01*
X76242165Y-41174032D01*
X76242167Y-41174033D01*
X76242170Y-41174035D01*
X76456337Y-41273903D01*
X76684592Y-41335063D01*
X76861034Y-41350500D01*
X76919999Y-41355659D01*
X76920000Y-41355659D01*
X76920001Y-41355659D01*
X76978966Y-41350500D01*
X77155408Y-41335063D01*
X77383663Y-41273903D01*
X77597830Y-41174035D01*
X77791401Y-41038495D01*
X77958495Y-40871401D01*
X78088425Y-40685842D01*
X78143002Y-40642217D01*
X78212500Y-40635023D01*
X78274855Y-40666546D01*
X78291575Y-40685842D01*
X78421500Y-40871395D01*
X78421505Y-40871401D01*
X78588599Y-41038495D01*
X78631675Y-41068657D01*
X78782165Y-41174032D01*
X78782167Y-41174033D01*
X78782170Y-41174035D01*
X78996337Y-41273903D01*
X79224592Y-41335063D01*
X79401034Y-41350500D01*
X79459999Y-41355659D01*
X79460000Y-41355659D01*
X79460001Y-41355659D01*
X79518966Y-41350500D01*
X79695408Y-41335063D01*
X79923663Y-41273903D01*
X80137830Y-41174035D01*
X80331401Y-41038495D01*
X80498495Y-40871401D01*
X80628425Y-40685842D01*
X80683002Y-40642217D01*
X80752500Y-40635023D01*
X80814855Y-40666546D01*
X80831575Y-40685842D01*
X80961500Y-40871395D01*
X80961505Y-40871401D01*
X81128599Y-41038495D01*
X81171675Y-41068657D01*
X81322165Y-41174032D01*
X81322167Y-41174033D01*
X81322170Y-41174035D01*
X81536337Y-41273903D01*
X81764592Y-41335063D01*
X81941034Y-41350500D01*
X81999999Y-41355659D01*
X82000000Y-41355659D01*
X82000001Y-41355659D01*
X82058966Y-41350500D01*
X82235408Y-41335063D01*
X82463663Y-41273903D01*
X82677830Y-41174035D01*
X82871401Y-41038495D01*
X83038495Y-40871401D01*
X83174035Y-40677830D01*
X83273903Y-40463663D01*
X83335063Y-40235408D01*
X83355659Y-40000000D01*
X83335063Y-39764592D01*
X83273903Y-39536337D01*
X83174035Y-39322171D01*
X83168731Y-39314595D01*
X83038494Y-39128597D01*
X82871402Y-38961506D01*
X82871396Y-38961501D01*
X82685842Y-38831575D01*
X82642217Y-38776998D01*
X82635023Y-38707500D01*
X82666546Y-38645145D01*
X82685842Y-38628425D01*
X82813165Y-38539272D01*
X82871401Y-38498495D01*
X83038495Y-38331401D01*
X83174035Y-38137830D01*
X83273903Y-37923663D01*
X83335063Y-37695408D01*
X83355659Y-37460000D01*
X83355621Y-37459571D01*
X83335063Y-37224596D01*
X83335063Y-37224592D01*
X83286277Y-37042517D01*
X83273905Y-36996344D01*
X83273904Y-36996343D01*
X83273903Y-36996337D01*
X83174035Y-36782171D01*
X83168731Y-36774595D01*
X83038494Y-36588597D01*
X82871402Y-36421506D01*
X82871395Y-36421501D01*
X82677834Y-36285967D01*
X82677830Y-36285965D01*
X82596030Y-36247821D01*
X82463663Y-36186097D01*
X82463659Y-36186096D01*
X82463655Y-36186094D01*
X82235413Y-36124938D01*
X82235403Y-36124936D01*
X82000001Y-36104341D01*
X81999999Y-36104341D01*
X81764596Y-36124936D01*
X81764586Y-36124938D01*
X81536344Y-36186094D01*
X81536335Y-36186098D01*
X81322171Y-36285964D01*
X81322169Y-36285965D01*
X81128597Y-36421505D01*
X80961505Y-36588597D01*
X80831575Y-36774158D01*
X80776998Y-36817783D01*
X80707500Y-36824977D01*
X80645145Y-36793454D01*
X80628425Y-36774158D01*
X80498494Y-36588597D01*
X80331402Y-36421506D01*
X80331395Y-36421501D01*
X80137834Y-36285967D01*
X80137830Y-36285965D01*
X80056030Y-36247821D01*
X79923663Y-36186097D01*
X79923659Y-36186096D01*
X79923655Y-36186094D01*
X79695413Y-36124938D01*
X79695403Y-36124936D01*
X79460001Y-36104341D01*
X79459999Y-36104341D01*
X79224596Y-36124936D01*
X79224586Y-36124938D01*
X78996344Y-36186094D01*
X78996335Y-36186098D01*
X78782171Y-36285964D01*
X78782169Y-36285965D01*
X78588597Y-36421505D01*
X78421505Y-36588597D01*
X78291575Y-36774158D01*
X78236998Y-36817783D01*
X78167500Y-36824977D01*
X78105145Y-36793454D01*
X78088425Y-36774158D01*
X77958494Y-36588597D01*
X77791402Y-36421506D01*
X77791395Y-36421501D01*
X77597834Y-36285967D01*
X77597830Y-36285965D01*
X77516030Y-36247821D01*
X77383663Y-36186097D01*
X77383659Y-36186096D01*
X77383655Y-36186094D01*
X77155413Y-36124938D01*
X77155403Y-36124936D01*
X76920001Y-36104341D01*
X76919999Y-36104341D01*
X76684596Y-36124936D01*
X76684583Y-36124939D01*
X76556241Y-36159327D01*
X76486392Y-36157664D01*
X76436468Y-36127233D01*
X74947590Y-34638355D01*
X74947588Y-34638352D01*
X74828717Y-34519481D01*
X74828716Y-34519480D01*
X74741904Y-34469360D01*
X74741904Y-34469359D01*
X74741900Y-34469358D01*
X74691785Y-34440423D01*
X74539057Y-34399499D01*
X74380943Y-34399499D01*
X74373347Y-34399499D01*
X74373331Y-34399500D01*
X59086670Y-34399500D01*
X59086654Y-34399499D01*
X59079058Y-34399499D01*
X58920943Y-34399499D01*
X58844579Y-34419961D01*
X58768214Y-34440423D01*
X58768209Y-34440426D01*
X58631290Y-34519475D01*
X58631282Y-34519481D01*
X56537582Y-36613181D01*
X56476259Y-36646666D01*
X56449901Y-36649500D01*
X55102129Y-36649500D01*
X55102123Y-36649501D01*
X55042516Y-36655908D01*
X54907671Y-36706202D01*
X54907664Y-36706206D01*
X54792455Y-36792452D01*
X54792452Y-36792455D01*
X54706206Y-36907664D01*
X54706202Y-36907671D01*
X54655908Y-37042517D01*
X54649501Y-37102116D01*
X54649500Y-37102135D01*
X54649500Y-38897870D01*
X54649501Y-38897876D01*
X54655908Y-38957483D01*
X54706202Y-39092328D01*
X54706206Y-39092335D01*
X54792452Y-39207544D01*
X54792455Y-39207547D01*
X54907664Y-39293793D01*
X54907671Y-39293797D01*
X54907674Y-39293798D01*
X55039598Y-39343002D01*
X55095531Y-39384873D01*
X55119949Y-39450337D01*
X55105098Y-39518610D01*
X55083947Y-39546865D01*
X54961886Y-39668926D01*
X54826400Y-39862420D01*
X54826399Y-39862422D01*
X54726570Y-40076507D01*
X54726567Y-40076513D01*
X54669364Y-40289999D01*
X54669364Y-40290000D01*
X55566988Y-40290000D01*
X55534075Y-40347007D01*
X55500000Y-40474174D01*
X55500000Y-40605826D01*
X55534075Y-40732993D01*
X55566988Y-40790000D01*
X54669364Y-40790000D01*
X54726567Y-41003486D01*
X54726570Y-41003492D01*
X54826399Y-41217578D01*
X54961894Y-41411082D01*
X55128917Y-41578105D01*
X55314595Y-41708119D01*
X55358219Y-41762696D01*
X55365412Y-41832195D01*
X55333890Y-41894549D01*
X55314595Y-41911269D01*
X55128594Y-42041508D01*
X54961505Y-42208597D01*
X54825965Y-42402169D01*
X54825964Y-42402171D01*
X54726098Y-42616335D01*
X54726094Y-42616344D01*
X54664938Y-42844586D01*
X54664936Y-42844596D01*
X54644341Y-43079999D01*
X54644341Y-43080000D01*
X54664936Y-43315403D01*
X54664938Y-43315413D01*
X54726094Y-43543655D01*
X54726096Y-43543659D01*
X54726097Y-43543663D01*
X54788660Y-43677830D01*
X54825965Y-43757830D01*
X54825967Y-43757834D01*
X54905484Y-43871395D01*
X54961505Y-43951401D01*
X55128599Y-44118495D01*
X55207914Y-44174032D01*
X55322165Y-44254032D01*
X55322167Y-44254033D01*
X55322170Y-44254035D01*
X55536337Y-44353903D01*
X55536343Y-44353904D01*
X55536344Y-44353905D01*
X55591285Y-44368626D01*
X55764592Y-44415063D01*
X55952918Y-44431539D01*
X55999999Y-44435659D01*
X56000000Y-44435659D01*
X56000001Y-44435659D01*
X56039234Y-44432226D01*
X56235408Y-44415063D01*
X56463663Y-44353903D01*
X56677830Y-44254035D01*
X56871401Y-44118495D01*
X57038495Y-43951401D01*
X57174035Y-43757830D01*
X57273903Y-43543663D01*
X57335063Y-43315408D01*
X57355659Y-43080000D01*
X57335063Y-42844592D01*
X57300671Y-42716239D01*
X57302334Y-42646393D01*
X57332763Y-42596470D01*
X59292417Y-40636819D01*
X59353740Y-40603334D01*
X59380098Y-40600500D01*
X62752465Y-40600500D01*
X62819504Y-40620185D01*
X62865259Y-40672989D01*
X62875823Y-40711898D01*
X62880001Y-40752797D01*
X62880001Y-40752799D01*
X62919303Y-40871402D01*
X62935186Y-40919334D01*
X63027288Y-41068656D01*
X63151344Y-41192712D01*
X63300666Y-41284814D01*
X63467203Y-41339999D01*
X63569991Y-41350500D01*
X63655501Y-41350499D01*
X63722538Y-41370183D01*
X63768294Y-41422986D01*
X63779500Y-41474499D01*
X63779500Y-54768306D01*
X63759815Y-54835345D01*
X63726623Y-54869881D01*
X63540859Y-54999953D01*
X63379954Y-55160858D01*
X63291575Y-55287079D01*
X63236999Y-55330704D01*
X63167500Y-55337898D01*
X63105145Y-55306376D01*
X63088425Y-55287079D01*
X63000045Y-55160858D01*
X62839141Y-54999954D01*
X62652734Y-54869432D01*
X62652732Y-54869431D01*
X62446497Y-54773261D01*
X62446488Y-54773258D01*
X62226697Y-54714366D01*
X62226693Y-54714365D01*
X62226692Y-54714365D01*
X62226691Y-54714364D01*
X62226686Y-54714364D01*
X62000002Y-54694532D01*
X61999998Y-54694532D01*
X61773313Y-54714364D01*
X61773302Y-54714366D01*
X61553511Y-54773258D01*
X61553502Y-54773261D01*
X61347267Y-54869431D01*
X61347265Y-54869432D01*
X61160858Y-54999954D01*
X60999954Y-55160858D01*
X60869432Y-55347265D01*
X60869431Y-55347267D01*
X60773261Y-55553502D01*
X60773258Y-55553511D01*
X60714366Y-55773302D01*
X60714364Y-55773313D01*
X60694532Y-55999998D01*
X60694532Y-56000001D01*
X60714364Y-56226686D01*
X60714366Y-56226697D01*
X60773258Y-56446488D01*
X60773261Y-56446497D01*
X60869431Y-56652732D01*
X60869432Y-56652734D01*
X60999954Y-56839141D01*
X61160858Y-57000045D01*
X61160861Y-57000047D01*
X61347266Y-57130568D01*
X61553504Y-57226739D01*
X61553509Y-57226740D01*
X61553511Y-57226741D01*
X61577087Y-57233058D01*
X61773308Y-57285635D01*
X61942265Y-57300416D01*
X62007332Y-57325868D01*
X62048311Y-57382459D01*
X62052189Y-57452221D01*
X62019137Y-57511625D01*
X55836907Y-63693856D01*
X55775584Y-63727341D01*
X55705892Y-63722357D01*
X55649959Y-63680485D01*
X55629451Y-63638268D01*
X55606741Y-63553511D01*
X55606738Y-63553502D01*
X55578666Y-63493302D01*
X55510568Y-63347266D01*
X55380047Y-63160861D01*
X55380045Y-63160858D01*
X55219141Y-62999954D01*
X55032734Y-62869432D01*
X55032732Y-62869431D01*
X54826497Y-62773261D01*
X54826488Y-62773258D01*
X54606697Y-62714366D01*
X54606693Y-62714365D01*
X54606692Y-62714365D01*
X54606691Y-62714364D01*
X54606686Y-62714364D01*
X54380002Y-62694532D01*
X54379998Y-62694532D01*
X54153313Y-62714364D01*
X54153302Y-62714366D01*
X53933511Y-62773258D01*
X53933502Y-62773261D01*
X53727267Y-62869431D01*
X53727265Y-62869432D01*
X53540858Y-62999954D01*
X53379954Y-63160858D01*
X53249432Y-63347265D01*
X53249431Y-63347267D01*
X53153261Y-63553502D01*
X53153258Y-63553511D01*
X53094366Y-63773302D01*
X53094364Y-63773313D01*
X53074532Y-63999998D01*
X53074532Y-64000001D01*
X53094364Y-64226686D01*
X53094366Y-64226697D01*
X53153258Y-64446488D01*
X53153261Y-64446497D01*
X53249431Y-64652732D01*
X53249432Y-64652734D01*
X53379954Y-64839141D01*
X53540858Y-65000045D01*
X53567473Y-65018681D01*
X53727266Y-65130568D01*
X53797070Y-65163118D01*
X53849509Y-65209290D01*
X53868661Y-65276484D01*
X53848445Y-65343365D01*
X53795280Y-65388700D01*
X53744665Y-65399500D01*
X53529168Y-65399500D01*
X53529152Y-65399499D01*
X53521556Y-65399499D01*
X53363441Y-65399499D01*
X53287077Y-65419961D01*
X53210712Y-65440423D01*
X53210707Y-65440426D01*
X53073788Y-65519475D01*
X53073780Y-65519481D01*
X50225158Y-68368103D01*
X50163835Y-68401588D01*
X50094143Y-68396604D01*
X50038210Y-68354732D01*
X50035902Y-68351545D01*
X49938527Y-68212478D01*
X49787521Y-68061472D01*
X49612578Y-67938977D01*
X49612579Y-67938977D01*
X49483547Y-67878809D01*
X49419030Y-67848724D01*
X49419023Y-67848722D01*
X49413936Y-67846870D01*
X49414606Y-67845028D01*
X49362293Y-67813114D01*
X49331789Y-67750255D01*
X49340111Y-67680883D01*
X49384617Y-67627022D01*
X49414097Y-67613574D01*
X49413764Y-67612658D01*
X49418864Y-67610801D01*
X49612325Y-67520589D01*
X49668030Y-67481583D01*
X49046448Y-66860000D01*
X49052661Y-66860000D01*
X49154394Y-66832741D01*
X49245606Y-66780080D01*
X49320080Y-66705606D01*
X49372741Y-66614394D01*
X49400000Y-66512661D01*
X49400000Y-66506446D01*
X50021583Y-67128029D01*
X50060589Y-67072325D01*
X50150801Y-66878864D01*
X50150805Y-66878853D01*
X50206054Y-66672662D01*
X50206055Y-66672654D01*
X50224660Y-66460002D01*
X50224660Y-66459997D01*
X50206055Y-66247345D01*
X50206054Y-66247337D01*
X50150805Y-66041146D01*
X50150802Y-66041140D01*
X50060586Y-65847669D01*
X50060582Y-65847663D01*
X50021584Y-65791968D01*
X49400000Y-66413552D01*
X49400000Y-66407339D01*
X49372741Y-66305606D01*
X49320080Y-66214394D01*
X49245606Y-66139920D01*
X49154394Y-66087259D01*
X49052661Y-66060000D01*
X49046447Y-66060000D01*
X49668030Y-65438415D01*
X49612329Y-65399413D01*
X49418859Y-65309197D01*
X49418853Y-65309194D01*
X49212662Y-65253945D01*
X49212654Y-65253944D01*
X49000002Y-65235340D01*
X48999998Y-65235340D01*
X48787345Y-65253944D01*
X48787337Y-65253945D01*
X48581146Y-65309194D01*
X48581140Y-65309197D01*
X48387671Y-65399412D01*
X48387669Y-65399413D01*
X48331969Y-65438415D01*
X48331968Y-65438415D01*
X48953554Y-66060000D01*
X48947339Y-66060000D01*
X48845606Y-66087259D01*
X48754394Y-66139920D01*
X48679920Y-66214394D01*
X48627259Y-66305606D01*
X48600000Y-66407339D01*
X48600000Y-66413553D01*
X47978415Y-65791968D01*
X47978415Y-65791969D01*
X47939413Y-65847669D01*
X47939412Y-65847671D01*
X47849197Y-66041140D01*
X47849194Y-66041146D01*
X47793945Y-66247337D01*
X47793944Y-66247345D01*
X47775340Y-66459997D01*
X47775340Y-66460002D01*
X47793944Y-66672654D01*
X47793945Y-66672662D01*
X47849194Y-66878853D01*
X47849197Y-66878859D01*
X47939413Y-67072329D01*
X47978415Y-67128030D01*
X48600000Y-66506445D01*
X48600000Y-66512661D01*
X48627259Y-66614394D01*
X48679920Y-66705606D01*
X48754394Y-66780080D01*
X48845606Y-66832741D01*
X48947339Y-66860000D01*
X48953553Y-66860000D01*
X48331968Y-67481584D01*
X48387663Y-67520582D01*
X48387669Y-67520586D01*
X48581140Y-67610802D01*
X48586236Y-67612658D01*
X48585542Y-67614563D01*
X48637647Y-67646302D01*
X48668196Y-67709139D01*
X48659922Y-67778518D01*
X48615454Y-67832409D01*
X48585744Y-67845991D01*
X48586064Y-67846870D01*
X48580972Y-67848723D01*
X48580970Y-67848724D01*
X48580968Y-67848725D01*
X48387421Y-67938977D01*
X48212478Y-68061472D01*
X48061472Y-68212478D01*
X47938977Y-68387421D01*
X47848725Y-68580968D01*
X47848721Y-68580977D01*
X47793452Y-68787247D01*
X47793450Y-68787258D01*
X47774838Y-68999998D01*
X47774838Y-69000001D01*
X47793450Y-69212741D01*
X47793452Y-69212752D01*
X47848721Y-69419022D01*
X47848723Y-69419026D01*
X47848724Y-69419030D01*
X47886723Y-69500519D01*
X47938977Y-69612578D01*
X47938978Y-69612580D01*
X47938979Y-69612581D01*
X47957575Y-69639139D01*
X48061472Y-69787521D01*
X48124676Y-69850725D01*
X48158161Y-69912048D01*
X48153177Y-69981740D01*
X48124676Y-70026087D01*
X47611286Y-70539478D01*
X47499481Y-70651282D01*
X47499480Y-70651284D01*
X47462319Y-70715649D01*
X47446983Y-70742210D01*
X47420422Y-70788215D01*
X47402329Y-70855738D01*
X47365963Y-70915397D01*
X47303116Y-70945925D01*
X47233740Y-70937629D01*
X47194874Y-70911323D01*
X46946819Y-70663268D01*
X46913334Y-70601945D01*
X46910500Y-70575587D01*
X46910500Y-62399060D01*
X46910501Y-62399047D01*
X46910501Y-62230944D01*
X46896863Y-62180047D01*
X46869577Y-62078216D01*
X46859589Y-62060916D01*
X46790524Y-61941290D01*
X46790518Y-61941282D01*
X45636819Y-60787583D01*
X45603334Y-60726260D01*
X45600500Y-60699902D01*
X45600500Y-59897844D01*
X46110000Y-59897844D01*
X46116401Y-59957372D01*
X46116403Y-59957379D01*
X46166645Y-60092086D01*
X46166649Y-60092093D01*
X46252809Y-60207187D01*
X46252812Y-60207190D01*
X46367906Y-60293350D01*
X46367913Y-60293354D01*
X46502620Y-60343596D01*
X46502627Y-60343598D01*
X46562155Y-60349999D01*
X46562172Y-60350000D01*
X47210000Y-60350000D01*
X47210000Y-59433012D01*
X47267007Y-59465925D01*
X47394174Y-59500000D01*
X47525826Y-59500000D01*
X47652993Y-59465925D01*
X47710000Y-59433012D01*
X47710000Y-60350000D01*
X48357828Y-60350000D01*
X48357844Y-60349999D01*
X48417372Y-60343598D01*
X48417379Y-60343596D01*
X48552086Y-60293354D01*
X48552093Y-60293350D01*
X48667187Y-60207190D01*
X48667190Y-60207187D01*
X48753350Y-60092093D01*
X48753354Y-60092086D01*
X48802422Y-59960529D01*
X48844293Y-59904595D01*
X48909757Y-59880178D01*
X48978030Y-59895030D01*
X49006285Y-59916181D01*
X49128599Y-60038495D01*
X49205135Y-60092086D01*
X49322165Y-60174032D01*
X49322167Y-60174033D01*
X49322170Y-60174035D01*
X49536337Y-60273903D01*
X49764592Y-60335063D01*
X49935319Y-60350000D01*
X49999999Y-60355659D01*
X50000000Y-60355659D01*
X50000001Y-60355659D01*
X50064681Y-60350000D01*
X50235408Y-60335063D01*
X50463663Y-60273903D01*
X50677830Y-60174035D01*
X50871401Y-60038495D01*
X51038495Y-59871401D01*
X51123502Y-59749999D01*
X53101127Y-59749999D01*
X53101128Y-59750000D01*
X54064314Y-59750000D01*
X54059920Y-59754394D01*
X54007259Y-59845606D01*
X53980000Y-59947339D01*
X53980000Y-60052661D01*
X54007259Y-60154394D01*
X54059920Y-60245606D01*
X54064314Y-60250000D01*
X53101128Y-60250000D01*
X53153730Y-60446317D01*
X53153734Y-60446326D01*
X53249865Y-60652482D01*
X53380342Y-60838820D01*
X53541179Y-60999657D01*
X53727517Y-61130134D01*
X53933673Y-61226265D01*
X53933682Y-61226269D01*
X54129999Y-61278872D01*
X54130000Y-61278871D01*
X54130000Y-60315686D01*
X54134394Y-60320080D01*
X54225606Y-60372741D01*
X54327339Y-60400000D01*
X54432661Y-60400000D01*
X54534394Y-60372741D01*
X54625606Y-60320080D01*
X54630000Y-60315686D01*
X54630000Y-61278872D01*
X54826317Y-61226269D01*
X54826326Y-61226265D01*
X55032482Y-61130134D01*
X55218820Y-60999657D01*
X55379657Y-60838820D01*
X55510134Y-60652482D01*
X55606265Y-60446326D01*
X55606269Y-60446317D01*
X55658872Y-60250000D01*
X54695686Y-60250000D01*
X54700080Y-60245606D01*
X54752741Y-60154394D01*
X54780000Y-60052661D01*
X54780000Y-59947339D01*
X54752741Y-59845606D01*
X54700080Y-59754394D01*
X54695686Y-59750000D01*
X55658872Y-59750000D01*
X55658872Y-59749999D01*
X55606269Y-59553682D01*
X55606265Y-59553673D01*
X55510134Y-59347517D01*
X55379657Y-59161179D01*
X55218820Y-59000342D01*
X55032482Y-58869865D01*
X54826328Y-58773734D01*
X54630000Y-58721127D01*
X54630000Y-59684314D01*
X54625606Y-59679920D01*
X54534394Y-59627259D01*
X54432661Y-59600000D01*
X54327339Y-59600000D01*
X54225606Y-59627259D01*
X54134394Y-59679920D01*
X54130000Y-59684314D01*
X54130000Y-58721127D01*
X53933671Y-58773734D01*
X53727517Y-58869865D01*
X53541179Y-59000342D01*
X53380342Y-59161179D01*
X53249865Y-59347517D01*
X53153734Y-59553673D01*
X53153730Y-59553682D01*
X53101127Y-59749999D01*
X51123502Y-59749999D01*
X51174035Y-59677830D01*
X51273903Y-59463663D01*
X51335063Y-59235408D01*
X51355659Y-59000000D01*
X51335063Y-58764592D01*
X51273903Y-58536337D01*
X51174035Y-58322171D01*
X51140454Y-58274211D01*
X51038494Y-58128597D01*
X50871402Y-57961506D01*
X50871395Y-57961501D01*
X50677834Y-57825967D01*
X50677830Y-57825965D01*
X50606727Y-57792809D01*
X50463663Y-57726097D01*
X50463659Y-57726096D01*
X50463655Y-57726094D01*
X50235413Y-57664938D01*
X50235403Y-57664936D01*
X50000001Y-57644341D01*
X49999999Y-57644341D01*
X49764596Y-57664936D01*
X49764586Y-57664938D01*
X49536344Y-57726094D01*
X49536335Y-57726098D01*
X49322171Y-57825964D01*
X49322169Y-57825965D01*
X49128600Y-57961503D01*
X49006284Y-58083819D01*
X48944961Y-58117303D01*
X48875269Y-58112319D01*
X48819336Y-58070447D01*
X48802421Y-58039470D01*
X48753354Y-57907913D01*
X48753350Y-57907906D01*
X48667190Y-57792812D01*
X48667187Y-57792809D01*
X48552093Y-57706649D01*
X48552086Y-57706645D01*
X48417379Y-57656403D01*
X48417372Y-57656401D01*
X48357844Y-57650000D01*
X47710000Y-57650000D01*
X47710000Y-58566988D01*
X47652993Y-58534075D01*
X47525826Y-58500000D01*
X47394174Y-58500000D01*
X47267007Y-58534075D01*
X47210000Y-58566988D01*
X47210000Y-57650000D01*
X46562155Y-57650000D01*
X46502627Y-57656401D01*
X46502620Y-57656403D01*
X46367913Y-57706645D01*
X46367906Y-57706649D01*
X46252812Y-57792809D01*
X46252809Y-57792812D01*
X46166649Y-57907906D01*
X46166645Y-57907913D01*
X46116403Y-58042620D01*
X46116401Y-58042627D01*
X46110000Y-58102155D01*
X46110000Y-58750000D01*
X47026988Y-58750000D01*
X46994075Y-58807007D01*
X46960000Y-58934174D01*
X46960000Y-59065826D01*
X46994075Y-59192993D01*
X47026988Y-59250000D01*
X46110000Y-59250000D01*
X46110000Y-59897844D01*
X45600500Y-59897844D01*
X45600500Y-57300097D01*
X45620185Y-57233058D01*
X45636819Y-57212416D01*
X46849234Y-56000001D01*
X53074532Y-56000001D01*
X53094364Y-56226686D01*
X53094366Y-56226697D01*
X53153258Y-56446488D01*
X53153261Y-56446497D01*
X53249431Y-56652732D01*
X53249432Y-56652734D01*
X53379954Y-56839141D01*
X53540858Y-57000045D01*
X53540861Y-57000047D01*
X53727266Y-57130568D01*
X53933504Y-57226739D01*
X53933509Y-57226740D01*
X53933511Y-57226741D01*
X53957087Y-57233058D01*
X54153308Y-57285635D01*
X54315230Y-57299801D01*
X54379998Y-57305468D01*
X54380000Y-57305468D01*
X54380002Y-57305468D01*
X54441391Y-57300097D01*
X54606692Y-57285635D01*
X54826496Y-57226739D01*
X55032734Y-57130568D01*
X55219139Y-57000047D01*
X55380047Y-56839139D01*
X55510568Y-56652734D01*
X55606739Y-56446496D01*
X55665635Y-56226692D01*
X55685468Y-56000000D01*
X55665635Y-55773308D01*
X55606739Y-55553504D01*
X55510568Y-55347266D01*
X55380047Y-55160861D01*
X55380045Y-55160858D01*
X55219141Y-54999954D01*
X55032734Y-54869432D01*
X55032732Y-54869431D01*
X54826497Y-54773261D01*
X54826488Y-54773258D01*
X54606697Y-54714366D01*
X54606693Y-54714365D01*
X54606692Y-54714365D01*
X54606691Y-54714364D01*
X54606686Y-54714364D01*
X54380002Y-54694532D01*
X54379998Y-54694532D01*
X54153313Y-54714364D01*
X54153302Y-54714366D01*
X53933511Y-54773258D01*
X53933502Y-54773261D01*
X53727267Y-54869431D01*
X53727265Y-54869432D01*
X53540858Y-54999954D01*
X53379954Y-55160858D01*
X53249432Y-55347265D01*
X53249431Y-55347267D01*
X53153261Y-55553502D01*
X53153258Y-55553511D01*
X53094366Y-55773302D01*
X53094364Y-55773313D01*
X53074532Y-55999998D01*
X53074532Y-56000001D01*
X46849234Y-56000001D01*
X49062416Y-53786819D01*
X49123739Y-53753334D01*
X49150097Y-53750500D01*
X50389677Y-53750500D01*
X50389693Y-53750501D01*
X50397289Y-53750501D01*
X50555400Y-53750501D01*
X50555403Y-53750501D01*
X50708131Y-53709577D01*
X50758250Y-53680639D01*
X50845062Y-53630520D01*
X50956866Y-53518716D01*
X50956866Y-53518714D01*
X50967074Y-53508507D01*
X50967075Y-53508504D01*
X51630520Y-52845062D01*
X51709577Y-52708130D01*
X51713791Y-52692405D01*
X51750156Y-52632745D01*
X51813004Y-52602217D01*
X51833565Y-52600500D01*
X53148308Y-52600500D01*
X53215347Y-52620185D01*
X53249880Y-52653374D01*
X53288225Y-52708136D01*
X53379954Y-52839141D01*
X53540858Y-53000045D01*
X53540861Y-53000047D01*
X53727266Y-53130568D01*
X53933504Y-53226739D01*
X54153308Y-53285635D01*
X54315230Y-53299801D01*
X54379998Y-53305468D01*
X54380000Y-53305468D01*
X54380002Y-53305468D01*
X54436673Y-53300509D01*
X54606692Y-53285635D01*
X54826496Y-53226739D01*
X55032734Y-53130568D01*
X55219139Y-53000047D01*
X55380047Y-52839139D01*
X55510568Y-52652734D01*
X55606739Y-52446496D01*
X55665635Y-52226692D01*
X55685468Y-52000001D01*
X60694532Y-52000001D01*
X60714364Y-52226686D01*
X60714366Y-52226697D01*
X60773258Y-52446488D01*
X60773261Y-52446497D01*
X60869431Y-52652732D01*
X60869432Y-52652734D01*
X60999954Y-52839141D01*
X61160858Y-53000045D01*
X61160861Y-53000047D01*
X61347266Y-53130568D01*
X61553504Y-53226739D01*
X61773308Y-53285635D01*
X61935230Y-53299801D01*
X61999998Y-53305468D01*
X62000000Y-53305468D01*
X62000002Y-53305468D01*
X62056673Y-53300509D01*
X62226692Y-53285635D01*
X62446496Y-53226739D01*
X62652734Y-53130568D01*
X62839139Y-53000047D01*
X63000047Y-52839139D01*
X63130568Y-52652734D01*
X63226739Y-52446496D01*
X63285635Y-52226692D01*
X63305468Y-52000000D01*
X63285635Y-51773308D01*
X63226739Y-51553504D01*
X63130568Y-51347266D01*
X63000047Y-51160861D01*
X63000045Y-51160858D01*
X62839141Y-50999954D01*
X62652734Y-50869432D01*
X62652732Y-50869431D01*
X62446497Y-50773261D01*
X62446488Y-50773258D01*
X62226697Y-50714366D01*
X62226693Y-50714365D01*
X62226692Y-50714365D01*
X62226691Y-50714364D01*
X62226686Y-50714364D01*
X62000002Y-50694532D01*
X61999998Y-50694532D01*
X61773313Y-50714364D01*
X61773302Y-50714366D01*
X61553511Y-50773258D01*
X61553502Y-50773261D01*
X61347267Y-50869431D01*
X61347265Y-50869432D01*
X61160858Y-50999954D01*
X60999954Y-51160858D01*
X60869432Y-51347265D01*
X60869431Y-51347267D01*
X60773261Y-51553502D01*
X60773258Y-51553511D01*
X60714366Y-51773302D01*
X60714364Y-51773313D01*
X60694532Y-51999998D01*
X60694532Y-52000001D01*
X55685468Y-52000001D01*
X55685468Y-52000000D01*
X55665635Y-51773308D01*
X55606739Y-51553504D01*
X55510568Y-51347266D01*
X55380047Y-51160861D01*
X55380045Y-51160858D01*
X55219141Y-50999954D01*
X55032734Y-50869432D01*
X55032732Y-50869431D01*
X54826497Y-50773261D01*
X54826488Y-50773258D01*
X54606697Y-50714366D01*
X54606693Y-50714365D01*
X54606692Y-50714365D01*
X54606691Y-50714364D01*
X54606686Y-50714364D01*
X54380002Y-50694532D01*
X54379998Y-50694532D01*
X54153313Y-50714364D01*
X54153302Y-50714366D01*
X53933511Y-50773258D01*
X53933502Y-50773261D01*
X53727267Y-50869431D01*
X53727265Y-50869432D01*
X53540858Y-50999954D01*
X53379954Y-51160858D01*
X53305527Y-51267153D01*
X53249881Y-51346624D01*
X53195307Y-51390248D01*
X53148308Y-51399500D01*
X51289091Y-51399500D01*
X51222052Y-51379815D01*
X51176711Y-51327909D01*
X51174037Y-51322175D01*
X51174034Y-51322170D01*
X51038494Y-51128597D01*
X50871402Y-50961506D01*
X50871395Y-50961501D01*
X50677834Y-50825967D01*
X50677830Y-50825965D01*
X50606727Y-50792809D01*
X50463663Y-50726097D01*
X50463659Y-50726096D01*
X50463655Y-50726094D01*
X50235413Y-50664938D01*
X50235403Y-50664936D01*
X50000001Y-50644341D01*
X49999999Y-50644341D01*
X49764596Y-50664936D01*
X49764586Y-50664938D01*
X49536344Y-50726094D01*
X49536335Y-50726098D01*
X49322171Y-50825964D01*
X49322169Y-50825965D01*
X49128600Y-50961503D01*
X49006284Y-51083819D01*
X48944961Y-51117303D01*
X48875269Y-51112319D01*
X48819336Y-51070447D01*
X48802421Y-51039470D01*
X48753354Y-50907913D01*
X48753350Y-50907906D01*
X48667190Y-50792812D01*
X48667187Y-50792809D01*
X48552093Y-50706649D01*
X48552086Y-50706645D01*
X48417379Y-50656403D01*
X48417372Y-50656401D01*
X48357844Y-50650000D01*
X47710000Y-50650000D01*
X47710000Y-51566988D01*
X47652993Y-51534075D01*
X47525826Y-51500000D01*
X47394174Y-51500000D01*
X47267007Y-51534075D01*
X47210000Y-51566988D01*
X47210000Y-50650000D01*
X46562155Y-50650000D01*
X46502627Y-50656401D01*
X46502620Y-50656403D01*
X46367913Y-50706645D01*
X46367906Y-50706649D01*
X46252812Y-50792809D01*
X46252809Y-50792812D01*
X46166649Y-50907906D01*
X46166645Y-50907913D01*
X46116403Y-51042620D01*
X46116401Y-51042627D01*
X46110000Y-51102155D01*
X46110000Y-51750000D01*
X47026988Y-51750000D01*
X46994075Y-51807007D01*
X46960000Y-51934174D01*
X46960000Y-52065826D01*
X46994075Y-52192993D01*
X47026988Y-52250000D01*
X46110000Y-52250000D01*
X46110000Y-52897844D01*
X46116401Y-52957372D01*
X46116403Y-52957379D01*
X46166645Y-53092086D01*
X46166649Y-53092093D01*
X46252809Y-53207187D01*
X46252812Y-53207190D01*
X46367906Y-53293350D01*
X46367913Y-53293354D01*
X46502620Y-53343596D01*
X46502627Y-53343598D01*
X46562155Y-53349999D01*
X46562172Y-53350000D01*
X47210000Y-53350000D01*
X47210000Y-52433012D01*
X47267007Y-52465925D01*
X47394174Y-52500000D01*
X47525826Y-52500000D01*
X47652993Y-52465925D01*
X47710000Y-52433012D01*
X47710000Y-53389402D01*
X47690315Y-53456441D01*
X47673681Y-53477083D01*
X45211681Y-55939083D01*
X45150358Y-55972568D01*
X45080666Y-55967584D01*
X45024733Y-55925712D01*
X45000316Y-55860248D01*
X45000000Y-55851402D01*
X45000000Y-38124000D01*
X45019685Y-38056961D01*
X45072489Y-38011206D01*
X45124000Y-38000000D01*
X49000000Y-38000000D01*
X49000000Y-34124000D01*
X49019685Y-34056961D01*
X49072489Y-34011206D01*
X49124000Y-34000000D01*
X96876000Y-34000000D01*
X96943039Y-34019685D01*
G37*
%TD.AperFunction*%
%TA.AperFunction,Conductor*%
G36*
X93441586Y-81705163D02*
G01*
X93497519Y-81747035D01*
X93521936Y-81812499D01*
X93521780Y-81832152D01*
X93514532Y-81914997D01*
X93514532Y-81915001D01*
X93534364Y-82141686D01*
X93534366Y-82141697D01*
X93593258Y-82361488D01*
X93593261Y-82361497D01*
X93689431Y-82567732D01*
X93689432Y-82567734D01*
X93819954Y-82754141D01*
X93980858Y-82915045D01*
X93980861Y-82915047D01*
X94167266Y-83045568D01*
X94225865Y-83072893D01*
X94278305Y-83119065D01*
X94297457Y-83186258D01*
X94277242Y-83253139D01*
X94225867Y-83297657D01*
X94167515Y-83324867D01*
X93981179Y-83455342D01*
X93820342Y-83616179D01*
X93689865Y-83802517D01*
X93593734Y-84008673D01*
X93593730Y-84008682D01*
X93541127Y-84204999D01*
X93541128Y-84205000D01*
X94504314Y-84205000D01*
X94499920Y-84209394D01*
X94447259Y-84300606D01*
X94420000Y-84402339D01*
X94420000Y-84507661D01*
X94447259Y-84609394D01*
X94499920Y-84700606D01*
X94504314Y-84705000D01*
X93541128Y-84705000D01*
X93593730Y-84901317D01*
X93593734Y-84901326D01*
X93689865Y-85107482D01*
X93820341Y-85293819D01*
X93981179Y-85454657D01*
X94167518Y-85585134D01*
X94167520Y-85585135D01*
X94225865Y-85612342D01*
X94278305Y-85658514D01*
X94297457Y-85725707D01*
X94277242Y-85792589D01*
X94225867Y-85837105D01*
X94220501Y-85839608D01*
X94167264Y-85864433D01*
X93980858Y-85994954D01*
X93819954Y-86155858D01*
X93689432Y-86342265D01*
X93689431Y-86342267D01*
X93593261Y-86548502D01*
X93593258Y-86548511D01*
X93534366Y-86768302D01*
X93534364Y-86768313D01*
X93514532Y-86994998D01*
X93514532Y-86995001D01*
X93534364Y-87221686D01*
X93534366Y-87221697D01*
X93593258Y-87441488D01*
X93593261Y-87441497D01*
X93689431Y-87647732D01*
X93689432Y-87647734D01*
X93819954Y-87834141D01*
X93980858Y-87995045D01*
X93987869Y-87999954D01*
X94167266Y-88125568D01*
X94225275Y-88152618D01*
X94277714Y-88198791D01*
X94296866Y-88265984D01*
X94276650Y-88332865D01*
X94225275Y-88377382D01*
X94167267Y-88404431D01*
X94167265Y-88404432D01*
X93980858Y-88534954D01*
X93819954Y-88695858D01*
X93689432Y-88882265D01*
X93689431Y-88882267D01*
X93593261Y-89088502D01*
X93593258Y-89088511D01*
X93534366Y-89308302D01*
X93534364Y-89308313D01*
X93514532Y-89534998D01*
X93514532Y-89535002D01*
X93521780Y-89617848D01*
X93508013Y-89686348D01*
X93459398Y-89736531D01*
X93391369Y-89752464D01*
X93325526Y-89729089D01*
X93310571Y-89716336D01*
X91667590Y-88073355D01*
X91667588Y-88073352D01*
X91548717Y-87954481D01*
X91548716Y-87954480D01*
X91436105Y-87889464D01*
X91436105Y-87889463D01*
X91436100Y-87889462D01*
X91427615Y-87884562D01*
X91411786Y-87875423D01*
X91373603Y-87865192D01*
X91259057Y-87834499D01*
X91100943Y-87834499D01*
X91093347Y-87834499D01*
X91093331Y-87834500D01*
X88437512Y-87834500D01*
X88370473Y-87814815D01*
X88324718Y-87762011D01*
X88314774Y-87692853D01*
X88328636Y-87652806D01*
X88328280Y-87652640D01*
X88329887Y-87649193D01*
X88330130Y-87648492D01*
X88330559Y-87647746D01*
X88330568Y-87647734D01*
X88426739Y-87441496D01*
X88485635Y-87221692D01*
X88505468Y-86995000D01*
X88485635Y-86768308D01*
X88459847Y-86672066D01*
X88461510Y-86602217D01*
X88491939Y-86552294D01*
X93310573Y-81733662D01*
X93371894Y-81700179D01*
X93441586Y-81705163D01*
G37*
%TD.AperFunction*%
%TA.AperFunction,Conductor*%
G36*
X98600000Y-74672661D02*
G01*
X98627259Y-74774394D01*
X98679920Y-74865606D01*
X98754394Y-74940080D01*
X98845606Y-74992741D01*
X98947339Y-75020000D01*
X98953551Y-75020000D01*
X98274526Y-75699025D01*
X98347513Y-75750132D01*
X98347517Y-75750134D01*
X98438624Y-75792618D01*
X98491063Y-75838790D01*
X98510215Y-75905984D01*
X98489999Y-75972865D01*
X98438624Y-76017382D01*
X98347516Y-76059866D01*
X98347512Y-76059868D01*
X98274526Y-76110973D01*
X98274526Y-76110974D01*
X98953553Y-76790000D01*
X98947339Y-76790000D01*
X98845606Y-76817259D01*
X98754394Y-76869920D01*
X98679920Y-76944394D01*
X98627259Y-77035606D01*
X98600000Y-77137339D01*
X98600000Y-77143552D01*
X97920974Y-76464526D01*
X97920973Y-76464526D01*
X97869868Y-76537512D01*
X97869866Y-76537516D01*
X97773734Y-76743673D01*
X97773730Y-76743682D01*
X97714860Y-76963389D01*
X97714858Y-76963400D01*
X97695034Y-77189997D01*
X97695034Y-77190002D01*
X97714858Y-77416599D01*
X97714860Y-77416610D01*
X97773730Y-77636317D01*
X97773735Y-77636331D01*
X97869863Y-77842478D01*
X97920974Y-77915472D01*
X98600000Y-77236446D01*
X98600000Y-77242661D01*
X98627259Y-77344394D01*
X98679920Y-77435606D01*
X98754394Y-77510080D01*
X98845606Y-77562741D01*
X98947339Y-77590000D01*
X98953551Y-77590000D01*
X98274526Y-78269025D01*
X98347513Y-78320132D01*
X98347521Y-78320136D01*
X98553668Y-78416264D01*
X98553682Y-78416269D01*
X98773389Y-78475139D01*
X98773400Y-78475141D01*
X98999998Y-78494966D01*
X99000002Y-78494966D01*
X99226599Y-78475141D01*
X99226609Y-78475139D01*
X99343407Y-78443844D01*
X99413256Y-78445507D01*
X99471119Y-78484669D01*
X99498623Y-78548898D01*
X99499500Y-78563619D01*
X99499500Y-83435863D01*
X99479815Y-83502902D01*
X99427011Y-83548657D01*
X99357853Y-83558601D01*
X99343407Y-83555638D01*
X99226697Y-83524366D01*
X99226693Y-83524365D01*
X99226692Y-83524365D01*
X99226691Y-83524364D01*
X99226686Y-83524364D01*
X99000002Y-83504532D01*
X98999998Y-83504532D01*
X98773313Y-83524364D01*
X98773302Y-83524366D01*
X98553511Y-83583258D01*
X98553502Y-83583261D01*
X98347267Y-83679431D01*
X98347265Y-83679432D01*
X98160858Y-83809954D01*
X97999954Y-83970858D01*
X97869432Y-84157265D01*
X97869431Y-84157267D01*
X97773261Y-84363502D01*
X97773258Y-84363511D01*
X97714366Y-84583302D01*
X97714364Y-84583313D01*
X97694532Y-84809998D01*
X97694532Y-84810001D01*
X97714364Y-85036686D01*
X97714366Y-85036697D01*
X97773258Y-85256488D01*
X97773261Y-85256497D01*
X97869431Y-85462732D01*
X97869432Y-85462734D01*
X97999954Y-85649141D01*
X98160858Y-85810045D01*
X98160861Y-85810047D01*
X98347266Y-85940568D01*
X98347267Y-85940568D01*
X98347268Y-85940569D01*
X98347271Y-85940571D01*
X98385939Y-85958602D01*
X98438379Y-86004774D01*
X98457531Y-86071967D01*
X98442813Y-86126037D01*
X98443535Y-86126336D01*
X98441193Y-86131988D01*
X98440924Y-86132980D01*
X98440425Y-86133842D01*
X98440424Y-86133845D01*
X98440423Y-86133850D01*
X98399499Y-86286578D01*
X98399499Y-86286580D01*
X98399499Y-86454681D01*
X98399500Y-86454694D01*
X98399500Y-88699903D01*
X98379815Y-88766942D01*
X98363181Y-88787584D01*
X98252584Y-88898181D01*
X98191261Y-88931666D01*
X98164903Y-88934500D01*
X96051692Y-88934500D01*
X95984653Y-88914815D01*
X95950119Y-88881625D01*
X95820047Y-88695861D01*
X95820045Y-88695858D01*
X95659141Y-88534954D01*
X95472734Y-88404432D01*
X95472728Y-88404429D01*
X95414725Y-88377382D01*
X95362285Y-88331210D01*
X95343133Y-88264017D01*
X95363348Y-88197135D01*
X95414725Y-88152618D01*
X95472734Y-88125568D01*
X95659139Y-87995047D01*
X95820047Y-87834139D01*
X95950568Y-87647734D01*
X96046739Y-87441496D01*
X96105635Y-87221692D01*
X96125468Y-86995000D01*
X96105635Y-86768308D01*
X96046739Y-86548504D01*
X95950568Y-86342266D01*
X95820047Y-86155861D01*
X95820045Y-86155858D01*
X95659141Y-85994954D01*
X95472734Y-85864432D01*
X95472732Y-85864431D01*
X95419499Y-85839608D01*
X95414132Y-85837105D01*
X95361694Y-85790934D01*
X95342542Y-85723740D01*
X95362758Y-85656859D01*
X95414134Y-85612341D01*
X95472484Y-85585132D01*
X95658820Y-85454657D01*
X95819659Y-85293819D01*
X95950134Y-85107482D01*
X96046265Y-84901326D01*
X96046269Y-84901317D01*
X96098872Y-84705000D01*
X95135686Y-84705000D01*
X95140080Y-84700606D01*
X95192741Y-84609394D01*
X95220000Y-84507661D01*
X95220000Y-84402339D01*
X95192741Y-84300606D01*
X95140080Y-84209394D01*
X95135686Y-84205000D01*
X96098872Y-84205000D01*
X96098872Y-84204999D01*
X96046269Y-84008682D01*
X96046265Y-84008673D01*
X95950134Y-83802517D01*
X95819657Y-83616179D01*
X95658820Y-83455342D01*
X95472482Y-83324865D01*
X95414133Y-83297657D01*
X95361694Y-83251484D01*
X95342542Y-83184291D01*
X95362758Y-83117410D01*
X95414129Y-83072895D01*
X95472734Y-83045568D01*
X95659139Y-82915047D01*
X95820047Y-82754139D01*
X95950568Y-82567734D01*
X96046739Y-82361496D01*
X96105635Y-82141692D01*
X96124381Y-81927421D01*
X96125468Y-81915001D01*
X96125468Y-81914998D01*
X96118220Y-81832152D01*
X96105635Y-81688308D01*
X96046739Y-81468504D01*
X95950568Y-81262266D01*
X95820047Y-81075861D01*
X95820045Y-81075858D01*
X95659141Y-80914954D01*
X95472734Y-80784432D01*
X95472728Y-80784429D01*
X95414725Y-80757382D01*
X95362285Y-80711210D01*
X95343133Y-80644017D01*
X95363348Y-80577135D01*
X95414725Y-80532618D01*
X95472734Y-80505568D01*
X95659139Y-80375047D01*
X95820047Y-80214139D01*
X95950568Y-80027734D01*
X96046739Y-79821496D01*
X96105635Y-79601692D01*
X96124381Y-79387421D01*
X96125468Y-79375001D01*
X96125468Y-79374998D01*
X96115412Y-79260056D01*
X96105635Y-79148308D01*
X96046739Y-78928504D01*
X95950568Y-78722266D01*
X95820047Y-78535861D01*
X95820045Y-78535858D01*
X95659141Y-78374954D01*
X95472734Y-78244432D01*
X95472732Y-78244431D01*
X95266497Y-78148261D01*
X95266488Y-78148258D01*
X95046697Y-78089366D01*
X95046693Y-78089365D01*
X95046692Y-78089365D01*
X95046690Y-78089364D01*
X95041363Y-78088426D01*
X95041609Y-78087028D01*
X94982772Y-78064007D01*
X94941798Y-78007412D01*
X94937927Y-77937650D01*
X94970974Y-77878259D01*
X97651433Y-75197800D01*
X97712752Y-75164318D01*
X97782444Y-75169302D01*
X97838377Y-75211174D01*
X97851492Y-75233080D01*
X97869864Y-75272479D01*
X97869865Y-75272481D01*
X97920974Y-75345472D01*
X98600000Y-74666446D01*
X98600000Y-74672661D01*
G37*
%TD.AperFunction*%
%TA.AperFunction,Conductor*%
G36*
X64093026Y-72043086D02*
G01*
X64148959Y-72084958D01*
X64173376Y-72150422D01*
X64158524Y-72218695D01*
X64151268Y-72230390D01*
X64069431Y-72347267D01*
X63973261Y-72553502D01*
X63973258Y-72553511D01*
X63914366Y-72773302D01*
X63914364Y-72773313D01*
X63894532Y-72999998D01*
X63894532Y-73000001D01*
X63914364Y-73226686D01*
X63914366Y-73226697D01*
X63973258Y-73446488D01*
X63973261Y-73446497D01*
X64069431Y-73652732D01*
X64069432Y-73652734D01*
X64199954Y-73839141D01*
X64360858Y-74000045D01*
X64360861Y-74000047D01*
X64547266Y-74130568D01*
X64547269Y-74130569D01*
X64551957Y-74133276D01*
X64550667Y-74135509D01*
X64595016Y-74174476D01*
X64614238Y-74241649D01*
X64594092Y-74308551D01*
X64577925Y-74328474D01*
X64565779Y-74340620D01*
X64543219Y-74363180D01*
X64481900Y-74396665D01*
X64455538Y-74399500D01*
X63041692Y-74399500D01*
X62974653Y-74379815D01*
X62940119Y-74346625D01*
X62810047Y-74160861D01*
X62810045Y-74160858D01*
X62649141Y-73999954D01*
X62462734Y-73869432D01*
X62462732Y-73869431D01*
X62256497Y-73773261D01*
X62256488Y-73773258D01*
X62036697Y-73714366D01*
X62036693Y-73714365D01*
X62036692Y-73714365D01*
X62036691Y-73714364D01*
X62036686Y-73714364D01*
X61810002Y-73694532D01*
X61809998Y-73694532D01*
X61583313Y-73714364D01*
X61583302Y-73714366D01*
X61363511Y-73773258D01*
X61363502Y-73773261D01*
X61157267Y-73869431D01*
X61157265Y-73869432D01*
X60970858Y-73999954D01*
X60809954Y-74160858D01*
X60679432Y-74347265D01*
X60679431Y-74347267D01*
X60583261Y-74553502D01*
X60583258Y-74553511D01*
X60524366Y-74773302D01*
X60524364Y-74773313D01*
X60504532Y-74999998D01*
X60504532Y-75000001D01*
X60524364Y-75226686D01*
X60524366Y-75226697D01*
X60583258Y-75446488D01*
X60583261Y-75446497D01*
X60679431Y-75652732D01*
X60679432Y-75652734D01*
X60809954Y-75839141D01*
X60970858Y-76000045D01*
X60970861Y-76000047D01*
X61157266Y-76130568D01*
X61363504Y-76226739D01*
X61583308Y-76285635D01*
X61745230Y-76299801D01*
X61809998Y-76305468D01*
X61810000Y-76305468D01*
X61810002Y-76305468D01*
X61866673Y-76300509D01*
X62036692Y-76285635D01*
X62256496Y-76226739D01*
X62462734Y-76130568D01*
X62649139Y-76000047D01*
X62810047Y-75839139D01*
X62940118Y-75653375D01*
X62994693Y-75609752D01*
X63041692Y-75600500D01*
X64599069Y-75600500D01*
X64666108Y-75620185D01*
X64711863Y-75672989D01*
X64721807Y-75742147D01*
X64718845Y-75756585D01*
X64716585Y-75765021D01*
X64714365Y-75773306D01*
X64714364Y-75773313D01*
X64694532Y-75999998D01*
X64694532Y-76000001D01*
X64714364Y-76226686D01*
X64714366Y-76226697D01*
X64773258Y-76446488D01*
X64773261Y-76446497D01*
X64869431Y-76652732D01*
X64869432Y-76652734D01*
X64999954Y-76839141D01*
X65160858Y-77000045D01*
X65160861Y-77000047D01*
X65347266Y-77130568D01*
X65553504Y-77226739D01*
X65773308Y-77285635D01*
X65931774Y-77299499D01*
X65999998Y-77305468D01*
X66000000Y-77305468D01*
X66000002Y-77305468D01*
X66068226Y-77299499D01*
X66226692Y-77285635D01*
X66446496Y-77226739D01*
X66652734Y-77130568D01*
X66839139Y-77000047D01*
X67000047Y-76839139D01*
X67130118Y-76653375D01*
X67184693Y-76609752D01*
X67231692Y-76600500D01*
X71008926Y-76600500D01*
X71075965Y-76620185D01*
X71121720Y-76672989D01*
X71132688Y-76732186D01*
X71129942Y-76776390D01*
X71870590Y-77517037D01*
X71807007Y-77534075D01*
X71692993Y-77599901D01*
X71599901Y-77692993D01*
X71534075Y-77807007D01*
X71517037Y-77870589D01*
X70776564Y-77130116D01*
X70676267Y-77283632D01*
X70576412Y-77511282D01*
X70515387Y-77752261D01*
X70515385Y-77752270D01*
X70494859Y-77999994D01*
X70494859Y-78000005D01*
X70515385Y-78247729D01*
X70515387Y-78247738D01*
X70576412Y-78488717D01*
X70676266Y-78716364D01*
X70776564Y-78869882D01*
X71517037Y-78129409D01*
X71534075Y-78192993D01*
X71599901Y-78307007D01*
X71692993Y-78400099D01*
X71807007Y-78465925D01*
X71870590Y-78482962D01*
X71129942Y-79223609D01*
X71176768Y-79260055D01*
X71176770Y-79260056D01*
X71395385Y-79378364D01*
X71395396Y-79378369D01*
X71630506Y-79459083D01*
X71875707Y-79500000D01*
X72124293Y-79500000D01*
X72369493Y-79459083D01*
X72604603Y-79378369D01*
X72604614Y-79378364D01*
X72823228Y-79260057D01*
X72823231Y-79260055D01*
X72870056Y-79223609D01*
X72129409Y-78482962D01*
X72192993Y-78465925D01*
X72307007Y-78400099D01*
X72400099Y-78307007D01*
X72465925Y-78192993D01*
X72482962Y-78129410D01*
X73223434Y-78869882D01*
X73323731Y-78716369D01*
X73423587Y-78488717D01*
X73484612Y-78247738D01*
X73484614Y-78247729D01*
X73505141Y-78000005D01*
X73505141Y-77999994D01*
X73484614Y-77752270D01*
X73484612Y-77752261D01*
X73423587Y-77511282D01*
X73323731Y-77283630D01*
X73223434Y-77130116D01*
X72482962Y-77870589D01*
X72465925Y-77807007D01*
X72400099Y-77692993D01*
X72307007Y-77599901D01*
X72192993Y-77534075D01*
X72129410Y-77517037D01*
X72870056Y-76776390D01*
X72867312Y-76732185D01*
X72882804Y-76664054D01*
X72932671Y-76615115D01*
X72991074Y-76600500D01*
X73913331Y-76600500D01*
X73913347Y-76600501D01*
X73920943Y-76600501D01*
X74079054Y-76600501D01*
X74079057Y-76600501D01*
X74231785Y-76559577D01*
X74281904Y-76530639D01*
X74368716Y-76480520D01*
X74480520Y-76368716D01*
X74480520Y-76368714D01*
X74490728Y-76358507D01*
X74490729Y-76358504D01*
X77212417Y-73636819D01*
X77273740Y-73603334D01*
X77300098Y-73600500D01*
X77833331Y-73600500D01*
X77833347Y-73600501D01*
X77840943Y-73600501D01*
X77999054Y-73600501D01*
X77999057Y-73600501D01*
X78151785Y-73559577D01*
X78201904Y-73530639D01*
X78288716Y-73480520D01*
X78400520Y-73368716D01*
X78400520Y-73368714D01*
X78410728Y-73358507D01*
X78410730Y-73358504D01*
X79625614Y-72143619D01*
X79686935Y-72110136D01*
X79756627Y-72115120D01*
X79812560Y-72156992D01*
X79825674Y-72178895D01*
X79844233Y-72218695D01*
X79869431Y-72272732D01*
X79869432Y-72272734D01*
X79999954Y-72459141D01*
X80160858Y-72620045D01*
X80171161Y-72627259D01*
X80347266Y-72750568D01*
X80464345Y-72805163D01*
X80525915Y-72833874D01*
X80578354Y-72880047D01*
X80597506Y-72947240D01*
X80577290Y-73014121D01*
X80561191Y-73033937D01*
X73231949Y-80363181D01*
X73170626Y-80396666D01*
X73144268Y-80399500D01*
X68706670Y-80399500D01*
X68706654Y-80399499D01*
X68699058Y-80399499D01*
X68540943Y-80399499D01*
X68474406Y-80417328D01*
X68388214Y-80440423D01*
X68388209Y-80440426D01*
X68251290Y-80519475D01*
X68251282Y-80519481D01*
X66442705Y-82328058D01*
X66381382Y-82361543D01*
X66322931Y-82360152D01*
X66226697Y-82334366D01*
X66226693Y-82334365D01*
X66226692Y-82334365D01*
X66226691Y-82334364D01*
X66226686Y-82334364D01*
X66000002Y-82314532D01*
X65999998Y-82314532D01*
X65773313Y-82334364D01*
X65773302Y-82334366D01*
X65553511Y-82393258D01*
X65553502Y-82393261D01*
X65347267Y-82489431D01*
X65347265Y-82489432D01*
X65160858Y-82619954D01*
X64999954Y-82780858D01*
X64935471Y-82872951D01*
X64869881Y-82966624D01*
X64815307Y-83010248D01*
X64768308Y-83019500D01*
X63230799Y-83019500D01*
X63163760Y-82999815D01*
X63118005Y-82947011D01*
X63107271Y-82906307D01*
X63100689Y-82831079D01*
X63095635Y-82773308D01*
X63036739Y-82553504D01*
X62940568Y-82347266D01*
X62810047Y-82160861D01*
X62810045Y-82160858D01*
X62649141Y-81999954D01*
X62462734Y-81869432D01*
X62462732Y-81869431D01*
X62256497Y-81773261D01*
X62256488Y-81773258D01*
X62036697Y-81714366D01*
X62036693Y-81714365D01*
X62036692Y-81714365D01*
X62036691Y-81714364D01*
X62036686Y-81714364D01*
X61810002Y-81694532D01*
X61809998Y-81694532D01*
X61583313Y-81714364D01*
X61583302Y-81714366D01*
X61466593Y-81745638D01*
X61396743Y-81743975D01*
X61338881Y-81704812D01*
X61311377Y-81640583D01*
X61310500Y-81625863D01*
X61310500Y-80400097D01*
X61330185Y-80333058D01*
X61346817Y-80312418D01*
X61367291Y-80291943D01*
X61428613Y-80258456D01*
X61487066Y-80259846D01*
X61583308Y-80285635D01*
X61745230Y-80299801D01*
X61809998Y-80305468D01*
X61810000Y-80305468D01*
X61810002Y-80305468D01*
X61866673Y-80300509D01*
X62036692Y-80285635D01*
X62256496Y-80226739D01*
X62462734Y-80130568D01*
X62649139Y-80000047D01*
X62810047Y-79839139D01*
X62940568Y-79652734D01*
X63036739Y-79446496D01*
X63095635Y-79226692D01*
X63115468Y-79000000D01*
X63095635Y-78773308D01*
X63036739Y-78553504D01*
X62940568Y-78347266D01*
X62810047Y-78160861D01*
X62810045Y-78160858D01*
X62649141Y-77999954D01*
X62462734Y-77869432D01*
X62462732Y-77869431D01*
X62256497Y-77773261D01*
X62256488Y-77773258D01*
X62036697Y-77714366D01*
X62036693Y-77714365D01*
X62036692Y-77714365D01*
X62036691Y-77714364D01*
X62036686Y-77714364D01*
X61810002Y-77694532D01*
X61809998Y-77694532D01*
X61583313Y-77714364D01*
X61583302Y-77714366D01*
X61487067Y-77740152D01*
X61417217Y-77738489D01*
X61367293Y-77708058D01*
X61197590Y-77538355D01*
X61197588Y-77538352D01*
X61078717Y-77419481D01*
X61078716Y-77419480D01*
X60991904Y-77369360D01*
X60991904Y-77369359D01*
X60991900Y-77369358D01*
X60941785Y-77340423D01*
X60789057Y-77299499D01*
X60630943Y-77299499D01*
X60623347Y-77299499D01*
X60623331Y-77299500D01*
X53634413Y-77299500D01*
X53567374Y-77279815D01*
X53546732Y-77263181D01*
X51603631Y-75320080D01*
X51033550Y-74749999D01*
X52911127Y-74749999D01*
X52911128Y-74750000D01*
X53874314Y-74750000D01*
X53869920Y-74754394D01*
X53817259Y-74845606D01*
X53790000Y-74947339D01*
X53790000Y-75052661D01*
X53817259Y-75154394D01*
X53869920Y-75245606D01*
X53874314Y-75250000D01*
X52911128Y-75250000D01*
X52963730Y-75446317D01*
X52963734Y-75446326D01*
X53059865Y-75652482D01*
X53190342Y-75838820D01*
X53351179Y-75999657D01*
X53537517Y-76130134D01*
X53743673Y-76226265D01*
X53743682Y-76226269D01*
X53939999Y-76278872D01*
X53940000Y-76278871D01*
X53940000Y-75315686D01*
X53944394Y-75320080D01*
X54035606Y-75372741D01*
X54137339Y-75400000D01*
X54242661Y-75400000D01*
X54344394Y-75372741D01*
X54435606Y-75320080D01*
X54440000Y-75315686D01*
X54440000Y-76278872D01*
X54636317Y-76226269D01*
X54636326Y-76226265D01*
X54842482Y-76130134D01*
X55028820Y-75999657D01*
X55189657Y-75838820D01*
X55320134Y-75652482D01*
X55416265Y-75446326D01*
X55416269Y-75446317D01*
X55468872Y-75250000D01*
X54505686Y-75250000D01*
X54510080Y-75245606D01*
X54562741Y-75154394D01*
X54590000Y-75052661D01*
X54590000Y-74947339D01*
X54562741Y-74845606D01*
X54510080Y-74754394D01*
X54505686Y-74750000D01*
X55468872Y-74750000D01*
X55468872Y-74749999D01*
X55416269Y-74553682D01*
X55416265Y-74553673D01*
X55320134Y-74347517D01*
X55189657Y-74161179D01*
X55028820Y-74000342D01*
X54842482Y-73869865D01*
X54636328Y-73773734D01*
X54440000Y-73721127D01*
X54440000Y-74684314D01*
X54435606Y-74679920D01*
X54344394Y-74627259D01*
X54242661Y-74600000D01*
X54137339Y-74600000D01*
X54035606Y-74627259D01*
X53944394Y-74679920D01*
X53940000Y-74684314D01*
X53940000Y-73721127D01*
X53743671Y-73773734D01*
X53537517Y-73869865D01*
X53351179Y-74000342D01*
X53190342Y-74161179D01*
X53059865Y-74347517D01*
X52963734Y-74553673D01*
X52963730Y-74553682D01*
X52911127Y-74749999D01*
X51033550Y-74749999D01*
X49655730Y-73372180D01*
X49622246Y-73310858D01*
X49627230Y-73241166D01*
X49669102Y-73185233D01*
X49734566Y-73160816D01*
X49743412Y-73160500D01*
X62537696Y-73160500D01*
X62537712Y-73160501D01*
X62545308Y-73160501D01*
X62703419Y-73160501D01*
X62703422Y-73160501D01*
X62856150Y-73119577D01*
X62921257Y-73081987D01*
X62993081Y-73040520D01*
X63104885Y-72928716D01*
X63104885Y-72928714D01*
X63115089Y-72918511D01*
X63115093Y-72918506D01*
X63962013Y-72071585D01*
X64023334Y-72038102D01*
X64093026Y-72043086D01*
G37*
%TD.AperFunction*%
%TA.AperFunction,Conductor*%
G36*
X86029527Y-62900185D02*
G01*
X86075282Y-62952989D01*
X86085226Y-63022147D01*
X86071363Y-63062193D01*
X86071720Y-63062360D01*
X86070112Y-63065806D01*
X86069870Y-63066508D01*
X86069432Y-63067266D01*
X85973261Y-63273502D01*
X85973258Y-63273511D01*
X85914366Y-63493302D01*
X85914364Y-63493313D01*
X85894532Y-63719998D01*
X85894532Y-63720001D01*
X85914364Y-63946686D01*
X85914366Y-63946697D01*
X85940152Y-64042931D01*
X85938489Y-64112781D01*
X85908058Y-64162705D01*
X78505189Y-71565574D01*
X78443866Y-71599059D01*
X78374174Y-71594075D01*
X78318241Y-71552203D01*
X78293980Y-71488702D01*
X78285635Y-71393308D01*
X78237759Y-71214630D01*
X78226741Y-71173511D01*
X78226738Y-71173502D01*
X78206528Y-71130161D01*
X78130568Y-70967266D01*
X78005769Y-70789033D01*
X78000045Y-70780858D01*
X77839141Y-70619954D01*
X77652734Y-70489432D01*
X77652732Y-70489431D01*
X77446497Y-70393261D01*
X77446488Y-70393258D01*
X77226697Y-70334366D01*
X77226693Y-70334365D01*
X77226692Y-70334365D01*
X77226691Y-70334364D01*
X77226686Y-70334364D01*
X77000002Y-70314532D01*
X76999998Y-70314532D01*
X76773313Y-70334364D01*
X76773302Y-70334366D01*
X76553511Y-70393258D01*
X76553502Y-70393261D01*
X76347267Y-70489431D01*
X76347265Y-70489432D01*
X76160858Y-70619954D01*
X75999954Y-70780858D01*
X75869432Y-70967265D01*
X75869431Y-70967267D01*
X75773261Y-71173502D01*
X75773258Y-71173511D01*
X75714366Y-71393302D01*
X75714364Y-71393313D01*
X75694532Y-71619998D01*
X75694532Y-71620001D01*
X75714364Y-71846686D01*
X75714366Y-71846697D01*
X75773258Y-72066488D01*
X75773261Y-72066497D01*
X75869431Y-72272732D01*
X75869432Y-72272734D01*
X75999954Y-72459141D01*
X76160858Y-72620045D01*
X76257344Y-72687605D01*
X76300969Y-72742182D01*
X76308163Y-72811680D01*
X76276640Y-72874035D01*
X76273902Y-72876861D01*
X73787584Y-75363181D01*
X73726261Y-75396666D01*
X73699903Y-75399500D01*
X67231692Y-75399500D01*
X67164653Y-75379815D01*
X67130119Y-75346625D01*
X67000047Y-75160861D01*
X67000045Y-75160858D01*
X66839141Y-74999954D01*
X66652734Y-74869432D01*
X66652732Y-74869431D01*
X66446497Y-74773261D01*
X66446488Y-74773258D01*
X66226697Y-74714366D01*
X66226688Y-74714364D01*
X66182454Y-74710494D01*
X66117386Y-74685040D01*
X66076408Y-74628448D01*
X66072532Y-74558686D01*
X66105581Y-74499287D01*
X70948051Y-69656819D01*
X71009374Y-69623334D01*
X71035732Y-69620500D01*
X71582488Y-69620500D01*
X71649527Y-69640185D01*
X71695282Y-69692989D01*
X71705226Y-69762147D01*
X71691363Y-69802193D01*
X71691720Y-69802360D01*
X71690112Y-69805806D01*
X71689870Y-69806508D01*
X71689432Y-69807266D01*
X71593261Y-70013502D01*
X71593258Y-70013511D01*
X71534366Y-70233302D01*
X71534364Y-70233313D01*
X71514532Y-70459998D01*
X71514532Y-70460001D01*
X71534364Y-70686686D01*
X71534366Y-70686697D01*
X71593258Y-70906488D01*
X71593261Y-70906497D01*
X71689431Y-71112732D01*
X71689432Y-71112734D01*
X71819954Y-71299141D01*
X71980858Y-71460045D01*
X71980861Y-71460047D01*
X72167266Y-71590568D01*
X72225865Y-71617893D01*
X72278305Y-71664065D01*
X72297457Y-71731258D01*
X72277242Y-71798139D01*
X72225867Y-71842657D01*
X72167515Y-71869867D01*
X71981179Y-72000342D01*
X71820342Y-72161179D01*
X71689865Y-72347517D01*
X71593734Y-72553673D01*
X71593730Y-72553682D01*
X71541127Y-72749999D01*
X71541128Y-72750000D01*
X72504314Y-72750000D01*
X72499920Y-72754394D01*
X72447259Y-72845606D01*
X72420000Y-72947339D01*
X72420000Y-73052661D01*
X72447259Y-73154394D01*
X72499920Y-73245606D01*
X72504314Y-73250000D01*
X71541128Y-73250000D01*
X71593730Y-73446317D01*
X71593734Y-73446326D01*
X71689865Y-73652482D01*
X71820342Y-73838820D01*
X71981179Y-73999657D01*
X72167517Y-74130134D01*
X72373673Y-74226265D01*
X72373682Y-74226269D01*
X72569999Y-74278872D01*
X72570000Y-74278871D01*
X72570000Y-73315686D01*
X72574394Y-73320080D01*
X72665606Y-73372741D01*
X72767339Y-73400000D01*
X72872661Y-73400000D01*
X72974394Y-73372741D01*
X73065606Y-73320080D01*
X73070000Y-73315686D01*
X73070000Y-74278872D01*
X73266317Y-74226269D01*
X73266326Y-74226265D01*
X73472482Y-74130134D01*
X73658820Y-73999657D01*
X73819657Y-73838820D01*
X73950134Y-73652482D01*
X74046265Y-73446326D01*
X74046269Y-73446317D01*
X74098872Y-73250000D01*
X73135686Y-73250000D01*
X73140080Y-73245606D01*
X73192741Y-73154394D01*
X73220000Y-73052661D01*
X73220000Y-72947339D01*
X73192741Y-72845606D01*
X73140080Y-72754394D01*
X73135686Y-72750000D01*
X74098872Y-72750000D01*
X74098872Y-72749999D01*
X74046269Y-72553682D01*
X74046265Y-72553673D01*
X73950134Y-72347517D01*
X73819657Y-72161179D01*
X73658820Y-72000342D01*
X73472482Y-71869865D01*
X73414133Y-71842657D01*
X73361694Y-71796484D01*
X73342542Y-71729291D01*
X73362758Y-71662410D01*
X73414129Y-71617895D01*
X73472734Y-71590568D01*
X73659139Y-71460047D01*
X73820047Y-71299139D01*
X73950568Y-71112734D01*
X74046739Y-70906496D01*
X74105635Y-70686692D01*
X74125468Y-70460000D01*
X74105635Y-70233308D01*
X74046739Y-70013504D01*
X73950568Y-69807266D01*
X73950562Y-69807257D01*
X73950130Y-69806508D01*
X73950038Y-69806131D01*
X73948280Y-69802360D01*
X73949037Y-69802006D01*
X73933652Y-69738609D01*
X73956499Y-69672581D01*
X74011417Y-69629386D01*
X74057512Y-69620500D01*
X74337696Y-69620500D01*
X74337712Y-69620501D01*
X74345308Y-69620501D01*
X74503419Y-69620501D01*
X74503422Y-69620501D01*
X74656150Y-69579577D01*
X74706269Y-69550639D01*
X74793081Y-69500520D01*
X74904885Y-69388716D01*
X74904885Y-69388714D01*
X74915093Y-69378507D01*
X74915095Y-69378504D01*
X79671524Y-64622074D01*
X79732845Y-64588591D01*
X79802537Y-64593575D01*
X79858470Y-64635447D01*
X79866207Y-64648341D01*
X79866724Y-64648043D01*
X79869432Y-64652734D01*
X79999954Y-64839141D01*
X80160858Y-65000045D01*
X80187473Y-65018681D01*
X80347266Y-65130568D01*
X80553504Y-65226739D01*
X80553509Y-65226740D01*
X80553511Y-65226741D01*
X80606415Y-65240916D01*
X80773308Y-65285635D01*
X80935230Y-65299801D01*
X80999998Y-65305468D01*
X81000000Y-65305468D01*
X81000002Y-65305468D01*
X81056673Y-65300509D01*
X81226692Y-65285635D01*
X81446496Y-65226739D01*
X81652734Y-65130568D01*
X81839139Y-65000047D01*
X82000047Y-64839139D01*
X82130568Y-64652734D01*
X82226739Y-64446496D01*
X82285635Y-64226692D01*
X82305468Y-64000000D01*
X82285635Y-63773308D01*
X82226739Y-63553504D01*
X82130568Y-63347266D01*
X82000047Y-63160861D01*
X82000045Y-63160858D01*
X81931368Y-63092181D01*
X81897883Y-63030858D01*
X81902867Y-62961166D01*
X81944739Y-62905233D01*
X82010203Y-62880816D01*
X82019049Y-62880500D01*
X85962488Y-62880500D01*
X86029527Y-62900185D01*
G37*
%TD.AperFunction*%
%TA.AperFunction,Conductor*%
G36*
X98313256Y-56682241D02*
G01*
X98371118Y-56721403D01*
X98398623Y-56785631D01*
X98399500Y-56800353D01*
X98399500Y-58851372D01*
X98379815Y-58918411D01*
X98363182Y-58939053D01*
X98270951Y-59031284D01*
X97419481Y-59882753D01*
X97419480Y-59882755D01*
X97383273Y-59945468D01*
X97340423Y-60019686D01*
X97299499Y-60172414D01*
X97299499Y-60172416D01*
X97299499Y-60340517D01*
X97299500Y-60340530D01*
X97299500Y-67368965D01*
X97299499Y-67368983D01*
X97299499Y-67534689D01*
X97299498Y-67534689D01*
X97340423Y-67687422D01*
X97347376Y-67699464D01*
X97347378Y-67699466D01*
X97419477Y-67824347D01*
X97419481Y-67824352D01*
X97538349Y-67943220D01*
X97538354Y-67943224D01*
X98175649Y-68580520D01*
X98175651Y-68580521D01*
X98175655Y-68580524D01*
X98262335Y-68630568D01*
X98312581Y-68659577D01*
X98312588Y-68659579D01*
X98320088Y-68662686D01*
X98319039Y-68665218D01*
X98367250Y-68694601D01*
X98397782Y-68757447D01*
X98399500Y-68778015D01*
X98399500Y-69675268D01*
X98379815Y-69742307D01*
X98327011Y-69788062D01*
X98257853Y-69798006D01*
X98194297Y-69768981D01*
X98187819Y-69762949D01*
X95763225Y-67338355D01*
X95763223Y-67338352D01*
X95759355Y-67334484D01*
X95757965Y-67331940D01*
X95747732Y-67319457D01*
X95747730Y-67319454D01*
X95750235Y-67317783D01*
X95725870Y-67273161D01*
X95730854Y-67203469D01*
X95759355Y-67159121D01*
X95819660Y-67098816D01*
X95950134Y-66912482D01*
X96046265Y-66706326D01*
X96046269Y-66706317D01*
X96098872Y-66510000D01*
X95135686Y-66510000D01*
X95140080Y-66505606D01*
X95192741Y-66414394D01*
X95220000Y-66312661D01*
X95220000Y-66207339D01*
X95192741Y-66105606D01*
X95140080Y-66014394D01*
X95135686Y-66010000D01*
X96098872Y-66010000D01*
X96098872Y-66009999D01*
X96046269Y-65813682D01*
X96046265Y-65813673D01*
X95950134Y-65607517D01*
X95819657Y-65421179D01*
X95658820Y-65260342D01*
X95472482Y-65129865D01*
X95414133Y-65102657D01*
X95361694Y-65056484D01*
X95342542Y-64989291D01*
X95362758Y-64922410D01*
X95414129Y-64877895D01*
X95472734Y-64850568D01*
X95659139Y-64720047D01*
X95820047Y-64559139D01*
X95950568Y-64372734D01*
X96046739Y-64166496D01*
X96105635Y-63946692D01*
X96125468Y-63720000D01*
X96105635Y-63493308D01*
X96046739Y-63273504D01*
X95950568Y-63067266D01*
X95820047Y-62880861D01*
X95820045Y-62880858D01*
X95659141Y-62719954D01*
X95472734Y-62589432D01*
X95472728Y-62589429D01*
X95414725Y-62562382D01*
X95362285Y-62516210D01*
X95343133Y-62449017D01*
X95363348Y-62382135D01*
X95414725Y-62337618D01*
X95472734Y-62310568D01*
X95659139Y-62180047D01*
X95820047Y-62019139D01*
X95950568Y-61832734D01*
X96046739Y-61626496D01*
X96105635Y-61406692D01*
X96122634Y-61212384D01*
X96125468Y-61180001D01*
X96125468Y-61179998D01*
X96105635Y-60953313D01*
X96105635Y-60953308D01*
X96046739Y-60733504D01*
X95950568Y-60527266D01*
X95826446Y-60350000D01*
X95820045Y-60340858D01*
X95659141Y-60179954D01*
X95472734Y-60049432D01*
X95472728Y-60049429D01*
X95414725Y-60022382D01*
X95362285Y-59976210D01*
X95343133Y-59909017D01*
X95363348Y-59842135D01*
X95414725Y-59797618D01*
X95472734Y-59770568D01*
X95659139Y-59640047D01*
X95820047Y-59479139D01*
X95950568Y-59292734D01*
X96046739Y-59086496D01*
X96105635Y-58866692D01*
X96124551Y-58650478D01*
X96125468Y-58640001D01*
X96125468Y-58639998D01*
X96116201Y-58534075D01*
X96105635Y-58413308D01*
X96052400Y-58214630D01*
X96046741Y-58193511D01*
X96046738Y-58193502D01*
X96016472Y-58128597D01*
X95950568Y-57987266D01*
X95820047Y-57800861D01*
X95820045Y-57800858D01*
X95659141Y-57639954D01*
X95472734Y-57509432D01*
X95472728Y-57509429D01*
X95414725Y-57482382D01*
X95362285Y-57436210D01*
X95343133Y-57369017D01*
X95363348Y-57302135D01*
X95414725Y-57257618D01*
X95472734Y-57230568D01*
X95659139Y-57100047D01*
X95820047Y-56939139D01*
X95950118Y-56753375D01*
X96004693Y-56709752D01*
X96051692Y-56700500D01*
X98003331Y-56700500D01*
X98003347Y-56700501D01*
X98010943Y-56700501D01*
X98169054Y-56700501D01*
X98169057Y-56700501D01*
X98243409Y-56680578D01*
X98313256Y-56682241D01*
G37*
%TD.AperFunction*%
%TA.AperFunction,Conductor*%
G36*
X85021307Y-50620185D02*
G01*
X85041948Y-50636818D01*
X90985649Y-56580520D01*
X90985651Y-56580521D01*
X90985655Y-56580524D01*
X91110725Y-56652732D01*
X91122581Y-56659577D01*
X91275308Y-56700501D01*
X91275310Y-56700501D01*
X91441019Y-56700501D01*
X91441035Y-56700500D01*
X93588308Y-56700500D01*
X93655347Y-56720185D01*
X93689880Y-56753374D01*
X93775480Y-56875624D01*
X93819954Y-56939141D01*
X93980858Y-57100045D01*
X93980861Y-57100047D01*
X94167266Y-57230568D01*
X94225275Y-57257618D01*
X94277714Y-57303791D01*
X94296866Y-57370984D01*
X94276650Y-57437865D01*
X94225275Y-57482382D01*
X94167267Y-57509431D01*
X94167265Y-57509432D01*
X93980858Y-57639954D01*
X93819954Y-57800858D01*
X93689432Y-57987265D01*
X93689431Y-57987267D01*
X93593261Y-58193502D01*
X93593258Y-58193511D01*
X93534366Y-58413302D01*
X93534364Y-58413313D01*
X93514532Y-58639998D01*
X93514532Y-58640001D01*
X93534364Y-58866686D01*
X93534366Y-58866697D01*
X93593258Y-59086488D01*
X93593261Y-59086497D01*
X93689431Y-59292732D01*
X93689432Y-59292734D01*
X93819954Y-59479141D01*
X93980858Y-59640045D01*
X93980861Y-59640047D01*
X94167266Y-59770568D01*
X94225275Y-59797618D01*
X94277714Y-59843791D01*
X94296866Y-59910984D01*
X94276650Y-59977865D01*
X94225275Y-60022382D01*
X94167267Y-60049431D01*
X94167265Y-60049432D01*
X93980858Y-60179954D01*
X93819954Y-60340858D01*
X93689432Y-60527265D01*
X93689431Y-60527267D01*
X93593261Y-60733502D01*
X93593258Y-60733511D01*
X93534366Y-60953302D01*
X93534364Y-60953313D01*
X93514532Y-61179998D01*
X93514532Y-61180001D01*
X93534364Y-61406686D01*
X93534366Y-61406697D01*
X93593258Y-61626488D01*
X93593261Y-61626497D01*
X93689431Y-61832732D01*
X93689432Y-61832734D01*
X93819954Y-62019141D01*
X93980858Y-62180045D01*
X93980861Y-62180047D01*
X94167266Y-62310568D01*
X94225275Y-62337618D01*
X94277714Y-62383791D01*
X94296866Y-62450984D01*
X94276650Y-62517865D01*
X94225275Y-62562382D01*
X94167267Y-62589431D01*
X94167265Y-62589432D01*
X93980858Y-62719954D01*
X93819954Y-62880858D01*
X93689432Y-63067265D01*
X93689431Y-63067267D01*
X93593261Y-63273502D01*
X93593258Y-63273511D01*
X93534366Y-63493302D01*
X93534364Y-63493313D01*
X93514532Y-63719998D01*
X93514532Y-63720001D01*
X93534364Y-63946686D01*
X93534366Y-63946697D01*
X93593258Y-64166488D01*
X93593261Y-64166497D01*
X93689431Y-64372732D01*
X93689432Y-64372734D01*
X93819954Y-64559141D01*
X93980858Y-64720045D01*
X93980861Y-64720047D01*
X94167266Y-64850568D01*
X94225865Y-64877893D01*
X94278305Y-64924065D01*
X94297457Y-64991258D01*
X94277242Y-65058139D01*
X94225867Y-65102657D01*
X94167515Y-65129867D01*
X93981179Y-65260342D01*
X93820342Y-65421179D01*
X93689865Y-65607517D01*
X93593734Y-65813673D01*
X93593730Y-65813682D01*
X93541127Y-66009999D01*
X93541128Y-66010000D01*
X94504314Y-66010000D01*
X94499920Y-66014394D01*
X94447259Y-66105606D01*
X94420000Y-66207339D01*
X94420000Y-66312661D01*
X94447259Y-66414394D01*
X94499920Y-66505606D01*
X94504314Y-66510000D01*
X93541128Y-66510000D01*
X93593730Y-66706317D01*
X93593734Y-66706326D01*
X93689867Y-66912485D01*
X93690456Y-66913505D01*
X93690578Y-66914010D01*
X93692154Y-66917389D01*
X93691474Y-66917705D01*
X93706925Y-66981406D01*
X93684070Y-67047432D01*
X93629147Y-67090620D01*
X93583066Y-67099500D01*
X88437512Y-67099500D01*
X88370473Y-67079815D01*
X88324718Y-67027011D01*
X88314774Y-66957853D01*
X88328636Y-66917806D01*
X88328280Y-66917640D01*
X88329887Y-66914193D01*
X88330130Y-66913492D01*
X88330559Y-66912746D01*
X88330568Y-66912734D01*
X88426739Y-66706496D01*
X88485635Y-66486692D01*
X88505468Y-66260000D01*
X88500202Y-66199815D01*
X88494962Y-66139920D01*
X88485635Y-66033308D01*
X88460520Y-65939577D01*
X88459847Y-65937066D01*
X88461510Y-65867217D01*
X88491939Y-65817294D01*
X89358506Y-64950728D01*
X89358511Y-64950724D01*
X89368714Y-64940520D01*
X89368716Y-64940520D01*
X89480520Y-64828716D01*
X89559577Y-64691784D01*
X89563788Y-64676065D01*
X89600153Y-64616406D01*
X89663000Y-64585877D01*
X89732376Y-64594172D01*
X89771244Y-64620479D01*
X91169298Y-66018533D01*
X91202783Y-66079856D01*
X91204837Y-66092330D01*
X91214630Y-66179249D01*
X91274210Y-66349521D01*
X91305614Y-66399500D01*
X91370184Y-66502262D01*
X91497738Y-66629816D01*
X91529861Y-66650000D01*
X91619760Y-66706488D01*
X91650478Y-66725789D01*
X91755055Y-66762382D01*
X91820745Y-66785368D01*
X91820750Y-66785369D01*
X91999996Y-66805565D01*
X92000000Y-66805565D01*
X92000004Y-66805565D01*
X92179249Y-66785369D01*
X92179252Y-66785368D01*
X92179255Y-66785368D01*
X92349522Y-66725789D01*
X92502262Y-66629816D01*
X92629816Y-66502262D01*
X92725789Y-66349522D01*
X92785368Y-66179255D01*
X92785605Y-66177150D01*
X92805565Y-66000003D01*
X92805565Y-65999996D01*
X92785369Y-65820750D01*
X92785368Y-65820745D01*
X92758648Y-65744385D01*
X92725789Y-65650478D01*
X92710322Y-65625863D01*
X92629815Y-65497737D01*
X92502262Y-65370184D01*
X92349521Y-65274210D01*
X92179249Y-65214630D01*
X92092330Y-65204837D01*
X92027916Y-65177770D01*
X92018533Y-65169298D01*
X90336819Y-63487584D01*
X90303334Y-63426261D01*
X90300500Y-63399903D01*
X90300500Y-59825123D01*
X90320185Y-59758084D01*
X90358524Y-59720132D01*
X90502262Y-59629816D01*
X90629816Y-59502262D01*
X90725789Y-59349522D01*
X90785368Y-59179255D01*
X90787441Y-59160861D01*
X90805565Y-59000001D01*
X90805565Y-58999996D01*
X90785369Y-58820750D01*
X90785368Y-58820745D01*
X90768753Y-58773261D01*
X90725789Y-58650478D01*
X90629816Y-58497738D01*
X90502262Y-58370184D01*
X90425847Y-58322169D01*
X90349523Y-58274211D01*
X90179254Y-58214631D01*
X90179249Y-58214630D01*
X90000004Y-58194435D01*
X89999996Y-58194435D01*
X89820750Y-58214630D01*
X89820745Y-58214631D01*
X89650476Y-58274211D01*
X89497737Y-58370184D01*
X89370184Y-58497737D01*
X89274210Y-58650478D01*
X89214630Y-58820750D01*
X89200877Y-58942811D01*
X89185051Y-58990915D01*
X89180186Y-58999342D01*
X89179807Y-59000000D01*
X89140423Y-59068215D01*
X89099499Y-59220943D01*
X89099499Y-59220945D01*
X89099499Y-59389046D01*
X89099500Y-59389059D01*
X89099500Y-60375268D01*
X89079815Y-60442307D01*
X89027011Y-60488062D01*
X88957853Y-60498006D01*
X88894297Y-60468981D01*
X88887819Y-60462949D01*
X88787590Y-60362720D01*
X88787587Y-60362716D01*
X88787587Y-60362717D01*
X88780520Y-60355650D01*
X88780520Y-60355649D01*
X88668716Y-60243845D01*
X88668715Y-60243844D01*
X88664385Y-60239514D01*
X88664374Y-60239504D01*
X88139709Y-59714839D01*
X88106224Y-59653516D01*
X88111208Y-59583824D01*
X88139709Y-59539477D01*
X88157181Y-59522003D01*
X88200047Y-59479139D01*
X88330568Y-59292734D01*
X88426739Y-59086496D01*
X88485635Y-58866692D01*
X88504551Y-58650478D01*
X88505468Y-58640001D01*
X88505468Y-58639998D01*
X88496201Y-58534075D01*
X88485635Y-58413308D01*
X88432400Y-58214630D01*
X88426741Y-58193511D01*
X88426738Y-58193502D01*
X88396472Y-58128597D01*
X88330568Y-57987266D01*
X88200047Y-57800861D01*
X88200045Y-57800858D01*
X88039143Y-57639956D01*
X88014536Y-57622726D01*
X87970912Y-57568149D01*
X87963719Y-57498650D01*
X87995241Y-57436296D01*
X88055471Y-57400882D01*
X88072404Y-57397861D01*
X88107483Y-57394091D01*
X88242331Y-57343796D01*
X88357546Y-57257546D01*
X88443796Y-57142331D01*
X88494091Y-57007483D01*
X88500500Y-56947873D01*
X88500499Y-55252128D01*
X88494091Y-55192517D01*
X88493152Y-55190000D01*
X88443797Y-55057671D01*
X88443793Y-55057664D01*
X88357547Y-54942455D01*
X88357544Y-54942452D01*
X88242335Y-54856206D01*
X88242328Y-54856202D01*
X88107482Y-54805908D01*
X88107483Y-54805908D01*
X88047883Y-54799501D01*
X88047881Y-54799500D01*
X88047873Y-54799500D01*
X88047864Y-54799500D01*
X86352129Y-54799500D01*
X86352123Y-54799501D01*
X86292516Y-54805908D01*
X86157671Y-54856202D01*
X86157664Y-54856206D01*
X86042455Y-54942452D01*
X86042452Y-54942455D01*
X85956206Y-55057664D01*
X85956202Y-55057671D01*
X85905908Y-55192517D01*
X85904827Y-55202577D01*
X85899501Y-55252123D01*
X85899500Y-55252135D01*
X85899500Y-56947870D01*
X85899501Y-56947876D01*
X85905908Y-57007483D01*
X85956202Y-57142328D01*
X85956206Y-57142335D01*
X86042452Y-57257544D01*
X86042455Y-57257547D01*
X86157664Y-57343793D01*
X86157671Y-57343797D01*
X86202618Y-57360561D01*
X86292517Y-57394091D01*
X86327596Y-57397862D01*
X86392144Y-57424599D01*
X86431993Y-57481991D01*
X86434488Y-57551816D01*
X86398836Y-57611905D01*
X86385464Y-57622725D01*
X86360858Y-57639954D01*
X86199954Y-57800858D01*
X86069432Y-57987265D01*
X86069431Y-57987267D01*
X85973261Y-58193502D01*
X85973258Y-58193511D01*
X85914366Y-58413302D01*
X85914364Y-58413313D01*
X85894532Y-58639998D01*
X85894532Y-58640001D01*
X85914364Y-58866686D01*
X85914366Y-58866697D01*
X85973258Y-59086488D01*
X85973261Y-59086496D01*
X86008086Y-59161179D01*
X86036959Y-59223095D01*
X86047451Y-59292172D01*
X86018932Y-59355956D01*
X85960455Y-59394196D01*
X85924577Y-59399500D01*
X83231692Y-59399500D01*
X83164653Y-59379815D01*
X83130119Y-59346625D01*
X83000047Y-59160861D01*
X83000045Y-59160858D01*
X82839141Y-58999954D01*
X82652734Y-58869432D01*
X82652732Y-58869431D01*
X82446497Y-58773261D01*
X82446488Y-58773258D01*
X82226697Y-58714366D01*
X82226693Y-58714365D01*
X82226692Y-58714365D01*
X82226691Y-58714364D01*
X82226686Y-58714364D01*
X82000002Y-58694532D01*
X81999998Y-58694532D01*
X81773313Y-58714364D01*
X81773302Y-58714366D01*
X81553511Y-58773258D01*
X81553502Y-58773261D01*
X81347267Y-58869431D01*
X81347265Y-58869432D01*
X81160858Y-58999954D01*
X80999954Y-59160858D01*
X80869432Y-59347265D01*
X80869431Y-59347267D01*
X80773261Y-59553502D01*
X80773258Y-59553511D01*
X80714366Y-59773302D01*
X80714364Y-59773313D01*
X80694532Y-59999998D01*
X80694532Y-60000001D01*
X80714364Y-60226686D01*
X80714366Y-60226697D01*
X80767074Y-60423407D01*
X80765411Y-60493257D01*
X80726248Y-60551119D01*
X80662020Y-60578623D01*
X80647299Y-60579500D01*
X77480097Y-60579500D01*
X77413058Y-60559815D01*
X77392416Y-60543181D01*
X74360860Y-57511625D01*
X74327375Y-57450302D01*
X74332359Y-57380610D01*
X74374231Y-57324677D01*
X74437730Y-57300417D01*
X74606692Y-57285635D01*
X74826496Y-57226739D01*
X75032734Y-57130568D01*
X75219139Y-57000047D01*
X75380047Y-56839139D01*
X75510568Y-56652734D01*
X75606739Y-56446496D01*
X75665635Y-56226692D01*
X75685468Y-56000001D01*
X80694532Y-56000001D01*
X80714364Y-56226686D01*
X80714366Y-56226697D01*
X80773258Y-56446488D01*
X80773261Y-56446497D01*
X80869431Y-56652732D01*
X80869432Y-56652734D01*
X80999954Y-56839141D01*
X81160858Y-57000045D01*
X81160861Y-57000047D01*
X81347266Y-57130568D01*
X81553504Y-57226739D01*
X81553509Y-57226740D01*
X81553511Y-57226741D01*
X81577087Y-57233058D01*
X81773308Y-57285635D01*
X81935230Y-57299801D01*
X81999998Y-57305468D01*
X82000000Y-57305468D01*
X82000002Y-57305468D01*
X82061391Y-57300097D01*
X82226692Y-57285635D01*
X82446496Y-57226739D01*
X82652734Y-57130568D01*
X82839139Y-57000047D01*
X83000047Y-56839139D01*
X83130568Y-56652734D01*
X83226739Y-56446496D01*
X83285635Y-56226692D01*
X83305468Y-56000000D01*
X83285635Y-55773308D01*
X83226739Y-55553504D01*
X83130568Y-55347266D01*
X83000047Y-55160861D01*
X83000045Y-55160858D01*
X82839141Y-54999954D01*
X82652734Y-54869432D01*
X82652732Y-54869431D01*
X82446497Y-54773261D01*
X82446488Y-54773258D01*
X82226697Y-54714366D01*
X82226693Y-54714365D01*
X82226692Y-54714365D01*
X82226691Y-54714364D01*
X82226686Y-54714364D01*
X82000002Y-54694532D01*
X81999998Y-54694532D01*
X81773313Y-54714364D01*
X81773302Y-54714366D01*
X81553511Y-54773258D01*
X81553502Y-54773261D01*
X81347267Y-54869431D01*
X81347265Y-54869432D01*
X81160858Y-54999954D01*
X80999954Y-55160858D01*
X80869432Y-55347265D01*
X80869431Y-55347267D01*
X80773261Y-55553502D01*
X80773258Y-55553511D01*
X80714366Y-55773302D01*
X80714364Y-55773313D01*
X80694532Y-55999998D01*
X80694532Y-56000001D01*
X75685468Y-56000001D01*
X75685468Y-56000000D01*
X75665635Y-55773308D01*
X75606739Y-55553504D01*
X75510568Y-55347266D01*
X75380047Y-55160861D01*
X75380045Y-55160858D01*
X75219141Y-54999954D01*
X75032734Y-54869432D01*
X75032732Y-54869431D01*
X74826497Y-54773261D01*
X74826488Y-54773258D01*
X74606697Y-54714366D01*
X74606693Y-54714365D01*
X74606692Y-54714365D01*
X74606691Y-54714364D01*
X74606686Y-54714364D01*
X74380002Y-54694532D01*
X74379998Y-54694532D01*
X74153313Y-54714364D01*
X74153302Y-54714366D01*
X73933511Y-54773258D01*
X73933502Y-54773261D01*
X73727267Y-54869431D01*
X73727265Y-54869432D01*
X73540858Y-54999954D01*
X73379954Y-55160858D01*
X73291575Y-55287079D01*
X73236999Y-55330704D01*
X73167500Y-55337898D01*
X73105145Y-55306376D01*
X73088425Y-55287079D01*
X73000045Y-55160858D01*
X72839141Y-54999954D01*
X72652734Y-54869432D01*
X72652732Y-54869431D01*
X72446497Y-54773261D01*
X72446488Y-54773258D01*
X72226697Y-54714366D01*
X72226693Y-54714365D01*
X72226692Y-54714365D01*
X72226691Y-54714364D01*
X72226686Y-54714364D01*
X72000002Y-54694532D01*
X71999998Y-54694532D01*
X71773313Y-54714364D01*
X71773302Y-54714366D01*
X71553511Y-54773258D01*
X71553502Y-54773261D01*
X71347267Y-54869431D01*
X71282546Y-54914749D01*
X71216340Y-54937076D01*
X71148573Y-54920064D01*
X71100760Y-54869116D01*
X71088083Y-54800406D01*
X71114565Y-54735749D01*
X71123738Y-54725497D01*
X72212417Y-53636819D01*
X72273740Y-53603334D01*
X72300098Y-53600500D01*
X74971961Y-53600500D01*
X74971977Y-53600501D01*
X74979573Y-53600501D01*
X75137684Y-53600501D01*
X75137687Y-53600501D01*
X75290415Y-53559577D01*
X75361188Y-53518716D01*
X75427346Y-53480520D01*
X75539150Y-53368716D01*
X75539150Y-53368714D01*
X75549354Y-53358511D01*
X75549358Y-53358506D01*
X78041659Y-50866204D01*
X78102980Y-50832721D01*
X78172672Y-50837705D01*
X78217019Y-50866206D01*
X78350858Y-51000045D01*
X78350861Y-51000047D01*
X78537266Y-51130568D01*
X78743504Y-51226739D01*
X78963308Y-51285635D01*
X79125230Y-51299801D01*
X79189998Y-51305468D01*
X79190000Y-51305468D01*
X79190002Y-51305468D01*
X79246673Y-51300509D01*
X79416692Y-51285635D01*
X79636496Y-51226739D01*
X79842734Y-51130568D01*
X80029139Y-51000047D01*
X80190047Y-50839139D01*
X80320118Y-50653375D01*
X80374693Y-50609752D01*
X80421692Y-50600500D01*
X84954268Y-50600500D01*
X85021307Y-50620185D01*
G37*
%TD.AperFunction*%
%TA.AperFunction,Conductor*%
G36*
X74226942Y-35620185D02*
G01*
X74247584Y-35636819D01*
X74506333Y-35895568D01*
X74539818Y-35956891D01*
X74534834Y-36026583D01*
X74492962Y-36082516D01*
X74427498Y-36106933D01*
X74407844Y-36106777D01*
X74380001Y-36104341D01*
X74379999Y-36104341D01*
X74144596Y-36124936D01*
X74144586Y-36124938D01*
X73916344Y-36186094D01*
X73916335Y-36186098D01*
X73702171Y-36285964D01*
X73702169Y-36285965D01*
X73508597Y-36421505D01*
X73341505Y-36588597D01*
X73211269Y-36774595D01*
X73156692Y-36818220D01*
X73087194Y-36825414D01*
X73024839Y-36793891D01*
X73008119Y-36774595D01*
X72954925Y-36698626D01*
X72954925Y-36698625D01*
X72322962Y-37330589D01*
X72305925Y-37267007D01*
X72240099Y-37152993D01*
X72147007Y-37059901D01*
X72032993Y-36994075D01*
X71969410Y-36977037D01*
X72601373Y-36345073D01*
X72601373Y-36345072D01*
X72517583Y-36286402D01*
X72517579Y-36286400D01*
X72303492Y-36186570D01*
X72303483Y-36186566D01*
X72075326Y-36125432D01*
X72075315Y-36125430D01*
X71840002Y-36104843D01*
X71839998Y-36104843D01*
X71604684Y-36125430D01*
X71604673Y-36125432D01*
X71376516Y-36186566D01*
X71376507Y-36186570D01*
X71162419Y-36286401D01*
X71078625Y-36345072D01*
X71710590Y-36977037D01*
X71647007Y-36994075D01*
X71532993Y-37059901D01*
X71439901Y-37152993D01*
X71374075Y-37267007D01*
X71357037Y-37330590D01*
X70725072Y-36698625D01*
X70725072Y-36698626D01*
X70671574Y-36775030D01*
X70616998Y-36818655D01*
X70547499Y-36825849D01*
X70485144Y-36794326D01*
X70468424Y-36775030D01*
X70414925Y-36698626D01*
X70414925Y-36698625D01*
X69782962Y-37330589D01*
X69765925Y-37267007D01*
X69700099Y-37152993D01*
X69607007Y-37059901D01*
X69492993Y-36994075D01*
X69429410Y-36977037D01*
X70061373Y-36345073D01*
X70061373Y-36345072D01*
X69977583Y-36286402D01*
X69977579Y-36286400D01*
X69763492Y-36186570D01*
X69763483Y-36186566D01*
X69535326Y-36125432D01*
X69535315Y-36125430D01*
X69300002Y-36104843D01*
X69299998Y-36104843D01*
X69064684Y-36125430D01*
X69064673Y-36125432D01*
X68836516Y-36186566D01*
X68836507Y-36186570D01*
X68622419Y-36286401D01*
X68538625Y-36345072D01*
X69170590Y-36977037D01*
X69107007Y-36994075D01*
X68992993Y-37059901D01*
X68899901Y-37152993D01*
X68834075Y-37267007D01*
X68817037Y-37330590D01*
X68185072Y-36698625D01*
X68185072Y-36698626D01*
X68131574Y-36775030D01*
X68076998Y-36818655D01*
X68007499Y-36825849D01*
X67945144Y-36794326D01*
X67928424Y-36775030D01*
X67874925Y-36698626D01*
X67874925Y-36698625D01*
X67242962Y-37330589D01*
X67225925Y-37267007D01*
X67160099Y-37152993D01*
X67067007Y-37059901D01*
X66952993Y-36994075D01*
X66889410Y-36977037D01*
X67521373Y-36345073D01*
X67521373Y-36345072D01*
X67437583Y-36286402D01*
X67437579Y-36286400D01*
X67223492Y-36186570D01*
X67223483Y-36186566D01*
X66995326Y-36125432D01*
X66995315Y-36125430D01*
X66760002Y-36104843D01*
X66759998Y-36104843D01*
X66524684Y-36125430D01*
X66524673Y-36125432D01*
X66296516Y-36186566D01*
X66296507Y-36186570D01*
X66082419Y-36286401D01*
X65998625Y-36345072D01*
X66630590Y-36977037D01*
X66567007Y-36994075D01*
X66452993Y-37059901D01*
X66359901Y-37152993D01*
X66294075Y-37267007D01*
X66277037Y-37330590D01*
X65645073Y-36698626D01*
X65591881Y-36774594D01*
X65537304Y-36818219D01*
X65467806Y-36825413D01*
X65405451Y-36793891D01*
X65388730Y-36774594D01*
X65258494Y-36588597D01*
X65091402Y-36421506D01*
X65091395Y-36421501D01*
X64897834Y-36285967D01*
X64897830Y-36285965D01*
X64816030Y-36247821D01*
X64683663Y-36186097D01*
X64683659Y-36186096D01*
X64683655Y-36186094D01*
X64455413Y-36124938D01*
X64455403Y-36124936D01*
X64220001Y-36104341D01*
X64219999Y-36104341D01*
X63984596Y-36124936D01*
X63984586Y-36124938D01*
X63756344Y-36186094D01*
X63756335Y-36186098D01*
X63542171Y-36285964D01*
X63542169Y-36285965D01*
X63348597Y-36421505D01*
X63181505Y-36588597D01*
X63045965Y-36782169D01*
X63045964Y-36782171D01*
X62946098Y-36996335D01*
X62946094Y-36996344D01*
X62884938Y-37224586D01*
X62884936Y-37224596D01*
X62864341Y-37459999D01*
X62864341Y-37460000D01*
X62884936Y-37695403D01*
X62884938Y-37695413D01*
X62946094Y-37923655D01*
X62946096Y-37923659D01*
X62946097Y-37923663D01*
X62981694Y-38000000D01*
X63045965Y-38137830D01*
X63045967Y-38137834D01*
X63104462Y-38221373D01*
X63181505Y-38331401D01*
X63348599Y-38498495D01*
X63348604Y-38498499D01*
X63349968Y-38499643D01*
X63350407Y-38500303D01*
X63352427Y-38502323D01*
X63352021Y-38502728D01*
X63388669Y-38557815D01*
X63389776Y-38627676D01*
X63352937Y-38687046D01*
X63309267Y-38712336D01*
X63300669Y-38715184D01*
X63300663Y-38715187D01*
X63151342Y-38807289D01*
X63027289Y-38931342D01*
X62935187Y-39080663D01*
X62935185Y-39080668D01*
X62911207Y-39153031D01*
X62882844Y-39238625D01*
X62880001Y-39247204D01*
X62880000Y-39247205D01*
X62877621Y-39270499D01*
X62876679Y-39279725D01*
X62875823Y-39288102D01*
X62849427Y-39352793D01*
X62792247Y-39392945D01*
X62752465Y-39399500D01*
X59166670Y-39399500D01*
X59166654Y-39399499D01*
X59159058Y-39399499D01*
X59000943Y-39399499D01*
X58939922Y-39415850D01*
X58848214Y-39440423D01*
X58848209Y-39440426D01*
X58711290Y-39519475D01*
X58711282Y-39519481D01*
X57477082Y-40753681D01*
X57415759Y-40787166D01*
X57389401Y-40790000D01*
X56433012Y-40790000D01*
X56465925Y-40732993D01*
X56500000Y-40605826D01*
X56500000Y-40474174D01*
X56465925Y-40347007D01*
X56433012Y-40290000D01*
X57330636Y-40290000D01*
X57330635Y-40289999D01*
X57273432Y-40076513D01*
X57273429Y-40076507D01*
X57173600Y-39862422D01*
X57173599Y-39862420D01*
X57038113Y-39668926D01*
X57038108Y-39668920D01*
X56916053Y-39546865D01*
X56882568Y-39485542D01*
X56887552Y-39415850D01*
X56929424Y-39359917D01*
X56960400Y-39343002D01*
X57092331Y-39293796D01*
X57207546Y-39207546D01*
X57293796Y-39092331D01*
X57344091Y-38957483D01*
X57350500Y-38897873D01*
X57350499Y-37550096D01*
X57370184Y-37483058D01*
X57386813Y-37462421D01*
X59212417Y-35636819D01*
X59273740Y-35603334D01*
X59300098Y-35600500D01*
X74159903Y-35600500D01*
X74226942Y-35620185D01*
G37*
%TD.AperFunction*%
%TA.AperFunction,Conductor*%
G36*
X66294075Y-37652993D02*
G01*
X66359901Y-37767007D01*
X66452993Y-37860099D01*
X66567007Y-37925925D01*
X66630590Y-37942962D01*
X65998625Y-38574925D01*
X66075031Y-38628425D01*
X66118655Y-38683002D01*
X66125848Y-38752501D01*
X66094326Y-38814855D01*
X66075029Y-38831576D01*
X65998625Y-38885072D01*
X66630590Y-39517037D01*
X66567007Y-39534075D01*
X66452993Y-39599901D01*
X66359901Y-39692993D01*
X66294075Y-39807007D01*
X66277037Y-39870590D01*
X65640655Y-39234208D01*
X65588806Y-39223788D01*
X65538623Y-39175173D01*
X65528793Y-39153031D01*
X65520697Y-39128599D01*
X65504814Y-39080666D01*
X65412712Y-38931344D01*
X65288656Y-38807288D01*
X65195888Y-38750069D01*
X65139336Y-38715187D01*
X65139331Y-38715185D01*
X65139215Y-38715146D01*
X65130733Y-38712336D01*
X65073290Y-38672564D01*
X65046467Y-38608048D01*
X65058782Y-38539272D01*
X65087767Y-38502517D01*
X65087573Y-38502323D01*
X65089219Y-38500676D01*
X65090040Y-38499636D01*
X65091388Y-38498504D01*
X65091401Y-38498495D01*
X65258495Y-38331401D01*
X65388732Y-38145403D01*
X65443307Y-38101780D01*
X65512805Y-38094586D01*
X65575160Y-38126109D01*
X65591880Y-38145405D01*
X65645073Y-38221373D01*
X66277037Y-37589409D01*
X66294075Y-37652993D01*
G37*
%TD.AperFunction*%
%TA.AperFunction,Conductor*%
G36*
X68834075Y-37652993D02*
G01*
X68899901Y-37767007D01*
X68992993Y-37860099D01*
X69107007Y-37925925D01*
X69170590Y-37942962D01*
X68538625Y-38574925D01*
X68615031Y-38628425D01*
X68658655Y-38683002D01*
X68665848Y-38752501D01*
X68634326Y-38814855D01*
X68615029Y-38831576D01*
X68538625Y-38885072D01*
X69170590Y-39517037D01*
X69107007Y-39534075D01*
X68992993Y-39599901D01*
X68899901Y-39692993D01*
X68834075Y-39807007D01*
X68817037Y-39870590D01*
X68185072Y-39238625D01*
X68185072Y-39238626D01*
X68131574Y-39315030D01*
X68076998Y-39358655D01*
X68007499Y-39365849D01*
X67945144Y-39334326D01*
X67928424Y-39315030D01*
X67874925Y-39238626D01*
X67874925Y-39238625D01*
X67242962Y-39870589D01*
X67225925Y-39807007D01*
X67160099Y-39692993D01*
X67067007Y-39599901D01*
X66952993Y-39534075D01*
X66889410Y-39517037D01*
X67521373Y-38885073D01*
X67444969Y-38831576D01*
X67401344Y-38776999D01*
X67394150Y-38707501D01*
X67425672Y-38645146D01*
X67444968Y-38628425D01*
X67521373Y-38574925D01*
X66889409Y-37942962D01*
X66952993Y-37925925D01*
X67067007Y-37860099D01*
X67160099Y-37767007D01*
X67225925Y-37652993D01*
X67242962Y-37589409D01*
X67874925Y-38221373D01*
X67928425Y-38144968D01*
X67983002Y-38101344D01*
X68052501Y-38094151D01*
X68114855Y-38125673D01*
X68131576Y-38144969D01*
X68185073Y-38221372D01*
X68817037Y-37589409D01*
X68834075Y-37652993D01*
G37*
%TD.AperFunction*%
%TA.AperFunction,Conductor*%
G36*
X71374075Y-37652993D02*
G01*
X71439901Y-37767007D01*
X71532993Y-37860099D01*
X71647007Y-37925925D01*
X71710590Y-37942962D01*
X71078625Y-38574925D01*
X71155031Y-38628425D01*
X71198655Y-38683002D01*
X71205848Y-38752501D01*
X71174326Y-38814855D01*
X71155029Y-38831576D01*
X71078625Y-38885072D01*
X71710590Y-39517037D01*
X71647007Y-39534075D01*
X71532993Y-39599901D01*
X71439901Y-39692993D01*
X71374075Y-39807007D01*
X71357037Y-39870590D01*
X70725072Y-39238625D01*
X70725072Y-39238626D01*
X70671574Y-39315030D01*
X70616998Y-39358655D01*
X70547499Y-39365849D01*
X70485144Y-39334326D01*
X70468424Y-39315030D01*
X70414925Y-39238626D01*
X70414925Y-39238625D01*
X69782962Y-39870589D01*
X69765925Y-39807007D01*
X69700099Y-39692993D01*
X69607007Y-39599901D01*
X69492993Y-39534075D01*
X69429410Y-39517037D01*
X70061373Y-38885073D01*
X69984969Y-38831576D01*
X69941344Y-38776999D01*
X69934150Y-38707501D01*
X69965672Y-38645146D01*
X69984968Y-38628425D01*
X70061373Y-38574925D01*
X69429409Y-37942962D01*
X69492993Y-37925925D01*
X69607007Y-37860099D01*
X69700099Y-37767007D01*
X69765925Y-37652993D01*
X69782962Y-37589410D01*
X70414925Y-38221373D01*
X70468425Y-38144968D01*
X70523002Y-38101344D01*
X70592501Y-38094151D01*
X70654855Y-38125673D01*
X70671576Y-38144969D01*
X70725073Y-38221372D01*
X71357037Y-37589409D01*
X71374075Y-37652993D01*
G37*
%TD.AperFunction*%
%TA.AperFunction,Conductor*%
G36*
X72954925Y-38221373D02*
G01*
X73008119Y-38145405D01*
X73062696Y-38101781D01*
X73132195Y-38094588D01*
X73194549Y-38126110D01*
X73211269Y-38145405D01*
X73341505Y-38331401D01*
X73341506Y-38331402D01*
X73508597Y-38498493D01*
X73508603Y-38498498D01*
X73694158Y-38628425D01*
X73737783Y-38683002D01*
X73744977Y-38752500D01*
X73713454Y-38814855D01*
X73694158Y-38831575D01*
X73508597Y-38961505D01*
X73341505Y-39128597D01*
X73211269Y-39314595D01*
X73156692Y-39358220D01*
X73087194Y-39365414D01*
X73024839Y-39333891D01*
X73008119Y-39314595D01*
X72954925Y-39238626D01*
X72954925Y-39238625D01*
X72322962Y-39870589D01*
X72305925Y-39807007D01*
X72240099Y-39692993D01*
X72147007Y-39599901D01*
X72032993Y-39534075D01*
X71969410Y-39517037D01*
X72601373Y-38885073D01*
X72524969Y-38831576D01*
X72481344Y-38776999D01*
X72474150Y-38707501D01*
X72505672Y-38645146D01*
X72524968Y-38628425D01*
X72601373Y-38574925D01*
X71969409Y-37942962D01*
X72032993Y-37925925D01*
X72147007Y-37860099D01*
X72240099Y-37767007D01*
X72305925Y-37652993D01*
X72322962Y-37589410D01*
X72954925Y-38221373D01*
G37*
%TD.AperFunction*%
%TD*%
M02*
