%TF.GenerationSoftware,KiCad,Pcbnew,8.0.0*%
%TF.CreationDate,2024-03-09T23:20:09+01:00*%
%TF.ProjectId,Pure VCO,50757265-2056-4434-9f2e-6b696361645f,rev?*%
%TF.SameCoordinates,Original*%
%TF.FileFunction,Legend,Bot*%
%TF.FilePolarity,Positive*%
%FSLAX46Y46*%
G04 Gerber Fmt 4.6, Leading zero omitted, Abs format (unit mm)*
G04 Created by KiCad (PCBNEW 8.0.0) date 2024-03-09 23:20:09*
%MOMM*%
%LPD*%
G01*
G04 APERTURE LIST*
%ADD10C,0.300000*%
G04 APERTURE END LIST*
D10*
X96659774Y-101885912D02*
X96159774Y-103385912D01*
X96159774Y-103385912D02*
X95659774Y-101885912D01*
X94588346Y-103314484D02*
X94731203Y-103385912D01*
X94731203Y-103385912D02*
X95016918Y-103385912D01*
X95016918Y-103385912D02*
X95159775Y-103314484D01*
X95159775Y-103314484D02*
X95231203Y-103171626D01*
X95231203Y-103171626D02*
X95231203Y-102600198D01*
X95231203Y-102600198D02*
X95159775Y-102457341D01*
X95159775Y-102457341D02*
X95016918Y-102385912D01*
X95016918Y-102385912D02*
X94731203Y-102385912D01*
X94731203Y-102385912D02*
X94588346Y-102457341D01*
X94588346Y-102457341D02*
X94516918Y-102600198D01*
X94516918Y-102600198D02*
X94516918Y-102743055D01*
X94516918Y-102743055D02*
X95231203Y-102885912D01*
X93874061Y-103385912D02*
X93874061Y-102385912D01*
X93874061Y-102671626D02*
X93802632Y-102528769D01*
X93802632Y-102528769D02*
X93731204Y-102457341D01*
X93731204Y-102457341D02*
X93588346Y-102385912D01*
X93588346Y-102385912D02*
X93445489Y-102385912D01*
X93016918Y-103314484D02*
X92874061Y-103385912D01*
X92874061Y-103385912D02*
X92588347Y-103385912D01*
X92588347Y-103385912D02*
X92445490Y-103314484D01*
X92445490Y-103314484D02*
X92374061Y-103171626D01*
X92374061Y-103171626D02*
X92374061Y-103100198D01*
X92374061Y-103100198D02*
X92445490Y-102957341D01*
X92445490Y-102957341D02*
X92588347Y-102885912D01*
X92588347Y-102885912D02*
X92802633Y-102885912D01*
X92802633Y-102885912D02*
X92945490Y-102814484D01*
X92945490Y-102814484D02*
X93016918Y-102671626D01*
X93016918Y-102671626D02*
X93016918Y-102600198D01*
X93016918Y-102600198D02*
X92945490Y-102457341D01*
X92945490Y-102457341D02*
X92802633Y-102385912D01*
X92802633Y-102385912D02*
X92588347Y-102385912D01*
X92588347Y-102385912D02*
X92445490Y-102457341D01*
X91731204Y-103385912D02*
X91731204Y-102385912D01*
X91731204Y-101885912D02*
X91802632Y-101957341D01*
X91802632Y-101957341D02*
X91731204Y-102028769D01*
X91731204Y-102028769D02*
X91659775Y-101957341D01*
X91659775Y-101957341D02*
X91731204Y-101885912D01*
X91731204Y-101885912D02*
X91731204Y-102028769D01*
X90802632Y-103385912D02*
X90945489Y-103314484D01*
X90945489Y-103314484D02*
X91016918Y-103243055D01*
X91016918Y-103243055D02*
X91088346Y-103100198D01*
X91088346Y-103100198D02*
X91088346Y-102671626D01*
X91088346Y-102671626D02*
X91016918Y-102528769D01*
X91016918Y-102528769D02*
X90945489Y-102457341D01*
X90945489Y-102457341D02*
X90802632Y-102385912D01*
X90802632Y-102385912D02*
X90588346Y-102385912D01*
X90588346Y-102385912D02*
X90445489Y-102457341D01*
X90445489Y-102457341D02*
X90374061Y-102528769D01*
X90374061Y-102528769D02*
X90302632Y-102671626D01*
X90302632Y-102671626D02*
X90302632Y-103100198D01*
X90302632Y-103100198D02*
X90374061Y-103243055D01*
X90374061Y-103243055D02*
X90445489Y-103314484D01*
X90445489Y-103314484D02*
X90588346Y-103385912D01*
X90588346Y-103385912D02*
X90802632Y-103385912D01*
X89659775Y-102385912D02*
X89659775Y-103385912D01*
X89659775Y-102528769D02*
X89588346Y-102457341D01*
X89588346Y-102457341D02*
X89445489Y-102385912D01*
X89445489Y-102385912D02*
X89231203Y-102385912D01*
X89231203Y-102385912D02*
X89088346Y-102457341D01*
X89088346Y-102457341D02*
X89016918Y-102600198D01*
X89016918Y-102600198D02*
X89016918Y-103385912D01*
X86374060Y-103385912D02*
X87231203Y-103385912D01*
X86802632Y-103385912D02*
X86802632Y-101885912D01*
X86802632Y-101885912D02*
X86945489Y-102100198D01*
X86945489Y-102100198D02*
X87088346Y-102243055D01*
X87088346Y-102243055D02*
X87231203Y-102314484D01*
X96445489Y-105800828D02*
X96445489Y-104300828D01*
X96445489Y-104300828D02*
X95945489Y-105372257D01*
X95945489Y-105372257D02*
X95445489Y-104300828D01*
X95445489Y-104300828D02*
X95445489Y-105800828D01*
X94088346Y-105800828D02*
X94088346Y-105015114D01*
X94088346Y-105015114D02*
X94159774Y-104872257D01*
X94159774Y-104872257D02*
X94302631Y-104800828D01*
X94302631Y-104800828D02*
X94588346Y-104800828D01*
X94588346Y-104800828D02*
X94731203Y-104872257D01*
X94088346Y-105729400D02*
X94231203Y-105800828D01*
X94231203Y-105800828D02*
X94588346Y-105800828D01*
X94588346Y-105800828D02*
X94731203Y-105729400D01*
X94731203Y-105729400D02*
X94802631Y-105586542D01*
X94802631Y-105586542D02*
X94802631Y-105443685D01*
X94802631Y-105443685D02*
X94731203Y-105300828D01*
X94731203Y-105300828D02*
X94588346Y-105229400D01*
X94588346Y-105229400D02*
X94231203Y-105229400D01*
X94231203Y-105229400D02*
X94088346Y-105157971D01*
X93374060Y-105800828D02*
X93374060Y-104800828D01*
X93374060Y-105086542D02*
X93302631Y-104943685D01*
X93302631Y-104943685D02*
X93231203Y-104872257D01*
X93231203Y-104872257D02*
X93088345Y-104800828D01*
X93088345Y-104800828D02*
X92945488Y-104800828D01*
X91802632Y-105729400D02*
X91945489Y-105800828D01*
X91945489Y-105800828D02*
X92231203Y-105800828D01*
X92231203Y-105800828D02*
X92374060Y-105729400D01*
X92374060Y-105729400D02*
X92445489Y-105657971D01*
X92445489Y-105657971D02*
X92516917Y-105515114D01*
X92516917Y-105515114D02*
X92516917Y-105086542D01*
X92516917Y-105086542D02*
X92445489Y-104943685D01*
X92445489Y-104943685D02*
X92374060Y-104872257D01*
X92374060Y-104872257D02*
X92231203Y-104800828D01*
X92231203Y-104800828D02*
X91945489Y-104800828D01*
X91945489Y-104800828D02*
X91802632Y-104872257D01*
X91159775Y-105800828D02*
X91159775Y-104300828D01*
X90516918Y-105800828D02*
X90516918Y-105015114D01*
X90516918Y-105015114D02*
X90588346Y-104872257D01*
X90588346Y-104872257D02*
X90731203Y-104800828D01*
X90731203Y-104800828D02*
X90945489Y-104800828D01*
X90945489Y-104800828D02*
X91088346Y-104872257D01*
X91088346Y-104872257D02*
X91159775Y-104943685D01*
X88445489Y-104943685D02*
X88588346Y-104872257D01*
X88588346Y-104872257D02*
X88659775Y-104800828D01*
X88659775Y-104800828D02*
X88731203Y-104657971D01*
X88731203Y-104657971D02*
X88731203Y-104586542D01*
X88731203Y-104586542D02*
X88659775Y-104443685D01*
X88659775Y-104443685D02*
X88588346Y-104372257D01*
X88588346Y-104372257D02*
X88445489Y-104300828D01*
X88445489Y-104300828D02*
X88159775Y-104300828D01*
X88159775Y-104300828D02*
X88016918Y-104372257D01*
X88016918Y-104372257D02*
X87945489Y-104443685D01*
X87945489Y-104443685D02*
X87874060Y-104586542D01*
X87874060Y-104586542D02*
X87874060Y-104657971D01*
X87874060Y-104657971D02*
X87945489Y-104800828D01*
X87945489Y-104800828D02*
X88016918Y-104872257D01*
X88016918Y-104872257D02*
X88159775Y-104943685D01*
X88159775Y-104943685D02*
X88445489Y-104943685D01*
X88445489Y-104943685D02*
X88588346Y-105015114D01*
X88588346Y-105015114D02*
X88659775Y-105086542D01*
X88659775Y-105086542D02*
X88731203Y-105229400D01*
X88731203Y-105229400D02*
X88731203Y-105515114D01*
X88731203Y-105515114D02*
X88659775Y-105657971D01*
X88659775Y-105657971D02*
X88588346Y-105729400D01*
X88588346Y-105729400D02*
X88445489Y-105800828D01*
X88445489Y-105800828D02*
X88159775Y-105800828D01*
X88159775Y-105800828D02*
X88016918Y-105729400D01*
X88016918Y-105729400D02*
X87945489Y-105657971D01*
X87945489Y-105657971D02*
X87874060Y-105515114D01*
X87874060Y-105515114D02*
X87874060Y-105229400D01*
X87874060Y-105229400D02*
X87945489Y-105086542D01*
X87945489Y-105086542D02*
X88016918Y-105015114D01*
X88016918Y-105015114D02*
X88159775Y-104943685D01*
X87445489Y-104800828D02*
X86874061Y-104800828D01*
X87231204Y-104300828D02*
X87231204Y-105586542D01*
X87231204Y-105586542D02*
X87159775Y-105729400D01*
X87159775Y-105729400D02*
X87016918Y-105800828D01*
X87016918Y-105800828D02*
X86874061Y-105800828D01*
X86374061Y-105800828D02*
X86374061Y-104300828D01*
X85731204Y-105800828D02*
X85731204Y-105015114D01*
X85731204Y-105015114D02*
X85802632Y-104872257D01*
X85802632Y-104872257D02*
X85945489Y-104800828D01*
X85945489Y-104800828D02*
X86159775Y-104800828D01*
X86159775Y-104800828D02*
X86302632Y-104872257D01*
X86302632Y-104872257D02*
X86374061Y-104943685D01*
X83945489Y-104443685D02*
X83874061Y-104372257D01*
X83874061Y-104372257D02*
X83731204Y-104300828D01*
X83731204Y-104300828D02*
X83374061Y-104300828D01*
X83374061Y-104300828D02*
X83231204Y-104372257D01*
X83231204Y-104372257D02*
X83159775Y-104443685D01*
X83159775Y-104443685D02*
X83088346Y-104586542D01*
X83088346Y-104586542D02*
X83088346Y-104729400D01*
X83088346Y-104729400D02*
X83159775Y-104943685D01*
X83159775Y-104943685D02*
X84016918Y-105800828D01*
X84016918Y-105800828D02*
X83088346Y-105800828D01*
X82159775Y-104300828D02*
X82016918Y-104300828D01*
X82016918Y-104300828D02*
X81874061Y-104372257D01*
X81874061Y-104372257D02*
X81802633Y-104443685D01*
X81802633Y-104443685D02*
X81731204Y-104586542D01*
X81731204Y-104586542D02*
X81659775Y-104872257D01*
X81659775Y-104872257D02*
X81659775Y-105229400D01*
X81659775Y-105229400D02*
X81731204Y-105515114D01*
X81731204Y-105515114D02*
X81802633Y-105657971D01*
X81802633Y-105657971D02*
X81874061Y-105729400D01*
X81874061Y-105729400D02*
X82016918Y-105800828D01*
X82016918Y-105800828D02*
X82159775Y-105800828D01*
X82159775Y-105800828D02*
X82302633Y-105729400D01*
X82302633Y-105729400D02*
X82374061Y-105657971D01*
X82374061Y-105657971D02*
X82445490Y-105515114D01*
X82445490Y-105515114D02*
X82516918Y-105229400D01*
X82516918Y-105229400D02*
X82516918Y-104872257D01*
X82516918Y-104872257D02*
X82445490Y-104586542D01*
X82445490Y-104586542D02*
X82374061Y-104443685D01*
X82374061Y-104443685D02*
X82302633Y-104372257D01*
X82302633Y-104372257D02*
X82159775Y-104300828D01*
X81088347Y-104443685D02*
X81016919Y-104372257D01*
X81016919Y-104372257D02*
X80874062Y-104300828D01*
X80874062Y-104300828D02*
X80516919Y-104300828D01*
X80516919Y-104300828D02*
X80374062Y-104372257D01*
X80374062Y-104372257D02*
X80302633Y-104443685D01*
X80302633Y-104443685D02*
X80231204Y-104586542D01*
X80231204Y-104586542D02*
X80231204Y-104729400D01*
X80231204Y-104729400D02*
X80302633Y-104943685D01*
X80302633Y-104943685D02*
X81159776Y-105800828D01*
X81159776Y-105800828D02*
X80231204Y-105800828D01*
X78945491Y-104800828D02*
X78945491Y-105800828D01*
X79302633Y-104229400D02*
X79659776Y-105300828D01*
X79659776Y-105300828D02*
X78731205Y-105300828D01*
M02*
